<?xml version="1.0" encoding="utf-8" standalone="no"?>
<!DOCTYPE svg PUBLIC "-//W3C//DTD SVG 1.1//EN"
  "http://www.w3.org/Graphics/SVG/1.1/DTD/svg11.dtd">
<svg xmlns:xlink="http://www.w3.org/1999/xlink" width="209.16378pt" height="130.974818pt" viewBox="0 0 209.16378 130.974818" xmlns="http://www.w3.org/2000/svg" version="1.1">
 <metadata>
  <rdf:RDF xmlns:dc="http://purl.org/dc/elements/1.1/" xmlns:cc="http://creativecommons.org/ns#" xmlns:rdf="http://www.w3.org/1999/02/22-rdf-syntax-ns#">
   <cc:Work>
    <dc:type rdf:resource="http://purl.org/dc/dcmitype/StillImage"/>
    <dc:date>2026-03-04T16:43:59.226662</dc:date>
    <dc:format>image/svg+xml</dc:format>
    <dc:creator>
     <cc:Agent>
      <dc:title>Matplotlib v3.10.8, https://matplotlib.org/</dc:title>
     </cc:Agent>
    </dc:creator>
   </cc:Work>
  </rdf:RDF>
 </metadata>
 <defs>
  <style type="text/css">*{stroke-linejoin: round; stroke-linecap: butt}</style>
 </defs>
 <g id="figure_1">
  <g id="patch_1">
   <path d="M 0 130.974818 
L 209.16378 130.974818 
L 209.16378 0 
L 0 0 
z
" style="fill: #ffffff"/>
  </g>
  <g id="axes_1">
   <g id="patch_2">
    <path d="M 37.2 99.281693 
L 201.96378 99.281693 
L 201.96378 7.2 
L 37.2 7.2 
z
" style="fill: #ffffff"/>
   </g>
   <g id="matplotlib.axis_1">
    <g id="xtick_1">
     <g id="line2d_1">
      <defs>
       <path id="mad9cdd3c7f" d="M 0 0 
L 0 -4 
" style="stroke: #000000"/>
      </defs>
      <g>
       <use xlink:href="#mad9cdd3c7f" x="44.614295" y="99.281693" style="stroke: #000000"/>
      </g>
     </g>
     <g id="line2d_2">
      <defs>
       <path id="m7ab4bf489c" d="M 0 0 
L 0 4 
" style="stroke: #000000"/>
      </defs>
      <g>
       <use xlink:href="#m7ab4bf489c" x="44.614295" y="7.2" style="stroke: #000000"/>
      </g>
     </g>
     <g id="text_1">
      <text style="font-size: 9px; font-family: 'NewComputerModern'; text-anchor: middle" x="44.614295" y="109.028255" transform="rotate(-0 44.614295 109.028255)">−10</text>
     </g>
    </g>
    <g id="xtick_2">
     <g id="line2d_3">
      <g>
       <use xlink:href="#mad9cdd3c7f" x="82.098092" y="99.281693" style="stroke: #000000"/>
      </g>
     </g>
     <g id="line2d_4">
      <g>
       <use xlink:href="#m7ab4bf489c" x="82.098092" y="7.2" style="stroke: #000000"/>
      </g>
     </g>
     <g id="text_2">
      <text style="font-size: 9px; font-family: 'NewComputerModern'; text-anchor: middle" x="82.098092" y="109.028255" transform="rotate(-0 82.098092 109.028255)">−5</text>
     </g>
    </g>
    <g id="xtick_3">
     <g id="line2d_5">
      <g>
       <use xlink:href="#mad9cdd3c7f" x="119.58189" y="99.281693" style="stroke: #000000"/>
      </g>
     </g>
     <g id="line2d_6">
      <g>
       <use xlink:href="#m7ab4bf489c" x="119.58189" y="7.2" style="stroke: #000000"/>
      </g>
     </g>
     <g id="text_3">
      <text style="font-size: 9px; font-family: 'NewComputerModern'; text-anchor: middle" x="119.58189" y="109.028255" transform="rotate(-0 119.58189 109.028255)">0</text>
     </g>
    </g>
    <g id="xtick_4">
     <g id="line2d_7">
      <g>
       <use xlink:href="#mad9cdd3c7f" x="157.065687" y="99.281693" style="stroke: #000000"/>
      </g>
     </g>
     <g id="line2d_8">
      <g>
       <use xlink:href="#m7ab4bf489c" x="157.065687" y="7.2" style="stroke: #000000"/>
      </g>
     </g>
     <g id="text_4">
      <text style="font-size: 9px; font-family: 'NewComputerModern'; text-anchor: middle" x="157.065687" y="109.028255" transform="rotate(-0 157.065687 109.028255)">5</text>
     </g>
    </g>
    <g id="xtick_5">
     <g id="line2d_9">
      <g>
       <use xlink:href="#mad9cdd3c7f" x="194.549484" y="99.281693" style="stroke: #000000"/>
      </g>
     </g>
     <g id="line2d_10">
      <g>
       <use xlink:href="#m7ab4bf489c" x="194.549484" y="7.2" style="stroke: #000000"/>
      </g>
     </g>
     <g id="text_5">
      <text style="font-size: 9px; font-family: 'NewComputerModern'; text-anchor: middle" x="194.549484" y="109.028255" transform="rotate(-0 194.549484 109.028255)">10</text>
     </g>
    </g>
    <g id="text_6">
     <text style="font-size: 9px; font-family: 'NewComputerModern'; text-anchor: middle" x="119.58189" y="121.524818" transform="rotate(-0 119.58189 121.524818)">x (cm)</text>
    </g>
   </g>
   <g id="matplotlib.axis_2">
    <g id="ytick_1">
     <g id="line2d_11">
      <defs>
       <path id="m318a94bd16" d="M 0 0 
L 4 0 
" style="stroke: #000000"/>
      </defs>
      <g>
       <use xlink:href="#m318a94bd16" x="37.2" y="95.523213" style="stroke: #000000"/>
      </g>
     </g>
     <g id="line2d_12">
      <defs>
       <path id="m291f3eae15" d="M 0 0 
L -4 0 
" style="stroke: #000000"/>
      </defs>
      <g>
       <use xlink:href="#m291f3eae15" x="201.96378" y="95.523213" style="stroke: #000000"/>
      </g>
     </g>
     <g id="text_7">
      <text style="font-size: 9px; font-family: 'NewComputerModern'; text-anchor: end" x="33.7" y="98.646495" transform="rotate(-0 33.7 98.646495)">0</text>
     </g>
    </g>
    <g id="ytick_2">
     <g id="line2d_13">
      <g>
       <use xlink:href="#m318a94bd16" x="37.2" y="69.566225" style="stroke: #000000"/>
      </g>
     </g>
     <g id="line2d_14">
      <g>
       <use xlink:href="#m291f3eae15" x="201.96378" y="69.566225" style="stroke: #000000"/>
      </g>
     </g>
     <g id="text_8">
      <text style="font-size: 9px; font-family: 'NewComputerModern'; text-anchor: end" x="33.7" y="72.689506" transform="rotate(-0 33.7 72.689506)">200</text>
     </g>
    </g>
    <g id="ytick_3">
     <g id="line2d_15">
      <g>
       <use xlink:href="#m318a94bd16" x="37.2" y="43.609236" style="stroke: #000000"/>
      </g>
     </g>
     <g id="line2d_16">
      <g>
       <use xlink:href="#m291f3eae15" x="201.96378" y="43.609236" style="stroke: #000000"/>
      </g>
     </g>
     <g id="text_9">
      <text style="font-size: 9px; font-family: 'NewComputerModern'; text-anchor: end" x="33.7" y="46.732518" transform="rotate(-0 33.7 46.732518)">400</text>
     </g>
    </g>
    <g id="ytick_4">
     <g id="line2d_17">
      <g>
       <use xlink:href="#m318a94bd16" x="37.2" y="17.652248" style="stroke: #000000"/>
      </g>
     </g>
     <g id="line2d_18">
      <g>
       <use xlink:href="#m291f3eae15" x="201.96378" y="17.652248" style="stroke: #000000"/>
      </g>
     </g>
     <g id="text_10">
      <text style="font-size: 9px; font-family: 'NewComputerModern'; text-anchor: end" x="33.7" y="20.775529" transform="rotate(-0 33.7 20.775529)">600</text>
     </g>
    </g>
    <g id="text_11">
     <text style="font-size: 9px; font-family: 'NewComputerModern'; text-anchor: middle" x="13.95" y="53.240846" transform="rotate(-90 13.95 53.240846)">B (mT)</text>
    </g>
   </g>
   <g id="line2d_19">
    <path d="M 44.689263 95.086971 
L 55.619538 94.35981 
L 56.226776 94.247234 
L 58.048488 93.353782 
L 59.060551 93.022228 
L 59.465376 92.955857 
L 61.287088 91.32455 
L 63.311213 89.143591 
L 64.323276 87.788555 
L 64.728101 87.108223 
L 65.942576 83.635416 
L 66.752226 79.90175 
L 67.157051 77.031825 
L 67.764288 68.793368 
L 67.966701 65.047815 
L 68.776351 34.0737 
L 69.181176 16.521493 
L 69.383588 15.513947 
L 69.586001 15.127305 
L 69.990826 15.231461 
L 70.395651 15.20891 
L 70.598063 15.292187 
L 71.002888 15.185509 
L 71.407713 15.203487 
L 71.812538 15.155116 
L 72.014951 15.305429 
L 73.027013 15.205009 
L 73.229426 15.285166 
L 73.634251 15.212878 
L 74.039076 15.381925 
L 74.443901 15.10763 
L 75.051139 15.129084 
L 75.253551 15.098002 
L 75.658376 15.152408 
L 77.277676 15.104578 
L 77.480089 15.208861 
L 78.289739 15.119568 
L 78.694564 15.238522 
L 79.504214 15.120603 
L 79.909039 15.065745 
L 89.827251 15.091312 
L 90.232076 15.033466 
L 91.041726 15.157207 
L 91.446551 15.067409 
L 92.053789 15.023465 
L 93.268264 15.108839 
L 93.673089 15.078924 
L 95.292389 15.050329 
L 95.697214 15.035627 
L 95.899627 15.149509 
L 96.506864 14.980245 
L 96.709277 15.087593 
L 97.114102 15.025072 
L 97.721339 15.039577 
L 98.733402 14.993867 
L 99.543052 15.029887 
L 104.198539 15.046367 
L 104.400952 14.916177 
L 104.805777 15.114206 
L 105.210602 15.061351 
L 108.854027 15.022415 
L 110.67574 15.030768 
L 111.080565 15.008183 
L 111.282977 14.951579 
L 111.890215 15.214727 
L 112.092627 15.049058 
L 113.509515 15.013607 
L 114.116752 15.008402 
L 114.521577 14.974606 
L 115.128815 15.032974 
L 115.736052 15.019467 
L 116.34329 15.113281 
L 116.748115 15.08822 
L 117.355352 14.989085 
L 117.557765 15.18953 
L 117.96259 15.014056 
L 118.367415 15.079222 
L 119.986715 14.979933 
L 120.189127 15.064143 
L 120.39154 14.963566 
L 120.998777 15.012154 
L 121.403602 15.019076 
L 121.808427 15.061854 
L 122.213252 15.084178 
L 122.82049 15.025908 
L 123.427727 15.045865 
L 124.034965 15.009632 
L 124.237377 15.048146 
L 124.642202 15.008091 
L 125.451852 15.054225 
L 126.05909 15.056385 
L 126.261502 15.036434 
L 126.463915 15.157795 
L 126.86874 15.049128 
L 127.071152 15.165298 
L 127.67839 15.119873 
L 127.880802 15.300235 
L 128.48804 15.065058 
L 128.892865 15.016061 
L 129.095278 15.173611 
L 129.702515 15.029441 
L 131.72664 15.070306 
L 131.929053 15.123001 
L 132.333878 15.025291 
L 132.53629 15.143173 
L 132.941115 14.983941 
L 133.34594 15.085942 
L 135.572478 14.994537 
L 135.77489 15.130617 
L 135.977303 14.985152 
L 136.58454 15.062427 
L 138.20384 15.029853 
L 138.811078 15.038604 
L 140.430378 15.053197 
L 141.037615 15.090027 
L 141.644853 15.127068 
L 141.847265 15.044652 
L 142.25209 15.05728 
L 142.454503 14.818688 
L 142.859328 15.07086 
L 144.276215 15.094035 
L 144.68104 15.166117 
L 144.883453 15.019836 
L 146.097928 15.113569 
L 147.717228 15.127843 
L 148.122053 15.019053 
L 149.336528 15.177738 
L 151.360653 15.032176 
L 151.563066 15.120381 
L 152.170303 15.083704 
L 152.979953 15.08399 
L 153.384778 15.066973 
L 154.194428 15.087601 
L 158.647503 15.115194 
L 159.457153 15.104835 
L 159.861978 15.141027 
L 160.671628 15.131658 
L 161.886103 15.187756 
L 162.695753 15.158395 
L 165.327116 15.17268 
L 169.577779 15.198177 
L 169.780191 15.560236 
L 169.982604 16.791353 
L 170.185016 21.729414 
L 170.792254 51.870374 
L 171.197079 64.952217 
L 171.601904 71.145896 
L 172.209141 76.157208 
L 172.816379 78.998215 
L 173.423616 81.254487 
L 174.030854 82.676122 
L 175.042916 84.325606 
L 177.067041 87.247484 
L 177.471866 87.730922 
L 179.293579 88.725778 
L 182.329766 90.043599 
L 184.758717 90.58067 
L 188.199729 91.279649 
L 192.045567 92.47315 
L 194.474517 93.171059 
L 194.474517 93.171059 
" clip-path="url(#pf54c0b2042)" style="fill: none; stroke: #ff0000; stroke-linecap: square"/>
   </g>
   <g id="line2d_20">
    <path d="M 44.689263 95.096161 
L 51.976113 94.615275 
L 55.821951 94.189757 
L 56.631601 93.980359 
L 59.060551 93.302817 
L 59.465376 93.261421 
L 60.275026 92.569681 
L 62.501563 90.017429 
L 64.525688 87.78594 
L 64.930513 86.94084 
L 65.942576 84.191328 
L 66.752226 80.725354 
L 67.157051 78.078246 
L 67.764288 70.321548 
L 67.966701 66.781138 
L 68.776351 37.821999 
L 69.181176 21.436913 
L 69.383588 20.545495 
L 69.586001 20.301807 
L 70.193238 20.441025 
L 70.800476 20.229371 
L 71.002888 20.248669 
L 71.812538 19.879579 
L 72.014951 19.944294 
L 72.622188 19.733859 
L 74.646314 19.128868 
L 76.265614 18.746244 
L 78.289739 18.340846 
L 79.099389 18.26873 
L 79.909039 18.094039 
L 85.576589 17.373968 
L 85.779001 17.569203 
L 86.183826 17.438735 
L 86.386239 17.478008 
L 86.588651 17.398801 
L 86.791064 17.442152 
L 86.993476 17.361241 
L 87.195889 17.459492 
L 87.600714 17.392834 
L 87.803126 17.477786 
L 88.005539 17.266508 
L 88.410364 17.341218 
L 89.220014 17.20765 
L 89.624839 17.260266 
L 90.434489 17.204855 
L 91.244139 17.154979 
L 91.851377 17.160054 
L 92.053789 17.199319 
L 92.256202 17.0837 
L 92.458614 17.164411 
L 93.065852 17.043212 
L 93.673089 17.142767 
L 94.077914 17.068648 
L 95.089977 17.135197 
L 95.292389 16.973936 
L 96.304452 16.969951 
L 96.506864 16.841296 
L 96.911689 16.916614 
L 97.923752 16.853946 
L 98.328577 16.876945 
L 99.138227 16.773099 
L 99.543052 16.834337 
L 99.947877 16.883247 
L 100.150289 16.742611 
L 100.757527 16.821963 
L 101.162352 16.762403 
L 106.627489 16.637688 
L 107.234727 16.583355 
L 109.258852 16.530128 
L 109.461264 16.595077 
L 109.663677 16.533521 
L 109.866089 16.660246 
L 110.473327 16.498363 
L 113.10469 16.494932 
L 114.319165 16.453449 
L 114.521577 16.366263 
L 114.926402 16.45576 
L 115.736052 16.461521 
L 116.140877 16.454042 
L 116.748115 16.403008 
L 127.67839 16.216495 
L 127.880802 16.097101 
L 128.285628 16.162657 
L 134.560415 15.714261 
L 134.96524 15.645436 
L 140.430378 15.066225 
L 140.63279 15.162775 
L 141.037615 15.023945 
L 142.049678 15.031377 
L 142.25209 15.034763 
L 142.454503 14.886553 
L 143.264153 15.110782 
L 143.466565 14.955749 
L 144.073803 14.97523 
L 144.883453 14.869735 
L 145.288278 14.904589 
L 145.49069 14.947077 
L 145.693103 14.852255 
L 146.097928 14.945281 
L 147.109991 14.867476 
L 147.919641 14.935918 
L 148.729291 14.857921 
L 149.134116 14.841602 
L 149.336528 14.835323 
L 149.538941 14.944039 
L 150.753416 14.773862 
L 150.955828 14.834644 
L 151.158241 14.734377 
L 151.563066 14.832607 
L 154.801666 14.791725 
L 155.004078 14.846553 
L 155.206491 14.703823 
L 155.611316 14.77213 
L 156.016141 14.657189 
L 156.218553 14.821219 
L 156.825791 14.642007 
L 157.230616 14.704013 
L 159.052328 14.585645 
L 159.254741 14.637145 
L 159.659566 14.52448 
L 160.064391 14.562387 
L 164.112641 14.155931 
L 164.315053 13.999473 
L 164.719879 14.045213 
L 164.922291 13.919796 
L 165.124704 13.943523 
L 165.731941 13.690058 
L 165.934354 13.747803 
L 166.136766 13.562713 
L 166.541591 13.434018 
L 168.363304 12.510398 
L 169.780191 11.385531 
L 169.982604 12.440545 
L 170.185016 17.424475 
L 170.792254 48.795313 
L 171.197079 62.44997 
L 171.601904 68.923435 
L 172.209141 74.148794 
L 172.816379 77.078534 
L 173.423616 79.458568 
L 174.030854 81.019424 
L 174.840504 82.487766 
L 175.650154 83.519418 
L 178.079104 85.739204 
L 179.900816 86.987937 
L 182.329766 88.279156 
L 186.175604 89.836823 
L 188.199729 90.83924 
L 191.235917 92.306062 
L 193.462454 93.167652 
L 194.474517 93.508425 
L 194.474517 93.508425 
" clip-path="url(#pf54c0b2042)" style="fill: none; stroke: #8000ff; stroke-linecap: square"/>
   </g>
   <g id="patch_3">
    <path d="M 37.2 99.281693 
L 37.2 7.2 
" style="fill: none; stroke: #000000; stroke-width: 0.8; stroke-linejoin: miter; stroke-linecap: square"/>
   </g>
   <g id="patch_4">
    <path d="M 201.96378 99.281693 
L 201.96378 7.2 
" style="fill: none; stroke: #000000; stroke-width: 0.8; stroke-linejoin: miter; stroke-linecap: square"/>
   </g>
   <g id="patch_5">
    <path d="M 37.2 99.281693 
L 201.96378 99.281693 
" style="fill: none; stroke: #000000; stroke-width: 0.8; stroke-linejoin: miter; stroke-linecap: square"/>
   </g>
   <g id="patch_6">
    <path d="M 37.2 7.2 
L 201.96378 7.2 
" style="fill: none; stroke: #000000; stroke-width: 0.8; stroke-linejoin: miter; stroke-linecap: square"/>
   </g>
   <g id="legend_1">
    <g id="patch_7">
     <path d="M 69.602202 94.281693 
L 169.561577 94.281693 
Q 171.561577 94.281693 171.561577 92.281693 
L 171.561577 64.341068 
Q 171.561577 62.341068 169.561577 62.341068 
L 69.602202 62.341068 
Q 67.602202 62.341068 67.602202 64.341068 
L 67.602202 92.281693 
Q 67.602202 94.281693 69.602202 94.281693 
z
" style="fill: #ffffff; opacity: 0.8; stroke: #cccccc; stroke-linejoin: miter"/>
    </g>
    <g id="line2d_21">
     <path d="M 71.602202 69.841068 
L 81.602202 69.841068 
L 91.602202 69.841068 
" style="fill: none; stroke: #ff0000; stroke-linecap: square"/>
    </g>
    <g id="text_12">
     <text style="font-size: 10px; font-family: 'NewComputerModern'; text-anchor: start" x="99.602202" y="73.341068" transform="rotate(-0 99.602202 73.341068)">B at v=0</text>
    </g>
    <g id="line2d_22">
     <path d="M 71.602202 84.281693 
L 81.602202 84.281693 
L 91.602202 84.281693 
" style="fill: none; stroke: #8000ff; stroke-linecap: square"/>
    </g>
    <g id="text_13">
     <text style="font-size: 10px; font-family: 'NewComputerModern'; text-anchor: start" x="99.602202" y="87.781693" transform="rotate(-0 99.602202 87.781693)">B at v=100m/s</text>
    </g>
   </g>
  </g>
 </g>
 <defs>
  <clipPath id="pf54c0b2042">
   <rect x="37.2" y="7.2" width="164.76378" height="92.081693"/>
  </clipPath>
 </defs>
</svg>
