<?xml version="1.0" encoding="utf-8" standalone="no"?>
<!DOCTYPE svg PUBLIC "-//W3C//DTD SVG 1.1//EN"
  "http://www.w3.org/Graphics/SVG/1.1/DTD/svg11.dtd">
<svg xmlns:xlink="http://www.w3.org/1999/xlink" width="412.51969pt" height="245.771599pt" viewBox="0 0 412.51969 245.771599" xmlns="http://www.w3.org/2000/svg" version="1.1">
 <metadata>
  <rdf:RDF xmlns:dc="http://purl.org/dc/elements/1.1/" xmlns:cc="http://creativecommons.org/ns#" xmlns:rdf="http://www.w3.org/1999/02/22-rdf-syntax-ns#">
   <cc:Work>
    <dc:type rdf:resource="http://purl.org/dc/dcmitype/StillImage"/>
    <dc:date>2026-01-19T15:15:31.678811</dc:date>
    <dc:format>image/svg+xml</dc:format>
    <dc:creator>
     <cc:Agent>
      <dc:title>Matplotlib v3.10.8, https://matplotlib.org/</dc:title>
     </cc:Agent>
    </dc:creator>
   </cc:Work>
  </rdf:RDF>
 </metadata>
 <defs>
  <style type="text/css">*{stroke-linejoin: round; stroke-linecap: butt}</style>
 </defs>
 <g id="figure_1">
  <g id="patch_1">
   <path d="M 0 245.771599 
L 412.51969 245.771599 
L 412.51969 0 
L 0 0 
z
" style="fill: #ffffff"/>
  </g>
  <g id="axes_1">
   <g id="patch_2">
    <path d="M 42.839375 209.779724 
L 405.31969 209.779724 
L 405.31969 7.2 
L 42.839375 7.2 
z
" style="fill: #ffffff"/>
   </g>
   <g id="matplotlib.axis_1">
    <g id="xtick_1">
     <g id="line2d_1">
      <path d="M 59.315753 209.779724 
L 59.315753 7.2 
" clip-path="url(#p903a659abe)" style="fill: none; stroke: #b0b0b0; stroke-opacity: 0.7; stroke-width: 0.5; stroke-linecap: square"/>
     </g>
     <g id="line2d_2">
      <defs>
       <path id="m9519457d6f" d="M 0 0 
L 0 -4 
" style="stroke: #000000"/>
      </defs>
      <g>
       <use xlink:href="#m9519457d6f" x="59.315753" y="209.779724" style="stroke: #000000"/>
      </g>
     </g>
     <g id="line2d_3">
      <defs>
       <path id="m555d562a70" d="M 0 0 
L 0 4 
" style="stroke: #000000"/>
      </defs>
      <g>
       <use xlink:href="#m555d562a70" x="59.315753" y="7.2" style="stroke: #000000"/>
      </g>
     </g>
     <g id="text_1">
      <!-- 0 -->
      <g transform="translate(55.816378 221.638006) scale(0.11 -0.11)">
       <defs>
        <path id="DejaVuSans-30" d="M 2034 4250 
Q 1547 4250 1301 3770 
Q 1056 3291 1056 2328 
Q 1056 1369 1301 889 
Q 1547 409 2034 409 
Q 2525 409 2770 889 
Q 3016 1369 3016 2328 
Q 3016 3291 2770 3770 
Q 2525 4250 2034 4250 
z
M 2034 4750 
Q 2819 4750 3233 4129 
Q 3647 3509 3647 2328 
Q 3647 1150 3233 529 
Q 2819 -91 2034 -91 
Q 1250 -91 836 529 
Q 422 1150 422 2328 
Q 422 3509 836 4129 
Q 1250 4750 2034 4750 
z
" transform="scale(0.015625)"/>
       </defs>
       <use xlink:href="#DejaVuSans-30"/>
      </g>
     </g>
    </g>
    <g id="xtick_2">
     <g id="line2d_4">
      <path d="M 120.339375 209.779724 
L 120.339375 7.2 
" clip-path="url(#p903a659abe)" style="fill: none; stroke: #b0b0b0; stroke-opacity: 0.7; stroke-width: 0.5; stroke-linecap: square"/>
     </g>
     <g id="line2d_5">
      <g>
       <use xlink:href="#m9519457d6f" x="120.339375" y="209.779724" style="stroke: #000000"/>
      </g>
     </g>
     <g id="line2d_6">
      <g>
       <use xlink:href="#m555d562a70" x="120.339375" y="7.2" style="stroke: #000000"/>
      </g>
     </g>
     <g id="text_2">
      <!-- 50 -->
      <g transform="translate(113.340625 221.638006) scale(0.11 -0.11)">
       <defs>
        <path id="DejaVuSans-35" d="M 691 4666 
L 3169 4666 
L 3169 4134 
L 1269 4134 
L 1269 2991 
Q 1406 3038 1543 3061 
Q 1681 3084 1819 3084 
Q 2600 3084 3056 2656 
Q 3513 2228 3513 1497 
Q 3513 744 3044 326 
Q 2575 -91 1722 -91 
Q 1428 -91 1123 -41 
Q 819 9 494 109 
L 494 744 
Q 775 591 1075 516 
Q 1375 441 1709 441 
Q 2250 441 2565 725 
Q 2881 1009 2881 1497 
Q 2881 1984 2565 2268 
Q 2250 2553 1709 2553 
Q 1456 2553 1204 2497 
Q 953 2441 691 2322 
L 691 4666 
z
" transform="scale(0.015625)"/>
       </defs>
       <use xlink:href="#DejaVuSans-35"/>
       <use xlink:href="#DejaVuSans-30" transform="translate(63.623047 0)"/>
      </g>
     </g>
    </g>
    <g id="xtick_3">
     <g id="line2d_7">
      <path d="M 181.362997 209.779724 
L 181.362997 7.2 
" clip-path="url(#p903a659abe)" style="fill: none; stroke: #b0b0b0; stroke-opacity: 0.7; stroke-width: 0.5; stroke-linecap: square"/>
     </g>
     <g id="line2d_8">
      <g>
       <use xlink:href="#m9519457d6f" x="181.362997" y="209.779724" style="stroke: #000000"/>
      </g>
     </g>
     <g id="line2d_9">
      <g>
       <use xlink:href="#m555d562a70" x="181.362997" y="7.2" style="stroke: #000000"/>
      </g>
     </g>
     <g id="text_3">
      <!-- 100 -->
      <g transform="translate(170.864872 221.638006) scale(0.11 -0.11)">
       <defs>
        <path id="DejaVuSans-31" d="M 794 531 
L 1825 531 
L 1825 4091 
L 703 3866 
L 703 4441 
L 1819 4666 
L 2450 4666 
L 2450 531 
L 3481 531 
L 3481 0 
L 794 0 
L 794 531 
z
" transform="scale(0.015625)"/>
       </defs>
       <use xlink:href="#DejaVuSans-31"/>
       <use xlink:href="#DejaVuSans-30" transform="translate(63.623047 0)"/>
       <use xlink:href="#DejaVuSans-30" transform="translate(127.246094 0)"/>
      </g>
     </g>
    </g>
    <g id="xtick_4">
     <g id="line2d_10">
      <path d="M 242.386619 209.779724 
L 242.386619 7.2 
" clip-path="url(#p903a659abe)" style="fill: none; stroke: #b0b0b0; stroke-opacity: 0.7; stroke-width: 0.5; stroke-linecap: square"/>
     </g>
     <g id="line2d_11">
      <g>
       <use xlink:href="#m9519457d6f" x="242.386619" y="209.779724" style="stroke: #000000"/>
      </g>
     </g>
     <g id="line2d_12">
      <g>
       <use xlink:href="#m555d562a70" x="242.386619" y="7.2" style="stroke: #000000"/>
      </g>
     </g>
     <g id="text_4">
      <!-- 150 -->
      <g transform="translate(231.888494 221.638006) scale(0.11 -0.11)">
       <use xlink:href="#DejaVuSans-31"/>
       <use xlink:href="#DejaVuSans-35" transform="translate(63.623047 0)"/>
       <use xlink:href="#DejaVuSans-30" transform="translate(127.246094 0)"/>
      </g>
     </g>
    </g>
    <g id="xtick_5">
     <g id="line2d_13">
      <path d="M 303.410241 209.779724 
L 303.410241 7.2 
" clip-path="url(#p903a659abe)" style="fill: none; stroke: #b0b0b0; stroke-opacity: 0.7; stroke-width: 0.5; stroke-linecap: square"/>
     </g>
     <g id="line2d_14">
      <g>
       <use xlink:href="#m9519457d6f" x="303.410241" y="209.779724" style="stroke: #000000"/>
      </g>
     </g>
     <g id="line2d_15">
      <g>
       <use xlink:href="#m555d562a70" x="303.410241" y="7.2" style="stroke: #000000"/>
      </g>
     </g>
     <g id="text_5">
      <!-- 200 -->
      <g transform="translate(292.912116 221.638006) scale(0.11 -0.11)">
       <defs>
        <path id="DejaVuSans-32" d="M 1228 531 
L 3431 531 
L 3431 0 
L 469 0 
L 469 531 
Q 828 903 1448 1529 
Q 2069 2156 2228 2338 
Q 2531 2678 2651 2914 
Q 2772 3150 2772 3378 
Q 2772 3750 2511 3984 
Q 2250 4219 1831 4219 
Q 1534 4219 1204 4116 
Q 875 4013 500 3803 
L 500 4441 
Q 881 4594 1212 4672 
Q 1544 4750 1819 4750 
Q 2544 4750 2975 4387 
Q 3406 4025 3406 3419 
Q 3406 3131 3298 2873 
Q 3191 2616 2906 2266 
Q 2828 2175 2409 1742 
Q 1991 1309 1228 531 
z
" transform="scale(0.015625)"/>
       </defs>
       <use xlink:href="#DejaVuSans-32"/>
       <use xlink:href="#DejaVuSans-30" transform="translate(63.623047 0)"/>
       <use xlink:href="#DejaVuSans-30" transform="translate(127.246094 0)"/>
      </g>
     </g>
    </g>
    <g id="xtick_6">
     <g id="line2d_16">
      <path d="M 364.433863 209.779724 
L 364.433863 7.2 
" clip-path="url(#p903a659abe)" style="fill: none; stroke: #b0b0b0; stroke-opacity: 0.7; stroke-width: 0.5; stroke-linecap: square"/>
     </g>
     <g id="line2d_17">
      <g>
       <use xlink:href="#m9519457d6f" x="364.433863" y="209.779724" style="stroke: #000000"/>
      </g>
     </g>
     <g id="line2d_18">
      <g>
       <use xlink:href="#m555d562a70" x="364.433863" y="7.2" style="stroke: #000000"/>
      </g>
     </g>
     <g id="text_6">
      <!-- 250 -->
      <g transform="translate(353.935738 221.638006) scale(0.11 -0.11)">
       <use xlink:href="#DejaVuSans-32"/>
       <use xlink:href="#DejaVuSans-35" transform="translate(63.623047 0)"/>
       <use xlink:href="#DejaVuSans-30" transform="translate(127.246094 0)"/>
      </g>
     </g>
    </g>
    <g id="xtick_7">
     <g id="line2d_19">
      <path d="M 47.111029 209.779724 
L 47.111029 7.2 
" clip-path="url(#p903a659abe)" style="fill: none; stroke-dasharray: 0.3,0.495; stroke-dashoffset: 0; stroke: #b0b0b0; stroke-opacity: 0.9; stroke-width: 0.3"/>
     </g>
     <g id="line2d_20">
      <g>
       <use xlink:href="#m9519457d6f" x="47.111029" y="209.779724" style="stroke: #000000"/>
      </g>
     </g>
     <g id="line2d_21">
      <g>
       <use xlink:href="#m555d562a70" x="47.111029" y="7.2" style="stroke: #000000"/>
      </g>
     </g>
    </g>
    <g id="xtick_8">
     <g id="line2d_22">
      <path d="M 71.520477 209.779724 
L 71.520477 7.2 
" clip-path="url(#p903a659abe)" style="fill: none; stroke-dasharray: 0.3,0.495; stroke-dashoffset: 0; stroke: #b0b0b0; stroke-opacity: 0.9; stroke-width: 0.3"/>
     </g>
     <g id="line2d_23">
      <g>
       <use xlink:href="#m9519457d6f" x="71.520477" y="209.779724" style="stroke: #000000"/>
      </g>
     </g>
     <g id="line2d_24">
      <g>
       <use xlink:href="#m555d562a70" x="71.520477" y="7.2" style="stroke: #000000"/>
      </g>
     </g>
    </g>
    <g id="xtick_9">
     <g id="line2d_25">
      <path d="M 83.725202 209.779724 
L 83.725202 7.2 
" clip-path="url(#p903a659abe)" style="fill: none; stroke-dasharray: 0.3,0.495; stroke-dashoffset: 0; stroke: #b0b0b0; stroke-opacity: 0.9; stroke-width: 0.3"/>
     </g>
     <g id="line2d_26">
      <g>
       <use xlink:href="#m9519457d6f" x="83.725202" y="209.779724" style="stroke: #000000"/>
      </g>
     </g>
     <g id="line2d_27">
      <g>
       <use xlink:href="#m555d562a70" x="83.725202" y="7.2" style="stroke: #000000"/>
      </g>
     </g>
    </g>
    <g id="xtick_10">
     <g id="line2d_28">
      <path d="M 95.929926 209.779724 
L 95.929926 7.2 
" clip-path="url(#p903a659abe)" style="fill: none; stroke-dasharray: 0.3,0.495; stroke-dashoffset: 0; stroke: #b0b0b0; stroke-opacity: 0.9; stroke-width: 0.3"/>
     </g>
     <g id="line2d_29">
      <g>
       <use xlink:href="#m9519457d6f" x="95.929926" y="209.779724" style="stroke: #000000"/>
      </g>
     </g>
     <g id="line2d_30">
      <g>
       <use xlink:href="#m555d562a70" x="95.929926" y="7.2" style="stroke: #000000"/>
      </g>
     </g>
    </g>
    <g id="xtick_11">
     <g id="line2d_31">
      <path d="M 108.134651 209.779724 
L 108.134651 7.2 
" clip-path="url(#p903a659abe)" style="fill: none; stroke-dasharray: 0.3,0.495; stroke-dashoffset: 0; stroke: #b0b0b0; stroke-opacity: 0.9; stroke-width: 0.3"/>
     </g>
     <g id="line2d_32">
      <g>
       <use xlink:href="#m9519457d6f" x="108.134651" y="209.779724" style="stroke: #000000"/>
      </g>
     </g>
     <g id="line2d_33">
      <g>
       <use xlink:href="#m555d562a70" x="108.134651" y="7.2" style="stroke: #000000"/>
      </g>
     </g>
    </g>
    <g id="xtick_12">
     <g id="line2d_34">
      <path d="M 132.544099 209.779724 
L 132.544099 7.2 
" clip-path="url(#p903a659abe)" style="fill: none; stroke-dasharray: 0.3,0.495; stroke-dashoffset: 0; stroke: #b0b0b0; stroke-opacity: 0.9; stroke-width: 0.3"/>
     </g>
     <g id="line2d_35">
      <g>
       <use xlink:href="#m9519457d6f" x="132.544099" y="209.779724" style="stroke: #000000"/>
      </g>
     </g>
     <g id="line2d_36">
      <g>
       <use xlink:href="#m555d562a70" x="132.544099" y="7.2" style="stroke: #000000"/>
      </g>
     </g>
    </g>
    <g id="xtick_13">
     <g id="line2d_37">
      <path d="M 144.748824 209.779724 
L 144.748824 7.2 
" clip-path="url(#p903a659abe)" style="fill: none; stroke-dasharray: 0.3,0.495; stroke-dashoffset: 0; stroke: #b0b0b0; stroke-opacity: 0.9; stroke-width: 0.3"/>
     </g>
     <g id="line2d_38">
      <g>
       <use xlink:href="#m9519457d6f" x="144.748824" y="209.779724" style="stroke: #000000"/>
      </g>
     </g>
     <g id="line2d_39">
      <g>
       <use xlink:href="#m555d562a70" x="144.748824" y="7.2" style="stroke: #000000"/>
      </g>
     </g>
    </g>
    <g id="xtick_14">
     <g id="line2d_40">
      <path d="M 156.953548 209.779724 
L 156.953548 7.2 
" clip-path="url(#p903a659abe)" style="fill: none; stroke-dasharray: 0.3,0.495; stroke-dashoffset: 0; stroke: #b0b0b0; stroke-opacity: 0.9; stroke-width: 0.3"/>
     </g>
     <g id="line2d_41">
      <g>
       <use xlink:href="#m9519457d6f" x="156.953548" y="209.779724" style="stroke: #000000"/>
      </g>
     </g>
     <g id="line2d_42">
      <g>
       <use xlink:href="#m555d562a70" x="156.953548" y="7.2" style="stroke: #000000"/>
      </g>
     </g>
    </g>
    <g id="xtick_15">
     <g id="line2d_43">
      <path d="M 169.158273 209.779724 
L 169.158273 7.2 
" clip-path="url(#p903a659abe)" style="fill: none; stroke-dasharray: 0.3,0.495; stroke-dashoffset: 0; stroke: #b0b0b0; stroke-opacity: 0.9; stroke-width: 0.3"/>
     </g>
     <g id="line2d_44">
      <g>
       <use xlink:href="#m9519457d6f" x="169.158273" y="209.779724" style="stroke: #000000"/>
      </g>
     </g>
     <g id="line2d_45">
      <g>
       <use xlink:href="#m555d562a70" x="169.158273" y="7.2" style="stroke: #000000"/>
      </g>
     </g>
    </g>
    <g id="xtick_16">
     <g id="line2d_46">
      <path d="M 193.567721 209.779724 
L 193.567721 7.2 
" clip-path="url(#p903a659abe)" style="fill: none; stroke-dasharray: 0.3,0.495; stroke-dashoffset: 0; stroke: #b0b0b0; stroke-opacity: 0.9; stroke-width: 0.3"/>
     </g>
     <g id="line2d_47">
      <g>
       <use xlink:href="#m9519457d6f" x="193.567721" y="209.779724" style="stroke: #000000"/>
      </g>
     </g>
     <g id="line2d_48">
      <g>
       <use xlink:href="#m555d562a70" x="193.567721" y="7.2" style="stroke: #000000"/>
      </g>
     </g>
    </g>
    <g id="xtick_17">
     <g id="line2d_49">
      <path d="M 205.772446 209.779724 
L 205.772446 7.2 
" clip-path="url(#p903a659abe)" style="fill: none; stroke-dasharray: 0.3,0.495; stroke-dashoffset: 0; stroke: #b0b0b0; stroke-opacity: 0.9; stroke-width: 0.3"/>
     </g>
     <g id="line2d_50">
      <g>
       <use xlink:href="#m9519457d6f" x="205.772446" y="209.779724" style="stroke: #000000"/>
      </g>
     </g>
     <g id="line2d_51">
      <g>
       <use xlink:href="#m555d562a70" x="205.772446" y="7.2" style="stroke: #000000"/>
      </g>
     </g>
    </g>
    <g id="xtick_18">
     <g id="line2d_52">
      <path d="M 217.97717 209.779724 
L 217.97717 7.2 
" clip-path="url(#p903a659abe)" style="fill: none; stroke-dasharray: 0.3,0.495; stroke-dashoffset: 0; stroke: #b0b0b0; stroke-opacity: 0.9; stroke-width: 0.3"/>
     </g>
     <g id="line2d_53">
      <g>
       <use xlink:href="#m9519457d6f" x="217.97717" y="209.779724" style="stroke: #000000"/>
      </g>
     </g>
     <g id="line2d_54">
      <g>
       <use xlink:href="#m555d562a70" x="217.97717" y="7.2" style="stroke: #000000"/>
      </g>
     </g>
    </g>
    <g id="xtick_19">
     <g id="line2d_55">
      <path d="M 230.181895 209.779724 
L 230.181895 7.2 
" clip-path="url(#p903a659abe)" style="fill: none; stroke-dasharray: 0.3,0.495; stroke-dashoffset: 0; stroke: #b0b0b0; stroke-opacity: 0.9; stroke-width: 0.3"/>
     </g>
     <g id="line2d_56">
      <g>
       <use xlink:href="#m9519457d6f" x="230.181895" y="209.779724" style="stroke: #000000"/>
      </g>
     </g>
     <g id="line2d_57">
      <g>
       <use xlink:href="#m555d562a70" x="230.181895" y="7.2" style="stroke: #000000"/>
      </g>
     </g>
    </g>
    <g id="xtick_20">
     <g id="line2d_58">
      <path d="M 254.591344 209.779724 
L 254.591344 7.2 
" clip-path="url(#p903a659abe)" style="fill: none; stroke-dasharray: 0.3,0.495; stroke-dashoffset: 0; stroke: #b0b0b0; stroke-opacity: 0.9; stroke-width: 0.3"/>
     </g>
     <g id="line2d_59">
      <g>
       <use xlink:href="#m9519457d6f" x="254.591344" y="209.779724" style="stroke: #000000"/>
      </g>
     </g>
     <g id="line2d_60">
      <g>
       <use xlink:href="#m555d562a70" x="254.591344" y="7.2" style="stroke: #000000"/>
      </g>
     </g>
    </g>
    <g id="xtick_21">
     <g id="line2d_61">
      <path d="M 266.796068 209.779724 
L 266.796068 7.2 
" clip-path="url(#p903a659abe)" style="fill: none; stroke-dasharray: 0.3,0.495; stroke-dashoffset: 0; stroke: #b0b0b0; stroke-opacity: 0.9; stroke-width: 0.3"/>
     </g>
     <g id="line2d_62">
      <g>
       <use xlink:href="#m9519457d6f" x="266.796068" y="209.779724" style="stroke: #000000"/>
      </g>
     </g>
     <g id="line2d_63">
      <g>
       <use xlink:href="#m555d562a70" x="266.796068" y="7.2" style="stroke: #000000"/>
      </g>
     </g>
    </g>
    <g id="xtick_22">
     <g id="line2d_64">
      <path d="M 279.000792 209.779724 
L 279.000792 7.2 
" clip-path="url(#p903a659abe)" style="fill: none; stroke-dasharray: 0.3,0.495; stroke-dashoffset: 0; stroke: #b0b0b0; stroke-opacity: 0.9; stroke-width: 0.3"/>
     </g>
     <g id="line2d_65">
      <g>
       <use xlink:href="#m9519457d6f" x="279.000792" y="209.779724" style="stroke: #000000"/>
      </g>
     </g>
     <g id="line2d_66">
      <g>
       <use xlink:href="#m555d562a70" x="279.000792" y="7.2" style="stroke: #000000"/>
      </g>
     </g>
    </g>
    <g id="xtick_23">
     <g id="line2d_67">
      <path d="M 291.205517 209.779724 
L 291.205517 7.2 
" clip-path="url(#p903a659abe)" style="fill: none; stroke-dasharray: 0.3,0.495; stroke-dashoffset: 0; stroke: #b0b0b0; stroke-opacity: 0.9; stroke-width: 0.3"/>
     </g>
     <g id="line2d_68">
      <g>
       <use xlink:href="#m9519457d6f" x="291.205517" y="209.779724" style="stroke: #000000"/>
      </g>
     </g>
     <g id="line2d_69">
      <g>
       <use xlink:href="#m555d562a70" x="291.205517" y="7.2" style="stroke: #000000"/>
      </g>
     </g>
    </g>
    <g id="xtick_24">
     <g id="line2d_70">
      <path d="M 315.614966 209.779724 
L 315.614966 7.2 
" clip-path="url(#p903a659abe)" style="fill: none; stroke-dasharray: 0.3,0.495; stroke-dashoffset: 0; stroke: #b0b0b0; stroke-opacity: 0.9; stroke-width: 0.3"/>
     </g>
     <g id="line2d_71">
      <g>
       <use xlink:href="#m9519457d6f" x="315.614966" y="209.779724" style="stroke: #000000"/>
      </g>
     </g>
     <g id="line2d_72">
      <g>
       <use xlink:href="#m555d562a70" x="315.614966" y="7.2" style="stroke: #000000"/>
      </g>
     </g>
    </g>
    <g id="xtick_25">
     <g id="line2d_73">
      <path d="M 327.81969 209.779724 
L 327.81969 7.2 
" clip-path="url(#p903a659abe)" style="fill: none; stroke-dasharray: 0.3,0.495; stroke-dashoffset: 0; stroke: #b0b0b0; stroke-opacity: 0.9; stroke-width: 0.3"/>
     </g>
     <g id="line2d_74">
      <g>
       <use xlink:href="#m9519457d6f" x="327.81969" y="209.779724" style="stroke: #000000"/>
      </g>
     </g>
     <g id="line2d_75">
      <g>
       <use xlink:href="#m555d562a70" x="327.81969" y="7.2" style="stroke: #000000"/>
      </g>
     </g>
    </g>
    <g id="xtick_26">
     <g id="line2d_76">
      <path d="M 340.024414 209.779724 
L 340.024414 7.2 
" clip-path="url(#p903a659abe)" style="fill: none; stroke-dasharray: 0.3,0.495; stroke-dashoffset: 0; stroke: #b0b0b0; stroke-opacity: 0.9; stroke-width: 0.3"/>
     </g>
     <g id="line2d_77">
      <g>
       <use xlink:href="#m9519457d6f" x="340.024414" y="209.779724" style="stroke: #000000"/>
      </g>
     </g>
     <g id="line2d_78">
      <g>
       <use xlink:href="#m555d562a70" x="340.024414" y="7.2" style="stroke: #000000"/>
      </g>
     </g>
    </g>
    <g id="xtick_27">
     <g id="line2d_79">
      <path d="M 352.229139 209.779724 
L 352.229139 7.2 
" clip-path="url(#p903a659abe)" style="fill: none; stroke-dasharray: 0.3,0.495; stroke-dashoffset: 0; stroke: #b0b0b0; stroke-opacity: 0.9; stroke-width: 0.3"/>
     </g>
     <g id="line2d_80">
      <g>
       <use xlink:href="#m9519457d6f" x="352.229139" y="209.779724" style="stroke: #000000"/>
      </g>
     </g>
     <g id="line2d_81">
      <g>
       <use xlink:href="#m555d562a70" x="352.229139" y="7.2" style="stroke: #000000"/>
      </g>
     </g>
    </g>
    <g id="xtick_28">
     <g id="line2d_82">
      <path d="M 376.638588 209.779724 
L 376.638588 7.2 
" clip-path="url(#p903a659abe)" style="fill: none; stroke-dasharray: 0.3,0.495; stroke-dashoffset: 0; stroke: #b0b0b0; stroke-opacity: 0.9; stroke-width: 0.3"/>
     </g>
     <g id="line2d_83">
      <g>
       <use xlink:href="#m9519457d6f" x="376.638588" y="209.779724" style="stroke: #000000"/>
      </g>
     </g>
     <g id="line2d_84">
      <g>
       <use xlink:href="#m555d562a70" x="376.638588" y="7.2" style="stroke: #000000"/>
      </g>
     </g>
    </g>
    <g id="xtick_29">
     <g id="line2d_85">
      <path d="M 388.843312 209.779724 
L 388.843312 7.2 
" clip-path="url(#p903a659abe)" style="fill: none; stroke-dasharray: 0.3,0.495; stroke-dashoffset: 0; stroke: #b0b0b0; stroke-opacity: 0.9; stroke-width: 0.3"/>
     </g>
     <g id="line2d_86">
      <g>
       <use xlink:href="#m9519457d6f" x="388.843312" y="209.779724" style="stroke: #000000"/>
      </g>
     </g>
     <g id="line2d_87">
      <g>
       <use xlink:href="#m555d562a70" x="388.843312" y="7.2" style="stroke: #000000"/>
      </g>
     </g>
    </g>
    <g id="xtick_30">
     <g id="line2d_88">
      <path d="M 401.048036 209.779724 
L 401.048036 7.2 
" clip-path="url(#p903a659abe)" style="fill: none; stroke-dasharray: 0.3,0.495; stroke-dashoffset: 0; stroke: #b0b0b0; stroke-opacity: 0.9; stroke-width: 0.3"/>
     </g>
     <g id="line2d_89">
      <g>
       <use xlink:href="#m9519457d6f" x="401.048036" y="209.779724" style="stroke: #000000"/>
      </g>
     </g>
     <g id="line2d_90">
      <g>
       <use xlink:href="#m555d562a70" x="401.048036" y="7.2" style="stroke: #000000"/>
      </g>
     </g>
    </g>
    <g id="text_7">
     <!-- Distance (mm) -->
     <g transform="translate(183.276407 236.283943) scale(0.11 -0.11)">
      <defs>
       <path id="DejaVuSans-44" d="M 1259 4147 
L 1259 519 
L 2022 519 
Q 2988 519 3436 956 
Q 3884 1394 3884 2338 
Q 3884 3275 3436 3711 
Q 2988 4147 2022 4147 
L 1259 4147 
z
M 628 4666 
L 1925 4666 
Q 3281 4666 3915 4102 
Q 4550 3538 4550 2338 
Q 4550 1131 3912 565 
Q 3275 0 1925 0 
L 628 0 
L 628 4666 
z
" transform="scale(0.015625)"/>
       <path id="DejaVuSans-69" d="M 603 3500 
L 1178 3500 
L 1178 0 
L 603 0 
L 603 3500 
z
M 603 4863 
L 1178 4863 
L 1178 4134 
L 603 4134 
L 603 4863 
z
" transform="scale(0.015625)"/>
       <path id="DejaVuSans-73" d="M 2834 3397 
L 2834 2853 
Q 2591 2978 2328 3040 
Q 2066 3103 1784 3103 
Q 1356 3103 1142 2972 
Q 928 2841 928 2578 
Q 928 2378 1081 2264 
Q 1234 2150 1697 2047 
L 1894 2003 
Q 2506 1872 2764 1633 
Q 3022 1394 3022 966 
Q 3022 478 2636 193 
Q 2250 -91 1575 -91 
Q 1294 -91 989 -36 
Q 684 19 347 128 
L 347 722 
Q 666 556 975 473 
Q 1284 391 1588 391 
Q 1994 391 2212 530 
Q 2431 669 2431 922 
Q 2431 1156 2273 1281 
Q 2116 1406 1581 1522 
L 1381 1569 
Q 847 1681 609 1914 
Q 372 2147 372 2553 
Q 372 3047 722 3315 
Q 1072 3584 1716 3584 
Q 2034 3584 2315 3537 
Q 2597 3491 2834 3397 
z
" transform="scale(0.015625)"/>
       <path id="DejaVuSans-74" d="M 1172 4494 
L 1172 3500 
L 2356 3500 
L 2356 3053 
L 1172 3053 
L 1172 1153 
Q 1172 725 1289 603 
Q 1406 481 1766 481 
L 2356 481 
L 2356 0 
L 1766 0 
Q 1100 0 847 248 
Q 594 497 594 1153 
L 594 3053 
L 172 3053 
L 172 3500 
L 594 3500 
L 594 4494 
L 1172 4494 
z
" transform="scale(0.015625)"/>
       <path id="DejaVuSans-61" d="M 2194 1759 
Q 1497 1759 1228 1600 
Q 959 1441 959 1056 
Q 959 750 1161 570 
Q 1363 391 1709 391 
Q 2188 391 2477 730 
Q 2766 1069 2766 1631 
L 2766 1759 
L 2194 1759 
z
M 3341 1997 
L 3341 0 
L 2766 0 
L 2766 531 
Q 2569 213 2275 61 
Q 1981 -91 1556 -91 
Q 1019 -91 701 211 
Q 384 513 384 1019 
Q 384 1609 779 1909 
Q 1175 2209 1959 2209 
L 2766 2209 
L 2766 2266 
Q 2766 2663 2505 2880 
Q 2244 3097 1772 3097 
Q 1472 3097 1187 3025 
Q 903 2953 641 2809 
L 641 3341 
Q 956 3463 1253 3523 
Q 1550 3584 1831 3584 
Q 2591 3584 2966 3190 
Q 3341 2797 3341 1997 
z
" transform="scale(0.015625)"/>
       <path id="DejaVuSans-6e" d="M 3513 2113 
L 3513 0 
L 2938 0 
L 2938 2094 
Q 2938 2591 2744 2837 
Q 2550 3084 2163 3084 
Q 1697 3084 1428 2787 
Q 1159 2491 1159 1978 
L 1159 0 
L 581 0 
L 581 3500 
L 1159 3500 
L 1159 2956 
Q 1366 3272 1645 3428 
Q 1925 3584 2291 3584 
Q 2894 3584 3203 3211 
Q 3513 2838 3513 2113 
z
" transform="scale(0.015625)"/>
       <path id="DejaVuSans-63" d="M 3122 3366 
L 3122 2828 
Q 2878 2963 2633 3030 
Q 2388 3097 2138 3097 
Q 1578 3097 1268 2742 
Q 959 2388 959 1747 
Q 959 1106 1268 751 
Q 1578 397 2138 397 
Q 2388 397 2633 464 
Q 2878 531 3122 666 
L 3122 134 
Q 2881 22 2623 -34 
Q 2366 -91 2075 -91 
Q 1284 -91 818 406 
Q 353 903 353 1747 
Q 353 2603 823 3093 
Q 1294 3584 2113 3584 
Q 2378 3584 2631 3529 
Q 2884 3475 3122 3366 
z
" transform="scale(0.015625)"/>
       <path id="DejaVuSans-65" d="M 3597 1894 
L 3597 1613 
L 953 1613 
Q 991 1019 1311 708 
Q 1631 397 2203 397 
Q 2534 397 2845 478 
Q 3156 559 3463 722 
L 3463 178 
Q 3153 47 2828 -22 
Q 2503 -91 2169 -91 
Q 1331 -91 842 396 
Q 353 884 353 1716 
Q 353 2575 817 3079 
Q 1281 3584 2069 3584 
Q 2775 3584 3186 3129 
Q 3597 2675 3597 1894 
z
M 3022 2063 
Q 3016 2534 2758 2815 
Q 2500 3097 2075 3097 
Q 1594 3097 1305 2825 
Q 1016 2553 972 2059 
L 3022 2063 
z
" transform="scale(0.015625)"/>
       <path id="DejaVuSans-20" transform="scale(0.015625)"/>
       <path id="DejaVuSans-28" d="M 1984 4856 
Q 1566 4138 1362 3434 
Q 1159 2731 1159 2009 
Q 1159 1288 1364 580 
Q 1569 -128 1984 -844 
L 1484 -844 
Q 1016 -109 783 600 
Q 550 1309 550 2009 
Q 550 2706 781 3412 
Q 1013 4119 1484 4856 
L 1984 4856 
z
" transform="scale(0.015625)"/>
       <path id="DejaVuSans-6d" d="M 3328 2828 
Q 3544 3216 3844 3400 
Q 4144 3584 4550 3584 
Q 5097 3584 5394 3201 
Q 5691 2819 5691 2113 
L 5691 0 
L 5113 0 
L 5113 2094 
Q 5113 2597 4934 2840 
Q 4756 3084 4391 3084 
Q 3944 3084 3684 2787 
Q 3425 2491 3425 1978 
L 3425 0 
L 2847 0 
L 2847 2094 
Q 2847 2600 2669 2842 
Q 2491 3084 2119 3084 
Q 1678 3084 1418 2786 
Q 1159 2488 1159 1978 
L 1159 0 
L 581 0 
L 581 3500 
L 1159 3500 
L 1159 2956 
Q 1356 3278 1631 3431 
Q 1906 3584 2284 3584 
Q 2666 3584 2933 3390 
Q 3200 3197 3328 2828 
z
" transform="scale(0.015625)"/>
       <path id="DejaVuSans-29" d="M 513 4856 
L 1013 4856 
Q 1481 4119 1714 3412 
Q 1947 2706 1947 2009 
Q 1947 1309 1714 600 
Q 1481 -109 1013 -844 
L 513 -844 
Q 928 -128 1133 580 
Q 1338 1288 1338 2009 
Q 1338 2731 1133 3434 
Q 928 4138 513 4856 
z
" transform="scale(0.015625)"/>
      </defs>
      <use xlink:href="#DejaVuSans-44"/>
      <use xlink:href="#DejaVuSans-69" transform="translate(77.001953 0)"/>
      <use xlink:href="#DejaVuSans-73" transform="translate(104.785156 0)"/>
      <use xlink:href="#DejaVuSans-74" transform="translate(156.884766 0)"/>
      <use xlink:href="#DejaVuSans-61" transform="translate(196.09375 0)"/>
      <use xlink:href="#DejaVuSans-6e" transform="translate(257.373047 0)"/>
      <use xlink:href="#DejaVuSans-63" transform="translate(320.751953 0)"/>
      <use xlink:href="#DejaVuSans-65" transform="translate(375.732422 0)"/>
      <use xlink:href="#DejaVuSans-20" transform="translate(437.255859 0)"/>
      <use xlink:href="#DejaVuSans-28" transform="translate(469.042969 0)"/>
      <use xlink:href="#DejaVuSans-6d" transform="translate(508.056641 0)"/>
      <use xlink:href="#DejaVuSans-6d" transform="translate(605.46875 0)"/>
      <use xlink:href="#DejaVuSans-29" transform="translate(702.880859 0)"/>
     </g>
    </g>
   </g>
   <g id="matplotlib.axis_2">
    <g id="ytick_1">
     <g id="line2d_91">
      <path d="M 42.839375 200.617788 
L 405.31969 200.617788 
" clip-path="url(#p903a659abe)" style="fill: none; stroke: #b0b0b0; stroke-opacity: 0.7; stroke-width: 0.5; stroke-linecap: square"/>
     </g>
     <g id="line2d_92">
      <defs>
       <path id="md31e0c0ef7" d="M 0 0 
L 4 0 
" style="stroke: #000000"/>
      </defs>
      <g>
       <use xlink:href="#md31e0c0ef7" x="42.839375" y="200.617788" style="stroke: #000000"/>
      </g>
     </g>
     <g id="line2d_93">
      <defs>
       <path id="m221e834a79" d="M 0 0 
L -4 0 
" style="stroke: #000000"/>
      </defs>
      <g>
       <use xlink:href="#m221e834a79" x="405.31969" y="200.617788" style="stroke: #000000"/>
      </g>
     </g>
     <g id="text_8">
      <!-- 0.0 -->
      <g transform="translate(21.845938 204.796928) scale(0.11 -0.11)">
       <defs>
        <path id="DejaVuSans-2e" d="M 684 794 
L 1344 794 
L 1344 0 
L 684 0 
L 684 794 
z
" transform="scale(0.015625)"/>
       </defs>
       <use xlink:href="#DejaVuSans-30"/>
       <use xlink:href="#DejaVuSans-2e" transform="translate(63.623047 0)"/>
       <use xlink:href="#DejaVuSans-30" transform="translate(95.410156 0)"/>
      </g>
     </g>
    </g>
    <g id="ytick_2">
     <g id="line2d_94">
      <path d="M 42.839375 172.202892 
L 405.31969 172.202892 
" clip-path="url(#p903a659abe)" style="fill: none; stroke: #b0b0b0; stroke-opacity: 0.7; stroke-width: 0.5; stroke-linecap: square"/>
     </g>
     <g id="line2d_95">
      <g>
       <use xlink:href="#md31e0c0ef7" x="42.839375" y="172.202892" style="stroke: #000000"/>
      </g>
     </g>
     <g id="line2d_96">
      <g>
       <use xlink:href="#m221e834a79" x="405.31969" y="172.202892" style="stroke: #000000"/>
      </g>
     </g>
     <g id="text_9">
      <!-- 0.1 -->
      <g transform="translate(21.845938 176.382032) scale(0.11 -0.11)">
       <use xlink:href="#DejaVuSans-30"/>
       <use xlink:href="#DejaVuSans-2e" transform="translate(63.623047 0)"/>
       <use xlink:href="#DejaVuSans-31" transform="translate(95.410156 0)"/>
      </g>
     </g>
    </g>
    <g id="ytick_3">
     <g id="line2d_97">
      <path d="M 42.839375 143.787996 
L 405.31969 143.787996 
" clip-path="url(#p903a659abe)" style="fill: none; stroke: #b0b0b0; stroke-opacity: 0.7; stroke-width: 0.5; stroke-linecap: square"/>
     </g>
     <g id="line2d_98">
      <g>
       <use xlink:href="#md31e0c0ef7" x="42.839375" y="143.787996" style="stroke: #000000"/>
      </g>
     </g>
     <g id="line2d_99">
      <g>
       <use xlink:href="#m221e834a79" x="405.31969" y="143.787996" style="stroke: #000000"/>
      </g>
     </g>
     <g id="text_10">
      <!-- 0.2 -->
      <g transform="translate(21.845938 147.967137) scale(0.11 -0.11)">
       <use xlink:href="#DejaVuSans-30"/>
       <use xlink:href="#DejaVuSans-2e" transform="translate(63.623047 0)"/>
       <use xlink:href="#DejaVuSans-32" transform="translate(95.410156 0)"/>
      </g>
     </g>
    </g>
    <g id="ytick_4">
     <g id="line2d_100">
      <path d="M 42.839375 115.3731 
L 405.31969 115.3731 
" clip-path="url(#p903a659abe)" style="fill: none; stroke: #b0b0b0; stroke-opacity: 0.7; stroke-width: 0.5; stroke-linecap: square"/>
     </g>
     <g id="line2d_101">
      <g>
       <use xlink:href="#md31e0c0ef7" x="42.839375" y="115.3731" style="stroke: #000000"/>
      </g>
     </g>
     <g id="line2d_102">
      <g>
       <use xlink:href="#m221e834a79" x="405.31969" y="115.3731" style="stroke: #000000"/>
      </g>
     </g>
     <g id="text_11">
      <!-- 0.3 -->
      <g transform="translate(21.845938 119.552241) scale(0.11 -0.11)">
       <defs>
        <path id="DejaVuSans-33" d="M 2597 2516 
Q 3050 2419 3304 2112 
Q 3559 1806 3559 1356 
Q 3559 666 3084 287 
Q 2609 -91 1734 -91 
Q 1441 -91 1130 -33 
Q 819 25 488 141 
L 488 750 
Q 750 597 1062 519 
Q 1375 441 1716 441 
Q 2309 441 2620 675 
Q 2931 909 2931 1356 
Q 2931 1769 2642 2001 
Q 2353 2234 1838 2234 
L 1294 2234 
L 1294 2753 
L 1863 2753 
Q 2328 2753 2575 2939 
Q 2822 3125 2822 3475 
Q 2822 3834 2567 4026 
Q 2313 4219 1838 4219 
Q 1578 4219 1281 4162 
Q 984 4106 628 3988 
L 628 4550 
Q 988 4650 1302 4700 
Q 1616 4750 1894 4750 
Q 2613 4750 3031 4423 
Q 3450 4097 3450 3541 
Q 3450 3153 3228 2886 
Q 3006 2619 2597 2516 
z
" transform="scale(0.015625)"/>
       </defs>
       <use xlink:href="#DejaVuSans-30"/>
       <use xlink:href="#DejaVuSans-2e" transform="translate(63.623047 0)"/>
       <use xlink:href="#DejaVuSans-33" transform="translate(95.410156 0)"/>
      </g>
     </g>
    </g>
    <g id="ytick_5">
     <g id="line2d_103">
      <path d="M 42.839375 86.958204 
L 405.31969 86.958204 
" clip-path="url(#p903a659abe)" style="fill: none; stroke: #b0b0b0; stroke-opacity: 0.7; stroke-width: 0.5; stroke-linecap: square"/>
     </g>
     <g id="line2d_104">
      <g>
       <use xlink:href="#md31e0c0ef7" x="42.839375" y="86.958204" style="stroke: #000000"/>
      </g>
     </g>
     <g id="line2d_105">
      <g>
       <use xlink:href="#m221e834a79" x="405.31969" y="86.958204" style="stroke: #000000"/>
      </g>
     </g>
     <g id="text_12">
      <!-- 0.4 -->
      <g transform="translate(21.845938 91.137345) scale(0.11 -0.11)">
       <defs>
        <path id="DejaVuSans-34" d="M 2419 4116 
L 825 1625 
L 2419 1625 
L 2419 4116 
z
M 2253 4666 
L 3047 4666 
L 3047 1625 
L 3713 1625 
L 3713 1100 
L 3047 1100 
L 3047 0 
L 2419 0 
L 2419 1100 
L 313 1100 
L 313 1709 
L 2253 4666 
z
" transform="scale(0.015625)"/>
       </defs>
       <use xlink:href="#DejaVuSans-30"/>
       <use xlink:href="#DejaVuSans-2e" transform="translate(63.623047 0)"/>
       <use xlink:href="#DejaVuSans-34" transform="translate(95.410156 0)"/>
      </g>
     </g>
    </g>
    <g id="ytick_6">
     <g id="line2d_106">
      <path d="M 42.839375 58.543308 
L 405.31969 58.543308 
" clip-path="url(#p903a659abe)" style="fill: none; stroke: #b0b0b0; stroke-opacity: 0.7; stroke-width: 0.5; stroke-linecap: square"/>
     </g>
     <g id="line2d_107">
      <g>
       <use xlink:href="#md31e0c0ef7" x="42.839375" y="58.543308" style="stroke: #000000"/>
      </g>
     </g>
     <g id="line2d_108">
      <g>
       <use xlink:href="#m221e834a79" x="405.31969" y="58.543308" style="stroke: #000000"/>
      </g>
     </g>
     <g id="text_13">
      <!-- 0.5 -->
      <g transform="translate(21.845938 62.722449) scale(0.11 -0.11)">
       <use xlink:href="#DejaVuSans-30"/>
       <use xlink:href="#DejaVuSans-2e" transform="translate(63.623047 0)"/>
       <use xlink:href="#DejaVuSans-35" transform="translate(95.410156 0)"/>
      </g>
     </g>
    </g>
    <g id="ytick_7">
     <g id="line2d_109">
      <path d="M 42.839375 30.128412 
L 405.31969 30.128412 
" clip-path="url(#p903a659abe)" style="fill: none; stroke: #b0b0b0; stroke-opacity: 0.7; stroke-width: 0.5; stroke-linecap: square"/>
     </g>
     <g id="line2d_110">
      <g>
       <use xlink:href="#md31e0c0ef7" x="42.839375" y="30.128412" style="stroke: #000000"/>
      </g>
     </g>
     <g id="line2d_111">
      <g>
       <use xlink:href="#m221e834a79" x="405.31969" y="30.128412" style="stroke: #000000"/>
      </g>
     </g>
     <g id="text_14">
      <!-- 0.6 -->
      <g transform="translate(21.845938 34.307553) scale(0.11 -0.11)">
       <defs>
        <path id="DejaVuSans-36" d="M 2113 2584 
Q 1688 2584 1439 2293 
Q 1191 2003 1191 1497 
Q 1191 994 1439 701 
Q 1688 409 2113 409 
Q 2538 409 2786 701 
Q 3034 994 3034 1497 
Q 3034 2003 2786 2293 
Q 2538 2584 2113 2584 
z
M 3366 4563 
L 3366 3988 
Q 3128 4100 2886 4159 
Q 2644 4219 2406 4219 
Q 1781 4219 1451 3797 
Q 1122 3375 1075 2522 
Q 1259 2794 1537 2939 
Q 1816 3084 2150 3084 
Q 2853 3084 3261 2657 
Q 3669 2231 3669 1497 
Q 3669 778 3244 343 
Q 2819 -91 2113 -91 
Q 1303 -91 875 529 
Q 447 1150 447 2328 
Q 447 3434 972 4092 
Q 1497 4750 2381 4750 
Q 2619 4750 2861 4703 
Q 3103 4656 3366 4563 
z
" transform="scale(0.015625)"/>
       </defs>
       <use xlink:href="#DejaVuSans-30"/>
       <use xlink:href="#DejaVuSans-2e" transform="translate(63.623047 0)"/>
       <use xlink:href="#DejaVuSans-36" transform="translate(95.410156 0)"/>
      </g>
     </g>
    </g>
    <g id="ytick_8">
     <g id="line2d_112">
      <path d="M 42.839375 206.300767 
L 405.31969 206.300767 
" clip-path="url(#p903a659abe)" style="fill: none; stroke-dasharray: 0.3,0.495; stroke-dashoffset: 0; stroke: #b0b0b0; stroke-opacity: 0.9; stroke-width: 0.3"/>
     </g>
     <g id="line2d_113">
      <g>
       <use xlink:href="#md31e0c0ef7" x="42.839375" y="206.300767" style="stroke: #000000"/>
      </g>
     </g>
     <g id="line2d_114">
      <g>
       <use xlink:href="#m221e834a79" x="405.31969" y="206.300767" style="stroke: #000000"/>
      </g>
     </g>
    </g>
    <g id="ytick_9">
     <g id="line2d_115">
      <path d="M 42.839375 194.934809 
L 405.31969 194.934809 
" clip-path="url(#p903a659abe)" style="fill: none; stroke-dasharray: 0.3,0.495; stroke-dashoffset: 0; stroke: #b0b0b0; stroke-opacity: 0.9; stroke-width: 0.3"/>
     </g>
     <g id="line2d_116">
      <g>
       <use xlink:href="#md31e0c0ef7" x="42.839375" y="194.934809" style="stroke: #000000"/>
      </g>
     </g>
     <g id="line2d_117">
      <g>
       <use xlink:href="#m221e834a79" x="405.31969" y="194.934809" style="stroke: #000000"/>
      </g>
     </g>
    </g>
    <g id="ytick_10">
     <g id="line2d_118">
      <path d="M 42.839375 189.251829 
L 405.31969 189.251829 
" clip-path="url(#p903a659abe)" style="fill: none; stroke-dasharray: 0.3,0.495; stroke-dashoffset: 0; stroke: #b0b0b0; stroke-opacity: 0.9; stroke-width: 0.3"/>
     </g>
     <g id="line2d_119">
      <g>
       <use xlink:href="#md31e0c0ef7" x="42.839375" y="189.251829" style="stroke: #000000"/>
      </g>
     </g>
     <g id="line2d_120">
      <g>
       <use xlink:href="#m221e834a79" x="405.31969" y="189.251829" style="stroke: #000000"/>
      </g>
     </g>
    </g>
    <g id="ytick_11">
     <g id="line2d_121">
      <path d="M 42.839375 183.56885 
L 405.31969 183.56885 
" clip-path="url(#p903a659abe)" style="fill: none; stroke-dasharray: 0.3,0.495; stroke-dashoffset: 0; stroke: #b0b0b0; stroke-opacity: 0.9; stroke-width: 0.3"/>
     </g>
     <g id="line2d_122">
      <g>
       <use xlink:href="#md31e0c0ef7" x="42.839375" y="183.56885" style="stroke: #000000"/>
      </g>
     </g>
     <g id="line2d_123">
      <g>
       <use xlink:href="#m221e834a79" x="405.31969" y="183.56885" style="stroke: #000000"/>
      </g>
     </g>
    </g>
    <g id="ytick_12">
     <g id="line2d_124">
      <path d="M 42.839375 177.885871 
L 405.31969 177.885871 
" clip-path="url(#p903a659abe)" style="fill: none; stroke-dasharray: 0.3,0.495; stroke-dashoffset: 0; stroke: #b0b0b0; stroke-opacity: 0.9; stroke-width: 0.3"/>
     </g>
     <g id="line2d_125">
      <g>
       <use xlink:href="#md31e0c0ef7" x="42.839375" y="177.885871" style="stroke: #000000"/>
      </g>
     </g>
     <g id="line2d_126">
      <g>
       <use xlink:href="#m221e834a79" x="405.31969" y="177.885871" style="stroke: #000000"/>
      </g>
     </g>
    </g>
    <g id="ytick_13">
     <g id="line2d_127">
      <path d="M 42.839375 166.519913 
L 405.31969 166.519913 
" clip-path="url(#p903a659abe)" style="fill: none; stroke-dasharray: 0.3,0.495; stroke-dashoffset: 0; stroke: #b0b0b0; stroke-opacity: 0.9; stroke-width: 0.3"/>
     </g>
     <g id="line2d_128">
      <g>
       <use xlink:href="#md31e0c0ef7" x="42.839375" y="166.519913" style="stroke: #000000"/>
      </g>
     </g>
     <g id="line2d_129">
      <g>
       <use xlink:href="#m221e834a79" x="405.31969" y="166.519913" style="stroke: #000000"/>
      </g>
     </g>
    </g>
    <g id="ytick_14">
     <g id="line2d_130">
      <path d="M 42.839375 160.836933 
L 405.31969 160.836933 
" clip-path="url(#p903a659abe)" style="fill: none; stroke-dasharray: 0.3,0.495; stroke-dashoffset: 0; stroke: #b0b0b0; stroke-opacity: 0.9; stroke-width: 0.3"/>
     </g>
     <g id="line2d_131">
      <g>
       <use xlink:href="#md31e0c0ef7" x="42.839375" y="160.836933" style="stroke: #000000"/>
      </g>
     </g>
     <g id="line2d_132">
      <g>
       <use xlink:href="#m221e834a79" x="405.31969" y="160.836933" style="stroke: #000000"/>
      </g>
     </g>
    </g>
    <g id="ytick_15">
     <g id="line2d_133">
      <path d="M 42.839375 155.153954 
L 405.31969 155.153954 
" clip-path="url(#p903a659abe)" style="fill: none; stroke-dasharray: 0.3,0.495; stroke-dashoffset: 0; stroke: #b0b0b0; stroke-opacity: 0.9; stroke-width: 0.3"/>
     </g>
     <g id="line2d_134">
      <g>
       <use xlink:href="#md31e0c0ef7" x="42.839375" y="155.153954" style="stroke: #000000"/>
      </g>
     </g>
     <g id="line2d_135">
      <g>
       <use xlink:href="#m221e834a79" x="405.31969" y="155.153954" style="stroke: #000000"/>
      </g>
     </g>
    </g>
    <g id="ytick_16">
     <g id="line2d_136">
      <path d="M 42.839375 149.470975 
L 405.31969 149.470975 
" clip-path="url(#p903a659abe)" style="fill: none; stroke-dasharray: 0.3,0.495; stroke-dashoffset: 0; stroke: #b0b0b0; stroke-opacity: 0.9; stroke-width: 0.3"/>
     </g>
     <g id="line2d_137">
      <g>
       <use xlink:href="#md31e0c0ef7" x="42.839375" y="149.470975" style="stroke: #000000"/>
      </g>
     </g>
     <g id="line2d_138">
      <g>
       <use xlink:href="#m221e834a79" x="405.31969" y="149.470975" style="stroke: #000000"/>
      </g>
     </g>
    </g>
    <g id="ytick_17">
     <g id="line2d_139">
      <path d="M 42.839375 138.105017 
L 405.31969 138.105017 
" clip-path="url(#p903a659abe)" style="fill: none; stroke-dasharray: 0.3,0.495; stroke-dashoffset: 0; stroke: #b0b0b0; stroke-opacity: 0.9; stroke-width: 0.3"/>
     </g>
     <g id="line2d_140">
      <g>
       <use xlink:href="#md31e0c0ef7" x="42.839375" y="138.105017" style="stroke: #000000"/>
      </g>
     </g>
     <g id="line2d_141">
      <g>
       <use xlink:href="#m221e834a79" x="405.31969" y="138.105017" style="stroke: #000000"/>
      </g>
     </g>
    </g>
    <g id="ytick_18">
     <g id="line2d_142">
      <path d="M 42.839375 132.422038 
L 405.31969 132.422038 
" clip-path="url(#p903a659abe)" style="fill: none; stroke-dasharray: 0.3,0.495; stroke-dashoffset: 0; stroke: #b0b0b0; stroke-opacity: 0.9; stroke-width: 0.3"/>
     </g>
     <g id="line2d_143">
      <g>
       <use xlink:href="#md31e0c0ef7" x="42.839375" y="132.422038" style="stroke: #000000"/>
      </g>
     </g>
     <g id="line2d_144">
      <g>
       <use xlink:href="#m221e834a79" x="405.31969" y="132.422038" style="stroke: #000000"/>
      </g>
     </g>
    </g>
    <g id="ytick_19">
     <g id="line2d_145">
      <path d="M 42.839375 126.739058 
L 405.31969 126.739058 
" clip-path="url(#p903a659abe)" style="fill: none; stroke-dasharray: 0.3,0.495; stroke-dashoffset: 0; stroke: #b0b0b0; stroke-opacity: 0.9; stroke-width: 0.3"/>
     </g>
     <g id="line2d_146">
      <g>
       <use xlink:href="#md31e0c0ef7" x="42.839375" y="126.739058" style="stroke: #000000"/>
      </g>
     </g>
     <g id="line2d_147">
      <g>
       <use xlink:href="#m221e834a79" x="405.31969" y="126.739058" style="stroke: #000000"/>
      </g>
     </g>
    </g>
    <g id="ytick_20">
     <g id="line2d_148">
      <path d="M 42.839375 121.056079 
L 405.31969 121.056079 
" clip-path="url(#p903a659abe)" style="fill: none; stroke-dasharray: 0.3,0.495; stroke-dashoffset: 0; stroke: #b0b0b0; stroke-opacity: 0.9; stroke-width: 0.3"/>
     </g>
     <g id="line2d_149">
      <g>
       <use xlink:href="#md31e0c0ef7" x="42.839375" y="121.056079" style="stroke: #000000"/>
      </g>
     </g>
     <g id="line2d_150">
      <g>
       <use xlink:href="#m221e834a79" x="405.31969" y="121.056079" style="stroke: #000000"/>
      </g>
     </g>
    </g>
    <g id="ytick_21">
     <g id="line2d_151">
      <path d="M 42.839375 109.690121 
L 405.31969 109.690121 
" clip-path="url(#p903a659abe)" style="fill: none; stroke-dasharray: 0.3,0.495; stroke-dashoffset: 0; stroke: #b0b0b0; stroke-opacity: 0.9; stroke-width: 0.3"/>
     </g>
     <g id="line2d_152">
      <g>
       <use xlink:href="#md31e0c0ef7" x="42.839375" y="109.690121" style="stroke: #000000"/>
      </g>
     </g>
     <g id="line2d_153">
      <g>
       <use xlink:href="#m221e834a79" x="405.31969" y="109.690121" style="stroke: #000000"/>
      </g>
     </g>
    </g>
    <g id="ytick_22">
     <g id="line2d_154">
      <path d="M 42.839375 104.007142 
L 405.31969 104.007142 
" clip-path="url(#p903a659abe)" style="fill: none; stroke-dasharray: 0.3,0.495; stroke-dashoffset: 0; stroke: #b0b0b0; stroke-opacity: 0.9; stroke-width: 0.3"/>
     </g>
     <g id="line2d_155">
      <g>
       <use xlink:href="#md31e0c0ef7" x="42.839375" y="104.007142" style="stroke: #000000"/>
      </g>
     </g>
     <g id="line2d_156">
      <g>
       <use xlink:href="#m221e834a79" x="405.31969" y="104.007142" style="stroke: #000000"/>
      </g>
     </g>
    </g>
    <g id="ytick_23">
     <g id="line2d_157">
      <path d="M 42.839375 98.324162 
L 405.31969 98.324162 
" clip-path="url(#p903a659abe)" style="fill: none; stroke-dasharray: 0.3,0.495; stroke-dashoffset: 0; stroke: #b0b0b0; stroke-opacity: 0.9; stroke-width: 0.3"/>
     </g>
     <g id="line2d_158">
      <g>
       <use xlink:href="#md31e0c0ef7" x="42.839375" y="98.324162" style="stroke: #000000"/>
      </g>
     </g>
     <g id="line2d_159">
      <g>
       <use xlink:href="#m221e834a79" x="405.31969" y="98.324162" style="stroke: #000000"/>
      </g>
     </g>
    </g>
    <g id="ytick_24">
     <g id="line2d_160">
      <path d="M 42.839375 92.641183 
L 405.31969 92.641183 
" clip-path="url(#p903a659abe)" style="fill: none; stroke-dasharray: 0.3,0.495; stroke-dashoffset: 0; stroke: #b0b0b0; stroke-opacity: 0.9; stroke-width: 0.3"/>
     </g>
     <g id="line2d_161">
      <g>
       <use xlink:href="#md31e0c0ef7" x="42.839375" y="92.641183" style="stroke: #000000"/>
      </g>
     </g>
     <g id="line2d_162">
      <g>
       <use xlink:href="#m221e834a79" x="405.31969" y="92.641183" style="stroke: #000000"/>
      </g>
     </g>
    </g>
    <g id="ytick_25">
     <g id="line2d_163">
      <path d="M 42.839375 81.275225 
L 405.31969 81.275225 
" clip-path="url(#p903a659abe)" style="fill: none; stroke-dasharray: 0.3,0.495; stroke-dashoffset: 0; stroke: #b0b0b0; stroke-opacity: 0.9; stroke-width: 0.3"/>
     </g>
     <g id="line2d_164">
      <g>
       <use xlink:href="#md31e0c0ef7" x="42.839375" y="81.275225" style="stroke: #000000"/>
      </g>
     </g>
     <g id="line2d_165">
      <g>
       <use xlink:href="#m221e834a79" x="405.31969" y="81.275225" style="stroke: #000000"/>
      </g>
     </g>
    </g>
    <g id="ytick_26">
     <g id="line2d_166">
      <path d="M 42.839375 75.592246 
L 405.31969 75.592246 
" clip-path="url(#p903a659abe)" style="fill: none; stroke-dasharray: 0.3,0.495; stroke-dashoffset: 0; stroke: #b0b0b0; stroke-opacity: 0.9; stroke-width: 0.3"/>
     </g>
     <g id="line2d_167">
      <g>
       <use xlink:href="#md31e0c0ef7" x="42.839375" y="75.592246" style="stroke: #000000"/>
      </g>
     </g>
     <g id="line2d_168">
      <g>
       <use xlink:href="#m221e834a79" x="405.31969" y="75.592246" style="stroke: #000000"/>
      </g>
     </g>
    </g>
    <g id="ytick_27">
     <g id="line2d_169">
      <path d="M 42.839375 69.909267 
L 405.31969 69.909267 
" clip-path="url(#p903a659abe)" style="fill: none; stroke-dasharray: 0.3,0.495; stroke-dashoffset: 0; stroke: #b0b0b0; stroke-opacity: 0.9; stroke-width: 0.3"/>
     </g>
     <g id="line2d_170">
      <g>
       <use xlink:href="#md31e0c0ef7" x="42.839375" y="69.909267" style="stroke: #000000"/>
      </g>
     </g>
     <g id="line2d_171">
      <g>
       <use xlink:href="#m221e834a79" x="405.31969" y="69.909267" style="stroke: #000000"/>
      </g>
     </g>
    </g>
    <g id="ytick_28">
     <g id="line2d_172">
      <path d="M 42.839375 64.226287 
L 405.31969 64.226287 
" clip-path="url(#p903a659abe)" style="fill: none; stroke-dasharray: 0.3,0.495; stroke-dashoffset: 0; stroke: #b0b0b0; stroke-opacity: 0.9; stroke-width: 0.3"/>
     </g>
     <g id="line2d_173">
      <g>
       <use xlink:href="#md31e0c0ef7" x="42.839375" y="64.226287" style="stroke: #000000"/>
      </g>
     </g>
     <g id="line2d_174">
      <g>
       <use xlink:href="#m221e834a79" x="405.31969" y="64.226287" style="stroke: #000000"/>
      </g>
     </g>
    </g>
    <g id="ytick_29">
     <g id="line2d_175">
      <path d="M 42.839375 52.860329 
L 405.31969 52.860329 
" clip-path="url(#p903a659abe)" style="fill: none; stroke-dasharray: 0.3,0.495; stroke-dashoffset: 0; stroke: #b0b0b0; stroke-opacity: 0.9; stroke-width: 0.3"/>
     </g>
     <g id="line2d_176">
      <g>
       <use xlink:href="#md31e0c0ef7" x="42.839375" y="52.860329" style="stroke: #000000"/>
      </g>
     </g>
     <g id="line2d_177">
      <g>
       <use xlink:href="#m221e834a79" x="405.31969" y="52.860329" style="stroke: #000000"/>
      </g>
     </g>
    </g>
    <g id="ytick_30">
     <g id="line2d_178">
      <path d="M 42.839375 47.17735 
L 405.31969 47.17735 
" clip-path="url(#p903a659abe)" style="fill: none; stroke-dasharray: 0.3,0.495; stroke-dashoffset: 0; stroke: #b0b0b0; stroke-opacity: 0.9; stroke-width: 0.3"/>
     </g>
     <g id="line2d_179">
      <g>
       <use xlink:href="#md31e0c0ef7" x="42.839375" y="47.17735" style="stroke: #000000"/>
      </g>
     </g>
     <g id="line2d_180">
      <g>
       <use xlink:href="#m221e834a79" x="405.31969" y="47.17735" style="stroke: #000000"/>
      </g>
     </g>
    </g>
    <g id="ytick_31">
     <g id="line2d_181">
      <path d="M 42.839375 41.494371 
L 405.31969 41.494371 
" clip-path="url(#p903a659abe)" style="fill: none; stroke-dasharray: 0.3,0.495; stroke-dashoffset: 0; stroke: #b0b0b0; stroke-opacity: 0.9; stroke-width: 0.3"/>
     </g>
     <g id="line2d_182">
      <g>
       <use xlink:href="#md31e0c0ef7" x="42.839375" y="41.494371" style="stroke: #000000"/>
      </g>
     </g>
     <g id="line2d_183">
      <g>
       <use xlink:href="#m221e834a79" x="405.31969" y="41.494371" style="stroke: #000000"/>
      </g>
     </g>
    </g>
    <g id="ytick_32">
     <g id="line2d_184">
      <path d="M 42.839375 35.811392 
L 405.31969 35.811392 
" clip-path="url(#p903a659abe)" style="fill: none; stroke-dasharray: 0.3,0.495; stroke-dashoffset: 0; stroke: #b0b0b0; stroke-opacity: 0.9; stroke-width: 0.3"/>
     </g>
     <g id="line2d_185">
      <g>
       <use xlink:href="#md31e0c0ef7" x="42.839375" y="35.811392" style="stroke: #000000"/>
      </g>
     </g>
     <g id="line2d_186">
      <g>
       <use xlink:href="#m221e834a79" x="405.31969" y="35.811392" style="stroke: #000000"/>
      </g>
     </g>
    </g>
    <g id="ytick_33">
     <g id="line2d_187">
      <path d="M 42.839375 24.445433 
L 405.31969 24.445433 
" clip-path="url(#p903a659abe)" style="fill: none; stroke-dasharray: 0.3,0.495; stroke-dashoffset: 0; stroke: #b0b0b0; stroke-opacity: 0.9; stroke-width: 0.3"/>
     </g>
     <g id="line2d_188">
      <g>
       <use xlink:href="#md31e0c0ef7" x="42.839375" y="24.445433" style="stroke: #000000"/>
      </g>
     </g>
     <g id="line2d_189">
      <g>
       <use xlink:href="#m221e834a79" x="405.31969" y="24.445433" style="stroke: #000000"/>
      </g>
     </g>
    </g>
    <g id="ytick_34">
     <g id="line2d_190">
      <path d="M 42.839375 18.762454 
L 405.31969 18.762454 
" clip-path="url(#p903a659abe)" style="fill: none; stroke-dasharray: 0.3,0.495; stroke-dashoffset: 0; stroke: #b0b0b0; stroke-opacity: 0.9; stroke-width: 0.3"/>
     </g>
     <g id="line2d_191">
      <g>
       <use xlink:href="#md31e0c0ef7" x="42.839375" y="18.762454" style="stroke: #000000"/>
      </g>
     </g>
     <g id="line2d_192">
      <g>
       <use xlink:href="#m221e834a79" x="405.31969" y="18.762454" style="stroke: #000000"/>
      </g>
     </g>
    </g>
    <g id="ytick_35">
     <g id="line2d_193">
      <path d="M 42.839375 13.079475 
L 405.31969 13.079475 
" clip-path="url(#p903a659abe)" style="fill: none; stroke-dasharray: 0.3,0.495; stroke-dashoffset: 0; stroke: #b0b0b0; stroke-opacity: 0.9; stroke-width: 0.3"/>
     </g>
     <g id="line2d_194">
      <g>
       <use xlink:href="#md31e0c0ef7" x="42.839375" y="13.079475" style="stroke: #000000"/>
      </g>
     </g>
     <g id="line2d_195">
      <g>
       <use xlink:href="#m221e834a79" x="405.31969" y="13.079475" style="stroke: #000000"/>
      </g>
     </g>
    </g>
    <g id="ytick_36">
     <g id="line2d_196">
      <path d="M 42.839375 7.396496 
L 405.31969 7.396496 
" clip-path="url(#p903a659abe)" style="fill: none; stroke-dasharray: 0.3,0.495; stroke-dashoffset: 0; stroke: #b0b0b0; stroke-opacity: 0.9; stroke-width: 0.3"/>
     </g>
     <g id="line2d_197">
      <g>
       <use xlink:href="#md31e0c0ef7" x="42.839375" y="7.396496" style="stroke: #000000"/>
      </g>
     </g>
     <g id="line2d_198">
      <g>
       <use xlink:href="#m221e834a79" x="405.31969" y="7.396496" style="stroke: #000000"/>
      </g>
     </g>
    </g>
    <g id="text_15">
     <!-- Magnetic Field (T) -->
     <g transform="translate(15.558281 157.518925) rotate(-90) scale(0.11 -0.11)">
      <defs>
       <path id="DejaVuSans-4d" d="M 628 4666 
L 1569 4666 
L 2759 1491 
L 3956 4666 
L 4897 4666 
L 4897 0 
L 4281 0 
L 4281 4097 
L 3078 897 
L 2444 897 
L 1241 4097 
L 1241 0 
L 628 0 
L 628 4666 
z
" transform="scale(0.015625)"/>
       <path id="DejaVuSans-67" d="M 2906 1791 
Q 2906 2416 2648 2759 
Q 2391 3103 1925 3103 
Q 1463 3103 1205 2759 
Q 947 2416 947 1791 
Q 947 1169 1205 825 
Q 1463 481 1925 481 
Q 2391 481 2648 825 
Q 2906 1169 2906 1791 
z
M 3481 434 
Q 3481 -459 3084 -895 
Q 2688 -1331 1869 -1331 
Q 1566 -1331 1297 -1286 
Q 1028 -1241 775 -1147 
L 775 -588 
Q 1028 -725 1275 -790 
Q 1522 -856 1778 -856 
Q 2344 -856 2625 -561 
Q 2906 -266 2906 331 
L 2906 616 
Q 2728 306 2450 153 
Q 2172 0 1784 0 
Q 1141 0 747 490 
Q 353 981 353 1791 
Q 353 2603 747 3093 
Q 1141 3584 1784 3584 
Q 2172 3584 2450 3431 
Q 2728 3278 2906 2969 
L 2906 3500 
L 3481 3500 
L 3481 434 
z
" transform="scale(0.015625)"/>
       <path id="DejaVuSans-46" d="M 628 4666 
L 3309 4666 
L 3309 4134 
L 1259 4134 
L 1259 2759 
L 3109 2759 
L 3109 2228 
L 1259 2228 
L 1259 0 
L 628 0 
L 628 4666 
z
" transform="scale(0.015625)"/>
       <path id="DejaVuSans-6c" d="M 603 4863 
L 1178 4863 
L 1178 0 
L 603 0 
L 603 4863 
z
" transform="scale(0.015625)"/>
       <path id="DejaVuSans-64" d="M 2906 2969 
L 2906 4863 
L 3481 4863 
L 3481 0 
L 2906 0 
L 2906 525 
Q 2725 213 2448 61 
Q 2172 -91 1784 -91 
Q 1150 -91 751 415 
Q 353 922 353 1747 
Q 353 2572 751 3078 
Q 1150 3584 1784 3584 
Q 2172 3584 2448 3432 
Q 2725 3281 2906 2969 
z
M 947 1747 
Q 947 1113 1208 752 
Q 1469 391 1925 391 
Q 2381 391 2643 752 
Q 2906 1113 2906 1747 
Q 2906 2381 2643 2742 
Q 2381 3103 1925 3103 
Q 1469 3103 1208 2742 
Q 947 2381 947 1747 
z
" transform="scale(0.015625)"/>
       <path id="DejaVuSans-54" d="M -19 4666 
L 3928 4666 
L 3928 4134 
L 2272 4134 
L 2272 0 
L 1638 0 
L 1638 4134 
L -19 4134 
L -19 4666 
z
" transform="scale(0.015625)"/>
      </defs>
      <use xlink:href="#DejaVuSans-4d"/>
      <use xlink:href="#DejaVuSans-61" transform="translate(86.279297 0)"/>
      <use xlink:href="#DejaVuSans-67" transform="translate(147.558594 0)"/>
      <use xlink:href="#DejaVuSans-6e" transform="translate(211.035156 0)"/>
      <use xlink:href="#DejaVuSans-65" transform="translate(274.414062 0)"/>
      <use xlink:href="#DejaVuSans-74" transform="translate(335.9375 0)"/>
      <use xlink:href="#DejaVuSans-69" transform="translate(375.146484 0)"/>
      <use xlink:href="#DejaVuSans-63" transform="translate(402.929688 0)"/>
      <use xlink:href="#DejaVuSans-20" transform="translate(457.910156 0)"/>
      <use xlink:href="#DejaVuSans-46" transform="translate(489.697266 0)"/>
      <use xlink:href="#DejaVuSans-69" transform="translate(539.966797 0)"/>
      <use xlink:href="#DejaVuSans-65" transform="translate(567.75 0)"/>
      <use xlink:href="#DejaVuSans-6c" transform="translate(629.273438 0)"/>
      <use xlink:href="#DejaVuSans-64" transform="translate(657.056641 0)"/>
      <use xlink:href="#DejaVuSans-20" transform="translate(720.533203 0)"/>
      <use xlink:href="#DejaVuSans-28" transform="translate(752.320312 0)"/>
      <use xlink:href="#DejaVuSans-54" transform="translate(791.333984 0)"/>
      <use xlink:href="#DejaVuSans-29" transform="translate(852.417969 0)"/>
     </g>
    </g>
   </g>
   <g id="line2d_199">
    <path d="M 59.315753 200.571474 
L 80.405517 200.415612 
L 89.961816 200.183399 
L 105.120084 199.431334 
L 119.289769 198.161245 
L 120.607879 197.97083 
L 121.266934 197.575937 
L 123.244099 196.246759 
L 125.221265 195.209849 
L 126.209847 194.996861 
L 128.187013 192.707672 
L 130.493706 189.606233 
L 132.800399 186.115751 
L 134.448036 183.022173 
L 134.777564 182.194151 
L 136.425202 176.417024 
L 137.743312 169.295461 
L 138.731895 160.133055 
L 139.720477 142.095915 
L 140.050005 133.895466 
L 141.038588 88.590269 
L 142.02717 27.652756 
L 142.356698 25.446853 
L 142.686225 24.600345 
L 143.015753 24.824597 
L 144.004336 24.77901 
L 144.333863 24.961335 
L 144.663391 24.730472 
L 146.311029 24.661235 
L 146.640556 24.990326 
L 146.970084 24.912194 
L 147.299611 24.624387 
L 148.617721 24.945963 
L 148.947249 24.802231 
L 149.276777 24.787697 
L 149.935832 25.157805 
L 150.594887 24.557269 
L 151.253942 24.665148 
L 151.912997 24.536189 
L 152.242525 24.714751 
L 153.890162 24.404215 
L 154.21969 24.672213 
L 155.208273 24.550587 
L 155.5378 24.778902 
L 156.196855 24.642775 
L 156.85591 24.583405 
L 157.185438 24.81085 
L 157.514966 24.843842 
L 158.503548 24.58427 
L 159.162603 24.628575 
L 159.492131 24.465567 
L 160.810241 24.507128 
L 161.139769 24.591483 
L 161.798824 24.573995 
L 162.128351 24.561076 
L 162.457879 24.689501 
L 162.787406 24.535639 
L 163.446462 24.623883 
L 163.775989 24.597635 
L 164.105517 24.746007 
L 164.435044 24.467834 
L 164.764572 24.517844 
L 165.094099 24.435858 
L 165.423627 24.574233 
L 165.753155 24.438232 
L 166.741737 24.619236 
L 167.400792 24.523169 
L 168.059847 24.508491 
L 168.718903 24.741371 
L 169.04843 24.500811 
L 169.377958 24.558216 
L 170.36654 24.383441 
L 170.696068 24.481639 
L 171.355123 24.440847 
L 171.684651 24.621156 
L 172.343706 24.364895 
L 173.332288 24.480063 
L 173.991344 24.351151 
L 174.320871 24.487582 
L 174.979926 24.399434 
L 175.638981 24.521542 
L 175.968509 24.361797 
L 176.627564 24.469197 
L 177.286619 24.628677 
L 177.616147 24.665812 
L 177.945674 24.459416 
L 178.934257 24.413198 
L 179.92284 24.280899 
L 180.252367 24.392505 
L 180.581895 24.386307 
L 181.24095 24.559915 
L 181.570477 24.397946 
L 182.229532 24.510838 
L 182.55906 24.38738 
L 183.218115 24.450254 
L 184.865753 24.38809 
L 185.195281 24.399627 
L 185.524808 24.648958 
L 185.854336 24.470646 
L 186.183863 24.449378 
L 186.513391 24.278373 
L 186.842918 24.513401 
L 187.172446 24.345961 
L 188.490556 24.408276 
L 189.479139 24.367541 
L 191.126777 24.416342 
L 192.774414 24.348303 
L 196.728745 24.468405 
L 197.058273 24.306023 
L 197.3878 24.42143 
L 198.046855 24.329404 
L 198.70591 24.277091 
L 199.035438 24.42314 
L 199.364966 24.138105 
L 200.024021 24.571665 
L 200.353548 24.436557 
L 201.671658 24.514655 
L 202.001186 24.270108 
L 202.330714 24.360497 
L 202.660241 24.276293 
L 202.989769 24.467403 
L 203.319296 24.394216 
L 203.648824 24.508252 
L 203.978351 24.450783 
L 204.307879 24.554188 
L 204.637406 24.393205 
L 205.625989 24.438857 
L 205.955517 24.480183 
L 206.614572 24.370701 
L 207.273627 24.396978 
L 207.603155 24.430544 
L 208.26221 24.296375 
L 208.591737 24.384654 
L 208.921265 24.306024 
L 210.239375 24.339541 
L 210.568903 24.215613 
L 210.89843 24.38495 
L 211.227958 24.330501 
L 211.557485 24.791746 
L 211.887013 24.429033 
L 213.205123 24.371566 
L 215.182288 24.34002 
L 215.511816 24.230049 
L 217.159454 24.350801 
L 217.488981 24.249272 
L 218.477564 24.528916 
L 219.136619 24.623139 
L 220.454729 24.297729 
L 220.784257 24.736579 
L 221.443312 24.3524 
L 221.77284 24.512489 
L 222.431895 24.457611 
L 222.761422 24.347015 
L 223.750005 24.462797 
L 224.079532 24.25016 
L 225.068115 24.462059 
L 225.397643 24.241858 
L 225.72717 24.353501 
L 226.715753 24.259728 
L 227.045281 24.363391 
L 227.374808 24.346146 
L 228.033863 24.599198 
L 229.022446 24.330953 
L 230.340556 24.422042 
L 230.670084 24.334121 
L 230.999611 24.464414 
L 231.329139 24.342714 
L 231.658666 24.427036 
L 231.988194 24.254684 
L 232.976777 24.434306 
L 233.635832 24.440346 
L 233.965359 24.514532 
L 234.294887 24.378817 
L 235.612997 24.589438 
L 235.942525 24.429185 
L 236.272052 24.683526 
L 236.931107 24.44437 
L 237.260635 24.584074 
L 237.590162 24.978954 
L 238.249218 24.588071 
L 238.908273 24.364169 
L 239.2378 24.356789 
L 239.567328 24.701726 
L 239.896855 24.541441 
L 240.226383 24.564799 
L 240.55591 24.386083 
L 242.203548 24.433225 
L 242.533076 24.494717 
L 242.862603 24.384413 
L 243.192131 24.505123 
L 243.521658 24.408076 
L 244.180714 24.590922 
L 244.839769 24.376998 
L 245.169296 24.635085 
L 245.828351 24.286466 
L 246.157879 24.467958 
L 246.816934 24.484564 
L 247.475989 24.242046 
L 248.135044 24.365731 
L 249.123627 24.389279 
L 249.782682 24.475653 
L 250.11221 24.309664 
L 250.441737 24.607597 
L 250.771265 24.289118 
L 251.100792 24.419512 
L 251.43032 24.342606 
L 252.089375 24.471088 
L 252.418903 24.550488 
L 253.077958 24.350021 
L 253.407485 24.502697 
L 253.737013 24.440718 
L 254.06654 24.509013 
L 254.725595 24.322791 
L 255.055123 24.296636 
L 255.714178 24.435585 
L 256.373233 24.342964 
L 257.032288 24.478655 
L 257.361816 24.396353 
L 258.020871 24.438095 
L 258.679926 24.424629 
L 259.338981 24.57825 
L 259.668509 24.506699 
L 259.998036 24.599826 
L 260.327564 24.419386 
L 260.657092 24.560531 
L 260.986619 24.447033 
L 261.316147 23.924665 
L 261.645674 24.303622 
L 261.975202 24.476765 
L 262.634257 24.490962 
L 262.963784 24.571585 
L 263.293312 24.422748 
L 264.94095 24.685319 
L 265.270477 24.365054 
L 266.588588 24.573497 
L 266.918115 24.513067 
L 267.906698 24.663941 
L 268.236225 24.528377 
L 268.565753 24.900595 
L 268.895281 24.52967 
L 269.224808 24.579664 
L 269.554336 24.801528 
L 270.213391 24.43505 
L 270.542918 24.363339 
L 272.190556 24.683133 
L 272.849611 24.65835 
L 273.179139 24.580771 
L 273.508666 24.365414 
L 274.497249 24.522133 
L 274.826777 24.225795 
L 275.156304 24.472038 
L 275.485832 24.303753 
L 276.474414 24.483114 
L 276.803942 24.375002 
L 277.462997 24.531656 
L 279.110635 24.468255 
L 279.76969 24.569168 
L 281.417328 24.500919 
L 281.746855 24.597809 
L 282.076383 24.49538 
L 282.40591 24.630937 
L 282.735438 24.544242 
L 283.064966 24.617584 
L 283.394493 24.502603 
L 284.383076 24.676496 
L 284.712603 24.458198 
L 285.042131 24.65958 
L 285.701186 24.48077 
L 287.019296 24.661673 
L 288.007879 24.524414 
L 289.325989 24.663122 
L 290.314572 24.582569 
L 290.644099 24.695054 
L 290.973627 24.609876 
L 292.621265 24.784393 
L 293.609847 24.6179 
L 293.939375 24.729476 
L 294.59843 24.688916 
L 295.91654 24.629159 
L 296.246068 24.808785 
L 296.575595 24.848702 
L 296.905123 24.643209 
L 298.882288 24.705931 
L 299.541344 24.711804 
L 300.200399 24.810372 
L 300.529926 24.727533 
L 300.859454 24.795036 
L 301.188981 24.739404 
L 301.518509 24.532624 
L 301.848036 24.787422 
L 302.507092 24.552277 
L 302.836619 24.855839 
L 303.495674 24.798813 
L 303.825202 24.974979 
L 304.154729 24.816526 
L 305.143312 24.902615 
L 305.47284 24.755511 
L 305.802367 25.548196 
L 306.131895 28.243583 
L 306.461422 39.05489 
L 307.120477 90.274318 
L 308.10906 133.686165 
L 308.768115 147.246501 
L 309.42717 155.139359 
L 310.086225 160.713517 
L 311.733863 169.378081 
L 312.392918 171.649104 
L 313.711029 174.776165 
L 315.029139 177.270012 
L 316.017721 178.965739 
L 318.324414 183.557476 
L 320.30158 185.075497 
L 323.267328 186.998393 
L 325.574021 188.379359 
L 328.539769 189.363369 
L 331.175989 190.017848 
L 334.800792 190.865199 
L 339.084651 192.769807 
L 344.686619 194.963891 
L 349.95906 196.892742 
L 355.561029 198.046081 
L 360.503942 199.296144 
L 362.810635 199.852057 
L 365.117328 199.874529 
L 368.083076 199.653378 
L 372.366934 199.06917 
L 379.287013 198.12824 
L 384.229926 197.753316 
L 388.843312 197.405486 
L 388.843312 197.405486 
" clip-path="url(#p903a659abe)" style="fill: none; stroke: #ff0000; stroke-linecap: square"/>
   </g>
   <g id="line2d_200">
    <path d="M 59.315753 200.571555 
L 81.723627 200.39791 
L 94.575202 200.062548 
L 101.824808 199.703849 
L 109.074414 199.132826 
L 115.994493 198.394129 
L 119.948824 197.761463 
L 120.937406 197.529845 
L 124.56221 196.046928 
L 125.550792 195.75649 
L 126.209847 195.665858 
L 127.19843 194.651924 
L 134.448036 183.677933 
L 134.777564 182.931447 
L 136.425202 177.51989 
L 137.743312 170.877301 
L 138.731895 162.424072 
L 139.720477 145.441688 
L 140.050005 137.690373 
L 141.038588 95.205906 
L 142.02717 38.414495 
L 142.356698 36.462838 
L 142.686225 35.929313 
L 143.015753 36.078376 
L 143.345281 36.054494 
L 143.674808 36.234113 
L 144.333863 35.841475 
L 145.322446 35.548498 
L 145.651973 35.44119 
L 145.981501 35.134422 
L 146.311029 35.004893 
L 146.640556 35.14658 
L 147.299611 34.741333 
L 147.958666 34.577342 
L 148.617721 34.186036 
L 148.947249 34.107519 
L 149.276777 34.225829 
L 149.606304 33.862329 
L 149.935832 33.919124 
L 150.265359 33.626669 
L 150.594887 33.568234 
L 151.253942 33.225904 
L 151.583469 33.091678 
L 151.912997 33.083866 
L 152.242525 32.844637 
L 152.90158 32.736408 
L 154.878745 32.147373 
L 156.85591 31.636017 
L 157.514966 31.513999 
L 157.844493 31.388548 
L 158.174021 31.478128 
L 158.503548 31.318881 
L 158.833076 31.361819 
L 159.162603 31.106188 
L 159.821658 31.0422 
L 160.810241 30.756792 
L 161.469296 30.788568 
L 162.787406 30.378792 
L 163.116934 30.601203 
L 163.446462 30.385056 
L 164.435044 30.368508 
L 165.094099 30.145888 
L 165.423627 30.237406 
L 166.082682 30.067237 
L 166.41221 30.064403 
L 166.741737 29.836444 
L 167.071265 29.938274 
L 167.400792 29.801894 
L 168.059847 29.757222 
L 168.389375 29.457794 
L 168.718903 29.519151 
L 169.04843 29.946596 
L 169.707485 29.660951 
L 170.037013 29.746934 
L 170.36654 29.573519 
L 170.696068 29.668431 
L 171.025595 29.491287 
L 171.355123 29.706395 
L 171.684651 29.538253 
L 172.014178 29.560456 
L 172.343706 29.746448 
L 172.673233 29.28388 
L 173.332288 29.447448 
L 173.991344 29.18629 
L 174.320871 29.294312 
L 174.650399 29.155018 
L 174.979926 29.340053 
L 176.298036 29.149099 
L 176.957092 29.165232 
L 177.286619 29.268884 
L 177.616147 29.054636 
L 178.934257 29.050811 
L 179.263784 29.136778 
L 179.593312 28.883642 
L 179.92284 29.06035 
L 180.581895 28.869154 
L 180.911422 28.794999 
L 181.24095 28.877415 
L 181.570477 28.808949 
L 181.900005 29.012963 
L 182.229532 28.828397 
L 182.888588 28.857466 
L 183.218115 28.719312 
L 183.547643 28.860784 
L 183.87717 28.739728 
L 184.206698 28.996389 
L 184.536225 28.643328 
L 185.524808 28.6544 
L 186.183863 28.634604 
L 186.513391 28.352928 
L 186.842918 28.560215 
L 188.820084 28.380624 
L 189.149611 28.463346 
L 190.797249 28.203618 
L 191.126777 28.391381 
L 191.456304 28.337691 
L 192.115359 28.444776 
L 192.444887 28.13687 
L 193.103942 28.287227 
L 193.433469 28.310602 
L 193.762997 28.144974 
L 194.422052 28.161098 
L 196.06969 28.088975 
L 196.399218 27.851933 
L 197.717328 28.054564 
L 198.046855 27.912863 
L 199.035438 27.971417 
L 200.353548 27.833132 
L 200.683076 27.941563 
L 202.001186 27.784094 
L 202.330714 27.860267 
L 202.660241 27.636846 
L 202.989769 27.907151 
L 203.648824 27.964915 
L 203.978351 27.788196 
L 205.296462 27.770146 
L 205.955517 27.765234 
L 206.944099 27.433209 
L 207.603155 27.813861 
L 207.932682 27.679091 
L 208.26221 27.956539 
L 208.921265 27.634086 
L 209.909847 27.607537 
L 210.239375 27.741476 
L 210.568903 27.742863 
L 210.89843 27.589003 
L 211.227958 27.56604 
L 211.557485 27.405356 
L 212.546068 27.629501 
L 213.205123 27.535003 
L 214.193706 27.65164 
L 214.523233 27.531417 
L 214.852761 27.64912 
L 215.841344 27.312898 
L 216.170871 27.487209 
L 218.148036 27.6314 
L 218.807092 27.391252 
L 219.466147 27.393347 
L 221.113784 27.270983 
L 221.443312 27.490125 
L 221.77284 27.322369 
L 222.761422 27.39011 
L 223.09095 27.170163 
L 223.420477 27.263854 
L 223.750005 27.209468 
L 224.079532 27.327138 
L 224.738588 27.195446 
L 225.068115 27.4445 
L 225.72717 27.282762 
L 226.386225 27.192197 
L 226.715753 27.317415 
L 227.045281 27.141547 
L 227.374808 27.313024 
L 227.704336 27.295643 
L 228.033863 27.137909 
L 229.022446 27.197184 
L 229.681501 27.270255 
L 231.988194 27.029247 
L 232.317721 27.273859 
L 232.647249 27.137228 
L 233.306304 27.180748 
L 233.635832 27.046454 
L 234.953942 26.996313 
L 235.283469 27.132549 
L 235.612997 26.975283 
L 237.260635 26.985 
L 237.590162 26.723599 
L 237.91969 26.919596 
L 239.896855 26.619247 
L 240.226383 26.795715 
L 240.55591 26.687581 
L 240.885438 26.76462 
L 242.203548 26.599266 
L 243.192131 26.520093 
L 243.521658 26.39139 
L 243.851186 26.627553 
L 244.510241 26.376416 
L 245.169296 26.393148 
L 246.157879 26.280732 
L 246.816934 26.25763 
L 247.805517 25.881147 
L 248.135044 25.944435 
L 252.089375 25.199295 
L 252.418903 25.032272 
L 254.396068 24.916704 
L 254.725595 24.601288 
L 255.055123 24.817528 
L 255.384651 24.774836 
L 255.714178 24.570676 
L 256.373233 24.647826 
L 256.702761 24.552538 
L 257.032288 24.603923 
L 257.361816 24.468402 
L 258.020871 24.466618 
L 258.350399 24.678002 
L 259.009454 24.37405 
L 259.338981 24.42485 
L 259.668509 24.296998 
L 260.327564 24.561911 
L 260.657092 24.390323 
L 260.986619 24.397734 
L 261.316147 24.073246 
L 261.645674 24.254833 
L 262.304729 24.422638 
L 262.634257 24.56417 
L 262.963784 24.224743 
L 263.62284 24.218339 
L 263.952367 24.267394 
L 264.281895 24.180547 
L 264.611422 24.251273 
L 265.270477 24.036425 
L 265.600005 24.18304 
L 265.929532 24.112734 
L 266.25906 24.205757 
L 266.588588 23.998155 
L 266.918115 24.222155 
L 269.883863 24.088139 
L 270.213391 24.181326 
L 270.542918 24.08115 
L 271.201973 24.104426 
L 271.531501 24.010561 
L 271.861029 24.085877 
L 272.520084 23.961085 
L 272.849611 24.199105 
L 274.167721 23.967528 
L 274.497249 24.056253 
L 274.826777 23.826524 
L 275.156304 23.959597 
L 275.485832 23.740074 
L 276.144887 23.955137 
L 277.133469 23.893931 
L 277.462997 24.029984 
L 277.792525 23.805191 
L 278.45158 23.935957 
L 278.781107 23.613129 
L 279.110635 23.768996 
L 279.440162 23.727231 
L 279.76969 23.917252 
L 280.099218 23.609359 
L 280.428745 23.913519 
L 281.417328 23.865633 
L 281.746855 23.985672 
L 282.076383 23.67318 
L 282.40591 23.825737 
L 283.064966 23.753269 
L 283.394493 23.571081 
L 283.724021 23.930206 
L 284.712603 23.537842 
L 285.042131 23.68319 
L 285.701186 23.631499 
L 286.360241 23.466609 
L 287.019296 23.639318 
L 287.678351 23.443084 
L 288.007879 23.544011 
L 288.337406 23.414444 
L 288.666934 23.527197 
L 289.325989 23.28053 
L 289.655517 23.409005 
L 292.291737 23.116997 
L 292.621265 23.143769 
L 292.950792 22.99573 
L 293.28032 23.016516 
L 293.609847 22.90853 
L 293.939375 22.956801 
L 294.59843 22.741366 
L 295.257485 22.651071 
L 296.575595 22.473635 
L 296.905123 22.131088 
L 297.564178 22.231231 
L 297.893706 21.956646 
L 298.223233 22.008593 
L 298.882288 21.629851 
L 299.211816 21.45366 
L 299.541344 21.580087 
L 299.870871 21.174854 
L 300.200399 21.124042 
L 300.859454 20.697463 
L 301.188981 20.602046 
L 301.518509 20.2531 
L 301.848036 20.192612 
L 303.825202 18.4971 
L 304.484257 17.664017 
L 304.813784 17.393711 
L 305.47284 16.441632 
L 305.802367 16.408169 
L 306.131895 18.717998 
L 306.461422 29.629731 
L 307.120477 82.812719 
L 308.10906 128.207789 
L 308.768115 142.380684 
L 309.42717 150.62105 
L 310.086225 156.403098 
L 311.733863 165.446125 
L 312.392918 167.910756 
L 313.381501 170.590099 
L 314.370084 172.732659 
L 315.358666 174.336881 
L 318.653942 178.507378 
L 320.960635 180.796486 
L 322.9378 182.439091 
L 325.574021 184.428759 
L 329.857879 186.668758 
L 333.81221 188.952361 
L 336.118903 190.594255 
L 339.414178 192.772906 
L 342.709454 194.685848 
L 347.652367 196.923695 
L 349.95906 197.844344 
L 358.856304 199.690302 
L 362.481107 200.353248 
L 366.764966 199.870102 
L 377.639375 198.511796 
L 381.923233 198.265375 
L 387.854729 197.894645 
L 388.843312 197.819228 
L 388.843312 197.819228 
" clip-path="url(#p903a659abe)" style="fill: none; stroke: #0000ff; stroke-linecap: square"/>
   </g>
   <g id="patch_3">
    <path d="M 42.839375 209.779724 
L 42.839375 7.2 
" style="fill: none; stroke: #000000; stroke-width: 0.8; stroke-linejoin: miter; stroke-linecap: square"/>
   </g>
   <g id="patch_4">
    <path d="M 405.31969 209.779724 
L 405.31969 7.2 
" style="fill: none; stroke: #000000; stroke-width: 0.8; stroke-linejoin: miter; stroke-linecap: square"/>
   </g>
   <g id="patch_5">
    <path d="M 42.839375 209.779724 
L 405.31969 209.779724 
" style="fill: none; stroke: #000000; stroke-width: 0.8; stroke-linejoin: miter; stroke-linecap: square"/>
   </g>
   <g id="patch_6">
    <path d="M 42.839375 7.2 
L 405.31969 7.2 
" style="fill: none; stroke: #000000; stroke-width: 0.8; stroke-linejoin: miter; stroke-linecap: square"/>
   </g>
   <g id="legend_1">
    <g id="patch_7">
     <path d="M 176.810001 204.779724 
L 271.349064 204.779724 
Q 273.349064 204.779724 273.349064 202.779724 
L 273.349064 174.145349 
Q 273.349064 172.145349 271.349064 172.145349 
L 176.810001 172.145349 
Q 174.810001 172.145349 174.810001 174.145349 
L 174.810001 202.779724 
Q 174.810001 204.779724 176.810001 204.779724 
z
" style="fill: #ffffff; opacity: 0.8; stroke: #cccccc; stroke-linejoin: miter"/>
    </g>
    <g id="line2d_201">
     <path d="M 178.810001 180.243787 
L 188.810001 180.243787 
L 198.810001 180.243787 
" style="fill: none; stroke: #ff0000; stroke-linecap: square"/>
    </g>
    <g id="text_16">
     <!-- B_0 at t=0 -->
     <g transform="translate(206.810001 183.743787) scale(0.1 -0.1)">
      <defs>
       <path id="DejaVuSans-42" d="M 1259 2228 
L 1259 519 
L 2272 519 
Q 2781 519 3026 730 
Q 3272 941 3272 1375 
Q 3272 1813 3026 2020 
Q 2781 2228 2272 2228 
L 1259 2228 
z
M 1259 4147 
L 1259 2741 
L 2194 2741 
Q 2656 2741 2882 2914 
Q 3109 3088 3109 3444 
Q 3109 3797 2882 3972 
Q 2656 4147 2194 4147 
L 1259 4147 
z
M 628 4666 
L 2241 4666 
Q 2963 4666 3353 4366 
Q 3744 4066 3744 3513 
Q 3744 3084 3544 2831 
Q 3344 2578 2956 2516 
Q 3422 2416 3680 2098 
Q 3938 1781 3938 1306 
Q 3938 681 3513 340 
Q 3088 0 2303 0 
L 628 0 
L 628 4666 
z
" transform="scale(0.015625)"/>
       <path id="DejaVuSans-5f" d="M 3263 -1063 
L 3263 -1509 
L -63 -1509 
L -63 -1063 
L 3263 -1063 
z
" transform="scale(0.015625)"/>
       <path id="DejaVuSans-3d" d="M 678 2906 
L 4684 2906 
L 4684 2381 
L 678 2381 
L 678 2906 
z
M 678 1631 
L 4684 1631 
L 4684 1100 
L 678 1100 
L 678 1631 
z
" transform="scale(0.015625)"/>
      </defs>
      <use xlink:href="#DejaVuSans-42"/>
      <use xlink:href="#DejaVuSans-5f" transform="translate(68.603516 0)"/>
      <use xlink:href="#DejaVuSans-30" transform="translate(118.603516 0)"/>
      <use xlink:href="#DejaVuSans-20" transform="translate(182.226562 0)"/>
      <use xlink:href="#DejaVuSans-61" transform="translate(214.013672 0)"/>
      <use xlink:href="#DejaVuSans-74" transform="translate(275.292969 0)"/>
      <use xlink:href="#DejaVuSans-20" transform="translate(314.501953 0)"/>
      <use xlink:href="#DejaVuSans-74" transform="translate(346.289062 0)"/>
      <use xlink:href="#DejaVuSans-3d" transform="translate(385.498047 0)"/>
      <use xlink:href="#DejaVuSans-30" transform="translate(469.287109 0)"/>
     </g>
    </g>
    <g id="line2d_202">
     <path d="M 178.810001 195.200037 
L 188.810001 195.200037 
L 198.810001 195.200037 
" style="fill: none; stroke: #0000ff; stroke-linecap: square"/>
    </g>
    <g id="text_17">
     <!-- B t=0.0009s -->
     <g transform="translate(206.810001 198.700037) scale(0.1 -0.1)">
      <defs>
       <path id="DejaVuSans-39" d="M 703 97 
L 703 672 
Q 941 559 1184 500 
Q 1428 441 1663 441 
Q 2288 441 2617 861 
Q 2947 1281 2994 2138 
Q 2813 1869 2534 1725 
Q 2256 1581 1919 1581 
Q 1219 1581 811 2004 
Q 403 2428 403 3163 
Q 403 3881 828 4315 
Q 1253 4750 1959 4750 
Q 2769 4750 3195 4129 
Q 3622 3509 3622 2328 
Q 3622 1225 3098 567 
Q 2575 -91 1691 -91 
Q 1453 -91 1209 -44 
Q 966 3 703 97 
z
M 1959 2075 
Q 2384 2075 2632 2365 
Q 2881 2656 2881 3163 
Q 2881 3666 2632 3958 
Q 2384 4250 1959 4250 
Q 1534 4250 1286 3958 
Q 1038 3666 1038 3163 
Q 1038 2656 1286 2365 
Q 1534 2075 1959 2075 
z
" transform="scale(0.015625)"/>
      </defs>
      <use xlink:href="#DejaVuSans-42"/>
      <use xlink:href="#DejaVuSans-20" transform="translate(68.603516 0)"/>
      <use xlink:href="#DejaVuSans-74" transform="translate(100.390625 0)"/>
      <use xlink:href="#DejaVuSans-3d" transform="translate(139.599609 0)"/>
      <use xlink:href="#DejaVuSans-30" transform="translate(223.388672 0)"/>
      <use xlink:href="#DejaVuSans-2e" transform="translate(287.011719 0)"/>
      <use xlink:href="#DejaVuSans-30" transform="translate(318.798828 0)"/>
      <use xlink:href="#DejaVuSans-30" transform="translate(382.421875 0)"/>
      <use xlink:href="#DejaVuSans-30" transform="translate(446.044922 0)"/>
      <use xlink:href="#DejaVuSans-39" transform="translate(509.667969 0)"/>
      <use xlink:href="#DejaVuSans-73" transform="translate(573.291016 0)"/>
     </g>
    </g>
   </g>
  </g>
 </g>
 <defs>
  <clipPath id="p903a659abe">
   <rect x="42.839375" y="7.2" width="362.480315" height="202.579724"/>
  </clipPath>
 </defs>
</svg>
