<?xml version="1.0" encoding="utf-8" standalone="no"?>
<!DOCTYPE svg PUBLIC "-//W3C//DTD SVG 1.1//EN"
  "http://www.w3.org/Graphics/SVG/1.1/DTD/svg11.dtd">
<svg xmlns:xlink="http://www.w3.org/1999/xlink" width="425.546096pt" height="245.771599pt" viewBox="0 0 425.546096 245.771599" xmlns="http://www.w3.org/2000/svg" version="1.1">
 <metadata>
  <rdf:RDF xmlns:dc="http://purl.org/dc/elements/1.1/" xmlns:cc="http://creativecommons.org/ns#" xmlns:rdf="http://www.w3.org/1999/02/22-rdf-syntax-ns#">
   <cc:Work>
    <dc:type rdf:resource="http://purl.org/dc/dcmitype/StillImage"/>
    <dc:date>2026-01-19T15:18:00.783693</dc:date>
    <dc:format>image/svg+xml</dc:format>
    <dc:creator>
     <cc:Agent>
      <dc:title>Matplotlib v3.10.8, https://matplotlib.org/</dc:title>
     </cc:Agent>
    </dc:creator>
   </cc:Work>
  </rdf:RDF>
 </metadata>
 <defs>
  <style type="text/css">*{stroke-linejoin: round; stroke-linecap: butt}</style>
 </defs>
 <g id="figure_1">
  <g id="patch_1">
   <path d="M 0 245.771599 
L 425.546096 245.771599 
L 425.546096 0 
L 0 0 
z
" style="fill: #ffffff"/>
  </g>
  <g id="axes_1">
   <g id="patch_2">
    <path d="M 55.865781 209.779724 
L 418.346096 209.779724 
L 418.346096 7.2 
L 55.865781 7.2 
z
" style="fill: #ffffff"/>
   </g>
   <g id="matplotlib.axis_1">
    <g id="xtick_1">
     <g id="line2d_1">
      <path d="M 72.342159 209.779724 
L 72.342159 7.2 
" clip-path="url(#p1091b4d705)" style="fill: none; stroke: #b0b0b0; stroke-opacity: 0.7; stroke-width: 0.5; stroke-linecap: square"/>
     </g>
     <g id="line2d_2">
      <defs>
       <path id="md02e4239e3" d="M 0 0 
L 0 -4 
" style="stroke: #000000"/>
      </defs>
      <g>
       <use xlink:href="#md02e4239e3" x="72.342159" y="209.779724" style="stroke: #000000"/>
      </g>
     </g>
     <g id="line2d_3">
      <defs>
       <path id="m9b669a916f" d="M 0 0 
L 0 4 
" style="stroke: #000000"/>
      </defs>
      <g>
       <use xlink:href="#m9b669a916f" x="72.342159" y="7.2" style="stroke: #000000"/>
      </g>
     </g>
     <g id="text_1">
      <!-- 0 -->
      <g transform="translate(68.842784 221.638006) scale(0.11 -0.11)">
       <defs>
        <path id="DejaVuSans-30" d="M 2034 4250 
Q 1547 4250 1301 3770 
Q 1056 3291 1056 2328 
Q 1056 1369 1301 889 
Q 1547 409 2034 409 
Q 2525 409 2770 889 
Q 3016 1369 3016 2328 
Q 3016 3291 2770 3770 
Q 2525 4250 2034 4250 
z
M 2034 4750 
Q 2819 4750 3233 4129 
Q 3647 3509 3647 2328 
Q 3647 1150 3233 529 
Q 2819 -91 2034 -91 
Q 1250 -91 836 529 
Q 422 1150 422 2328 
Q 422 3509 836 4129 
Q 1250 4750 2034 4750 
z
" transform="scale(0.015625)"/>
       </defs>
       <use xlink:href="#DejaVuSans-30"/>
      </g>
     </g>
    </g>
    <g id="xtick_2">
     <g id="line2d_4">
      <path d="M 145.570506 209.779724 
L 145.570506 7.2 
" clip-path="url(#p1091b4d705)" style="fill: none; stroke: #b0b0b0; stroke-opacity: 0.7; stroke-width: 0.5; stroke-linecap: square"/>
     </g>
     <g id="line2d_5">
      <g>
       <use xlink:href="#md02e4239e3" x="145.570506" y="209.779724" style="stroke: #000000"/>
      </g>
     </g>
     <g id="line2d_6">
      <g>
       <use xlink:href="#m9b669a916f" x="145.570506" y="7.2" style="stroke: #000000"/>
      </g>
     </g>
     <g id="text_2">
      <!-- 200 -->
      <g transform="translate(135.072381 221.638006) scale(0.11 -0.11)">
       <defs>
        <path id="DejaVuSans-32" d="M 1228 531 
L 3431 531 
L 3431 0 
L 469 0 
L 469 531 
Q 828 903 1448 1529 
Q 2069 2156 2228 2338 
Q 2531 2678 2651 2914 
Q 2772 3150 2772 3378 
Q 2772 3750 2511 3984 
Q 2250 4219 1831 4219 
Q 1534 4219 1204 4116 
Q 875 4013 500 3803 
L 500 4441 
Q 881 4594 1212 4672 
Q 1544 4750 1819 4750 
Q 2544 4750 2975 4387 
Q 3406 4025 3406 3419 
Q 3406 3131 3298 2873 
Q 3191 2616 2906 2266 
Q 2828 2175 2409 1742 
Q 1991 1309 1228 531 
z
" transform="scale(0.015625)"/>
       </defs>
       <use xlink:href="#DejaVuSans-32"/>
       <use xlink:href="#DejaVuSans-30" transform="translate(63.623047 0)"/>
       <use xlink:href="#DejaVuSans-30" transform="translate(127.246094 0)"/>
      </g>
     </g>
    </g>
    <g id="xtick_3">
     <g id="line2d_7">
      <path d="M 218.798852 209.779724 
L 218.798852 7.2 
" clip-path="url(#p1091b4d705)" style="fill: none; stroke: #b0b0b0; stroke-opacity: 0.7; stroke-width: 0.5; stroke-linecap: square"/>
     </g>
     <g id="line2d_8">
      <g>
       <use xlink:href="#md02e4239e3" x="218.798852" y="209.779724" style="stroke: #000000"/>
      </g>
     </g>
     <g id="line2d_9">
      <g>
       <use xlink:href="#m9b669a916f" x="218.798852" y="7.2" style="stroke: #000000"/>
      </g>
     </g>
     <g id="text_3">
      <!-- 400 -->
      <g transform="translate(208.300727 221.638006) scale(0.11 -0.11)">
       <defs>
        <path id="DejaVuSans-34" d="M 2419 4116 
L 825 1625 
L 2419 1625 
L 2419 4116 
z
M 2253 4666 
L 3047 4666 
L 3047 1625 
L 3713 1625 
L 3713 1100 
L 3047 1100 
L 3047 0 
L 2419 0 
L 2419 1100 
L 313 1100 
L 313 1709 
L 2253 4666 
z
" transform="scale(0.015625)"/>
       </defs>
       <use xlink:href="#DejaVuSans-34"/>
       <use xlink:href="#DejaVuSans-30" transform="translate(63.623047 0)"/>
       <use xlink:href="#DejaVuSans-30" transform="translate(127.246094 0)"/>
      </g>
     </g>
    </g>
    <g id="xtick_4">
     <g id="line2d_10">
      <path d="M 292.027199 209.779724 
L 292.027199 7.2 
" clip-path="url(#p1091b4d705)" style="fill: none; stroke: #b0b0b0; stroke-opacity: 0.7; stroke-width: 0.5; stroke-linecap: square"/>
     </g>
     <g id="line2d_11">
      <g>
       <use xlink:href="#md02e4239e3" x="292.027199" y="209.779724" style="stroke: #000000"/>
      </g>
     </g>
     <g id="line2d_12">
      <g>
       <use xlink:href="#m9b669a916f" x="292.027199" y="7.2" style="stroke: #000000"/>
      </g>
     </g>
     <g id="text_4">
      <!-- 600 -->
      <g transform="translate(281.529074 221.638006) scale(0.11 -0.11)">
       <defs>
        <path id="DejaVuSans-36" d="M 2113 2584 
Q 1688 2584 1439 2293 
Q 1191 2003 1191 1497 
Q 1191 994 1439 701 
Q 1688 409 2113 409 
Q 2538 409 2786 701 
Q 3034 994 3034 1497 
Q 3034 2003 2786 2293 
Q 2538 2584 2113 2584 
z
M 3366 4563 
L 3366 3988 
Q 3128 4100 2886 4159 
Q 2644 4219 2406 4219 
Q 1781 4219 1451 3797 
Q 1122 3375 1075 2522 
Q 1259 2794 1537 2939 
Q 1816 3084 2150 3084 
Q 2853 3084 3261 2657 
Q 3669 2231 3669 1497 
Q 3669 778 3244 343 
Q 2819 -91 2113 -91 
Q 1303 -91 875 529 
Q 447 1150 447 2328 
Q 447 3434 972 4092 
Q 1497 4750 2381 4750 
Q 2619 4750 2861 4703 
Q 3103 4656 3366 4563 
z
" transform="scale(0.015625)"/>
       </defs>
       <use xlink:href="#DejaVuSans-36"/>
       <use xlink:href="#DejaVuSans-30" transform="translate(63.623047 0)"/>
       <use xlink:href="#DejaVuSans-30" transform="translate(127.246094 0)"/>
      </g>
     </g>
    </g>
    <g id="xtick_5">
     <g id="line2d_13">
      <path d="M 365.255545 209.779724 
L 365.255545 7.2 
" clip-path="url(#p1091b4d705)" style="fill: none; stroke: #b0b0b0; stroke-opacity: 0.7; stroke-width: 0.5; stroke-linecap: square"/>
     </g>
     <g id="line2d_14">
      <g>
       <use xlink:href="#md02e4239e3" x="365.255545" y="209.779724" style="stroke: #000000"/>
      </g>
     </g>
     <g id="line2d_15">
      <g>
       <use xlink:href="#m9b669a916f" x="365.255545" y="7.2" style="stroke: #000000"/>
      </g>
     </g>
     <g id="text_5">
      <!-- 800 -->
      <g transform="translate(354.75742 221.638006) scale(0.11 -0.11)">
       <defs>
        <path id="DejaVuSans-38" d="M 2034 2216 
Q 1584 2216 1326 1975 
Q 1069 1734 1069 1313 
Q 1069 891 1326 650 
Q 1584 409 2034 409 
Q 2484 409 2743 651 
Q 3003 894 3003 1313 
Q 3003 1734 2745 1975 
Q 2488 2216 2034 2216 
z
M 1403 2484 
Q 997 2584 770 2862 
Q 544 3141 544 3541 
Q 544 4100 942 4425 
Q 1341 4750 2034 4750 
Q 2731 4750 3128 4425 
Q 3525 4100 3525 3541 
Q 3525 3141 3298 2862 
Q 3072 2584 2669 2484 
Q 3125 2378 3379 2068 
Q 3634 1759 3634 1313 
Q 3634 634 3220 271 
Q 2806 -91 2034 -91 
Q 1263 -91 848 271 
Q 434 634 434 1313 
Q 434 1759 690 2068 
Q 947 2378 1403 2484 
z
M 1172 3481 
Q 1172 3119 1398 2916 
Q 1625 2713 2034 2713 
Q 2441 2713 2670 2916 
Q 2900 3119 2900 3481 
Q 2900 3844 2670 4047 
Q 2441 4250 2034 4250 
Q 1625 4250 1398 4047 
Q 1172 3844 1172 3481 
z
" transform="scale(0.015625)"/>
       </defs>
       <use xlink:href="#DejaVuSans-38"/>
       <use xlink:href="#DejaVuSans-30" transform="translate(63.623047 0)"/>
       <use xlink:href="#DejaVuSans-30" transform="translate(127.246094 0)"/>
      </g>
     </g>
    </g>
    <g id="xtick_6">
     <g id="line2d_16">
      <path d="M 90.649246 209.779724 
L 90.649246 7.2 
" clip-path="url(#p1091b4d705)" style="fill: none; stroke-dasharray: 0.3,0.495; stroke-dashoffset: 0; stroke: #b0b0b0; stroke-opacity: 0.9; stroke-width: 0.3"/>
     </g>
     <g id="line2d_17">
      <g>
       <use xlink:href="#md02e4239e3" x="90.649246" y="209.779724" style="stroke: #000000"/>
      </g>
     </g>
     <g id="line2d_18">
      <g>
       <use xlink:href="#m9b669a916f" x="90.649246" y="7.2" style="stroke: #000000"/>
      </g>
     </g>
    </g>
    <g id="xtick_7">
     <g id="line2d_19">
      <path d="M 108.956332 209.779724 
L 108.956332 7.2 
" clip-path="url(#p1091b4d705)" style="fill: none; stroke-dasharray: 0.3,0.495; stroke-dashoffset: 0; stroke: #b0b0b0; stroke-opacity: 0.9; stroke-width: 0.3"/>
     </g>
     <g id="line2d_20">
      <g>
       <use xlink:href="#md02e4239e3" x="108.956332" y="209.779724" style="stroke: #000000"/>
      </g>
     </g>
     <g id="line2d_21">
      <g>
       <use xlink:href="#m9b669a916f" x="108.956332" y="7.2" style="stroke: #000000"/>
      </g>
     </g>
    </g>
    <g id="xtick_8">
     <g id="line2d_22">
      <path d="M 127.263419 209.779724 
L 127.263419 7.2 
" clip-path="url(#p1091b4d705)" style="fill: none; stroke-dasharray: 0.3,0.495; stroke-dashoffset: 0; stroke: #b0b0b0; stroke-opacity: 0.9; stroke-width: 0.3"/>
     </g>
     <g id="line2d_23">
      <g>
       <use xlink:href="#md02e4239e3" x="127.263419" y="209.779724" style="stroke: #000000"/>
      </g>
     </g>
     <g id="line2d_24">
      <g>
       <use xlink:href="#m9b669a916f" x="127.263419" y="7.2" style="stroke: #000000"/>
      </g>
     </g>
    </g>
    <g id="xtick_9">
     <g id="line2d_25">
      <path d="M 163.877592 209.779724 
L 163.877592 7.2 
" clip-path="url(#p1091b4d705)" style="fill: none; stroke-dasharray: 0.3,0.495; stroke-dashoffset: 0; stroke: #b0b0b0; stroke-opacity: 0.9; stroke-width: 0.3"/>
     </g>
     <g id="line2d_26">
      <g>
       <use xlink:href="#md02e4239e3" x="163.877592" y="209.779724" style="stroke: #000000"/>
      </g>
     </g>
     <g id="line2d_27">
      <g>
       <use xlink:href="#m9b669a916f" x="163.877592" y="7.2" style="stroke: #000000"/>
      </g>
     </g>
    </g>
    <g id="xtick_10">
     <g id="line2d_28">
      <path d="M 182.184679 209.779724 
L 182.184679 7.2 
" clip-path="url(#p1091b4d705)" style="fill: none; stroke-dasharray: 0.3,0.495; stroke-dashoffset: 0; stroke: #b0b0b0; stroke-opacity: 0.9; stroke-width: 0.3"/>
     </g>
     <g id="line2d_29">
      <g>
       <use xlink:href="#md02e4239e3" x="182.184679" y="209.779724" style="stroke: #000000"/>
      </g>
     </g>
     <g id="line2d_30">
      <g>
       <use xlink:href="#m9b669a916f" x="182.184679" y="7.2" style="stroke: #000000"/>
      </g>
     </g>
    </g>
    <g id="xtick_11">
     <g id="line2d_31">
      <path d="M 200.491766 209.779724 
L 200.491766 7.2 
" clip-path="url(#p1091b4d705)" style="fill: none; stroke-dasharray: 0.3,0.495; stroke-dashoffset: 0; stroke: #b0b0b0; stroke-opacity: 0.9; stroke-width: 0.3"/>
     </g>
     <g id="line2d_32">
      <g>
       <use xlink:href="#md02e4239e3" x="200.491766" y="209.779724" style="stroke: #000000"/>
      </g>
     </g>
     <g id="line2d_33">
      <g>
       <use xlink:href="#m9b669a916f" x="200.491766" y="7.2" style="stroke: #000000"/>
      </g>
     </g>
    </g>
    <g id="xtick_12">
     <g id="line2d_34">
      <path d="M 237.105939 209.779724 
L 237.105939 7.2 
" clip-path="url(#p1091b4d705)" style="fill: none; stroke-dasharray: 0.3,0.495; stroke-dashoffset: 0; stroke: #b0b0b0; stroke-opacity: 0.9; stroke-width: 0.3"/>
     </g>
     <g id="line2d_35">
      <g>
       <use xlink:href="#md02e4239e3" x="237.105939" y="209.779724" style="stroke: #000000"/>
      </g>
     </g>
     <g id="line2d_36">
      <g>
       <use xlink:href="#m9b669a916f" x="237.105939" y="7.2" style="stroke: #000000"/>
      </g>
     </g>
    </g>
    <g id="xtick_13">
     <g id="line2d_37">
      <path d="M 255.413025 209.779724 
L 255.413025 7.2 
" clip-path="url(#p1091b4d705)" style="fill: none; stroke-dasharray: 0.3,0.495; stroke-dashoffset: 0; stroke: #b0b0b0; stroke-opacity: 0.9; stroke-width: 0.3"/>
     </g>
     <g id="line2d_38">
      <g>
       <use xlink:href="#md02e4239e3" x="255.413025" y="209.779724" style="stroke: #000000"/>
      </g>
     </g>
     <g id="line2d_39">
      <g>
       <use xlink:href="#m9b669a916f" x="255.413025" y="7.2" style="stroke: #000000"/>
      </g>
     </g>
    </g>
    <g id="xtick_14">
     <g id="line2d_40">
      <path d="M 273.720112 209.779724 
L 273.720112 7.2 
" clip-path="url(#p1091b4d705)" style="fill: none; stroke-dasharray: 0.3,0.495; stroke-dashoffset: 0; stroke: #b0b0b0; stroke-opacity: 0.9; stroke-width: 0.3"/>
     </g>
     <g id="line2d_41">
      <g>
       <use xlink:href="#md02e4239e3" x="273.720112" y="209.779724" style="stroke: #000000"/>
      </g>
     </g>
     <g id="line2d_42">
      <g>
       <use xlink:href="#m9b669a916f" x="273.720112" y="7.2" style="stroke: #000000"/>
      </g>
     </g>
    </g>
    <g id="xtick_15">
     <g id="line2d_43">
      <path d="M 310.334285 209.779724 
L 310.334285 7.2 
" clip-path="url(#p1091b4d705)" style="fill: none; stroke-dasharray: 0.3,0.495; stroke-dashoffset: 0; stroke: #b0b0b0; stroke-opacity: 0.9; stroke-width: 0.3"/>
     </g>
     <g id="line2d_44">
      <g>
       <use xlink:href="#md02e4239e3" x="310.334285" y="209.779724" style="stroke: #000000"/>
      </g>
     </g>
     <g id="line2d_45">
      <g>
       <use xlink:href="#m9b669a916f" x="310.334285" y="7.2" style="stroke: #000000"/>
      </g>
     </g>
    </g>
    <g id="xtick_16">
     <g id="line2d_46">
      <path d="M 328.641372 209.779724 
L 328.641372 7.2 
" clip-path="url(#p1091b4d705)" style="fill: none; stroke-dasharray: 0.3,0.495; stroke-dashoffset: 0; stroke: #b0b0b0; stroke-opacity: 0.9; stroke-width: 0.3"/>
     </g>
     <g id="line2d_47">
      <g>
       <use xlink:href="#md02e4239e3" x="328.641372" y="209.779724" style="stroke: #000000"/>
      </g>
     </g>
     <g id="line2d_48">
      <g>
       <use xlink:href="#m9b669a916f" x="328.641372" y="7.2" style="stroke: #000000"/>
      </g>
     </g>
    </g>
    <g id="xtick_17">
     <g id="line2d_49">
      <path d="M 346.948458 209.779724 
L 346.948458 7.2 
" clip-path="url(#p1091b4d705)" style="fill: none; stroke-dasharray: 0.3,0.495; stroke-dashoffset: 0; stroke: #b0b0b0; stroke-opacity: 0.9; stroke-width: 0.3"/>
     </g>
     <g id="line2d_50">
      <g>
       <use xlink:href="#md02e4239e3" x="346.948458" y="209.779724" style="stroke: #000000"/>
      </g>
     </g>
     <g id="line2d_51">
      <g>
       <use xlink:href="#m9b669a916f" x="346.948458" y="7.2" style="stroke: #000000"/>
      </g>
     </g>
    </g>
    <g id="xtick_18">
     <g id="line2d_52">
      <path d="M 383.562632 209.779724 
L 383.562632 7.2 
" clip-path="url(#p1091b4d705)" style="fill: none; stroke-dasharray: 0.3,0.495; stroke-dashoffset: 0; stroke: #b0b0b0; stroke-opacity: 0.9; stroke-width: 0.3"/>
     </g>
     <g id="line2d_53">
      <g>
       <use xlink:href="#md02e4239e3" x="383.562632" y="209.779724" style="stroke: #000000"/>
      </g>
     </g>
     <g id="line2d_54">
      <g>
       <use xlink:href="#m9b669a916f" x="383.562632" y="7.2" style="stroke: #000000"/>
      </g>
     </g>
    </g>
    <g id="xtick_19">
     <g id="line2d_55">
      <path d="M 401.869718 209.779724 
L 401.869718 7.2 
" clip-path="url(#p1091b4d705)" style="fill: none; stroke-dasharray: 0.3,0.495; stroke-dashoffset: 0; stroke: #b0b0b0; stroke-opacity: 0.9; stroke-width: 0.3"/>
     </g>
     <g id="line2d_56">
      <g>
       <use xlink:href="#md02e4239e3" x="401.869718" y="209.779724" style="stroke: #000000"/>
      </g>
     </g>
     <g id="line2d_57">
      <g>
       <use xlink:href="#m9b669a916f" x="401.869718" y="7.2" style="stroke: #000000"/>
      </g>
     </g>
    </g>
    <g id="text_6">
     <!-- Time [μs] -->
     <g transform="translate(211.244767 236.283943) scale(0.11 -0.11)">
      <defs>
       <path id="DejaVuSans-54" d="M -19 4666 
L 3928 4666 
L 3928 4134 
L 2272 4134 
L 2272 0 
L 1638 0 
L 1638 4134 
L -19 4134 
L -19 4666 
z
" transform="scale(0.015625)"/>
       <path id="DejaVuSans-69" d="M 603 3500 
L 1178 3500 
L 1178 0 
L 603 0 
L 603 3500 
z
M 603 4863 
L 1178 4863 
L 1178 4134 
L 603 4134 
L 603 4863 
z
" transform="scale(0.015625)"/>
       <path id="DejaVuSans-6d" d="M 3328 2828 
Q 3544 3216 3844 3400 
Q 4144 3584 4550 3584 
Q 5097 3584 5394 3201 
Q 5691 2819 5691 2113 
L 5691 0 
L 5113 0 
L 5113 2094 
Q 5113 2597 4934 2840 
Q 4756 3084 4391 3084 
Q 3944 3084 3684 2787 
Q 3425 2491 3425 1978 
L 3425 0 
L 2847 0 
L 2847 2094 
Q 2847 2600 2669 2842 
Q 2491 3084 2119 3084 
Q 1678 3084 1418 2786 
Q 1159 2488 1159 1978 
L 1159 0 
L 581 0 
L 581 3500 
L 1159 3500 
L 1159 2956 
Q 1356 3278 1631 3431 
Q 1906 3584 2284 3584 
Q 2666 3584 2933 3390 
Q 3200 3197 3328 2828 
z
" transform="scale(0.015625)"/>
       <path id="DejaVuSans-65" d="M 3597 1894 
L 3597 1613 
L 953 1613 
Q 991 1019 1311 708 
Q 1631 397 2203 397 
Q 2534 397 2845 478 
Q 3156 559 3463 722 
L 3463 178 
Q 3153 47 2828 -22 
Q 2503 -91 2169 -91 
Q 1331 -91 842 396 
Q 353 884 353 1716 
Q 353 2575 817 3079 
Q 1281 3584 2069 3584 
Q 2775 3584 3186 3129 
Q 3597 2675 3597 1894 
z
M 3022 2063 
Q 3016 2534 2758 2815 
Q 2500 3097 2075 3097 
Q 1594 3097 1305 2825 
Q 1016 2553 972 2059 
L 3022 2063 
z
" transform="scale(0.015625)"/>
       <path id="DejaVuSans-20" transform="scale(0.015625)"/>
       <path id="DejaVuSans-5b" d="M 550 4863 
L 1875 4863 
L 1875 4416 
L 1125 4416 
L 1125 -397 
L 1875 -397 
L 1875 -844 
L 550 -844 
L 550 4863 
z
" transform="scale(0.015625)"/>
       <path id="DejaVuSans-3bc" d="M 544 -1331 
L 544 3500 
L 1119 3500 
L 1119 1325 
Q 1119 872 1334 640 
Q 1550 409 1972 409 
Q 2434 409 2667 671 
Q 2900 934 2900 1459 
L 2900 3500 
L 3475 3500 
L 3475 806 
Q 3475 619 3529 530 
Q 3584 441 3700 441 
Q 3728 441 3778 458 
Q 3828 475 3916 513 
L 3916 50 
Q 3788 -22 3673 -56 
Q 3559 -91 3450 -91 
Q 3234 -91 3106 31 
Q 2978 153 2931 403 
Q 2775 156 2548 32 
Q 2322 -91 2016 -91 
Q 1697 -91 1473 31 
Q 1250 153 1119 397 
L 1119 -1331 
L 544 -1331 
z
" transform="scale(0.015625)"/>
       <path id="DejaVuSans-73" d="M 2834 3397 
L 2834 2853 
Q 2591 2978 2328 3040 
Q 2066 3103 1784 3103 
Q 1356 3103 1142 2972 
Q 928 2841 928 2578 
Q 928 2378 1081 2264 
Q 1234 2150 1697 2047 
L 1894 2003 
Q 2506 1872 2764 1633 
Q 3022 1394 3022 966 
Q 3022 478 2636 193 
Q 2250 -91 1575 -91 
Q 1294 -91 989 -36 
Q 684 19 347 128 
L 347 722 
Q 666 556 975 473 
Q 1284 391 1588 391 
Q 1994 391 2212 530 
Q 2431 669 2431 922 
Q 2431 1156 2273 1281 
Q 2116 1406 1581 1522 
L 1381 1569 
Q 847 1681 609 1914 
Q 372 2147 372 2553 
Q 372 3047 722 3315 
Q 1072 3584 1716 3584 
Q 2034 3584 2315 3537 
Q 2597 3491 2834 3397 
z
" transform="scale(0.015625)"/>
       <path id="DejaVuSans-5d" d="M 1947 4863 
L 1947 -844 
L 622 -844 
L 622 -397 
L 1369 -397 
L 1369 4416 
L 622 4416 
L 622 4863 
L 1947 4863 
z
" transform="scale(0.015625)"/>
      </defs>
      <use xlink:href="#DejaVuSans-54"/>
      <use xlink:href="#DejaVuSans-69" transform="translate(57.958984 0)"/>
      <use xlink:href="#DejaVuSans-6d" transform="translate(85.742188 0)"/>
      <use xlink:href="#DejaVuSans-65" transform="translate(183.154297 0)"/>
      <use xlink:href="#DejaVuSans-20" transform="translate(244.677734 0)"/>
      <use xlink:href="#DejaVuSans-5b" transform="translate(276.464844 0)"/>
      <use xlink:href="#DejaVuSans-3bc" transform="translate(315.478516 0)"/>
      <use xlink:href="#DejaVuSans-73" transform="translate(379.101562 0)"/>
      <use xlink:href="#DejaVuSans-5d" transform="translate(431.201172 0)"/>
     </g>
    </g>
   </g>
   <g id="matplotlib.axis_2">
    <g id="ytick_1">
     <g id="line2d_58">
      <path d="M 55.865781 195.568197 
L 418.346096 195.568197 
" clip-path="url(#p1091b4d705)" style="fill: none; stroke: #b0b0b0; stroke-opacity: 0.7; stroke-width: 0.5; stroke-linecap: square"/>
     </g>
     <g id="line2d_59">
      <defs>
       <path id="m2877fba3d7" d="M 0 0 
L 4 0 
" style="stroke: #000000"/>
      </defs>
      <g>
       <use xlink:href="#m2877fba3d7" x="55.865781" y="195.568197" style="stroke: #000000"/>
      </g>
     </g>
     <g id="line2d_60">
      <defs>
       <path id="m0d3cf6957e" d="M 0 0 
L -4 0 
" style="stroke: #000000"/>
      </defs>
      <g>
       <use xlink:href="#m0d3cf6957e" x="418.346096" y="195.568197" style="stroke: #000000"/>
      </g>
     </g>
     <g id="text_7">
      <!-- −400 -->
      <g transform="translate(22.151875 199.747338) scale(0.11 -0.11)">
       <defs>
        <path id="DejaVuSans-2212" d="M 678 2272 
L 4684 2272 
L 4684 1741 
L 678 1741 
L 678 2272 
z
" transform="scale(0.015625)"/>
       </defs>
       <use xlink:href="#DejaVuSans-2212"/>
       <use xlink:href="#DejaVuSans-34" transform="translate(83.789062 0)"/>
       <use xlink:href="#DejaVuSans-30" transform="translate(147.412109 0)"/>
       <use xlink:href="#DejaVuSans-30" transform="translate(211.035156 0)"/>
      </g>
     </g>
    </g>
    <g id="ytick_2">
     <g id="line2d_61">
      <path d="M 55.865781 153.855114 
L 418.346096 153.855114 
" clip-path="url(#p1091b4d705)" style="fill: none; stroke: #b0b0b0; stroke-opacity: 0.7; stroke-width: 0.5; stroke-linecap: square"/>
     </g>
     <g id="line2d_62">
      <g>
       <use xlink:href="#m2877fba3d7" x="55.865781" y="153.855114" style="stroke: #000000"/>
      </g>
     </g>
     <g id="line2d_63">
      <g>
       <use xlink:href="#m0d3cf6957e" x="418.346096" y="153.855114" style="stroke: #000000"/>
      </g>
     </g>
     <g id="text_8">
      <!-- −300 -->
      <g transform="translate(22.151875 158.034255) scale(0.11 -0.11)">
       <defs>
        <path id="DejaVuSans-33" d="M 2597 2516 
Q 3050 2419 3304 2112 
Q 3559 1806 3559 1356 
Q 3559 666 3084 287 
Q 2609 -91 1734 -91 
Q 1441 -91 1130 -33 
Q 819 25 488 141 
L 488 750 
Q 750 597 1062 519 
Q 1375 441 1716 441 
Q 2309 441 2620 675 
Q 2931 909 2931 1356 
Q 2931 1769 2642 2001 
Q 2353 2234 1838 2234 
L 1294 2234 
L 1294 2753 
L 1863 2753 
Q 2328 2753 2575 2939 
Q 2822 3125 2822 3475 
Q 2822 3834 2567 4026 
Q 2313 4219 1838 4219 
Q 1578 4219 1281 4162 
Q 984 4106 628 3988 
L 628 4550 
Q 988 4650 1302 4700 
Q 1616 4750 1894 4750 
Q 2613 4750 3031 4423 
Q 3450 4097 3450 3541 
Q 3450 3153 3228 2886 
Q 3006 2619 2597 2516 
z
" transform="scale(0.015625)"/>
       </defs>
       <use xlink:href="#DejaVuSans-2212"/>
       <use xlink:href="#DejaVuSans-33" transform="translate(83.789062 0)"/>
       <use xlink:href="#DejaVuSans-30" transform="translate(147.412109 0)"/>
       <use xlink:href="#DejaVuSans-30" transform="translate(211.035156 0)"/>
      </g>
     </g>
    </g>
    <g id="ytick_3">
     <g id="line2d_64">
      <path d="M 55.865781 112.142032 
L 418.346096 112.142032 
" clip-path="url(#p1091b4d705)" style="fill: none; stroke: #b0b0b0; stroke-opacity: 0.7; stroke-width: 0.5; stroke-linecap: square"/>
     </g>
     <g id="line2d_65">
      <g>
       <use xlink:href="#m2877fba3d7" x="55.865781" y="112.142032" style="stroke: #000000"/>
      </g>
     </g>
     <g id="line2d_66">
      <g>
       <use xlink:href="#m0d3cf6957e" x="418.346096" y="112.142032" style="stroke: #000000"/>
      </g>
     </g>
     <g id="text_9">
      <!-- −200 -->
      <g transform="translate(22.151875 116.321172) scale(0.11 -0.11)">
       <use xlink:href="#DejaVuSans-2212"/>
       <use xlink:href="#DejaVuSans-32" transform="translate(83.789062 0)"/>
       <use xlink:href="#DejaVuSans-30" transform="translate(147.412109 0)"/>
       <use xlink:href="#DejaVuSans-30" transform="translate(211.035156 0)"/>
      </g>
     </g>
    </g>
    <g id="ytick_4">
     <g id="line2d_67">
      <path d="M 55.865781 70.428949 
L 418.346096 70.428949 
" clip-path="url(#p1091b4d705)" style="fill: none; stroke: #b0b0b0; stroke-opacity: 0.7; stroke-width: 0.5; stroke-linecap: square"/>
     </g>
     <g id="line2d_68">
      <g>
       <use xlink:href="#m2877fba3d7" x="55.865781" y="70.428949" style="stroke: #000000"/>
      </g>
     </g>
     <g id="line2d_69">
      <g>
       <use xlink:href="#m0d3cf6957e" x="418.346096" y="70.428949" style="stroke: #000000"/>
      </g>
     </g>
     <g id="text_10">
      <!-- −100 -->
      <g transform="translate(22.151875 74.608089) scale(0.11 -0.11)">
       <defs>
        <path id="DejaVuSans-31" d="M 794 531 
L 1825 531 
L 1825 4091 
L 703 3866 
L 703 4441 
L 1819 4666 
L 2450 4666 
L 2450 531 
L 3481 531 
L 3481 0 
L 794 0 
L 794 531 
z
" transform="scale(0.015625)"/>
       </defs>
       <use xlink:href="#DejaVuSans-2212"/>
       <use xlink:href="#DejaVuSans-31" transform="translate(83.789062 0)"/>
       <use xlink:href="#DejaVuSans-30" transform="translate(147.412109 0)"/>
       <use xlink:href="#DejaVuSans-30" transform="translate(211.035156 0)"/>
      </g>
     </g>
    </g>
    <g id="ytick_5">
     <g id="line2d_70">
      <path d="M 55.865781 28.715866 
L 418.346096 28.715866 
" clip-path="url(#p1091b4d705)" style="fill: none; stroke: #b0b0b0; stroke-opacity: 0.7; stroke-width: 0.5; stroke-linecap: square"/>
     </g>
     <g id="line2d_71">
      <g>
       <use xlink:href="#m2877fba3d7" x="55.865781" y="28.715866" style="stroke: #000000"/>
      </g>
     </g>
     <g id="line2d_72">
      <g>
       <use xlink:href="#m0d3cf6957e" x="418.346096" y="28.715866" style="stroke: #000000"/>
      </g>
     </g>
     <g id="text_11">
      <!-- 0 -->
      <g transform="translate(45.367031 32.895007) scale(0.11 -0.11)">
       <use xlink:href="#DejaVuSans-30"/>
      </g>
     </g>
    </g>
    <g id="ytick_6">
     <g id="line2d_73">
      <path d="M 55.865781 203.910814 
L 418.346096 203.910814 
" clip-path="url(#p1091b4d705)" style="fill: none; stroke-dasharray: 0.3,0.495; stroke-dashoffset: 0; stroke: #b0b0b0; stroke-opacity: 0.9; stroke-width: 0.3"/>
     </g>
     <g id="line2d_74">
      <g>
       <use xlink:href="#m2877fba3d7" x="55.865781" y="203.910814" style="stroke: #000000"/>
      </g>
     </g>
     <g id="line2d_75">
      <g>
       <use xlink:href="#m0d3cf6957e" x="418.346096" y="203.910814" style="stroke: #000000"/>
      </g>
     </g>
    </g>
    <g id="ytick_7">
     <g id="line2d_76">
      <path d="M 55.865781 187.225581 
L 418.346096 187.225581 
" clip-path="url(#p1091b4d705)" style="fill: none; stroke-dasharray: 0.3,0.495; stroke-dashoffset: 0; stroke: #b0b0b0; stroke-opacity: 0.9; stroke-width: 0.3"/>
     </g>
     <g id="line2d_77">
      <g>
       <use xlink:href="#m2877fba3d7" x="55.865781" y="187.225581" style="stroke: #000000"/>
      </g>
     </g>
     <g id="line2d_78">
      <g>
       <use xlink:href="#m0d3cf6957e" x="418.346096" y="187.225581" style="stroke: #000000"/>
      </g>
     </g>
    </g>
    <g id="ytick_8">
     <g id="line2d_79">
      <path d="M 55.865781 178.882964 
L 418.346096 178.882964 
" clip-path="url(#p1091b4d705)" style="fill: none; stroke-dasharray: 0.3,0.495; stroke-dashoffset: 0; stroke: #b0b0b0; stroke-opacity: 0.9; stroke-width: 0.3"/>
     </g>
     <g id="line2d_80">
      <g>
       <use xlink:href="#m2877fba3d7" x="55.865781" y="178.882964" style="stroke: #000000"/>
      </g>
     </g>
     <g id="line2d_81">
      <g>
       <use xlink:href="#m0d3cf6957e" x="418.346096" y="178.882964" style="stroke: #000000"/>
      </g>
     </g>
    </g>
    <g id="ytick_9">
     <g id="line2d_82">
      <path d="M 55.865781 170.540348 
L 418.346096 170.540348 
" clip-path="url(#p1091b4d705)" style="fill: none; stroke-dasharray: 0.3,0.495; stroke-dashoffset: 0; stroke: #b0b0b0; stroke-opacity: 0.9; stroke-width: 0.3"/>
     </g>
     <g id="line2d_83">
      <g>
       <use xlink:href="#m2877fba3d7" x="55.865781" y="170.540348" style="stroke: #000000"/>
      </g>
     </g>
     <g id="line2d_84">
      <g>
       <use xlink:href="#m0d3cf6957e" x="418.346096" y="170.540348" style="stroke: #000000"/>
      </g>
     </g>
    </g>
    <g id="ytick_10">
     <g id="line2d_85">
      <path d="M 55.865781 162.197731 
L 418.346096 162.197731 
" clip-path="url(#p1091b4d705)" style="fill: none; stroke-dasharray: 0.3,0.495; stroke-dashoffset: 0; stroke: #b0b0b0; stroke-opacity: 0.9; stroke-width: 0.3"/>
     </g>
     <g id="line2d_86">
      <g>
       <use xlink:href="#m2877fba3d7" x="55.865781" y="162.197731" style="stroke: #000000"/>
      </g>
     </g>
     <g id="line2d_87">
      <g>
       <use xlink:href="#m0d3cf6957e" x="418.346096" y="162.197731" style="stroke: #000000"/>
      </g>
     </g>
    </g>
    <g id="ytick_11">
     <g id="line2d_88">
      <path d="M 55.865781 145.512498 
L 418.346096 145.512498 
" clip-path="url(#p1091b4d705)" style="fill: none; stroke-dasharray: 0.3,0.495; stroke-dashoffset: 0; stroke: #b0b0b0; stroke-opacity: 0.9; stroke-width: 0.3"/>
     </g>
     <g id="line2d_89">
      <g>
       <use xlink:href="#m2877fba3d7" x="55.865781" y="145.512498" style="stroke: #000000"/>
      </g>
     </g>
     <g id="line2d_90">
      <g>
       <use xlink:href="#m0d3cf6957e" x="418.346096" y="145.512498" style="stroke: #000000"/>
      </g>
     </g>
    </g>
    <g id="ytick_12">
     <g id="line2d_91">
      <path d="M 55.865781 137.169881 
L 418.346096 137.169881 
" clip-path="url(#p1091b4d705)" style="fill: none; stroke-dasharray: 0.3,0.495; stroke-dashoffset: 0; stroke: #b0b0b0; stroke-opacity: 0.9; stroke-width: 0.3"/>
     </g>
     <g id="line2d_92">
      <g>
       <use xlink:href="#m2877fba3d7" x="55.865781" y="137.169881" style="stroke: #000000"/>
      </g>
     </g>
     <g id="line2d_93">
      <g>
       <use xlink:href="#m0d3cf6957e" x="418.346096" y="137.169881" style="stroke: #000000"/>
      </g>
     </g>
    </g>
    <g id="ytick_13">
     <g id="line2d_94">
      <path d="M 55.865781 128.827265 
L 418.346096 128.827265 
" clip-path="url(#p1091b4d705)" style="fill: none; stroke-dasharray: 0.3,0.495; stroke-dashoffset: 0; stroke: #b0b0b0; stroke-opacity: 0.9; stroke-width: 0.3"/>
     </g>
     <g id="line2d_95">
      <g>
       <use xlink:href="#m2877fba3d7" x="55.865781" y="128.827265" style="stroke: #000000"/>
      </g>
     </g>
     <g id="line2d_96">
      <g>
       <use xlink:href="#m0d3cf6957e" x="418.346096" y="128.827265" style="stroke: #000000"/>
      </g>
     </g>
    </g>
    <g id="ytick_14">
     <g id="line2d_97">
      <path d="M 55.865781 120.484648 
L 418.346096 120.484648 
" clip-path="url(#p1091b4d705)" style="fill: none; stroke-dasharray: 0.3,0.495; stroke-dashoffset: 0; stroke: #b0b0b0; stroke-opacity: 0.9; stroke-width: 0.3"/>
     </g>
     <g id="line2d_98">
      <g>
       <use xlink:href="#m2877fba3d7" x="55.865781" y="120.484648" style="stroke: #000000"/>
      </g>
     </g>
     <g id="line2d_99">
      <g>
       <use xlink:href="#m0d3cf6957e" x="418.346096" y="120.484648" style="stroke: #000000"/>
      </g>
     </g>
    </g>
    <g id="ytick_15">
     <g id="line2d_100">
      <path d="M 55.865781 103.799415 
L 418.346096 103.799415 
" clip-path="url(#p1091b4d705)" style="fill: none; stroke-dasharray: 0.3,0.495; stroke-dashoffset: 0; stroke: #b0b0b0; stroke-opacity: 0.9; stroke-width: 0.3"/>
     </g>
     <g id="line2d_101">
      <g>
       <use xlink:href="#m2877fba3d7" x="55.865781" y="103.799415" style="stroke: #000000"/>
      </g>
     </g>
     <g id="line2d_102">
      <g>
       <use xlink:href="#m0d3cf6957e" x="418.346096" y="103.799415" style="stroke: #000000"/>
      </g>
     </g>
    </g>
    <g id="ytick_16">
     <g id="line2d_103">
      <path d="M 55.865781 95.456798 
L 418.346096 95.456798 
" clip-path="url(#p1091b4d705)" style="fill: none; stroke-dasharray: 0.3,0.495; stroke-dashoffset: 0; stroke: #b0b0b0; stroke-opacity: 0.9; stroke-width: 0.3"/>
     </g>
     <g id="line2d_104">
      <g>
       <use xlink:href="#m2877fba3d7" x="55.865781" y="95.456798" style="stroke: #000000"/>
      </g>
     </g>
     <g id="line2d_105">
      <g>
       <use xlink:href="#m0d3cf6957e" x="418.346096" y="95.456798" style="stroke: #000000"/>
      </g>
     </g>
    </g>
    <g id="ytick_17">
     <g id="line2d_106">
      <path d="M 55.865781 87.114182 
L 418.346096 87.114182 
" clip-path="url(#p1091b4d705)" style="fill: none; stroke-dasharray: 0.3,0.495; stroke-dashoffset: 0; stroke: #b0b0b0; stroke-opacity: 0.9; stroke-width: 0.3"/>
     </g>
     <g id="line2d_107">
      <g>
       <use xlink:href="#m2877fba3d7" x="55.865781" y="87.114182" style="stroke: #000000"/>
      </g>
     </g>
     <g id="line2d_108">
      <g>
       <use xlink:href="#m0d3cf6957e" x="418.346096" y="87.114182" style="stroke: #000000"/>
      </g>
     </g>
    </g>
    <g id="ytick_18">
     <g id="line2d_109">
      <path d="M 55.865781 78.771565 
L 418.346096 78.771565 
" clip-path="url(#p1091b4d705)" style="fill: none; stroke-dasharray: 0.3,0.495; stroke-dashoffset: 0; stroke: #b0b0b0; stroke-opacity: 0.9; stroke-width: 0.3"/>
     </g>
     <g id="line2d_110">
      <g>
       <use xlink:href="#m2877fba3d7" x="55.865781" y="78.771565" style="stroke: #000000"/>
      </g>
     </g>
     <g id="line2d_111">
      <g>
       <use xlink:href="#m0d3cf6957e" x="418.346096" y="78.771565" style="stroke: #000000"/>
      </g>
     </g>
    </g>
    <g id="ytick_19">
     <g id="line2d_112">
      <path d="M 55.865781 62.086332 
L 418.346096 62.086332 
" clip-path="url(#p1091b4d705)" style="fill: none; stroke-dasharray: 0.3,0.495; stroke-dashoffset: 0; stroke: #b0b0b0; stroke-opacity: 0.9; stroke-width: 0.3"/>
     </g>
     <g id="line2d_113">
      <g>
       <use xlink:href="#m2877fba3d7" x="55.865781" y="62.086332" style="stroke: #000000"/>
      </g>
     </g>
     <g id="line2d_114">
      <g>
       <use xlink:href="#m0d3cf6957e" x="418.346096" y="62.086332" style="stroke: #000000"/>
      </g>
     </g>
    </g>
    <g id="ytick_20">
     <g id="line2d_115">
      <path d="M 55.865781 53.743716 
L 418.346096 53.743716 
" clip-path="url(#p1091b4d705)" style="fill: none; stroke-dasharray: 0.3,0.495; stroke-dashoffset: 0; stroke: #b0b0b0; stroke-opacity: 0.9; stroke-width: 0.3"/>
     </g>
     <g id="line2d_116">
      <g>
       <use xlink:href="#m2877fba3d7" x="55.865781" y="53.743716" style="stroke: #000000"/>
      </g>
     </g>
     <g id="line2d_117">
      <g>
       <use xlink:href="#m0d3cf6957e" x="418.346096" y="53.743716" style="stroke: #000000"/>
      </g>
     </g>
    </g>
    <g id="ytick_21">
     <g id="line2d_118">
      <path d="M 55.865781 45.401099 
L 418.346096 45.401099 
" clip-path="url(#p1091b4d705)" style="fill: none; stroke-dasharray: 0.3,0.495; stroke-dashoffset: 0; stroke: #b0b0b0; stroke-opacity: 0.9; stroke-width: 0.3"/>
     </g>
     <g id="line2d_119">
      <g>
       <use xlink:href="#m2877fba3d7" x="55.865781" y="45.401099" style="stroke: #000000"/>
      </g>
     </g>
     <g id="line2d_120">
      <g>
       <use xlink:href="#m0d3cf6957e" x="418.346096" y="45.401099" style="stroke: #000000"/>
      </g>
     </g>
    </g>
    <g id="ytick_22">
     <g id="line2d_121">
      <path d="M 55.865781 37.058482 
L 418.346096 37.058482 
" clip-path="url(#p1091b4d705)" style="fill: none; stroke-dasharray: 0.3,0.495; stroke-dashoffset: 0; stroke: #b0b0b0; stroke-opacity: 0.9; stroke-width: 0.3"/>
     </g>
     <g id="line2d_122">
      <g>
       <use xlink:href="#m2877fba3d7" x="55.865781" y="37.058482" style="stroke: #000000"/>
      </g>
     </g>
     <g id="line2d_123">
      <g>
       <use xlink:href="#m0d3cf6957e" x="418.346096" y="37.058482" style="stroke: #000000"/>
      </g>
     </g>
    </g>
    <g id="ytick_23">
     <g id="line2d_124">
      <path d="M 55.865781 20.373249 
L 418.346096 20.373249 
" clip-path="url(#p1091b4d705)" style="fill: none; stroke-dasharray: 0.3,0.495; stroke-dashoffset: 0; stroke: #b0b0b0; stroke-opacity: 0.9; stroke-width: 0.3"/>
     </g>
     <g id="line2d_125">
      <g>
       <use xlink:href="#m2877fba3d7" x="55.865781" y="20.373249" style="stroke: #000000"/>
      </g>
     </g>
     <g id="line2d_126">
      <g>
       <use xlink:href="#m0d3cf6957e" x="418.346096" y="20.373249" style="stroke: #000000"/>
      </g>
     </g>
    </g>
    <g id="ytick_24">
     <g id="line2d_127">
      <path d="M 55.865781 12.030633 
L 418.346096 12.030633 
" clip-path="url(#p1091b4d705)" style="fill: none; stroke-dasharray: 0.3,0.495; stroke-dashoffset: 0; stroke: #b0b0b0; stroke-opacity: 0.9; stroke-width: 0.3"/>
     </g>
     <g id="line2d_128">
      <g>
       <use xlink:href="#m2877fba3d7" x="55.865781" y="12.030633" style="stroke: #000000"/>
      </g>
     </g>
     <g id="line2d_129">
      <g>
       <use xlink:href="#m0d3cf6957e" x="418.346096" y="12.030633" style="stroke: #000000"/>
      </g>
     </g>
    </g>
    <g id="text_12">
     <!-- Force_x [mN] -->
     <g transform="translate(15.558281 144.881815) rotate(-90) scale(0.11 -0.11)">
      <defs>
       <path id="DejaVuSans-46" d="M 628 4666 
L 3309 4666 
L 3309 4134 
L 1259 4134 
L 1259 2759 
L 3109 2759 
L 3109 2228 
L 1259 2228 
L 1259 0 
L 628 0 
L 628 4666 
z
" transform="scale(0.015625)"/>
       <path id="DejaVuSans-6f" d="M 1959 3097 
Q 1497 3097 1228 2736 
Q 959 2375 959 1747 
Q 959 1119 1226 758 
Q 1494 397 1959 397 
Q 2419 397 2687 759 
Q 2956 1122 2956 1747 
Q 2956 2369 2687 2733 
Q 2419 3097 1959 3097 
z
M 1959 3584 
Q 2709 3584 3137 3096 
Q 3566 2609 3566 1747 
Q 3566 888 3137 398 
Q 2709 -91 1959 -91 
Q 1206 -91 779 398 
Q 353 888 353 1747 
Q 353 2609 779 3096 
Q 1206 3584 1959 3584 
z
" transform="scale(0.015625)"/>
       <path id="DejaVuSans-72" d="M 2631 2963 
Q 2534 3019 2420 3045 
Q 2306 3072 2169 3072 
Q 1681 3072 1420 2755 
Q 1159 2438 1159 1844 
L 1159 0 
L 581 0 
L 581 3500 
L 1159 3500 
L 1159 2956 
Q 1341 3275 1631 3429 
Q 1922 3584 2338 3584 
Q 2397 3584 2469 3576 
Q 2541 3569 2628 3553 
L 2631 2963 
z
" transform="scale(0.015625)"/>
       <path id="DejaVuSans-63" d="M 3122 3366 
L 3122 2828 
Q 2878 2963 2633 3030 
Q 2388 3097 2138 3097 
Q 1578 3097 1268 2742 
Q 959 2388 959 1747 
Q 959 1106 1268 751 
Q 1578 397 2138 397 
Q 2388 397 2633 464 
Q 2878 531 3122 666 
L 3122 134 
Q 2881 22 2623 -34 
Q 2366 -91 2075 -91 
Q 1284 -91 818 406 
Q 353 903 353 1747 
Q 353 2603 823 3093 
Q 1294 3584 2113 3584 
Q 2378 3584 2631 3529 
Q 2884 3475 3122 3366 
z
" transform="scale(0.015625)"/>
       <path id="DejaVuSans-5f" d="M 3263 -1063 
L 3263 -1509 
L -63 -1509 
L -63 -1063 
L 3263 -1063 
z
" transform="scale(0.015625)"/>
       <path id="DejaVuSans-78" d="M 3513 3500 
L 2247 1797 
L 3578 0 
L 2900 0 
L 1881 1375 
L 863 0 
L 184 0 
L 1544 1831 
L 300 3500 
L 978 3500 
L 1906 2253 
L 2834 3500 
L 3513 3500 
z
" transform="scale(0.015625)"/>
       <path id="DejaVuSans-4e" d="M 628 4666 
L 1478 4666 
L 3547 763 
L 3547 4666 
L 4159 4666 
L 4159 0 
L 3309 0 
L 1241 3903 
L 1241 0 
L 628 0 
L 628 4666 
z
" transform="scale(0.015625)"/>
      </defs>
      <use xlink:href="#DejaVuSans-46"/>
      <use xlink:href="#DejaVuSans-6f" transform="translate(53.894531 0)"/>
      <use xlink:href="#DejaVuSans-72" transform="translate(115.076172 0)"/>
      <use xlink:href="#DejaVuSans-63" transform="translate(153.939453 0)"/>
      <use xlink:href="#DejaVuSans-65" transform="translate(208.919922 0)"/>
      <use xlink:href="#DejaVuSans-5f" transform="translate(270.443359 0)"/>
      <use xlink:href="#DejaVuSans-78" transform="translate(320.443359 0)"/>
      <use xlink:href="#DejaVuSans-20" transform="translate(379.623047 0)"/>
      <use xlink:href="#DejaVuSans-5b" transform="translate(411.410156 0)"/>
      <use xlink:href="#DejaVuSans-6d" transform="translate(450.423828 0)"/>
      <use xlink:href="#DejaVuSans-4e" transform="translate(547.835938 0)"/>
      <use xlink:href="#DejaVuSans-5d" transform="translate(622.640625 0)"/>
     </g>
    </g>
   </g>
   <g id="line2d_130">
    <path d="M 72.342159 16.408169 
L 76.003577 77.917997 
L 79.664994 108.676723 
L 83.326411 127.048026 
L 86.987828 139.685712 
L 90.649246 150.387473 
L 94.310663 158.586993 
L 97.97208 163.405956 
L 101.633498 167.93582 
L 105.294915 170.860263 
L 108.956332 174.339313 
L 112.61775 177.318363 
L 116.279167 179.951297 
L 119.940584 182.633726 
L 123.602002 184.386623 
L 127.263419 185.696358 
L 130.924836 186.798686 
L 134.586254 187.753618 
L 138.247671 188.508816 
L 141.909088 189.166089 
L 145.570506 189.8226 
L 149.231923 189.386474 
L 152.89334 190.254668 
L 156.554758 189.984527 
L 160.216175 191.05733 
L 163.877592 190.899653 
L 167.53901 191.568612 
L 171.200427 191.239396 
L 174.861844 192.771246 
L 178.523262 193.256477 
L 182.184679 192.782314 
L 185.846096 193.74272 
L 189.507514 194.587026 
L 193.168931 194.156019 
L 196.830348 194.969483 
L 200.491766 195.09214 
L 204.153183 195.247804 
L 207.8146 194.542892 
L 211.476017 194.45076 
L 215.137435 195.073384 
L 218.798852 194.812711 
L 222.460269 195.058956 
L 226.121687 195.697399 
L 229.783104 195.987613 
L 233.444521 195.949194 
L 237.105939 195.877771 
L 240.767356 195.348404 
L 244.428773 196.206235 
L 248.090191 196.992431 
L 251.751608 197.667638 
L 255.413025 197.922197 
L 259.074443 197.802338 
L 262.73586 197.72473 
L 266.397277 198.338829 
L 270.058695 198.255434 
L 273.720112 197.791258 
L 277.381529 198.000339 
L 281.042947 198.422883 
L 284.704364 198.291639 
L 288.365781 197.83254 
L 292.027199 198.100458 
L 295.688616 197.80468 
L 299.350033 197.483648 
L 303.011451 196.855598 
L 306.672868 197.302225 
L 310.334285 197.046121 
L 313.995703 197.678801 
L 317.65712 198.413779 
L 321.318537 197.253843 
L 324.979954 197.144109 
L 328.641372 197.101189 
L 332.302789 197.056666 
L 335.964206 196.942969 
L 339.625624 197.546015 
L 343.287041 198.380952 
L 346.948458 198.393051 
L 350.609876 198.850335 
L 354.271293 199.214441 
L 357.93271 199.1701 
L 361.594128 199.821662 
L 365.255545 200.314659 
L 368.916962 200.287966 
L 372.57838 200.02594 
L 376.239797 200.140652 
L 379.901214 200.153444 
L 383.562632 199.316004 
L 387.224049 200.571555 
L 390.885466 199.970448 
L 394.546884 199.776849 
L 398.208301 200.0298 
L 401.869718 199.84237 
" clip-path="url(#p1091b4d705)" style="fill: none; stroke: #ff0000; stroke-linecap: square"/>
   </g>
   <g id="patch_3">
    <path d="M 55.865781 209.779724 
L 55.865781 7.2 
" style="fill: none; stroke: #000000; stroke-width: 0.8; stroke-linejoin: miter; stroke-linecap: square"/>
   </g>
   <g id="patch_4">
    <path d="M 418.346096 209.779724 
L 418.346096 7.2 
" style="fill: none; stroke: #000000; stroke-width: 0.8; stroke-linejoin: miter; stroke-linecap: square"/>
   </g>
   <g id="patch_5">
    <path d="M 55.865781 209.779724 
L 418.346096 209.779724 
" style="fill: none; stroke: #000000; stroke-width: 0.8; stroke-linejoin: miter; stroke-linecap: square"/>
   </g>
   <g id="patch_6">
    <path d="M 55.865781 7.2 
L 418.346096 7.2 
" style="fill: none; stroke: #000000; stroke-width: 0.8; stroke-linejoin: miter; stroke-linecap: square"/>
   </g>
  </g>
 </g>
 <defs>
  <clipPath id="p1091b4d705">
   <rect x="55.865781" y="7.2" width="362.480315" height="202.579724"/>
  </clipPath>
 </defs>
</svg>
