<?xml version="1.0" encoding="utf-8" standalone="no"?>
<!DOCTYPE svg PUBLIC "-//W3C//DTD SVG 1.1//EN"
  "http://www.w3.org/Graphics/SVG/1.1/DTD/svg11.dtd">
<svg xmlns:xlink="http://www.w3.org/1999/xlink" width="209.43253pt" height="132.859818pt" viewBox="0 0 209.43253 132.859818" xmlns="http://www.w3.org/2000/svg" version="1.1">
 <metadata>
  <rdf:RDF xmlns:dc="http://purl.org/dc/elements/1.1/" xmlns:cc="http://creativecommons.org/ns#" xmlns:rdf="http://www.w3.org/1999/02/22-rdf-syntax-ns#">
   <cc:Work>
    <dc:type rdf:resource="http://purl.org/dc/dcmitype/StillImage"/>
    <dc:date>2026-02-12T16:09:52.623561</dc:date>
    <dc:format>image/svg+xml</dc:format>
    <dc:creator>
     <cc:Agent>
      <dc:title>Matplotlib v3.10.8, https://matplotlib.org/</dc:title>
     </cc:Agent>
    </dc:creator>
   </cc:Work>
  </rdf:RDF>
 </metadata>
 <defs>
  <style type="text/css">*{stroke-linejoin: round; stroke-linecap: butt}</style>
 </defs>
 <g id="figure_1">
  <g id="patch_1">
   <path d="M 0 132.859818 
L 209.43253 132.859818 
L 209.43253 0 
L 0 0 
z
" style="fill: #ffffff"/>
  </g>
  <g id="axes_1">
   <g id="patch_2">
    <path d="M 37.46875 99.281693 
L 202.23253 99.281693 
L 202.23253 7.2 
L 37.46875 7.2 
z
" style="fill: #ffffff"/>
   </g>
   <g id="matplotlib.axis_1">
    <g id="xtick_1">
     <g id="line2d_1">
      <defs>
       <path id="m323ee7e4b6" d="M 0 0 
L 0 -4 
" style="stroke: #000000"/>
      </defs>
      <g>
       <use xlink:href="#m323ee7e4b6" x="44.958013" y="99.281693" style="stroke: #000000"/>
      </g>
     </g>
     <g id="line2d_2">
      <defs>
       <path id="mbc597d95c1" d="M 0 0 
L 0 4 
" style="stroke: #000000"/>
      </defs>
      <g>
       <use xlink:href="#mbc597d95c1" x="44.958013" y="7.2" style="stroke: #000000"/>
      </g>
     </g>
     <g id="text_1">
      <text style="font-size: 10px; font-family: 'cmss10', sans-serif; text-anchor: middle" x="44.958013" y="109.720755" transform="rotate(-0 44.958013 109.720755)">−2</text>
     </g>
    </g>
    <g id="xtick_2">
     <g id="line2d_3">
      <g>
       <use xlink:href="#m323ee7e4b6" x="82.404326" y="99.281693" style="stroke: #000000"/>
      </g>
     </g>
     <g id="line2d_4">
      <g>
       <use xlink:href="#mbc597d95c1" x="82.404326" y="7.2" style="stroke: #000000"/>
      </g>
     </g>
     <g id="text_2">
      <text style="font-size: 10px; font-family: 'cmss10', sans-serif; text-anchor: middle" x="82.404326" y="109.720755" transform="rotate(-0 82.404326 109.720755)">−1</text>
     </g>
    </g>
    <g id="xtick_3">
     <g id="line2d_5">
      <g>
       <use xlink:href="#m323ee7e4b6" x="119.85064" y="99.281693" style="stroke: #000000"/>
      </g>
     </g>
     <g id="line2d_6">
      <g>
       <use xlink:href="#mbc597d95c1" x="119.85064" y="7.2" style="stroke: #000000"/>
      </g>
     </g>
     <g id="text_3">
      <text style="font-size: 10px; font-family: 'cmss10', sans-serif; text-anchor: middle" x="119.85064" y="109.720755" transform="rotate(-0 119.85064 109.720755)">0</text>
     </g>
    </g>
    <g id="xtick_4">
     <g id="line2d_7">
      <g>
       <use xlink:href="#m323ee7e4b6" x="157.296953" y="99.281693" style="stroke: #000000"/>
      </g>
     </g>
     <g id="line2d_8">
      <g>
       <use xlink:href="#mbc597d95c1" x="157.296953" y="7.2" style="stroke: #000000"/>
      </g>
     </g>
     <g id="text_4">
      <text style="font-size: 10px; font-family: 'cmss10', sans-serif; text-anchor: middle" x="157.296953" y="109.720755" transform="rotate(-0 157.296953 109.720755)">1</text>
     </g>
    </g>
    <g id="xtick_5">
     <g id="line2d_9">
      <g>
       <use xlink:href="#m323ee7e4b6" x="194.743267" y="99.281693" style="stroke: #000000"/>
      </g>
     </g>
     <g id="line2d_10">
      <g>
       <use xlink:href="#mbc597d95c1" x="194.743267" y="7.2" style="stroke: #000000"/>
      </g>
     </g>
     <g id="text_5">
      <text style="font-size: 10px; font-family: 'cmss10', sans-serif; text-anchor: middle" x="194.743267" y="109.720755" transform="rotate(-0 194.743267 109.720755)">2</text>
     </g>
    </g>
    <g id="text_6">
     <text style="font-size: 10px; font-family: 'cmss10', sans-serif; text-anchor: middle" x="119.85064" y="123.159818" transform="rotate(-0 119.85064 123.159818)">y-Position (cm)</text>
    </g>
   </g>
   <g id="matplotlib.axis_2">
    <g id="ytick_1">
     <g id="line2d_11">
      <defs>
       <path id="mfa5bd58bff" d="M 0 0 
L 4 0 
" style="stroke: #000000"/>
      </defs>
      <g>
       <use xlink:href="#mfa5bd58bff" x="37.46875" y="98.280661" style="stroke: #000000"/>
      </g>
     </g>
     <g id="line2d_12">
      <defs>
       <path id="m5007a03599" d="M 0 0 
L -4 0 
" style="stroke: #000000"/>
      </defs>
      <g>
       <use xlink:href="#m5007a03599" x="202.23253" y="98.280661" style="stroke: #000000"/>
      </g>
     </g>
     <g id="text_7">
      <text style="font-size: 10px; font-family: 'cmss10', sans-serif; text-anchor: end" x="33.96875" y="101.750192" transform="rotate(-0 33.96875 101.750192)">0.0</text>
     </g>
    </g>
    <g id="ytick_2">
     <g id="line2d_13">
      <g>
       <use xlink:href="#mfa5bd58bff" x="37.46875" y="54.833096" style="stroke: #000000"/>
      </g>
     </g>
     <g id="line2d_14">
      <g>
       <use xlink:href="#m5007a03599" x="202.23253" y="54.833096" style="stroke: #000000"/>
      </g>
     </g>
     <g id="text_8">
      <text style="font-size: 10px; font-family: 'cmss10', sans-serif; text-anchor: end" x="33.96875" y="58.302627" transform="rotate(-0 33.96875 58.302627)">0.5</text>
     </g>
    </g>
    <g id="ytick_3">
     <g id="line2d_15">
      <g>
       <use xlink:href="#mfa5bd58bff" x="37.46875" y="11.385531" style="stroke: #000000"/>
      </g>
     </g>
     <g id="line2d_16">
      <g>
       <use xlink:href="#m5007a03599" x="202.23253" y="11.385531" style="stroke: #000000"/>
      </g>
     </g>
     <g id="text_9">
      <text style="font-size: 10px; font-family: 'cmss10', sans-serif; text-anchor: end" x="33.96875" y="14.855063" transform="rotate(-0 33.96875 14.855063)">1.0</text>
     </g>
    </g>
    <g id="text_10">
     <text style="font-size: 10px; font-family: 'cmss10', sans-serif; text-anchor: middle" x="14.7" y="53.240846" transform="rotate(-90 14.7 53.240846)">Magnetic Field (T)</text>
    </g>
   </g>
   <g id="line2d_17">
    <path d="M 44.958013 11.385531 
L 46.470995 14.693377 
L 47.983977 17.993682 
L 49.49696 21.278956 
L 51.009942 24.541813 
L 52.522925 27.775016 
L 54.035907 30.97153 
L 55.548889 34.124564 
L 57.061872 37.227614 
L 58.574854 40.274507 
L 60.087836 43.259429 
L 61.600819 46.176964 
L 63.113801 49.022118 
L 64.626783 51.790344 
L 66.139766 54.477556 
L 67.652748 57.08015 
L 69.165731 59.595005 
L 70.678713 62.019492 
L 72.191695 64.35147 
L 73.704678 66.589282 
L 75.21766 68.731746 
L 76.730642 70.778139 
L 78.243625 72.72818 
L 79.756607 74.58201 
L 81.269589 76.340164 
L 82.782572 78.003548 
L 84.295554 79.573407 
L 85.808537 81.051293 
L 87.321519 82.439032 
L 88.834501 83.73869 
L 90.347484 84.952541 
L 91.860466 86.083023 
L 93.373448 87.132712 
L 94.886431 88.10428 
L 96.399413 89.000462 
L 97.912395 89.824023 
L 99.425378 90.577726 
L 100.93836 91.264298 
L 102.451343 91.886399 
L 103.964325 92.446601 
L 105.477307 92.947352 
L 106.99029 93.390958 
L 108.503272 93.77956 
L 110.016254 94.11511 
L 111.529237 94.399358 
L 113.042219 94.633833 
L 114.555201 94.819829 
L 116.068184 94.958396 
L 117.581166 95.050329 
L 119.094149 95.096161 
L 120.607131 95.096161 
L 122.120113 95.050329 
L 123.633096 94.958396 
L 125.146078 94.819829 
L 126.65906 94.633833 
L 128.172043 94.399358 
L 129.685025 94.11511 
L 131.198007 93.77956 
L 132.71099 93.390958 
L 134.223972 92.947352 
L 135.736955 92.446601 
L 137.249937 91.886399 
L 138.762919 91.264298 
L 140.275902 90.577726 
L 141.788884 89.824023 
L 143.301866 89.000462 
L 144.814849 88.10428 
L 146.327831 87.132712 
L 147.840814 86.083023 
L 149.353796 84.952541 
L 150.866778 83.73869 
L 152.379761 82.439032 
L 153.892743 81.051293 
L 155.405725 79.573407 
L 156.918708 78.003548 
L 158.43169 76.340164 
L 159.944672 74.58201 
L 161.457655 72.72818 
L 162.970637 70.778139 
L 164.48362 68.731746 
L 165.996602 66.589282 
L 167.509584 64.35147 
L 169.022567 62.019492 
L 170.535549 59.595005 
L 172.048531 57.08015 
L 173.561514 54.477556 
L 175.074496 51.790344 
L 176.587478 49.022118 
L 178.100461 46.176964 
L 179.613443 43.259429 
L 181.126426 40.274507 
L 182.639408 37.227614 
L 184.15239 34.124564 
L 185.665373 30.97153 
L 187.178355 27.775016 
L 188.691337 24.541813 
L 190.20432 21.278956 
L 191.717302 17.993682 
L 193.230284 14.693377 
L 194.743267 11.385531 
" clip-path="url(#p05d6b751e3)" style="fill: none; stroke: #8000ff; stroke-linecap: square"/>
   </g>
   <g id="line2d_18">
    <path d="M 44.958013 11.385531 
L 46.470995 12.547719 
L 47.983977 13.708735 
L 49.49696 14.867409 
L 51.009942 16.022573 
L 52.522925 17.173063 
L 54.035907 18.317718 
L 55.548889 19.455386 
L 57.061872 20.584919 
L 58.574854 21.705179 
L 60.087836 22.815037 
L 61.600819 23.913375 
L 63.113801 24.999086 
L 64.626783 26.071076 
L 66.139766 27.128265 
L 67.652748 28.169589 
L 69.165731 29.193998 
L 70.678713 30.200462 
L 72.191695 31.187966 
L 73.704678 32.155516 
L 75.21766 33.102139 
L 76.730642 34.026882 
L 78.243625 34.928813 
L 79.756607 35.807026 
L 81.269589 36.660637 
L 82.782572 37.488787 
L 84.295554 38.290643 
L 85.808537 39.0654 
L 87.321519 39.812277 
L 88.834501 40.530524 
L 90.347484 41.219419 
L 91.860466 41.878271 
L 93.373448 42.506415 
L 94.886431 43.103223 
L 96.399413 43.668093 
L 97.912395 44.200459 
L 99.425378 44.699786 
L 100.93836 45.165572 
L 102.451343 45.59735 
L 103.964325 45.994686 
L 105.477307 46.357181 
L 106.99029 46.684472 
L 108.503272 46.97623 
L 110.016254 47.232162 
L 111.529237 47.452011 
L 113.042219 47.635556 
L 114.555201 47.782614 
L 116.068184 47.893037 
L 117.581166 47.966714 
L 119.094149 48.003571 
L 120.607131 48.003571 
L 122.120113 47.966714 
L 123.633096 47.893037 
L 125.146078 47.782614 
L 126.65906 47.635556 
L 128.172043 47.452011 
L 129.685025 47.232162 
L 131.198007 46.97623 
L 132.71099 46.684472 
L 134.223972 46.357181 
L 135.736955 45.994686 
L 137.249937 45.59735 
L 138.762919 45.165572 
L 140.275902 44.699786 
L 141.788884 44.200459 
L 143.301866 43.668093 
L 144.814849 43.103223 
L 146.327831 42.506415 
L 147.840814 41.878271 
L 149.353796 41.219419 
L 150.866778 40.530524 
L 152.379761 39.812277 
L 153.892743 39.0654 
L 155.405725 38.290643 
L 156.918708 37.488787 
L 158.43169 36.660637 
L 159.944672 35.807026 
L 161.457655 34.928813 
L 162.970637 34.026882 
L 164.48362 33.102139 
L 165.996602 32.155516 
L 167.509584 31.187966 
L 169.022567 30.200462 
L 170.535549 29.193998 
L 172.048531 28.169589 
L 173.561514 27.128265 
L 175.074496 26.071076 
L 176.587478 24.999086 
L 178.100461 23.913375 
L 179.613443 22.815037 
L 181.126426 21.705179 
L 182.639408 20.584919 
L 184.15239 19.455386 
L 185.665373 18.317718 
L 187.178355 17.173063 
L 188.691337 16.022573 
L 190.20432 14.867409 
L 191.717302 13.708735 
L 193.230284 12.547719 
L 194.743267 11.385531 
" clip-path="url(#p05d6b751e3)" style="fill: none; stroke: #80ffb4; stroke-linecap: square"/>
   </g>
   <g id="line2d_19">
    <path d="M 44.958013 11.385531 
L 46.470995 11.865457 
L 47.983977 12.344899 
L 49.49696 12.823376 
L 51.009942 13.300404 
L 52.522925 13.775505 
L 54.035907 14.248199 
L 55.548889 14.71801 
L 57.061872 15.184466 
L 58.574854 15.647097 
L 60.087836 16.105436 
L 61.600819 16.559024 
L 63.113801 17.007401 
L 64.626783 17.450118 
L 66.139766 17.886729 
L 67.652748 18.316793 
L 69.165731 18.739879 
L 70.678713 19.155559 
L 72.191695 19.563415 
L 73.704678 19.963037 
L 75.21766 20.354022 
L 76.730642 20.735976 
L 78.243625 21.108516 
L 79.756607 21.471265 
L 81.269589 21.823858 
L 82.782572 22.165941 
L 84.295554 22.49717 
L 85.808537 22.817209 
L 87.321519 23.125738 
L 88.834501 23.422446 
L 90.347484 23.707033 
L 91.860466 23.979214 
L 93.373448 24.238714 
L 94.886431 24.485272 
L 96.399413 24.718639 
L 97.912395 24.938582 
L 99.425378 25.144877 
L 100.93836 25.337318 
L 102.451343 25.515711 
L 103.964325 25.679875 
L 105.477307 25.829647 
L 106.99029 25.964875 
L 108.503272 26.085422 
L 110.016254 26.191168 
L 111.529237 26.282006 
L 113.042219 26.357844 
L 114.555201 26.418607 
L 116.068184 26.464233 
L 117.581166 26.494675 
L 119.094149 26.509904 
L 120.607131 26.509904 
L 122.120113 26.494675 
L 123.633096 26.464233 
L 125.146078 26.418607 
L 126.65906 26.357844 
L 128.172043 26.282006 
L 129.685025 26.191168 
L 131.198007 26.085422 
L 132.71099 25.964875 
L 134.223972 25.829647 
L 135.736955 25.679875 
L 137.249937 25.515711 
L 138.762919 25.337318 
L 140.275902 25.144877 
L 141.788884 24.938582 
L 143.301866 24.718639 
L 144.814849 24.485272 
L 146.327831 24.238714 
L 147.840814 23.979214 
L 149.353796 23.707033 
L 150.866778 23.422446 
L 152.379761 23.125738 
L 153.892743 22.817209 
L 155.405725 22.49717 
L 156.918708 22.165941 
L 158.43169 21.823858 
L 159.944672 21.471265 
L 161.457655 21.108516 
L 162.970637 20.735976 
L 164.48362 20.354022 
L 165.996602 19.963037 
L 167.509584 19.563415 
L 169.022567 19.155559 
L 170.535549 18.739879 
L 172.048531 18.316793 
L 173.561514 17.886729 
L 175.074496 17.450118 
L 176.587478 17.007401 
L 178.100461 16.559024 
L 179.613443 16.105436 
L 181.126426 15.647097 
L 182.639408 15.184466 
L 184.15239 14.71801 
L 185.665373 14.248199 
L 187.178355 13.775505 
L 188.691337 13.300404 
L 190.20432 12.823376 
L 191.717302 12.344899 
L 193.230284 11.865457 
L 194.743267 11.385531 
" clip-path="url(#p05d6b751e3)" style="fill: none; stroke: #ff0000; stroke-linecap: square"/>
   </g>
   <g id="patch_3">
    <path d="M 37.46875 99.281693 
L 37.46875 7.2 
" style="fill: none; stroke: #000000; stroke-width: 0.8; stroke-linejoin: miter; stroke-linecap: square"/>
   </g>
   <g id="patch_4">
    <path d="M 202.23253 99.281693 
L 202.23253 7.2 
" style="fill: none; stroke: #000000; stroke-width: 0.8; stroke-linejoin: miter; stroke-linecap: square"/>
   </g>
   <g id="patch_5">
    <path d="M 37.46875 99.281693 
L 202.23253 99.281693 
" style="fill: none; stroke: #000000; stroke-width: 0.8; stroke-linejoin: miter; stroke-linecap: square"/>
   </g>
   <g id="patch_6">
    <path d="M 37.46875 7.2 
L 202.23253 7.2 
" style="fill: none; stroke: #000000; stroke-width: 0.8; stroke-linejoin: miter; stroke-linecap: square"/>
   </g>
   <g id="legend_1">
    <g id="patch_7">
     <path d="M 44.46875 94.281693 
L 116.214063 94.281693 
Q 118.214063 94.281693 118.214063 92.281693 
L 118.214063 51.464505 
Q 118.214063 49.464505 116.214063 49.464505 
L 44.46875 49.464505 
Q 42.46875 49.464505 42.46875 51.464505 
L 42.46875 92.281693 
Q 42.46875 94.281693 44.46875 94.281693 
z
" style="fill: #ffffff; opacity: 0.8; stroke: #cccccc; stroke-linejoin: miter"/>
    </g>
    <g id="line2d_20">
     <path d="M 46.46875 56.964505 
L 56.46875 56.964505 
L 66.46875 56.964505 
" style="fill: none; stroke: #8000ff; stroke-linecap: square"/>
    </g>
    <g id="text_11">
     <text style="font-size: 10px; font-family: 'cmss10', sans-serif; text-anchor: start" x="74.46875" y="60.464505" transform="rotate(-0 74.46875 60.464505)">x=-0.8 m</text>
    </g>
    <g id="line2d_21">
     <path d="M 46.46875 70.903568 
L 56.46875 70.903568 
L 66.46875 70.903568 
" style="fill: none; stroke: #80ffb4; stroke-linecap: square"/>
    </g>
    <g id="text_12">
     <text style="font-size: 10px; font-family: 'cmss10', sans-serif; text-anchor: start" x="74.46875" y="74.403568" transform="rotate(-0 74.46875 74.403568)">x=0.0 m</text>
    </g>
    <g id="line2d_22">
     <path d="M 46.46875 84.84263 
L 56.46875 84.84263 
L 66.46875 84.84263 
" style="fill: none; stroke: #ff0000; stroke-linecap: square"/>
    </g>
    <g id="text_13">
     <text style="font-size: 10px; font-family: 'cmss10', sans-serif; text-anchor: start" x="74.46875" y="88.34263" transform="rotate(-0 74.46875 88.34263)">x=0.8 m</text>
    </g>
   </g>
  </g>
 </g>
 <defs>
  <clipPath id="p05d6b751e3">
   <rect x="37.46875" y="7.2" width="164.76378" height="92.081693"/>
  </clipPath>
 </defs>
</svg>
