<?xml version="1.0" encoding="utf-8" standalone="no"?>
<!DOCTYPE svg PUBLIC "-//W3C//DTD SVG 1.1//EN"
  "http://www.w3.org/Graphics/SVG/1.1/DTD/svg11.dtd">
<svg xmlns:xlink="http://www.w3.org/1999/xlink" width="212.754204pt" height="132.862943pt" viewBox="0 0 212.754204 132.862943" xmlns="http://www.w3.org/2000/svg" version="1.1">
 <metadata>
  <rdf:RDF xmlns:dc="http://purl.org/dc/elements/1.1/" xmlns:cc="http://creativecommons.org/ns#" xmlns:rdf="http://www.w3.org/1999/02/22-rdf-syntax-ns#">
   <cc:Work>
    <dc:type rdf:resource="http://purl.org/dc/dcmitype/StillImage"/>
    <dc:date>2026-03-24T12:08:36.781131</dc:date>
    <dc:format>image/svg+xml</dc:format>
    <dc:creator>
     <cc:Agent>
      <dc:title>Matplotlib v3.10.8, https://matplotlib.org/</dc:title>
     </cc:Agent>
    </dc:creator>
   </cc:Work>
  </rdf:RDF>
 </metadata>
 <defs>
  <style type="text/css">*{stroke-linejoin: round; stroke-linecap: butt}</style>
 </defs>
 <g id="figure_1">
  <g id="patch_1">
   <path d="M 0 132.862943 
L 212.754204 132.862943 
L 212.754204 0 
L 0 0 
z
" style="fill: #ffffff"/>
  </g>
  <g id="axes_1">
   <g id="patch_2">
    <path d="M 40.779688 99.281693 
L 205.543467 99.281693 
L 205.543467 7.2 
L 40.779688 7.2 
z
" style="fill: #ffffff"/>
   </g>
   <g id="matplotlib.axis_1">
    <g id="xtick_1">
     <g id="line2d_1">
      <defs>
       <path id="m502755b611" d="M 0 0 
L 0 -4 
" style="stroke: #000000"/>
      </defs>
      <g>
       <use xlink:href="#m502755b611" x="46.755968" y="99.281693" style="stroke: #000000"/>
      </g>
     </g>
     <g id="line2d_2">
      <defs>
       <path id="m969de16b99" d="M 0 0 
L 0 4 
" style="stroke: #000000"/>
      </defs>
      <g>
       <use xlink:href="#m969de16b99" x="46.755968" y="7.2" style="stroke: #000000"/>
      </g>
     </g>
     <g id="text_1">
      <text style="font-size: 10px; font-family: 'NewComputerModern'; text-anchor: middle" x="46.755968" y="109.722318" transform="rotate(-0 46.755968 109.722318)">0</text>
     </g>
    </g>
    <g id="xtick_2">
     <g id="line2d_3">
      <g>
       <use xlink:href="#m502755b611" x="84.580527" y="99.281693" style="stroke: #000000"/>
      </g>
     </g>
     <g id="line2d_4">
      <g>
       <use xlink:href="#m969de16b99" x="84.580527" y="7.2" style="stroke: #000000"/>
      </g>
     </g>
     <g id="text_2">
      <text style="font-size: 10px; font-family: 'NewComputerModern'; text-anchor: middle" x="84.580527" y="109.722318" transform="rotate(-0 84.580527 109.722318)">25</text>
     </g>
    </g>
    <g id="xtick_3">
     <g id="line2d_5">
      <g>
       <use xlink:href="#m502755b611" x="122.405086" y="99.281693" style="stroke: #000000"/>
      </g>
     </g>
     <g id="line2d_6">
      <g>
       <use xlink:href="#m969de16b99" x="122.405086" y="7.2" style="stroke: #000000"/>
      </g>
     </g>
     <g id="text_3">
      <text style="font-size: 10px; font-family: 'NewComputerModern'; text-anchor: middle" x="122.405086" y="109.722318" transform="rotate(-0 122.405086 109.722318)">50</text>
     </g>
    </g>
    <g id="xtick_4">
     <g id="line2d_7">
      <g>
       <use xlink:href="#m502755b611" x="160.229645" y="99.281693" style="stroke: #000000"/>
      </g>
     </g>
     <g id="line2d_8">
      <g>
       <use xlink:href="#m969de16b99" x="160.229645" y="7.2" style="stroke: #000000"/>
      </g>
     </g>
     <g id="text_4">
      <text style="font-size: 10px; font-family: 'NewComputerModern'; text-anchor: middle" x="160.229645" y="109.722318" transform="rotate(-0 160.229645 109.722318)">75</text>
     </g>
    </g>
    <g id="xtick_5">
     <g id="line2d_9">
      <g>
       <use xlink:href="#m502755b611" x="198.054204" y="99.281693" style="stroke: #000000"/>
      </g>
     </g>
     <g id="line2d_10">
      <g>
       <use xlink:href="#m969de16b99" x="198.054204" y="7.2" style="stroke: #000000"/>
      </g>
     </g>
     <g id="text_5">
      <text style="font-size: 10px; font-family: 'NewComputerModern'; text-anchor: middle" x="198.054204" y="109.722318" transform="rotate(-0 198.054204 109.722318)">100</text>
     </g>
    </g>
    <g id="text_6">
     <text style="font-size: 10px; font-family: 'NewComputerModern'; text-anchor: middle" x="123.161577" y="123.162943" transform="rotate(-0 123.161577 123.162943)">Velocity in m/s</text>
    </g>
   </g>
   <g id="matplotlib.axis_2">
    <g id="ytick_1">
     <g id="line2d_11">
      <defs>
       <path id="m565a726c3c" d="M 0 0 
L 4 0 
" style="stroke: #000000"/>
      </defs>
      <g>
       <use xlink:href="#m565a726c3c" x="40.779688" y="88.770033" style="stroke: #000000"/>
      </g>
     </g>
     <g id="line2d_12">
      <defs>
       <path id="me7e6039dfa" d="M 0 0 
L -4 0 
" style="stroke: #000000"/>
      </defs>
      <g>
       <use xlink:href="#me7e6039dfa" x="205.543467" y="88.770033" style="stroke: #000000"/>
      </g>
     </g>
     <g id="text_7">
      <text style="font-size: 10px; font-family: 'NewComputerModern'; text-anchor: end" x="37.279688" y="92.240346" transform="rotate(-0 37.279688 92.240346)">0.6</text>
     </g>
    </g>
    <g id="ytick_2">
     <g id="line2d_13">
      <g>
       <use xlink:href="#m565a726c3c" x="40.779688" y="49.857284" style="stroke: #000000"/>
      </g>
     </g>
     <g id="line2d_14">
      <g>
       <use xlink:href="#me7e6039dfa" x="205.543467" y="49.857284" style="stroke: #000000"/>
      </g>
     </g>
     <g id="text_8">
      <text style="font-size: 10px; font-family: 'NewComputerModern'; text-anchor: end" x="37.279688" y="53.327596" transform="rotate(-0 37.279688 53.327596)">0.8</text>
     </g>
    </g>
    <g id="ytick_3">
     <g id="line2d_15">
      <g>
       <use xlink:href="#m565a726c3c" x="40.779688" y="10.944535" style="stroke: #000000"/>
      </g>
     </g>
     <g id="line2d_16">
      <g>
       <use xlink:href="#me7e6039dfa" x="205.543467" y="10.944535" style="stroke: #000000"/>
      </g>
     </g>
     <g id="text_9">
      <text style="font-size: 10px; font-family: 'NewComputerModern'; text-anchor: end" x="37.279688" y="14.414847" transform="rotate(-0 37.279688 14.414847)">1.0</text>
     </g>
    </g>
    <g id="text_10">
     <!-- $\frac{F_a}{F_{a}^0}$    -->
     <g transform="translate(7.2 44.280846)">
      <text>
       <tspan x="0" y="-7.153125" style="font-size: 9.8px; font-family: 'NewComputerModern Math'">F</tspan>
       <tspan x="0" y="6.418125" style="font-size: 9.8px; font-family: 'NewComputerModern Math'">F</tspan>
       <tspan x="6.399399" y="-5.8275" style="font-size: 6.86px; font-family: 'NewComputerModern Math'">a</tspan>
       <tspan x="6.399399" y="8.6275" style="font-size: 6.86px; font-family: 'NewComputerModern Math'">a</tspan>
       <tspan x="7.100201" y="3.325" style="font-size: 6.86px; font-family: 'NewComputerModern Math'">0</tspan>
       <tspan x="12.501138" y="-0.368125" style="font-size: 14px; font-family: 'NewComputerModern'"> </tspan>
       <tspan x="17.163126" y="-0.368125" style="font-size: 14px; font-family: 'NewComputerModern'"> </tspan>
       <tspan x="21.825113" y="-0.368125" style="font-size: 14px; font-family: 'NewComputerModern'"> </tspan>
      </text>
      <rect x="0" y="-3.250938" width="10.751138" height="0.875"/>
     </g>
    </g>
   </g>
   <g id="line2d_17">
    <path d="M 48.26895 11.385531 
L 49.781933 11.401843 
L 51.294915 11.427835 
L 52.807897 11.46206 
L 54.32088 11.50299 
L 55.833862 11.549225 
L 57.346844 11.599593 
L 58.859827 11.653161 
L 60.372809 11.709214 
L 61.885791 11.767206 
L 63.398774 11.826725 
L 64.911756 11.887462 
L 66.424739 11.949179 
L 67.937721 12.011694 
L 69.450703 12.074865 
L 70.963686 12.138582 
L 72.476668 12.202757 
L 73.98965 12.267319 
L 75.502633 12.332213 
L 77.015615 12.397391 
L 78.528598 12.462816 
L 80.04158 12.528455 
L 81.554562 12.594283 
L 83.067545 12.660276 
L 84.580527 12.726417 
L 86.093509 12.792688 
L 87.606492 12.859076 
L 89.119474 12.925568 
L 90.632456 12.992156 
L 92.145439 13.058828 
L 93.658421 13.125578 
L 95.171404 13.192398 
L 96.684386 13.259283 
L 98.197368 13.326226 
L 99.710351 13.393223 
L 101.223333 13.46027 
L 102.736315 13.527362 
L 104.249298 13.594496 
L 105.76228 13.66167 
L 107.275262 13.728879 
L 108.788245 13.796122 
L 110.301227 13.863396 
L 111.81421 13.930699 
L 113.327192 13.99803 
L 114.840174 14.065385 
L 116.353157 14.132765 
L 117.866139 14.200167 
L 119.379121 14.26759 
L 120.892104 14.335032 
L 122.405086 14.402493 
L 123.918068 14.469972 
L 125.431051 14.537467 
L 126.944033 14.604977 
L 128.457016 14.672502 
L 129.969998 14.740041 
L 131.48298 14.807594 
L 132.995963 14.875159 
L 134.508945 14.942735 
L 136.021927 15.010323 
L 137.53491 15.077922 
L 139.047892 15.145531 
L 140.560874 15.213149 
L 142.073857 15.280777 
L 143.586839 15.348414 
L 145.099822 15.416059 
L 146.612804 15.483713 
L 148.125786 15.551373 
L 149.638769 15.619042 
L 151.151751 15.686717 
L 152.664733 15.754399 
L 154.177716 15.822088 
L 155.690698 15.889783 
L 157.20368 15.957484 
L 158.716663 16.02519 
L 160.229645 16.092902 
L 161.742628 16.16062 
L 163.25561 16.228342 
L 164.768592 16.296069 
L 166.281575 16.363801 
L 167.794557 16.431538 
L 169.307539 16.499279 
L 170.820522 16.567024 
L 172.333504 16.634773 
L 173.846486 16.702526 
L 175.359469 16.770283 
L 176.872451 16.838043 
L 178.385434 16.905807 
L 179.898416 16.973574 
L 181.411398 17.041345 
L 182.924381 17.109119 
L 184.437363 17.176896 
L 185.950345 17.244676 
L 187.463328 17.312459 
L 188.97631 17.380244 
L 190.489292 17.448033 
L 192.002275 17.515824 
L 193.515257 17.583617 
L 195.02824 17.651413 
L 196.541222 17.719211 
L 198.054204 17.787012 
" clip-path="url(#pec65a1cc83)" style="fill: none; stroke: #ff0000; stroke-linecap: square"/>
   </g>
   <g id="line2d_18">
    <path d="M 48.26895 11.819725 
L 49.781933 11.940159 
L 51.294915 12.114488 
L 52.807897 12.322361 
L 54.32088 12.55045 
L 55.833862 12.790963 
L 57.346844 13.039426 
L 58.859827 13.293202 
L 60.372809 13.550677 
L 61.885791 13.810821 
L 63.398774 14.072949 
L 64.911756 14.336591 
L 66.424739 14.601414 
L 67.937721 14.867175 
L 69.450703 15.133695 
L 70.963686 15.400835 
L 72.476668 15.668491 
L 73.98965 15.936578 
L 75.502633 16.205031 
L 77.015615 16.473796 
L 78.528598 16.742831 
L 80.04158 17.012098 
L 81.554562 17.281569 
L 83.067545 17.551218 
L 84.580527 17.821025 
L 86.093509 18.090972 
L 87.606492 18.361043 
L 89.119474 18.631226 
L 90.632456 18.901509 
L 92.145439 19.171882 
L 93.658421 19.442337 
L 95.171404 19.712867 
L 96.684386 19.983463 
L 98.197368 20.254122 
L 99.710351 20.524837 
L 101.223333 20.795603 
L 102.736315 21.066418 
L 104.249298 21.337276 
L 105.76228 21.608174 
L 107.275262 21.879109 
L 108.788245 22.150079 
L 110.301227 22.421081 
L 111.81421 22.692111 
L 113.327192 22.963169 
L 114.840174 23.234251 
L 116.353157 23.505356 
L 117.866139 23.776481 
L 119.379121 24.047624 
L 120.892104 24.318784 
L 122.405086 24.589958 
L 123.918068 24.861145 
L 125.431051 25.132341 
L 126.944033 25.403546 
L 128.457016 25.674756 
L 129.969998 25.94597 
L 131.48298 26.217185 
L 132.995963 26.488398 
L 134.508945 26.759607 
L 136.021927 27.030809 
L 137.53491 27.302001 
L 139.047892 27.57318 
L 140.560874 27.844343 
L 142.073857 28.115486 
L 143.586839 28.386605 
L 145.099822 28.657698 
L 146.612804 28.928759 
L 148.125786 29.199785 
L 149.638769 29.470771 
L 151.151751 29.741714 
L 152.664733 30.012607 
L 154.177716 30.283447 
L 155.690698 30.554229 
L 157.20368 30.824947 
L 158.716663 31.095595 
L 160.229645 31.366169 
L 161.742628 31.636663 
L 163.25561 31.907071 
L 164.768592 32.177387 
L 166.281575 32.447604 
L 167.794557 32.717717 
L 169.307539 32.987719 
L 170.820522 33.257604 
L 172.333504 33.527365 
L 173.846486 33.796996 
L 175.359469 34.066489 
L 176.872451 34.335837 
L 178.385434 34.605034 
L 179.898416 34.874073 
L 181.411398 35.142946 
L 182.924381 35.411646 
L 184.437363 35.680166 
L 185.950345 35.948498 
L 187.463328 36.216636 
L 188.97631 36.484571 
L 190.489292 36.752296 
L 192.002275 37.019804 
L 193.515257 37.287088 
L 195.02824 37.554139 
L 196.541222 37.82095 
L 198.054204 38.087514 
" clip-path="url(#pec65a1cc83)" style="fill: none; stroke: #e6cd73; stroke-linecap: square"/>
   </g>
   <g id="line2d_19">
    <path d="M 48.26895 12.315582 
L 49.781933 12.679752 
L 51.294915 13.159718 
L 52.807897 13.694464 
L 54.32088 14.256671 
L 55.833862 14.834035 
L 57.346844 15.420524 
L 58.859827 16.012906 
L 60.372809 16.609304 
L 61.885791 17.208562 
L 63.398774 17.809926 
L 64.911756 18.412886 
L 66.424739 19.017086 
L 67.937721 19.622265 
L 69.450703 20.228233 
L 70.963686 20.834845 
L 72.476668 21.44199 
L 73.98965 22.049578 
L 75.502633 22.65754 
L 77.015615 23.265816 
L 78.528598 23.874358 
L 80.04158 24.483121 
L 81.554562 25.092065 
L 83.067545 25.701152 
L 84.580527 26.310345 
L 86.093509 26.919604 
L 87.606492 27.528889 
L 89.119474 28.138157 
L 90.632456 28.747362 
L 92.145439 29.356453 
L 93.658421 29.965377 
L 95.171404 30.574077 
L 96.684386 31.182491 
L 98.197368 31.790553 
L 99.710351 32.398194 
L 101.223333 33.005343 
L 102.736315 33.611923 
L 104.249298 34.217856 
L 105.76228 34.823063 
L 107.275262 35.427459 
L 108.788245 36.030962 
L 110.301227 36.633486 
L 111.81421 37.234946 
L 113.327192 37.835254 
L 114.840174 38.434324 
L 116.353157 39.03207 
L 117.866139 39.628407 
L 119.379121 40.22325 
L 120.892104 40.816515 
L 122.405086 41.40812 
L 123.918068 41.997986 
L 125.431051 42.586032 
L 126.944033 43.172184 
L 128.457016 43.756365 
L 129.969998 44.338504 
L 131.48298 44.918531 
L 132.995963 45.496379 
L 134.508945 46.071982 
L 136.021927 46.645278 
L 137.53491 47.216208 
L 139.047892 47.784714 
L 140.560874 48.350743 
L 142.073857 48.914241 
L 143.586839 49.475161 
L 145.099822 50.033454 
L 146.612804 50.589079 
L 148.125786 51.141992 
L 149.638769 51.692156 
L 151.151751 52.239533 
L 152.664733 52.78409 
L 154.177716 53.325795 
L 155.690698 53.864618 
L 157.20368 54.400534 
L 158.716663 54.933516 
L 160.229645 55.463541 
L 161.742628 55.99059 
L 163.25561 56.514644 
L 164.768592 57.035685 
L 166.281575 57.553699 
L 167.794557 58.068672 
L 169.307539 58.580593 
L 170.820522 59.089453 
L 172.333504 59.595243 
L 173.846486 60.097956 
L 175.359469 60.597588 
L 176.872451 61.094134 
L 178.385434 61.587593 
L 179.898416 62.077963 
L 181.411398 62.565245 
L 182.924381 63.049439 
L 184.437363 63.530548 
L 185.950345 64.008576 
L 187.463328 64.483528 
L 188.97631 64.955408 
L 190.489292 65.424224 
L 192.002275 65.889982 
L 193.515257 66.352691 
L 195.02824 66.81236 
L 196.541222 67.268998 
L 198.054204 67.722617 
" clip-path="url(#pec65a1cc83)" style="fill: none; stroke: #4df3ce; stroke-linecap: square"/>
   </g>
   <g id="line2d_20">
    <path d="M 48.26895 12.896356 
L 49.781933 13.660761 
L 51.294915 14.597965 
L 52.807897 15.602442 
L 54.32088 16.63768 
L 55.833862 17.68922 
L 57.346844 18.750389 
L 58.859827 19.817709 
L 60.372809 20.889194 
L 61.885791 21.963626 
L 63.398774 23.040214 
L 64.911756 24.118409 
L 66.424739 25.197803 
L 67.937721 26.278064 
L 69.450703 27.35889 
L 70.963686 28.439986 
L 72.476668 29.521041 
L 73.98965 30.601717 
L 75.502633 31.681647 
L 77.015615 32.760431 
L 78.528598 33.83764 
L 80.04158 34.912821 
L 81.554562 35.985499 
L 83.067545 37.05519 
L 84.580527 38.121399 
L 86.093509 39.183635 
L 87.606492 40.24141 
L 89.119474 41.294247 
L 90.632456 42.341685 
L 92.145439 43.383279 
L 93.658421 44.418606 
L 95.171404 45.447269 
L 96.684386 46.468891 
L 98.197368 47.483125 
L 99.710351 48.489648 
L 101.223333 49.488166 
L 102.736315 50.47841 
L 104.249298 51.460135 
L 105.76228 52.433125 
L 107.275262 53.397187 
L 108.788245 54.352151 
L 110.301227 55.297869 
L 111.81421 56.234216 
L 113.327192 57.161087 
L 114.840174 58.078395 
L 116.353157 58.98607 
L 117.866139 59.884062 
L 119.379121 60.772333 
L 120.892104 61.650861 
L 122.405086 62.519638 
L 123.918068 63.378668 
L 125.431051 64.227965 
L 126.944033 65.067555 
L 128.457016 65.897472 
L 129.969998 66.717761 
L 131.48298 67.528474 
L 132.995963 68.329668 
L 134.508945 69.12141 
L 136.021927 69.90377 
L 137.53491 70.676826 
L 139.047892 71.440658 
L 140.560874 72.195351 
L 142.073857 72.940995 
L 143.586839 73.677682 
L 145.099822 74.405508 
L 146.612804 75.124568 
L 148.125786 75.834964 
L 149.638769 76.536797 
L 151.151751 77.230168 
L 152.664733 77.915184 
L 154.177716 78.591948 
L 155.690698 79.260566 
L 157.20368 79.921145 
L 158.716663 80.57379 
L 160.229645 81.218609 
L 161.742628 81.855708 
L 163.25561 82.485193 
L 164.768592 83.10717 
L 166.281575 83.721746 
L 167.794557 84.329025 
L 169.307539 84.929111 
L 170.820522 85.522109 
L 172.333504 86.10812 
L 173.846486 86.687248 
L 175.359469 87.259593 
L 176.872451 87.825255 
L 178.385434 88.384333 
L 179.898416 88.936925 
L 181.411398 89.483129 
L 182.924381 90.023038 
L 184.437363 90.556749 
L 185.950345 91.084354 
L 187.463328 91.605945 
L 188.97631 92.121613 
L 190.489292 92.631448 
L 192.002275 93.135537 
L 193.515257 93.633968 
L 195.02824 94.126826 
L 196.541222 94.614196 
L 198.054204 95.096161 
" clip-path="url(#pec65a1cc83)" style="fill: none; stroke: #4e4dfc; stroke-linecap: square"/>
   </g>
   <g id="patch_3">
    <path d="M 40.779688 99.281693 
L 40.779688 7.2 
" style="fill: none; stroke: #000000; stroke-width: 0.8; stroke-linejoin: miter; stroke-linecap: square"/>
   </g>
   <g id="patch_4">
    <path d="M 205.543467 99.281693 
L 205.543467 7.2 
" style="fill: none; stroke: #000000; stroke-width: 0.8; stroke-linejoin: miter; stroke-linecap: square"/>
   </g>
   <g id="patch_5">
    <path d="M 40.779688 99.281693 
L 205.543467 99.281693 
" style="fill: none; stroke: #000000; stroke-width: 0.8; stroke-linejoin: miter; stroke-linecap: square"/>
   </g>
   <g id="patch_6">
    <path d="M 40.779688 7.2 
L 205.543467 7.2 
" style="fill: none; stroke: #000000; stroke-width: 0.8; stroke-linejoin: miter; stroke-linecap: square"/>
   </g>
   <g id="legend_1">
    <g id="patch_7">
     <path d="M 47.779688 94.281693 
L 126.439063 94.281693 
Q 128.439063 94.281693 128.439063 92.281693 
L 128.439063 37.519193 
Q 128.439063 35.519193 126.439063 35.519193 
L 47.779688 35.519193 
Q 45.779688 35.519193 45.779688 37.519193 
L 45.779688 92.281693 
Q 45.779688 94.281693 47.779688 94.281693 
z
" style="fill: #ffffff; opacity: 0.8; stroke: #cccccc; stroke-linejoin: miter"/>
    </g>
    <g id="line2d_21">
     <path d="M 49.779688 43.019193 
L 59.779688 43.019193 
L 69.779687 43.019193 
" style="fill: none; stroke: #ff0000; stroke-linecap: square"/>
    </g>
    <g id="text_11">
     <text style="font-size: 10px; font-family: 'NewComputerModern'; text-anchor: start" x="77.779687" y="46.519193" transform="rotate(-0 77.779687 46.519193)">2a=1.0 cm</text>
    </g>
    <g id="line2d_22">
     <path d="M 49.779688 56.959818 
L 59.779688 56.959818 
L 69.779687 56.959818 
" style="fill: none; stroke: #e6cd73; stroke-linecap: square"/>
    </g>
    <g id="text_12">
     <text style="font-size: 10px; font-family: 'NewComputerModern'; text-anchor: start" x="77.779687" y="60.459818" transform="rotate(-0 77.779687 60.459818)">2a=2.0 cm</text>
    </g>
    <g id="line2d_23">
     <path d="M 49.779688 70.900443 
L 59.779688 70.900443 
L 69.779687 70.900443 
" style="fill: none; stroke: #4df3ce; stroke-linecap: square"/>
    </g>
    <g id="text_13">
     <text style="font-size: 10px; font-family: 'NewComputerModern'; text-anchor: start" x="77.779687" y="74.400443" transform="rotate(-0 77.779687 74.400443)">2a=3.0 cm</text>
    </g>
    <g id="line2d_24">
     <path d="M 49.779688 84.841068 
L 59.779688 84.841068 
L 69.779687 84.841068 
" style="fill: none; stroke: #4e4dfc; stroke-linecap: square"/>
    </g>
    <g id="text_14">
     <text style="font-size: 10px; font-family: 'NewComputerModern'; text-anchor: start" x="77.779687" y="88.341068" transform="rotate(-0 77.779687 88.341068)">2a=4.0 cm</text>
    </g>
   </g>
  </g>
 </g>
 <defs>
  <clipPath id="pec65a1cc83">
   <rect x="40.779688" y="7.2" width="164.76378" height="92.081693"/>
  </clipPath>
 </defs>
</svg>
