<?xml version="1.0" encoding="utf-8" standalone="no"?>
<!DOCTYPE svg PUBLIC "-//W3C//DTD SVG 1.1//EN"
  "http://www.w3.org/Graphics/SVG/1.1/DTD/svg11.dtd">
<svg xmlns:xlink="http://www.w3.org/1999/xlink" width="210.974517pt" height="132.859818pt" viewBox="0 0 210.974517 132.859818" xmlns="http://www.w3.org/2000/svg" version="1.1">
 <metadata>
  <rdf:RDF xmlns:dc="http://purl.org/dc/elements/1.1/" xmlns:cc="http://creativecommons.org/ns#" xmlns:rdf="http://www.w3.org/1999/02/22-rdf-syntax-ns#">
   <cc:Work>
    <dc:type rdf:resource="http://purl.org/dc/dcmitype/StillImage"/>
    <dc:date>2026-02-12T16:24:30.514733</dc:date>
    <dc:format>image/svg+xml</dc:format>
    <dc:creator>
     <cc:Agent>
      <dc:title>Matplotlib v3.10.8, https://matplotlib.org/</dc:title>
     </cc:Agent>
    </dc:creator>
   </cc:Work>
  </rdf:RDF>
 </metadata>
 <defs>
  <style type="text/css">*{stroke-linejoin: round; stroke-linecap: butt}</style>
 </defs>
 <g id="figure_1">
  <g id="patch_1">
   <path d="M 0 132.859818 
L 210.974517 132.859818 
L 210.974517 0 
L 0 0 
z
" style="fill: #ffffff"/>
  </g>
  <g id="axes_1">
   <g id="patch_2">
    <path d="M 39 99.281693 
L 203.76378 99.281693 
L 203.76378 7.2 
L 39 7.2 
z
" style="fill: #ffffff"/>
   </g>
   <g id="matplotlib.axis_1">
    <g id="xtick_1">
     <g id="line2d_1">
      <defs>
       <path id="m1e8fc36a9b" d="M 0 0 
L 0 -4 
" style="stroke: #000000"/>
      </defs>
      <g>
       <use xlink:href="#m1e8fc36a9b" x="44.97628" y="99.281693" style="stroke: #000000"/>
      </g>
     </g>
     <g id="line2d_2">
      <defs>
       <path id="m4b76f812c5" d="M 0 0 
L 0 4 
" style="stroke: #000000"/>
      </defs>
      <g>
       <use xlink:href="#m4b76f812c5" x="44.97628" y="7.2" style="stroke: #000000"/>
      </g>
     </g>
     <g id="text_1">
      <text style="font-size: 10px; font-family: 'cmss10', sans-serif; text-anchor: middle" x="44.97628" y="109.720755" transform="rotate(-0 44.97628 109.720755)">0</text>
     </g>
    </g>
    <g id="xtick_2">
     <g id="line2d_3">
      <g>
       <use xlink:href="#m1e8fc36a9b" x="82.800839" y="99.281693" style="stroke: #000000"/>
      </g>
     </g>
     <g id="line2d_4">
      <g>
       <use xlink:href="#m4b76f812c5" x="82.800839" y="7.2" style="stroke: #000000"/>
      </g>
     </g>
     <g id="text_2">
      <text style="font-size: 10px; font-family: 'cmss10', sans-serif; text-anchor: middle" x="82.800839" y="109.720755" transform="rotate(-0 82.800839 109.720755)">25</text>
     </g>
    </g>
    <g id="xtick_3">
     <g id="line2d_5">
      <g>
       <use xlink:href="#m1e8fc36a9b" x="120.625399" y="99.281693" style="stroke: #000000"/>
      </g>
     </g>
     <g id="line2d_6">
      <g>
       <use xlink:href="#m4b76f812c5" x="120.625399" y="7.2" style="stroke: #000000"/>
      </g>
     </g>
     <g id="text_3">
      <text style="font-size: 10px; font-family: 'cmss10', sans-serif; text-anchor: middle" x="120.625399" y="109.720755" transform="rotate(-0 120.625399 109.720755)">50</text>
     </g>
    </g>
    <g id="xtick_4">
     <g id="line2d_7">
      <g>
       <use xlink:href="#m1e8fc36a9b" x="158.449958" y="99.281693" style="stroke: #000000"/>
      </g>
     </g>
     <g id="line2d_8">
      <g>
       <use xlink:href="#m4b76f812c5" x="158.449958" y="7.2" style="stroke: #000000"/>
      </g>
     </g>
     <g id="text_4">
      <text style="font-size: 10px; font-family: 'cmss10', sans-serif; text-anchor: middle" x="158.449958" y="109.720755" transform="rotate(-0 158.449958 109.720755)">75</text>
     </g>
    </g>
    <g id="xtick_5">
     <g id="line2d_9">
      <g>
       <use xlink:href="#m1e8fc36a9b" x="196.274517" y="99.281693" style="stroke: #000000"/>
      </g>
     </g>
     <g id="line2d_10">
      <g>
       <use xlink:href="#m4b76f812c5" x="196.274517" y="7.2" style="stroke: #000000"/>
      </g>
     </g>
     <g id="text_5">
      <text style="font-size: 10px; font-family: 'cmss10', sans-serif; text-anchor: middle" x="196.274517" y="109.720755" transform="rotate(-0 196.274517 109.720755)">100</text>
     </g>
    </g>
    <g id="text_6">
     <text style="font-size: 10px; font-family: 'cmss10', sans-serif; text-anchor: middle" x="121.38189" y="123.159818" transform="rotate(-0 121.38189 123.159818)">Velocity in m/s</text>
    </g>
   </g>
   <g id="matplotlib.axis_2">
    <g id="ytick_1">
     <g id="line2d_11">
      <defs>
       <path id="mdd5a9d20d6" d="M 0 0 
L 4 0 
" style="stroke: #000000"/>
      </defs>
      <g>
       <use xlink:href="#mdd5a9d20d6" x="39" y="98.076231" style="stroke: #000000"/>
      </g>
     </g>
     <g id="line2d_12">
      <defs>
       <path id="mdd1b43f0e8" d="M 0 0 
L -4 0 
" style="stroke: #000000"/>
      </defs>
      <g>
       <use xlink:href="#mdd1b43f0e8" x="203.76378" y="98.076231" style="stroke: #000000"/>
      </g>
     </g>
     <g id="text_7">
      <text style="font-size: 10px; font-family: 'cmss10', sans-serif; text-anchor: end" x="35.5" y="101.545763" transform="rotate(-0 35.5 101.545763)">0</text>
     </g>
    </g>
    <g id="ytick_2">
     <g id="line2d_13">
      <g>
       <use xlink:href="#mdd5a9d20d6" x="39" y="71.702234" style="stroke: #000000"/>
      </g>
     </g>
     <g id="line2d_14">
      <g>
       <use xlink:href="#mdd1b43f0e8" x="203.76378" y="71.702234" style="stroke: #000000"/>
      </g>
     </g>
     <g id="text_8">
      <text style="font-size: 10px; font-family: 'cmss10', sans-serif; text-anchor: end" x="35.5" y="75.171765" transform="rotate(-0 35.5 75.171765)">100</text>
     </g>
    </g>
    <g id="ytick_3">
     <g id="line2d_15">
      <g>
       <use xlink:href="#mdd5a9d20d6" x="39" y="45.328237" style="stroke: #000000"/>
      </g>
     </g>
     <g id="line2d_16">
      <g>
       <use xlink:href="#mdd1b43f0e8" x="203.76378" y="45.328237" style="stroke: #000000"/>
      </g>
     </g>
     <g id="text_9">
      <text style="font-size: 10px; font-family: 'cmss10', sans-serif; text-anchor: end" x="35.5" y="48.797768" transform="rotate(-0 35.5 48.797768)">200</text>
     </g>
    </g>
    <g id="ytick_4">
     <g id="line2d_17">
      <g>
       <use xlink:href="#mdd5a9d20d6" x="39" y="18.954239" style="stroke: #000000"/>
      </g>
     </g>
     <g id="line2d_18">
      <g>
       <use xlink:href="#mdd1b43f0e8" x="203.76378" y="18.954239" style="stroke: #000000"/>
      </g>
     </g>
     <g id="text_10">
      <text style="font-size: 10px; font-family: 'cmss10', sans-serif; text-anchor: end" x="35.5" y="22.423771" transform="rotate(-0 35.5 22.423771)">300</text>
     </g>
    </g>
    <g id="text_11">
     <!-- $\frac{F_a}{F_b}$    -->
     <g transform="translate(7.2 48.140846)">
      <text>
       <tspan x="0" y="-5.892188" style="font-style: oblique; font-size: 7px; font-family: 'DejaVu Sans'">F</tspan>
       <tspan x="0" y="3.557969" style="font-style: oblique; font-size: 7px; font-family: 'DejaVu Sans'">F</tspan>
       <tspan x="4.026367" y="-4.74375" style="font-style: oblique; font-size: 4.9px; font-family: 'DejaVu Sans'">a</tspan>
       <tspan x="4.026367" y="4.706406" style="font-style: oblique; font-size: 4.9px; font-family: 'DejaVu Sans'">b</tspan>
       <tspan x="8.578125" y="-0.292031" style="font-size: 10px; font-family: 'cmss10'"> </tspan>
       <tspan x="11.908203" y="-0.292031" style="font-size: 10px; font-family: 'cmss10'"> </tspan>
       <tspan x="15.238281" y="-0.292031" style="font-size: 10px; font-family: 'cmss10'"> </tspan>
      </text>
      <rect x="0" y="-3.174844" width="7.328125" height="0.625"/>
     </g>
    </g>
   </g>
   <g id="line2d_19">
    <path d="M 46.489263 87.614603 
L 48.002245 91.526797 
L 49.515227 92.639261 
L 51.02821 93.166363 
L 52.541192 93.492558 
L 54.054175 93.72643 
L 55.567157 93.907968 
L 57.080139 94.055108 
L 58.593122 94.177371 
L 60.106104 94.280567 
L 61.619086 94.368627 
L 63.132069 94.444406 
L 64.645051 94.510069 
L 66.158033 94.567306 
L 67.671016 94.617462 
L 69.183998 94.661622 
L 70.696981 94.700671 
L 72.209963 94.735337 
L 73.722945 94.766224 
L 75.235928 94.793836 
L 76.74891 94.818596 
L 78.261892 94.840862 
L 79.774875 94.860938 
L 81.287857 94.879084 
L 82.800839 94.895524 
L 84.313822 94.910449 
L 85.826804 94.924026 
L 87.339787 94.936401 
L 88.852769 94.947699 
L 90.365751 94.958031 
L 91.878734 94.967496 
L 93.391716 94.976178 
L 94.904698 94.984155 
L 96.417681 94.991493 
L 97.930663 94.998252 
L 99.443645 95.004487 
L 100.956628 95.010244 
L 102.46961 95.015567 
L 103.982593 95.020495 
L 105.495575 95.025061 
L 107.008557 95.029297 
L 108.52154 95.033232 
L 110.034522 95.03689 
L 111.547504 95.040295 
L 113.060487 95.043468 
L 114.573469 95.046427 
L 116.086451 95.04919 
L 117.599434 95.051773 
L 119.112416 95.054189 
L 120.625399 95.056452 
L 122.138381 95.058574 
L 123.651363 95.060566 
L 125.164346 95.062437 
L 126.677328 95.064197 
L 128.19031 95.065854 
L 129.703293 95.067416 
L 131.216275 95.068889 
L 132.729257 95.070281 
L 134.24224 95.071597 
L 135.755222 95.072842 
L 137.268205 95.074022 
L 138.781187 95.075142 
L 140.294169 95.076204 
L 141.807152 95.077214 
L 143.320134 95.078175 
L 144.833116 95.079091 
L 146.346099 95.079964 
L 147.859081 95.080797 
L 149.372064 95.081593 
L 150.885046 95.082355 
L 152.398028 95.083084 
L 153.911011 95.083782 
L 155.423993 95.084453 
L 156.936975 95.085097 
L 158.449958 95.085715 
L 159.96294 95.086311 
L 161.475922 95.086884 
L 162.988905 95.087437 
L 164.501887 95.08797 
L 166.01487 95.088485 
L 167.527852 95.088983 
L 169.040834 95.089465 
L 170.553817 95.089931 
L 172.066799 95.090383 
L 173.579781 95.090821 
L 175.092764 95.091247 
L 176.605746 95.09166 
L 178.118728 95.092061 
L 179.631711 95.092452 
L 181.144693 95.092832 
L 182.657676 95.093202 
L 184.170658 95.093563 
L 185.68364 95.093915 
L 187.196623 95.094258 
L 188.709605 95.094594 
L 190.222587 95.094921 
L 191.73557 95.095242 
L 193.248552 95.095555 
L 194.761534 95.095861 
L 196.274517 95.096161 
" clip-path="url(#p677e24007b)" style="fill: none; stroke: #8000ff; stroke-linecap: square"/>
   </g>
   <g id="line2d_20">
    <path d="M 46.489263 76.724736 
L 48.002245 84.595866 
L 49.515227 86.765964 
L 51.02821 87.743009 
L 52.541192 88.314214 
L 54.054175 88.705844 
L 55.567157 89.003338 
L 57.080139 89.245246 
L 58.593122 89.451181 
L 60.106104 89.631975 
L 61.619086 89.793985 
L 63.132069 89.941139 
L 64.645051 90.075985 
L 66.158033 90.200273 
L 67.671016 90.315271 
L 69.183998 90.421951 
L 70.696981 90.5211 
L 72.209963 90.613377 
L 73.722945 90.699356 
L 75.235928 90.779545 
L 76.74891 90.854401 
L 78.261892 90.924337 
L 79.774875 90.989732 
L 81.287857 91.050931 
L 82.800839 91.10825 
L 84.313822 91.161979 
L 85.826804 91.212384 
L 87.339787 91.259711 
L 88.852769 91.304182 
L 90.365751 91.346004 
L 91.878734 91.385365 
L 93.391716 91.42244 
L 94.904698 91.457387 
L 96.417681 91.490353 
L 97.930663 91.521473 
L 99.443645 91.550872 
L 100.956628 91.578663 
L 102.46961 91.604953 
L 103.982593 91.629838 
L 105.495575 91.653408 
L 107.008557 91.675747 
L 108.52154 91.696932 
L 110.034522 91.717033 
L 111.547504 91.736117 
L 113.060487 91.754245 
L 114.573469 91.771474 
L 116.086451 91.787857 
L 117.599434 91.803442 
L 119.112416 91.818276 
L 120.625399 91.832402 
L 122.138381 91.845858 
L 123.651363 91.858683 
L 125.164346 91.870912 
L 126.677328 91.882575 
L 128.19031 91.893705 
L 129.703293 91.904329 
L 131.216275 91.914474 
L 132.729257 91.924165 
L 134.24224 91.933426 
L 135.755222 91.942279 
L 137.268205 91.950744 
L 138.781187 91.958841 
L 140.294169 91.966589 
L 141.807152 91.974005 
L 143.320134 91.981104 
L 144.833116 91.987904 
L 146.346099 91.994417 
L 147.859081 92.000659 
L 149.372064 92.006641 
L 150.885046 92.012376 
L 152.398028 92.017876 
L 153.911011 92.023151 
L 155.423993 92.028213 
L 156.936975 92.033071 
L 158.449958 92.037734 
L 159.96294 92.042211 
L 161.475922 92.046511 
L 162.988905 92.050642 
L 164.501887 92.05461 
L 166.01487 92.058424 
L 167.527852 92.06209 
L 169.040834 92.065615 
L 170.553817 92.069005 
L 172.066799 92.072265 
L 173.579781 92.075402 
L 175.092764 92.078421 
L 176.605746 92.081326 
L 178.118728 92.084123 
L 179.631711 92.086816 
L 181.144693 92.08941 
L 182.657676 92.091908 
L 184.170658 92.094316 
L 185.68364 92.096635 
L 187.196623 92.098872 
L 188.709605 92.101027 
L 190.222587 92.103106 
L 191.73557 92.105111 
L 193.248552 92.107045 
L 194.761534 92.108911 
L 196.274517 92.110712 
" clip-path="url(#p677e24007b)" style="fill: none; stroke: #2adddd; stroke-linecap: square"/>
   </g>
   <g id="line2d_21">
    <path d="M 46.489263 54.945001 
L 48.002245 70.734001 
L 49.515227 75.019219 
L 51.02821 76.894655 
L 52.541192 77.949735 
L 54.054175 78.641749 
L 55.567157 79.143701 
L 57.080139 79.534143 
L 58.593122 79.853645 
L 60.106104 80.125235 
L 61.619086 80.362939 
L 63.132069 80.57578 
L 64.645051 80.769807 
L 66.158033 80.949214 
L 67.671016 81.116979 
L 69.183998 81.275258 
L 70.696981 81.425632 
L 72.209963 81.569277 
L 73.722945 81.707071 
L 75.235928 81.839674 
L 76.74891 81.967591 
L 78.261892 82.091204 
L 79.774875 82.210814 
L 81.287857 82.326652 
L 82.800839 82.438907 
L 84.313822 82.547732 
L 85.826804 82.653254 
L 87.339787 82.755586 
L 88.852769 82.854825 
L 90.365751 82.951062 
L 91.878734 83.044381 
L 93.391716 83.134863 
L 94.904698 83.222584 
L 96.417681 83.30762 
L 97.930663 83.390045 
L 99.443645 83.469934 
L 100.956628 83.547358 
L 102.46961 83.62239 
L 103.982593 83.695099 
L 105.495575 83.765556 
L 107.008557 83.833831 
L 108.52154 83.899991 
L 110.034522 83.964104 
L 111.547504 84.026234 
L 113.060487 84.086446 
L 114.573469 84.144803 
L 116.086451 84.201365 
L 117.599434 84.256194 
L 119.112416 84.309346 
L 120.625399 84.360878 
L 122.138381 84.410845 
L 123.651363 84.4593 
L 125.164346 84.506295 
L 126.677328 84.551879 
L 128.19031 84.5961 
L 129.703293 84.639005 
L 131.216275 84.680639 
L 132.729257 84.721045 
L 134.24224 84.760265 
L 135.755222 84.79834 
L 137.268205 84.835308 
L 138.781187 84.871206 
L 140.294169 84.906072 
L 141.807152 84.939939 
L 143.320134 84.972841 
L 144.833116 85.004811 
L 146.346099 85.035879 
L 147.859081 85.066076 
L 149.372064 85.09543 
L 150.885046 85.123969 
L 152.398028 85.15172 
L 153.911011 85.178708 
L 155.423993 85.204958 
L 156.936975 85.230495 
L 158.449958 85.25534 
L 159.96294 85.279516 
L 161.475922 85.303045 
L 162.988905 85.325946 
L 164.501887 85.348241 
L 166.01487 85.369946 
L 167.527852 85.391082 
L 169.040834 85.411665 
L 170.553817 85.431713 
L 172.066799 85.451242 
L 173.579781 85.470268 
L 175.092764 85.488806 
L 176.605746 85.50687 
L 178.118728 85.524476 
L 179.631711 85.541636 
L 181.144693 85.558365 
L 182.657676 85.574674 
L 184.170658 85.590576 
L 185.68364 85.606083 
L 187.196623 85.621206 
L 188.709605 85.635957 
L 190.222587 85.650346 
L 191.73557 85.664383 
L 193.248552 85.678079 
L 194.761534 85.691443 
L 196.274517 85.704485 
" clip-path="url(#p677e24007b)" style="fill: none; stroke: #d4dd80; stroke-linecap: square"/>
   </g>
   <g id="line2d_22">
    <path d="M 46.489263 11.385531 
L 48.002245 43.010272 
L 49.515227 51.525729 
L 51.02821 55.197946 
L 52.541192 57.220765 
L 54.054175 58.513442 
L 55.567157 59.423852 
L 57.080139 60.109963 
L 58.593122 60.653379 
L 60.106104 61.100422 
L 61.619086 61.479328 
L 63.132069 61.808283 
L 64.645051 62.09953 
L 66.158033 62.361615 
L 67.671016 62.60068 
L 69.183998 62.821258 
L 70.696981 63.026764 
L 72.209963 63.21982 
L 73.722945 63.402472 
L 75.235928 63.576341 
L 76.74891 63.742726 
L 78.261892 63.902679 
L 79.774875 64.057061 
L 81.287857 64.206583 
L 82.800839 64.351833 
L 84.313822 64.493304 
L 85.826804 64.631409 
L 87.339787 64.766495 
L 88.852769 64.898856 
L 90.365751 65.028738 
L 91.878734 65.156352 
L 93.391716 65.281875 
L 94.904698 65.405457 
L 96.417681 65.527224 
L 97.930663 65.647281 
L 99.443645 65.76572 
L 100.956628 65.882614 
L 102.46961 65.998025 
L 103.982593 66.112006 
L 105.495575 66.224598 
L 107.008557 66.335838 
L 108.52154 66.445754 
L 110.034522 66.554369 
L 111.547504 66.661702 
L 113.060487 66.767769 
L 114.573469 66.872581 
L 116.086451 66.976148 
L 117.599434 67.078478 
L 119.112416 67.179578 
L 120.625399 67.279453 
L 122.138381 67.378108 
L 123.651363 67.475545 
L 125.164346 67.57177 
L 126.677328 67.666785 
L 128.19031 67.760595 
L 129.703293 67.853203 
L 131.216275 67.944612 
L 132.729257 68.034829 
L 134.24224 68.123856 
L 135.755222 68.2117 
L 137.268205 68.298365 
L 138.781187 68.383859 
L 140.294169 68.468188 
L 141.807152 68.551359 
L 143.320134 68.63338 
L 144.833116 68.714258 
L 146.346099 68.794003 
L 147.859081 68.872623 
L 149.372064 68.950127 
L 150.885046 69.026527 
L 152.398028 69.101831 
L 153.911011 69.176051 
L 155.423993 69.249197 
L 156.936975 69.321281 
L 158.449958 69.392314 
L 159.96294 69.462308 
L 161.475922 69.531275 
L 162.988905 69.599226 
L 164.501887 69.666174 
L 166.01487 69.732132 
L 167.527852 69.797112 
L 169.040834 69.861127 
L 170.553817 69.924189 
L 172.066799 69.986311 
L 173.579781 70.047506 
L 175.092764 70.107787 
L 176.605746 70.167167 
L 178.118728 70.225658 
L 179.631711 70.283273 
L 181.144693 70.340026 
L 182.657676 70.395928 
L 184.170658 70.450993 
L 185.68364 70.505233 
L 187.196623 70.558661 
L 188.709605 70.611288 
L 190.222587 70.663128 
L 191.73557 70.714192 
L 193.248552 70.764493 
L 194.761534 70.814043 
L 196.274517 70.862853 
" clip-path="url(#p677e24007b)" style="fill: none; stroke: #ff0000; stroke-linecap: square"/>
   </g>
   <g id="patch_3">
    <path d="M 39 99.281693 
L 39 7.2 
" style="fill: none; stroke: #000000; stroke-width: 0.8; stroke-linejoin: miter; stroke-linecap: square"/>
   </g>
   <g id="patch_4">
    <path d="M 203.76378 99.281693 
L 203.76378 7.2 
" style="fill: none; stroke: #000000; stroke-width: 0.8; stroke-linejoin: miter; stroke-linecap: square"/>
   </g>
   <g id="patch_5">
    <path d="M 39 99.281693 
L 203.76378 99.281693 
" style="fill: none; stroke: #000000; stroke-width: 0.8; stroke-linejoin: miter; stroke-linecap: square"/>
   </g>
   <g id="patch_6">
    <path d="M 39 7.2 
L 203.76378 7.2 
" style="fill: none; stroke: #000000; stroke-width: 0.8; stroke-linejoin: miter; stroke-linecap: square"/>
   </g>
   <g id="legend_1">
    <g id="patch_7">
     <path d="M 127.546592 70.95625 
L 196.76378 70.95625 
Q 198.76378 70.95625 198.76378 68.95625 
L 198.76378 14.2 
Q 198.76378 12.2 196.76378 12.2 
L 127.546592 12.2 
Q 125.546592 12.2 125.546592 14.2 
L 125.546592 68.95625 
Q 125.546592 70.95625 127.546592 70.95625 
z
" style="fill: #ffffff; opacity: 0.8; stroke: #cccccc; stroke-linejoin: miter"/>
    </g>
    <g id="line2d_23">
     <path d="M 129.546592 19.7 
L 139.546592 19.7 
L 149.546592 19.7 
" style="fill: none; stroke: #8000ff; stroke-linecap: square"/>
    </g>
    <g id="text_12">
     <text style="font-size: 10px; font-family: 'cmss10', sans-serif; text-anchor: start" x="157.546592" y="23.2" transform="rotate(-0 157.546592 23.2)">L=0.5 m</text>
    </g>
    <g id="line2d_24">
     <path d="M 129.546592 33.639063 
L 139.546592 33.639063 
L 149.546592 33.639063 
" style="fill: none; stroke: #2adddd; stroke-linecap: square"/>
    </g>
    <g id="text_13">
     <text style="font-size: 10px; font-family: 'cmss10', sans-serif; text-anchor: start" x="157.546592" y="37.139063" transform="rotate(-0 157.546592 37.139063)">L=1 m</text>
    </g>
    <g id="line2d_25">
     <path d="M 129.546592 47.578125 
L 139.546592 47.578125 
L 149.546592 47.578125 
" style="fill: none; stroke: #d4dd80; stroke-linecap: square"/>
    </g>
    <g id="text_14">
     <text style="font-size: 10px; font-family: 'cmss10', sans-serif; text-anchor: start" x="157.546592" y="51.078125" transform="rotate(-0 157.546592 51.078125)">L=2 m</text>
    </g>
    <g id="line2d_26">
     <path d="M 129.546592 61.517188 
L 139.546592 61.517188 
L 149.546592 61.517188 
" style="fill: none; stroke: #ff0000; stroke-linecap: square"/>
    </g>
    <g id="text_15">
     <text style="font-size: 10px; font-family: 'cmss10', sans-serif; text-anchor: start" x="157.546592" y="65.017188" transform="rotate(-0 157.546592 65.017188)">L=4 m</text>
    </g>
   </g>
  </g>
 </g>
 <defs>
  <clipPath id="p677e24007b">
   <rect x="39" y="7.2" width="164.76378" height="92.081693"/>
  </clipPath>
 </defs>
</svg>
