<?xml version="1.0" encoding="utf-8" standalone="no"?>
<!DOCTYPE svg PUBLIC "-//W3C//DTD SVG 1.1//EN"
  "http://www.w3.org/Graphics/SVG/1.1/DTD/svg11.dtd">
<svg xmlns:xlink="http://www.w3.org/1999/xlink" width="208.954204pt" height="132.862943pt" viewBox="0 0 208.954204 132.862943" xmlns="http://www.w3.org/2000/svg" version="1.1">
 <metadata>
  <rdf:RDF xmlns:dc="http://purl.org/dc/elements/1.1/" xmlns:cc="http://creativecommons.org/ns#" xmlns:rdf="http://www.w3.org/1999/02/22-rdf-syntax-ns#">
   <cc:Work>
    <dc:type rdf:resource="http://purl.org/dc/dcmitype/StillImage"/>
    <dc:date>2026-03-24T12:08:36.540411</dc:date>
    <dc:format>image/svg+xml</dc:format>
    <dc:creator>
     <cc:Agent>
      <dc:title>Matplotlib v3.10.8, https://matplotlib.org/</dc:title>
     </cc:Agent>
    </dc:creator>
   </cc:Work>
  </rdf:RDF>
 </metadata>
 <defs>
  <style type="text/css">*{stroke-linejoin: round; stroke-linecap: butt}</style>
 </defs>
 <g id="figure_1">
  <g id="patch_1">
   <path d="M 0 132.862943 
L 208.954204 132.862943 
L 208.954204 0 
L 0 0 
z
" style="fill: #ffffff"/>
  </g>
  <g id="axes_1">
   <g id="patch_2">
    <path d="M 36.979688 99.281693 
L 201.743467 99.281693 
L 201.743467 7.2 
L 36.979688 7.2 
z
" style="fill: #ffffff"/>
   </g>
   <g id="matplotlib.axis_1">
    <g id="xtick_1">
     <g id="line2d_1">
      <defs>
       <path id="m925a184960" d="M 0 0 
L 0 -4 
" style="stroke: #000000"/>
      </defs>
      <g>
       <use xlink:href="#m925a184960" x="42.955968" y="99.281693" style="stroke: #000000"/>
      </g>
     </g>
     <g id="line2d_2">
      <defs>
       <path id="m6430e7ddfe" d="M 0 0 
L 0 4 
" style="stroke: #000000"/>
      </defs>
      <g>
       <use xlink:href="#m6430e7ddfe" x="42.955968" y="7.2" style="stroke: #000000"/>
      </g>
     </g>
     <g id="text_1">
      <text style="font-size: 10px; font-family: 'NewComputerModern'; text-anchor: middle" x="42.955968" y="109.722318" transform="rotate(-0 42.955968 109.722318)">0</text>
     </g>
    </g>
    <g id="xtick_2">
     <g id="line2d_3">
      <g>
       <use xlink:href="#m925a184960" x="80.780527" y="99.281693" style="stroke: #000000"/>
      </g>
     </g>
     <g id="line2d_4">
      <g>
       <use xlink:href="#m6430e7ddfe" x="80.780527" y="7.2" style="stroke: #000000"/>
      </g>
     </g>
     <g id="text_2">
      <text style="font-size: 10px; font-family: 'NewComputerModern'; text-anchor: middle" x="80.780527" y="109.722318" transform="rotate(-0 80.780527 109.722318)">25</text>
     </g>
    </g>
    <g id="xtick_3">
     <g id="line2d_5">
      <g>
       <use xlink:href="#m925a184960" x="118.605086" y="99.281693" style="stroke: #000000"/>
      </g>
     </g>
     <g id="line2d_6">
      <g>
       <use xlink:href="#m6430e7ddfe" x="118.605086" y="7.2" style="stroke: #000000"/>
      </g>
     </g>
     <g id="text_3">
      <text style="font-size: 10px; font-family: 'NewComputerModern'; text-anchor: middle" x="118.605086" y="109.722318" transform="rotate(-0 118.605086 109.722318)">50</text>
     </g>
    </g>
    <g id="xtick_4">
     <g id="line2d_7">
      <g>
       <use xlink:href="#m925a184960" x="156.429645" y="99.281693" style="stroke: #000000"/>
      </g>
     </g>
     <g id="line2d_8">
      <g>
       <use xlink:href="#m6430e7ddfe" x="156.429645" y="7.2" style="stroke: #000000"/>
      </g>
     </g>
     <g id="text_4">
      <text style="font-size: 10px; font-family: 'NewComputerModern'; text-anchor: middle" x="156.429645" y="109.722318" transform="rotate(-0 156.429645 109.722318)">75</text>
     </g>
    </g>
    <g id="xtick_5">
     <g id="line2d_9">
      <g>
       <use xlink:href="#m925a184960" x="194.254204" y="99.281693" style="stroke: #000000"/>
      </g>
     </g>
     <g id="line2d_10">
      <g>
       <use xlink:href="#m6430e7ddfe" x="194.254204" y="7.2" style="stroke: #000000"/>
      </g>
     </g>
     <g id="text_5">
      <text style="font-size: 10px; font-family: 'NewComputerModern'; text-anchor: middle" x="194.254204" y="109.722318" transform="rotate(-0 194.254204 109.722318)">100</text>
     </g>
    </g>
    <g id="text_6">
     <text style="font-size: 10px; font-family: 'NewComputerModern'; text-anchor: middle" x="119.361577" y="123.162943" transform="rotate(-0 119.361577 123.162943)">Velocity in m/s</text>
    </g>
   </g>
   <g id="matplotlib.axis_2">
    <g id="ytick_1">
     <g id="line2d_11">
      <defs>
       <path id="m21ab42282b" d="M 0 0 
L 4 0 
" style="stroke: #000000"/>
      </defs>
      <g>
       <use xlink:href="#m21ab42282b" x="36.979688" y="82.064327" style="stroke: #000000"/>
      </g>
     </g>
     <g id="line2d_12">
      <defs>
       <path id="mace1da672e" d="M 0 0 
L -4 0 
" style="stroke: #000000"/>
      </defs>
      <g>
       <use xlink:href="#mace1da672e" x="201.743467" y="82.064327" style="stroke: #000000"/>
      </g>
     </g>
     <g id="text_7">
      <text style="font-size: 10px; font-family: 'NewComputerModern'; text-anchor: end" x="33.479688" y="85.534639" transform="rotate(-0 33.479688 85.534639)">0.4</text>
     </g>
    </g>
    <g id="ytick_2">
     <g id="line2d_13">
      <g>
       <use xlink:href="#m21ab42282b" x="36.979688" y="58.302067" style="stroke: #000000"/>
      </g>
     </g>
     <g id="line2d_14">
      <g>
       <use xlink:href="#mace1da672e" x="201.743467" y="58.302067" style="stroke: #000000"/>
      </g>
     </g>
     <g id="text_8">
      <text style="font-size: 10px; font-family: 'NewComputerModern'; text-anchor: end" x="33.479688" y="61.77238" transform="rotate(-0 33.479688 61.77238)">0.6</text>
     </g>
    </g>
    <g id="ytick_3">
     <g id="line2d_15">
      <g>
       <use xlink:href="#m21ab42282b" x="36.979688" y="34.539808" style="stroke: #000000"/>
      </g>
     </g>
     <g id="line2d_16">
      <g>
       <use xlink:href="#mace1da672e" x="201.743467" y="34.539808" style="stroke: #000000"/>
      </g>
     </g>
     <g id="text_9">
      <text style="font-size: 10px; font-family: 'NewComputerModern'; text-anchor: end" x="33.479688" y="38.010121" transform="rotate(-0 33.479688 38.010121)">0.8</text>
     </g>
    </g>
    <g id="ytick_4">
     <g id="line2d_17">
      <g>
       <use xlink:href="#m21ab42282b" x="36.979688" y="10.777549" style="stroke: #000000"/>
      </g>
     </g>
     <g id="line2d_18">
      <g>
       <use xlink:href="#mace1da672e" x="201.743467" y="10.777549" style="stroke: #000000"/>
      </g>
     </g>
     <g id="text_10">
      <text style="font-size: 10px; font-family: 'NewComputerModern'; text-anchor: end" x="33.479688" y="14.247861" transform="rotate(-0 33.479688 14.247861)">1.0</text>
     </g>
    </g>
    <g id="text_11">
     <!-- $\frac{F_a}{F_{a}^0}$    -->
     <g transform="translate(7.2 46.840846)">
      <text>
       <tspan x="0" y="-5.05625" style="font-size: 7px; font-family: 'NewComputerModern Math'">F</tspan>
       <tspan x="0" y="4.737344" style="font-size: 7px; font-family: 'NewComputerModern Math'">F</tspan>
       <tspan x="4.570988" y="-4.091563" style="font-size: 4.9px; font-family: 'NewComputerModern Math'">a</tspan>
       <tspan x="4.570988" y="6.345156" style="font-size: 4.9px; font-family: 'NewComputerModern Math'">a</tspan>
       <tspan x="5.075535" y="2.486406" style="font-size: 4.9px; font-family: 'NewComputerModern Math'">0</tspan>
       <tspan x="8.936309" y="-0.155156" style="font-size: 10px; font-family: 'NewComputerModern'"> </tspan>
       <tspan x="12.266296" y="-0.155156" style="font-size: 10px; font-family: 'NewComputerModern'"> </tspan>
       <tspan x="15.596282" y="-0.155156" style="font-size: 10px; font-family: 'NewComputerModern'"> </tspan>
      </text>
      <rect x="0" y="-2.537969" width="7.686309" height="0.625"/>
     </g>
    </g>
   </g>
   <g id="line2d_19">
    <path d="M 44.46895 15.472877 
L 45.981933 17.340026 
L 47.494915 19.629148 
L 49.007897 22.081061 
L 50.52088 24.600568 
L 52.033862 27.139887 
L 53.546844 29.665911 
L 55.059827 32.152775 
L 56.572809 34.580541 
L 58.085791 36.93474 
L 59.598774 39.205709 
L 61.111756 41.387742 
L 62.624739 43.478215 
L 64.137721 45.4768 
L 65.650703 47.384819 
L 67.163686 49.204726 
L 68.676668 50.939718 
L 70.18965 52.593444 
L 71.702633 54.169796 
L 73.215615 55.672754 
L 74.728598 57.106283 
L 76.24158 58.474261 
L 77.754562 59.780434 
L 79.267545 61.028382 
L 80.780527 62.221506 
L 82.293509 63.36302 
L 83.806492 64.455951 
L 85.319474 65.503137 
L 86.832456 66.507239 
L 88.345439 67.470745 
L 89.858421 68.395981 
L 91.371404 69.285118 
L 92.884386 70.140183 
L 94.397368 70.963069 
L 95.910351 71.755541 
L 97.423333 72.519247 
L 98.936315 73.255729 
L 100.449298 73.966424 
L 101.96228 74.652677 
L 103.475262 75.315745 
L 104.988245 75.956806 
L 106.501227 76.576961 
L 108.01421 77.177241 
L 109.527192 77.758615 
L 111.040174 78.321992 
L 112.553157 78.868222 
L 114.066139 79.398107 
L 115.579121 79.912399 
L 117.092104 80.411808 
L 118.605086 80.896999 
L 120.118068 81.3686 
L 121.631051 81.827205 
L 123.144033 82.273371 
L 124.657016 82.707627 
L 126.169998 83.130469 
L 127.68298 83.54237 
L 129.195963 83.943775 
L 130.708945 84.335106 
L 132.221927 84.716762 
L 133.73491 85.089121 
L 135.247892 85.452543 
L 136.760874 85.807369 
L 138.273857 86.153922 
L 139.786839 86.492509 
L 141.299822 86.823423 
L 142.812804 87.146942 
L 144.325786 87.46333 
L 145.838769 87.772838 
L 147.351751 88.075709 
L 148.864733 88.372169 
L 150.377716 88.662437 
L 151.890698 88.946722 
L 153.40368 89.225223 
L 154.916663 89.498129 
L 156.429645 89.765622 
L 157.942628 90.027876 
L 159.45561 90.285058 
L 160.968592 90.537325 
L 162.481575 90.784831 
L 163.994557 91.02772 
L 165.507539 91.266134 
L 167.020522 91.500207 
L 168.533504 91.730066 
L 170.046486 91.955836 
L 171.559469 92.177635 
L 173.072451 92.395576 
L 174.585434 92.60977 
L 176.098416 92.820322 
L 177.611398 93.027332 
L 179.124381 93.230899 
L 180.637363 93.431115 
L 182.150345 93.628071 
L 183.663328 93.821855 
L 185.17631 94.012549 
L 186.689292 94.200234 
L 188.202275 94.384989 
L 189.715257 94.566888 
L 191.22824 94.746003 
L 192.741222 94.922405 
L 194.254204 95.096161 
" clip-path="url(#p21b578f75c)" style="fill: none; stroke: #ff0000; stroke-linecap: square"/>
   </g>
   <g id="line2d_20">
    <path d="M 44.46895 13.137251 
L 45.981933 14.070826 
L 47.494915 15.215442 
L 49.007897 16.44222 
L 50.52088 17.706561 
L 52.033862 18.990772 
L 53.546844 20.286536 
L 55.059827 21.589159 
L 56.572809 22.89535 
L 58.085791 24.202285 
L 59.598774 25.507236 
L 61.111756 26.807478 
L 62.624739 28.100304 
L 64.137721 29.3831 
L 65.650703 30.653417 
L 67.163686 31.909019 
L 68.676668 33.147928 
L 70.18965 34.368436 
L 71.702633 35.569108 
L 73.215615 36.748772 
L 74.728598 37.906505 
L 76.24158 39.041607 
L 77.754562 40.15358 
L 79.267545 41.242106 
L 80.780527 42.30702 
L 82.293509 43.348291 
L 83.806492 44.366003 
L 85.319474 45.360332 
L 86.832456 46.331536 
L 88.345439 47.279937 
L 89.858421 48.205911 
L 91.371404 49.109873 
L 92.884386 49.992274 
L 94.397368 50.853588 
L 95.910351 51.694307 
L 97.423333 52.514935 
L 98.936315 53.315986 
L 100.449298 54.097974 
L 101.96228 54.861415 
L 103.475262 55.606822 
L 104.988245 56.334704 
L 106.501227 57.045562 
L 108.01421 57.739887 
L 109.527192 58.418165 
L 111.040174 59.080869 
L 112.553157 59.728459 
L 114.066139 60.361387 
L 115.579121 60.980091 
L 117.092104 61.584997 
L 118.605086 62.176519 
L 120.118068 62.755059 
L 121.631051 63.321006 
L 123.144033 63.874738 
L 124.657016 64.416619 
L 126.169998 64.947003 
L 127.68298 65.466232 
L 129.195963 65.974637 
L 130.708945 66.472537 
L 132.221927 66.960241 
L 133.73491 67.438048 
L 135.247892 67.906245 
L 136.760874 68.365112 
L 138.273857 68.814917 
L 139.786839 69.255921 
L 141.299822 69.688374 
L 142.812804 70.112519 
L 144.325786 70.528589 
L 145.838769 70.936812 
L 147.351751 71.337405 
L 148.864733 71.730579 
L 150.377716 72.116539 
L 151.890698 72.495481 
L 153.40368 72.867596 
L 154.916663 73.233068 
L 156.429645 73.592074 
L 157.942628 73.944786 
L 159.45561 74.291371 
L 160.968592 74.631989 
L 162.481575 74.966795 
L 163.994557 75.29594 
L 165.507539 75.619569 
L 167.020522 75.937822 
L 168.533504 76.250837 
L 170.046486 76.558743 
L 171.559469 76.86167 
L 173.072451 77.15974 
L 174.585434 77.453073 
L 176.098416 77.741784 
L 177.611398 78.025987 
L 179.124381 78.305789 
L 180.637363 78.581295 
L 182.150345 78.852608 
L 183.663328 79.119827 
L 185.17631 79.383047 
L 186.689292 79.642361 
L 188.202275 79.897861 
L 189.715257 80.149632 
L 191.22824 80.39776 
L 192.741222 80.642328 
L 194.254204 80.883414 
" clip-path="url(#p21b578f75c)" style="fill: none; stroke: #e6cd73; stroke-linecap: square"/>
   </g>
   <g id="line2d_21">
    <path d="M 44.46895 11.969438 
L 45.981933 12.436225 
L 47.494915 13.008533 
L 49.007897 13.621922 
L 50.52088 14.254095 
L 52.033862 14.896224 
L 53.546844 15.544232 
L 55.059827 16.195996 
L 56.572809 16.850303 
L 58.085791 17.506411 
L 59.598774 18.163834 
L 61.111756 18.822239 
L 62.624739 19.481376 
L 64.137721 20.141043 
L 65.650703 20.801055 
L 67.163686 21.461231 
L 68.676668 22.121382 
L 70.18965 22.781302 
L 71.702633 23.440767 
L 73.215615 24.099532 
L 74.728598 24.757335 
L 76.24158 25.413899 
L 77.754562 26.068935 
L 79.267545 26.722147 
L 80.780527 27.373233 
L 82.293509 28.021893 
L 83.806492 28.667828 
L 85.319474 29.310748 
L 86.832456 29.950371 
L 88.345439 30.586425 
L 89.858421 31.218653 
L 91.371404 31.846811 
L 92.884386 32.470669 
L 94.397368 33.090016 
L 95.910351 33.704655 
L 97.423333 34.314405 
L 98.936315 34.919101 
L 100.449298 35.518597 
L 101.96228 36.112758 
L 103.475262 36.701467 
L 104.988245 37.28462 
L 106.501227 37.862128 
L 108.01421 38.433913 
L 109.527192 38.999911 
L 111.040174 39.560069 
L 112.553157 40.114346 
L 114.066139 40.662709 
L 115.579121 41.205136 
L 117.092104 41.741613 
L 118.605086 42.272136 
L 120.118068 42.796707 
L 121.631051 43.315334 
L 123.144033 43.828034 
L 124.657016 44.334827 
L 126.169998 44.835741 
L 127.68298 45.330806 
L 129.195963 45.820059 
L 130.708945 46.30354 
L 132.221927 46.781292 
L 133.73491 47.253363 
L 135.247892 47.7198 
L 136.760874 48.180657 
L 138.273857 48.635989 
L 139.786839 49.08585 
L 141.299822 49.5303 
L 142.812804 49.969398 
L 144.325786 50.403205 
L 145.838769 50.831782 
L 147.351751 51.255193 
L 148.864733 51.673501 
L 150.377716 52.08677 
L 151.890698 52.495065 
L 153.40368 52.898451 
L 154.916663 53.296992 
L 156.429645 53.690753 
L 157.942628 54.079801 
L 159.45561 54.464199 
L 160.968592 54.844013 
L 162.481575 55.219306 
L 163.994557 55.590144 
L 165.507539 55.95659 
L 167.020522 56.318707 
L 168.533504 56.676557 
L 170.046486 57.030204 
L 171.559469 57.37971 
L 173.072451 57.725134 
L 174.585434 58.066538 
L 176.098416 58.403981 
L 177.611398 58.737523 
L 179.124381 59.067221 
L 180.637363 59.393134 
L 182.150345 59.715319 
L 183.663328 60.033831 
L 185.17631 60.348726 
L 186.689292 60.660059 
L 188.202275 60.967883 
L 189.715257 61.272253 
L 191.22824 61.573219 
L 192.741222 61.870834 
L 194.254204 62.165148 
" clip-path="url(#p21b578f75c)" style="fill: none; stroke: #4df3ce; stroke-linecap: square"/>
   </g>
   <g id="line2d_22">
    <path d="M 44.46895 11.385531 
L 45.981933 11.618925 
L 47.494915 11.905079 
L 49.007897 12.211774 
L 50.52088 12.52786 
L 52.033862 12.848924 
L 53.546844 13.172928 
L 55.059827 13.49881 
L 56.572809 13.825964 
L 58.085791 14.154019 
L 59.598774 14.482736 
L 61.111756 14.811952 
L 62.624739 15.141555 
L 64.137721 15.471464 
L 65.650703 15.801618 
L 67.163686 16.131973 
L 68.676668 16.462493 
L 70.18965 16.793152 
L 71.702633 17.123926 
L 73.215615 17.4548 
L 74.728598 17.785757 
L 76.24158 18.116786 
L 77.754562 18.447875 
L 79.267545 18.779014 
L 80.780527 19.110193 
L 82.293509 19.441402 
L 83.806492 19.77263 
L 85.319474 20.103867 
L 86.832456 20.4351 
L 88.345439 20.766315 
L 89.858421 21.097499 
L 91.371404 21.428634 
L 92.884386 21.759703 
L 94.397368 22.090685 
L 95.910351 22.42156 
L 97.423333 22.752304 
L 98.936315 23.082892 
L 100.449298 23.413297 
L 101.96228 23.743493 
L 103.475262 24.073448 
L 104.988245 24.403133 
L 106.501227 24.732515 
L 108.01421 25.061561 
L 109.527192 25.390238 
L 111.040174 25.718509 
L 112.553157 26.04634 
L 114.066139 26.373696 
L 115.579121 26.700539 
L 117.092104 27.026833 
L 118.605086 27.352541 
L 120.118068 27.677627 
L 121.631051 28.002054 
L 123.144033 28.325787 
L 124.657016 28.648788 
L 126.169998 28.971023 
L 127.68298 29.292457 
L 129.195963 29.613055 
L 130.708945 29.932783 
L 132.221927 30.251609 
L 133.73491 30.5695 
L 135.247892 30.886425 
L 136.760874 31.202354 
L 138.273857 31.517256 
L 139.786839 31.831103 
L 141.299822 32.143867 
L 142.812804 32.455522 
L 144.325786 32.766041 
L 145.838769 33.0754 
L 147.351751 33.383575 
L 148.864733 33.690543 
L 150.377716 33.996283 
L 151.890698 34.300773 
L 153.40368 34.603994 
L 154.916663 34.905927 
L 156.429645 35.206554 
L 157.942628 35.505858 
L 159.45561 35.803824 
L 160.968592 36.100435 
L 162.481575 36.395679 
L 163.994557 36.689541 
L 165.507539 36.982009 
L 167.020522 37.273073 
L 168.533504 37.562721 
L 170.046486 37.850943 
L 171.559469 38.13773 
L 173.072451 38.423075 
L 174.585434 38.706968 
L 176.098416 38.989404 
L 177.611398 39.270377 
L 179.124381 39.549881 
L 180.637363 39.82791 
L 182.150345 40.104462 
L 183.663328 40.379532 
L 185.17631 40.653117 
L 186.689292 40.925215 
L 188.202275 41.195824 
L 189.715257 41.464943 
L 191.22824 41.732571 
L 192.741222 41.998707 
L 194.254204 42.263352 
" clip-path="url(#p21b578f75c)" style="fill: none; stroke: #4e4dfc; stroke-linecap: square"/>
   </g>
   <g id="patch_3">
    <path d="M 36.979688 99.281693 
L 36.979688 7.2 
" style="fill: none; stroke: #000000; stroke-width: 0.8; stroke-linejoin: miter; stroke-linecap: square"/>
   </g>
   <g id="patch_4">
    <path d="M 201.743467 99.281693 
L 201.743467 7.2 
" style="fill: none; stroke: #000000; stroke-width: 0.8; stroke-linejoin: miter; stroke-linecap: square"/>
   </g>
   <g id="patch_5">
    <path d="M 36.979688 99.281693 
L 201.743467 99.281693 
" style="fill: none; stroke: #000000; stroke-width: 0.8; stroke-linejoin: miter; stroke-linecap: square"/>
   </g>
   <g id="patch_6">
    <path d="M 36.979688 7.2 
L 201.743467 7.2 
" style="fill: none; stroke: #000000; stroke-width: 0.8; stroke-linejoin: miter; stroke-linecap: square"/>
   </g>
   <g id="legend_1">
    <g id="patch_7">
     <path d="M 43.979688 94.281693 
L 114.448438 94.281693 
Q 116.448438 94.281693 116.448438 92.281693 
L 116.448438 37.519193 
Q 116.448438 35.519193 114.448438 35.519193 
L 43.979688 35.519193 
Q 41.979688 35.519193 41.979688 37.519193 
L 41.979688 92.281693 
Q 41.979688 94.281693 43.979688 94.281693 
z
" style="fill: #ffffff; opacity: 0.8; stroke: #cccccc; stroke-linejoin: miter"/>
    </g>
    <g id="line2d_23">
     <path d="M 45.979688 43.019193 
L 55.979688 43.019193 
L 65.979688 43.019193 
" style="fill: none; stroke: #ff0000; stroke-linecap: square"/>
    </g>
    <g id="text_12">
     <text style="font-size: 10px; font-family: 'NewComputerModern'; text-anchor: start" x="73.979688" y="46.519193" transform="rotate(-0 73.979688 46.519193)">L=0.5 m</text>
    </g>
    <g id="line2d_24">
     <path d="M 45.979688 56.959818 
L 55.979688 56.959818 
L 65.979688 56.959818 
" style="fill: none; stroke: #e6cd73; stroke-linecap: square"/>
    </g>
    <g id="text_13">
     <text style="font-size: 10px; font-family: 'NewComputerModern'; text-anchor: start" x="73.979688" y="60.459818" transform="rotate(-0 73.979688 60.459818)">L=1 m</text>
    </g>
    <g id="line2d_25">
     <path d="M 45.979688 70.900443 
L 55.979688 70.900443 
L 65.979688 70.900443 
" style="fill: none; stroke: #4df3ce; stroke-linecap: square"/>
    </g>
    <g id="text_14">
     <text style="font-size: 10px; font-family: 'NewComputerModern'; text-anchor: start" x="73.979688" y="74.400443" transform="rotate(-0 73.979688 74.400443)">L=2 m</text>
    </g>
    <g id="line2d_26">
     <path d="M 45.979688 84.841068 
L 55.979688 84.841068 
L 65.979688 84.841068 
" style="fill: none; stroke: #4e4dfc; stroke-linecap: square"/>
    </g>
    <g id="text_15">
     <text style="font-size: 10px; font-family: 'NewComputerModern'; text-anchor: start" x="73.979688" y="88.341068" transform="rotate(-0 73.979688 88.341068)">L=4 m</text>
    </g>
   </g>
  </g>
 </g>
 <defs>
  <clipPath id="p21b578f75c">
   <rect x="36.979688" y="7.2" width="164.76378" height="92.081693"/>
  </clipPath>
 </defs>
</svg>
