<?xml version="1.0" encoding="utf-8" standalone="no"?>
<!DOCTYPE svg PUBLIC "-//W3C//DTD SVG 1.1//EN"
  "http://www.w3.org/Graphics/SVG/1.1/DTD/svg11.dtd">
<svg xmlns:xlink="http://www.w3.org/1999/xlink" width="210.854204pt" height="132.862943pt" viewBox="0 0 210.854204 132.862943" xmlns="http://www.w3.org/2000/svg" version="1.1">
 <metadata>
  <rdf:RDF xmlns:dc="http://purl.org/dc/elements/1.1/" xmlns:cc="http://creativecommons.org/ns#" xmlns:rdf="http://www.w3.org/1999/02/22-rdf-syntax-ns#">
   <cc:Work>
    <dc:type rdf:resource="http://purl.org/dc/dcmitype/StillImage"/>
    <dc:date>2026-04-20T13:58:05.790416</dc:date>
    <dc:format>image/svg+xml</dc:format>
    <dc:creator>
     <cc:Agent>
      <dc:title>Matplotlib v3.10.8, https://matplotlib.org/</dc:title>
     </cc:Agent>
    </dc:creator>
   </cc:Work>
  </rdf:RDF>
 </metadata>
 <defs>
  <style type="text/css">*{stroke-linejoin: round; stroke-linecap: butt}</style>
 </defs>
 <g id="figure_1">
  <g id="patch_1">
   <path d="M 0 132.862943 
L 210.854204 132.862943 
L 210.854204 0 
L 0 0 
z
" style="fill: #ffffff"/>
  </g>
  <g id="axes_1">
   <g id="patch_2">
    <path d="M 38.879688 99.281693 
L 203.643467 99.281693 
L 203.643467 7.2 
L 38.879688 7.2 
z
" style="fill: #ffffff"/>
   </g>
   <g id="matplotlib.axis_1">
    <g id="xtick_1">
     <g id="line2d_1">
      <defs>
       <path id="meca6fb6b4c" d="M 0 0 
L 0 -4 
" style="stroke: #000000"/>
      </defs>
      <g>
       <use xlink:href="#meca6fb6b4c" x="44.855968" y="99.281693" style="stroke: #000000"/>
      </g>
     </g>
     <g id="line2d_2">
      <defs>
       <path id="m42beebd0f4" d="M 0 0 
L 0 4 
" style="stroke: #000000"/>
      </defs>
      <g>
       <use xlink:href="#m42beebd0f4" x="44.855968" y="7.2" style="stroke: #000000"/>
      </g>
     </g>
     <g id="text_1">
      <text style="font-size: 10px; font-family: 'NewComputerModern'; text-anchor: middle" x="44.855968" y="109.722318" transform="rotate(-0 44.855968 109.722318)">0</text>
     </g>
    </g>
    <g id="xtick_2">
     <g id="line2d_3">
      <g>
       <use xlink:href="#meca6fb6b4c" x="82.680527" y="99.281693" style="stroke: #000000"/>
      </g>
     </g>
     <g id="line2d_4">
      <g>
       <use xlink:href="#m42beebd0f4" x="82.680527" y="7.2" style="stroke: #000000"/>
      </g>
     </g>
     <g id="text_2">
      <text style="font-size: 10px; font-family: 'NewComputerModern'; text-anchor: middle" x="82.680527" y="109.722318" transform="rotate(-0 82.680527 109.722318)">25</text>
     </g>
    </g>
    <g id="xtick_3">
     <g id="line2d_5">
      <g>
       <use xlink:href="#meca6fb6b4c" x="120.505086" y="99.281693" style="stroke: #000000"/>
      </g>
     </g>
     <g id="line2d_6">
      <g>
       <use xlink:href="#m42beebd0f4" x="120.505086" y="7.2" style="stroke: #000000"/>
      </g>
     </g>
     <g id="text_3">
      <text style="font-size: 10px; font-family: 'NewComputerModern'; text-anchor: middle" x="120.505086" y="109.722318" transform="rotate(-0 120.505086 109.722318)">50</text>
     </g>
    </g>
    <g id="xtick_4">
     <g id="line2d_7">
      <g>
       <use xlink:href="#meca6fb6b4c" x="158.329645" y="99.281693" style="stroke: #000000"/>
      </g>
     </g>
     <g id="line2d_8">
      <g>
       <use xlink:href="#m42beebd0f4" x="158.329645" y="7.2" style="stroke: #000000"/>
      </g>
     </g>
     <g id="text_4">
      <text style="font-size: 10px; font-family: 'NewComputerModern'; text-anchor: middle" x="158.329645" y="109.722318" transform="rotate(-0 158.329645 109.722318)">75</text>
     </g>
    </g>
    <g id="xtick_5">
     <g id="line2d_9">
      <g>
       <use xlink:href="#meca6fb6b4c" x="196.154204" y="99.281693" style="stroke: #000000"/>
      </g>
     </g>
     <g id="line2d_10">
      <g>
       <use xlink:href="#m42beebd0f4" x="196.154204" y="7.2" style="stroke: #000000"/>
      </g>
     </g>
     <g id="text_5">
      <text style="font-size: 10px; font-family: 'NewComputerModern'; text-anchor: middle" x="196.154204" y="109.722318" transform="rotate(-0 196.154204 109.722318)">100</text>
     </g>
    </g>
    <g id="text_6">
     <!-- $v\,\mathrm{(m/s)}$ -->
     <g transform="translate(105.361577 123.162943)">
      <text>
       <tspan x="0" y="-0.234375" style="font-size: 10px; font-family: 'NewComputerModern Math'">v</tspan>
       <tspan x="6.668342" y="-0.234375" style="font-size: 10px; font-family: 'NewComputerModern Math'">(</tspan>
       <tspan x="10.558327" y="-0.234375" style="font-size: 10px; font-family: 'NewComputerModern Math'">m</tspan>
       <tspan x="18.888313" y="-0.234375" style="font-size: 10px; font-family: 'NewComputerModern Math'">/</tspan>
       <tspan x="23.888298" y="-0.234375" style="font-size: 10px; font-family: 'NewComputerModern Math'">s</tspan>
       <tspan x="27.828285" y="-0.234375" style="font-size: 10px; font-family: 'NewComputerModern Math'">)</tspan>
      </text>
     </g>
    </g>
   </g>
   <g id="matplotlib.axis_2">
    <g id="ytick_1">
     <g id="line2d_11">
      <defs>
       <path id="m219141212b" d="M 0 0 
L 4 0 
" style="stroke: #000000"/>
      </defs>
      <g>
       <use xlink:href="#m219141212b" x="38.879688" y="88.770033" style="stroke: #000000"/>
      </g>
     </g>
     <g id="line2d_12">
      <defs>
       <path id="m8c23af1f09" d="M 0 0 
L -4 0 
" style="stroke: #000000"/>
      </defs>
      <g>
       <use xlink:href="#m8c23af1f09" x="203.643467" y="88.770033" style="stroke: #000000"/>
      </g>
     </g>
     <g id="text_7">
      <text style="font-size: 10px; font-family: 'NewComputerModern'; text-anchor: end" x="35.379688" y="92.240346" transform="rotate(-0 35.379688 92.240346)">0.6</text>
     </g>
    </g>
    <g id="ytick_2">
     <g id="line2d_13">
      <g>
       <use xlink:href="#m219141212b" x="38.879688" y="49.857284" style="stroke: #000000"/>
      </g>
     </g>
     <g id="line2d_14">
      <g>
       <use xlink:href="#m8c23af1f09" x="203.643467" y="49.857284" style="stroke: #000000"/>
      </g>
     </g>
     <g id="text_8">
      <text style="font-size: 10px; font-family: 'NewComputerModern'; text-anchor: end" x="35.379688" y="53.327596" transform="rotate(-0 35.379688 53.327596)">0.8</text>
     </g>
    </g>
    <g id="ytick_3">
     <g id="line2d_15">
      <g>
       <use xlink:href="#m219141212b" x="38.879688" y="10.944535" style="stroke: #000000"/>
      </g>
     </g>
     <g id="line2d_16">
      <g>
       <use xlink:href="#m8c23af1f09" x="203.643467" y="10.944535" style="stroke: #000000"/>
      </g>
     </g>
     <g id="text_9">
      <text style="font-size: 10px; font-family: 'NewComputerModern'; text-anchor: end" x="35.379688" y="14.414847" transform="rotate(-0 35.379688 14.414847)">1.0</text>
     </g>
    </g>
    <g id="text_10">
     <!-- $\frac{F_l}{F_l^0}$    -->
     <g transform="translate(7.2 44.720846)">
      <text>
       <tspan x="0" y="6.330781" style="font-size: 8.4px; font-family: 'NewComputerModern Math'">F</tspan>
       <tspan x="1" y="-6.104688" style="font-size: 8.4px; font-family: 'NewComputerModern Math'">F</tspan>
       <tspan x="5.485188" y="8.239375" style="font-size: 5.88px; font-family: 'NewComputerModern Math'">l</tspan>
       <tspan x="6.087863" y="2.840625" style="font-size: 5.88px; font-family: 'NewComputerModern Math'">0</tspan>
       <tspan x="6.485188" y="-4.959531" style="font-size: 5.88px; font-family: 'NewComputerModern Math'">l</tspan>
       <tspan x="10.718715" y="-0.319063" style="font-size: 12px; font-family: 'NewComputerModern'"> </tspan>
       <tspan x="14.714702" y="-0.319063" style="font-size: 12px; font-family: 'NewComputerModern'"> </tspan>
       <tspan x="18.710689" y="-0.319063" style="font-size: 12px; font-family: 'NewComputerModern'"> </tspan>
      </text>
      <rect x="0" y="-2.951875" width="9.218715" height="0.75"/>
     </g>
    </g>
   </g>
   <g id="line2d_17">
    <path d="M 46.36895 11.385531 
L 47.881933 11.401843 
L 49.394915 11.427835 
L 50.907897 11.46206 
L 52.42088 11.50299 
L 53.933862 11.549225 
L 55.446844 11.599593 
L 56.959827 11.653161 
L 58.472809 11.709214 
L 59.985791 11.767206 
L 61.498774 11.826725 
L 63.011756 11.887462 
L 64.524739 11.949179 
L 66.037721 12.011694 
L 67.550703 12.074865 
L 69.063686 12.138582 
L 70.576668 12.202757 
L 72.08965 12.267319 
L 73.602633 12.332213 
L 75.115615 12.397391 
L 76.628598 12.462816 
L 78.14158 12.528455 
L 79.654562 12.594283 
L 81.167545 12.660276 
L 82.680527 12.726417 
L 84.193509 12.792688 
L 85.706492 12.859076 
L 87.219474 12.925568 
L 88.732456 12.992156 
L 90.245439 13.058828 
L 91.758421 13.125578 
L 93.271404 13.192398 
L 94.784386 13.259283 
L 96.297368 13.326226 
L 97.810351 13.393223 
L 99.323333 13.46027 
L 100.836315 13.527362 
L 102.349298 13.594496 
L 103.86228 13.66167 
L 105.375262 13.728879 
L 106.888245 13.796122 
L 108.401227 13.863396 
L 109.91421 13.930699 
L 111.427192 13.99803 
L 112.940174 14.065385 
L 114.453157 14.132765 
L 115.966139 14.200167 
L 117.479121 14.26759 
L 118.992104 14.335032 
L 120.505086 14.402493 
L 122.018068 14.469972 
L 123.531051 14.537467 
L 125.044033 14.604977 
L 126.557016 14.672502 
L 128.069998 14.740041 
L 129.58298 14.807594 
L 131.095963 14.875159 
L 132.608945 14.942735 
L 134.121927 15.010323 
L 135.63491 15.077922 
L 137.147892 15.145531 
L 138.660874 15.213149 
L 140.173857 15.280777 
L 141.686839 15.348414 
L 143.199822 15.416059 
L 144.712804 15.483713 
L 146.225786 15.551373 
L 147.738769 15.619042 
L 149.251751 15.686717 
L 150.764733 15.754399 
L 152.277716 15.822088 
L 153.790698 15.889783 
L 155.30368 15.957484 
L 156.816663 16.02519 
L 158.329645 16.092902 
L 159.842628 16.16062 
L 161.35561 16.228342 
L 162.868592 16.296069 
L 164.381575 16.363801 
L 165.894557 16.431538 
L 167.407539 16.499279 
L 168.920522 16.567024 
L 170.433504 16.634773 
L 171.946486 16.702526 
L 173.459469 16.770283 
L 174.972451 16.838043 
L 176.485434 16.905807 
L 177.998416 16.973574 
L 179.511398 17.041345 
L 181.024381 17.109119 
L 182.537363 17.176896 
L 184.050345 17.244676 
L 185.563328 17.312459 
L 187.07631 17.380244 
L 188.589292 17.448033 
L 190.102275 17.515824 
L 191.615257 17.583617 
L 193.12824 17.651413 
L 194.641222 17.719211 
L 196.154204 17.787012 
" clip-path="url(#p2b813cba01)" style="fill: none; stroke: #ff0000; stroke-linecap: square"/>
   </g>
   <g id="line2d_18">
    <path d="M 46.36895 11.819725 
L 47.881933 11.940159 
L 49.394915 12.114488 
L 50.907897 12.322361 
L 52.42088 12.55045 
L 53.933862 12.790963 
L 55.446844 13.039426 
L 56.959827 13.293202 
L 58.472809 13.550677 
L 59.985791 13.810821 
L 61.498774 14.072949 
L 63.011756 14.336591 
L 64.524739 14.601414 
L 66.037721 14.867175 
L 67.550703 15.133695 
L 69.063686 15.400835 
L 70.576668 15.668491 
L 72.08965 15.936578 
L 73.602633 16.205031 
L 75.115615 16.473796 
L 76.628598 16.742831 
L 78.14158 17.012098 
L 79.654562 17.281569 
L 81.167545 17.551218 
L 82.680527 17.821025 
L 84.193509 18.090972 
L 85.706492 18.361043 
L 87.219474 18.631226 
L 88.732456 18.901509 
L 90.245439 19.171882 
L 91.758421 19.442337 
L 93.271404 19.712867 
L 94.784386 19.983463 
L 96.297368 20.254122 
L 97.810351 20.524837 
L 99.323333 20.795603 
L 100.836315 21.066418 
L 102.349298 21.337276 
L 103.86228 21.608174 
L 105.375262 21.879109 
L 106.888245 22.150079 
L 108.401227 22.421081 
L 109.91421 22.692111 
L 111.427192 22.963169 
L 112.940174 23.234251 
L 114.453157 23.505356 
L 115.966139 23.776481 
L 117.479121 24.047624 
L 118.992104 24.318784 
L 120.505086 24.589958 
L 122.018068 24.861145 
L 123.531051 25.132341 
L 125.044033 25.403546 
L 126.557016 25.674756 
L 128.069998 25.94597 
L 129.58298 26.217185 
L 131.095963 26.488398 
L 132.608945 26.759607 
L 134.121927 27.030809 
L 135.63491 27.302001 
L 137.147892 27.57318 
L 138.660874 27.844343 
L 140.173857 28.115486 
L 141.686839 28.386605 
L 143.199822 28.657698 
L 144.712804 28.928759 
L 146.225786 29.199785 
L 147.738769 29.470771 
L 149.251751 29.741714 
L 150.764733 30.012607 
L 152.277716 30.283447 
L 153.790698 30.554229 
L 155.30368 30.824947 
L 156.816663 31.095595 
L 158.329645 31.366169 
L 159.842628 31.636663 
L 161.35561 31.907071 
L 162.868592 32.177387 
L 164.381575 32.447604 
L 165.894557 32.717717 
L 167.407539 32.987719 
L 168.920522 33.257604 
L 170.433504 33.527365 
L 171.946486 33.796996 
L 173.459469 34.066489 
L 174.972451 34.335837 
L 176.485434 34.605034 
L 177.998416 34.874073 
L 179.511398 35.142946 
L 181.024381 35.411646 
L 182.537363 35.680166 
L 184.050345 35.948498 
L 185.563328 36.216636 
L 187.07631 36.484571 
L 188.589292 36.752296 
L 190.102275 37.019804 
L 191.615257 37.287088 
L 193.12824 37.554139 
L 194.641222 37.82095 
L 196.154204 38.087514 
" clip-path="url(#p2b813cba01)" style="fill: none; stroke: #e6cd73; stroke-linecap: square"/>
   </g>
   <g id="line2d_19">
    <path d="M 46.36895 12.315582 
L 47.881933 12.679752 
L 49.394915 13.159718 
L 50.907897 13.694464 
L 52.42088 14.256671 
L 53.933862 14.834035 
L 55.446844 15.420524 
L 56.959827 16.012906 
L 58.472809 16.609304 
L 59.985791 17.208562 
L 61.498774 17.809926 
L 63.011756 18.412886 
L 64.524739 19.017086 
L 66.037721 19.622265 
L 67.550703 20.228233 
L 69.063686 20.834845 
L 70.576668 21.44199 
L 72.08965 22.049578 
L 73.602633 22.65754 
L 75.115615 23.265816 
L 76.628598 23.874358 
L 78.14158 24.483121 
L 79.654562 25.092065 
L 81.167545 25.701152 
L 82.680527 26.310345 
L 84.193509 26.919604 
L 85.706492 27.528889 
L 87.219474 28.138157 
L 88.732456 28.747362 
L 90.245439 29.356453 
L 91.758421 29.965377 
L 93.271404 30.574077 
L 94.784386 31.182491 
L 96.297368 31.790553 
L 97.810351 32.398194 
L 99.323333 33.005343 
L 100.836315 33.611923 
L 102.349298 34.217856 
L 103.86228 34.823063 
L 105.375262 35.427459 
L 106.888245 36.030962 
L 108.401227 36.633486 
L 109.91421 37.234946 
L 111.427192 37.835254 
L 112.940174 38.434324 
L 114.453157 39.03207 
L 115.966139 39.628407 
L 117.479121 40.22325 
L 118.992104 40.816515 
L 120.505086 41.40812 
L 122.018068 41.997986 
L 123.531051 42.586032 
L 125.044033 43.172184 
L 126.557016 43.756365 
L 128.069998 44.338504 
L 129.58298 44.918531 
L 131.095963 45.496379 
L 132.608945 46.071982 
L 134.121927 46.645278 
L 135.63491 47.216208 
L 137.147892 47.784714 
L 138.660874 48.350743 
L 140.173857 48.914241 
L 141.686839 49.475161 
L 143.199822 50.033454 
L 144.712804 50.589079 
L 146.225786 51.141992 
L 147.738769 51.692156 
L 149.251751 52.239533 
L 150.764733 52.78409 
L 152.277716 53.325795 
L 153.790698 53.864618 
L 155.30368 54.400534 
L 156.816663 54.933516 
L 158.329645 55.463541 
L 159.842628 55.99059 
L 161.35561 56.514644 
L 162.868592 57.035685 
L 164.381575 57.553699 
L 165.894557 58.068672 
L 167.407539 58.580593 
L 168.920522 59.089453 
L 170.433504 59.595243 
L 171.946486 60.097956 
L 173.459469 60.597588 
L 174.972451 61.094134 
L 176.485434 61.587593 
L 177.998416 62.077963 
L 179.511398 62.565245 
L 181.024381 63.049439 
L 182.537363 63.530548 
L 184.050345 64.008576 
L 185.563328 64.483528 
L 187.07631 64.955408 
L 188.589292 65.424224 
L 190.102275 65.889982 
L 191.615257 66.352691 
L 193.12824 66.81236 
L 194.641222 67.268998 
L 196.154204 67.722617 
" clip-path="url(#p2b813cba01)" style="fill: none; stroke: #4df3ce; stroke-linecap: square"/>
   </g>
   <g id="line2d_20">
    <path d="M 46.36895 12.896356 
L 47.881933 13.660761 
L 49.394915 14.597965 
L 50.907897 15.602442 
L 52.42088 16.63768 
L 53.933862 17.68922 
L 55.446844 18.750389 
L 56.959827 19.817709 
L 58.472809 20.889194 
L 59.985791 21.963626 
L 61.498774 23.040214 
L 63.011756 24.118409 
L 64.524739 25.197803 
L 66.037721 26.278064 
L 67.550703 27.35889 
L 69.063686 28.439986 
L 70.576668 29.521041 
L 72.08965 30.601717 
L 73.602633 31.681647 
L 75.115615 32.760431 
L 76.628598 33.83764 
L 78.14158 34.912821 
L 79.654562 35.985499 
L 81.167545 37.05519 
L 82.680527 38.121399 
L 84.193509 39.183635 
L 85.706492 40.24141 
L 87.219474 41.294247 
L 88.732456 42.341685 
L 90.245439 43.383279 
L 91.758421 44.418606 
L 93.271404 45.447269 
L 94.784386 46.468891 
L 96.297368 47.483125 
L 97.810351 48.489648 
L 99.323333 49.488166 
L 100.836315 50.47841 
L 102.349298 51.460135 
L 103.86228 52.433125 
L 105.375262 53.397187 
L 106.888245 54.352151 
L 108.401227 55.297869 
L 109.91421 56.234216 
L 111.427192 57.161087 
L 112.940174 58.078395 
L 114.453157 58.98607 
L 115.966139 59.884062 
L 117.479121 60.772333 
L 118.992104 61.650861 
L 120.505086 62.519638 
L 122.018068 63.378668 
L 123.531051 64.227965 
L 125.044033 65.067555 
L 126.557016 65.897472 
L 128.069998 66.717761 
L 129.58298 67.528474 
L 131.095963 68.329668 
L 132.608945 69.12141 
L 134.121927 69.90377 
L 135.63491 70.676826 
L 137.147892 71.440658 
L 138.660874 72.195351 
L 140.173857 72.940995 
L 141.686839 73.677682 
L 143.199822 74.405508 
L 144.712804 75.124568 
L 146.225786 75.834964 
L 147.738769 76.536797 
L 149.251751 77.230168 
L 150.764733 77.915184 
L 152.277716 78.591948 
L 153.790698 79.260566 
L 155.30368 79.921145 
L 156.816663 80.57379 
L 158.329645 81.218609 
L 159.842628 81.855708 
L 161.35561 82.485193 
L 162.868592 83.10717 
L 164.381575 83.721746 
L 165.894557 84.329025 
L 167.407539 84.929111 
L 168.920522 85.522109 
L 170.433504 86.10812 
L 171.946486 86.687248 
L 173.459469 87.259593 
L 174.972451 87.825255 
L 176.485434 88.384333 
L 177.998416 88.936925 
L 179.511398 89.483129 
L 181.024381 90.023038 
L 182.537363 90.556749 
L 184.050345 91.084354 
L 185.563328 91.605945 
L 187.07631 92.121613 
L 188.589292 92.631448 
L 190.102275 93.135537 
L 191.615257 93.633968 
L 193.12824 94.126826 
L 194.641222 94.614196 
L 196.154204 95.096161 
" clip-path="url(#p2b813cba01)" style="fill: none; stroke: #4e4dfc; stroke-linecap: square"/>
   </g>
   <g id="patch_3">
    <path d="M 38.879688 99.281693 
L 38.879688 7.2 
" style="fill: none; stroke: #000000; stroke-width: 0.8; stroke-linejoin: miter; stroke-linecap: square"/>
   </g>
   <g id="patch_4">
    <path d="M 203.643467 99.281693 
L 203.643467 7.2 
" style="fill: none; stroke: #000000; stroke-width: 0.8; stroke-linejoin: miter; stroke-linecap: square"/>
   </g>
   <g id="patch_5">
    <path d="M 38.879688 99.281693 
L 203.643467 99.281693 
" style="fill: none; stroke: #000000; stroke-width: 0.8; stroke-linejoin: miter; stroke-linecap: square"/>
   </g>
   <g id="patch_6">
    <path d="M 38.879688 7.2 
L 203.643467 7.2 
" style="fill: none; stroke: #000000; stroke-width: 0.8; stroke-linejoin: miter; stroke-linecap: square"/>
   </g>
   <g id="legend_1">
    <g id="patch_7">
     <path d="M 45.879688 94.281693 
L 125.979687 94.281693 
Q 127.979687 94.281693 127.979687 92.281693 
L 127.979687 37.519193 
Q 127.979687 35.519193 125.979687 35.519193 
L 45.879688 35.519193 
Q 43.879688 35.519193 43.879688 37.519193 
L 43.879688 92.281693 
Q 43.879688 94.281693 45.879688 94.281693 
z
" style="fill: #ffffff; opacity: 0.8; stroke: #cccccc; stroke-linejoin: miter"/>
    </g>
    <g id="line2d_21">
     <path d="M 47.879688 43.019193 
L 57.879688 43.019193 
L 67.879688 43.019193 
" style="fill: none; stroke: #ff0000; stroke-linecap: square"/>
    </g>
    <g id="text_11">
     <!-- $2a=1.0\,\mathrm{cm}$ -->
     <g transform="translate(75.879688 46.519193)">
      <text>
       <tspan x="0" y="-0.0625" style="font-size: 10px; font-family: 'NewComputerModern Math'">2</tspan>
       <tspan x="4.999985" y="-0.0625" style="font-size: 10px; font-family: 'NewComputerModern Math'">a</tspan>
       <tspan x="11.665967" y="-0.0625" style="font-size: 10px; font-family: 'NewComputerModern Math'">=</tspan>
       <tspan x="21.111948" y="-0.0625" style="font-size: 10px; font-family: 'NewComputerModern Math'">1</tspan>
       <tspan x="26.111932" y="-0.0625" style="font-size: 10px; font-family: 'NewComputerModern Math'">.</tspan>
       <tspan x="28.891916" y="-0.0625" style="font-size: 10px; font-family: 'NewComputerModern Math'">0</tspan>
       <tspan x="35.280259" y="-0.0625" style="font-size: 10px; font-family: 'NewComputerModern Math'">c</tspan>
       <tspan x="39.720247" y="-0.0625" style="font-size: 10px; font-family: 'NewComputerModern Math'">m</tspan>
      </text>
     </g>
    </g>
    <g id="line2d_22">
     <path d="M 47.879688 56.959818 
L 57.879688 56.959818 
L 67.879688 56.959818 
" style="fill: none; stroke: #e6cd73; stroke-linecap: square"/>
    </g>
    <g id="text_12">
     <!-- $2a=2.0\,\mathrm{cm}$ -->
     <g transform="translate(75.879688 60.459818)">
      <text>
       <tspan x="0" y="-0.0625" style="font-size: 10px; font-family: 'NewComputerModern Math'">2</tspan>
       <tspan x="4.999985" y="-0.0625" style="font-size: 10px; font-family: 'NewComputerModern Math'">a</tspan>
       <tspan x="11.665967" y="-0.0625" style="font-size: 10px; font-family: 'NewComputerModern Math'">=</tspan>
       <tspan x="21.111948" y="-0.0625" style="font-size: 10px; font-family: 'NewComputerModern Math'">2</tspan>
       <tspan x="26.111932" y="-0.0625" style="font-size: 10px; font-family: 'NewComputerModern Math'">.</tspan>
       <tspan x="28.891916" y="-0.0625" style="font-size: 10px; font-family: 'NewComputerModern Math'">0</tspan>
       <tspan x="35.280259" y="-0.0625" style="font-size: 10px; font-family: 'NewComputerModern Math'">c</tspan>
       <tspan x="39.720247" y="-0.0625" style="font-size: 10px; font-family: 'NewComputerModern Math'">m</tspan>
      </text>
     </g>
    </g>
    <g id="line2d_23">
     <path d="M 47.879688 70.900443 
L 57.879688 70.900443 
L 67.879688 70.900443 
" style="fill: none; stroke: #4df3ce; stroke-linecap: square"/>
    </g>
    <g id="text_13">
     <!-- $2a=3.0\,\mathrm{cm}$ -->
     <g transform="translate(75.879688 74.400443)">
      <text>
       <tspan x="0" y="-0.0625" style="font-size: 10px; font-family: 'NewComputerModern Math'">2</tspan>
       <tspan x="4.999985" y="-0.0625" style="font-size: 10px; font-family: 'NewComputerModern Math'">a</tspan>
       <tspan x="11.665967" y="-0.0625" style="font-size: 10px; font-family: 'NewComputerModern Math'">=</tspan>
       <tspan x="21.111948" y="-0.0625" style="font-size: 10px; font-family: 'NewComputerModern Math'">3</tspan>
       <tspan x="26.111932" y="-0.0625" style="font-size: 10px; font-family: 'NewComputerModern Math'">.</tspan>
       <tspan x="28.891916" y="-0.0625" style="font-size: 10px; font-family: 'NewComputerModern Math'">0</tspan>
       <tspan x="35.280259" y="-0.0625" style="font-size: 10px; font-family: 'NewComputerModern Math'">c</tspan>
       <tspan x="39.720247" y="-0.0625" style="font-size: 10px; font-family: 'NewComputerModern Math'">m</tspan>
      </text>
     </g>
    </g>
    <g id="line2d_24">
     <path d="M 47.879688 84.841068 
L 57.879688 84.841068 
L 67.879688 84.841068 
" style="fill: none; stroke: #4e4dfc; stroke-linecap: square"/>
    </g>
    <g id="text_14">
     <!-- $2a=4.0\,\mathrm{cm}$ -->
     <g transform="translate(75.879688 88.341068)">
      <text>
       <tspan x="0" y="-0.953125" style="font-size: 10px; font-family: 'NewComputerModern Math'">2</tspan>
       <tspan x="4.999985" y="-0.953125" style="font-size: 10px; font-family: 'NewComputerModern Math'">a</tspan>
       <tspan x="11.665967" y="-0.953125" style="font-size: 10px; font-family: 'NewComputerModern Math'">=</tspan>
       <tspan x="21.111948" y="-0.953125" style="font-size: 10px; font-family: 'NewComputerModern Math'">4</tspan>
       <tspan x="26.111932" y="-0.953125" style="font-size: 10px; font-family: 'NewComputerModern Math'">.</tspan>
       <tspan x="28.891916" y="-0.953125" style="font-size: 10px; font-family: 'NewComputerModern Math'">0</tspan>
       <tspan x="35.280259" y="-0.953125" style="font-size: 10px; font-family: 'NewComputerModern Math'">c</tspan>
       <tspan x="39.720247" y="-0.953125" style="font-size: 10px; font-family: 'NewComputerModern Math'">m</tspan>
      </text>
     </g>
    </g>
   </g>
  </g>
 </g>
 <defs>
  <clipPath id="p2b813cba01">
   <rect x="38.879688" y="7.2" width="164.76378" height="92.081693"/>
  </clipPath>
 </defs>
</svg>
