<?xml version="1.0" encoding="utf-8" standalone="no"?>
<!DOCTYPE svg PUBLIC "-//W3C//DTD SVG 1.1//EN"
  "http://www.w3.org/Graphics/SVG/1.1/DTD/svg11.dtd">
<svg xmlns:xlink="http://www.w3.org/1999/xlink" width="218.064361pt" height="132.862943pt" viewBox="0 0 218.064361 132.862943" xmlns="http://www.w3.org/2000/svg" version="1.1">
 <metadata>
  <rdf:RDF xmlns:dc="http://purl.org/dc/elements/1.1/" xmlns:cc="http://creativecommons.org/ns#" xmlns:rdf="http://www.w3.org/1999/02/22-rdf-syntax-ns#">
   <cc:Work>
    <dc:type rdf:resource="http://purl.org/dc/dcmitype/StillImage"/>
    <dc:date>2026-03-24T11:51:40.039854</dc:date>
    <dc:format>image/svg+xml</dc:format>
    <dc:creator>
     <cc:Agent>
      <dc:title>Matplotlib v3.10.8, https://matplotlib.org/</dc:title>
     </cc:Agent>
    </dc:creator>
   </cc:Work>
  </rdf:RDF>
 </metadata>
 <defs>
  <style type="text/css">*{stroke-linejoin: round; stroke-linecap: butt}</style>
 </defs>
 <g id="figure_1">
  <g id="patch_1">
   <path d="M 0 132.862943 
L 218.064361 132.862943 
L 218.064361 0 
L 0 0 
z
" style="fill: #ffffff"/>
  </g>
  <g id="axes_1">
   <g id="patch_2">
    <path d="M 44.7 99.281693 
L 209.46378 99.281693 
L 209.46378 7.2 
L 44.7 7.2 
z
" style="fill: #ffffff"/>
   </g>
   <g id="matplotlib.axis_1">
    <g id="xtick_1">
     <g id="line2d_1">
      <defs>
       <path id="m3302f91935" d="M 0 0 
L 0 -4 
" style="stroke: #000000"/>
      </defs>
      <g>
       <use xlink:href="#m3302f91935" x="52.189263" y="99.281693" style="stroke: #000000"/>
      </g>
     </g>
     <g id="line2d_2">
      <defs>
       <path id="mc6fbc54a9e" d="M 0 0 
L 0 4 
" style="stroke: #000000"/>
      </defs>
      <g>
       <use xlink:href="#mc6fbc54a9e" x="52.189263" y="7.2" style="stroke: #000000"/>
      </g>
     </g>
     <g id="text_1">
      <text style="font-size: 10px; font-family: 'NewComputerModern'; text-anchor: middle" x="52.189263" y="109.722318" transform="rotate(-0 52.189263 109.722318)">−0.50</text>
     </g>
    </g>
    <g id="xtick_2">
     <g id="line2d_3">
      <g>
       <use xlink:href="#m3302f91935" x="89.635576" y="99.281693" style="stroke: #000000"/>
      </g>
     </g>
     <g id="line2d_4">
      <g>
       <use xlink:href="#mc6fbc54a9e" x="89.635576" y="7.2" style="stroke: #000000"/>
      </g>
     </g>
     <g id="text_2">
      <text style="font-size: 10px; font-family: 'NewComputerModern'; text-anchor: middle" x="89.635576" y="109.722318" transform="rotate(-0 89.635576 109.722318)">−0.25</text>
     </g>
    </g>
    <g id="xtick_3">
     <g id="line2d_5">
      <g>
       <use xlink:href="#m3302f91935" x="127.08189" y="99.281693" style="stroke: #000000"/>
      </g>
     </g>
     <g id="line2d_6">
      <g>
       <use xlink:href="#mc6fbc54a9e" x="127.08189" y="7.2" style="stroke: #000000"/>
      </g>
     </g>
     <g id="text_3">
      <text style="font-size: 10px; font-family: 'NewComputerModern'; text-anchor: middle" x="127.08189" y="109.722318" transform="rotate(-0 127.08189 109.722318)">0.00</text>
     </g>
    </g>
    <g id="xtick_4">
     <g id="line2d_7">
      <g>
       <use xlink:href="#m3302f91935" x="164.528203" y="99.281693" style="stroke: #000000"/>
      </g>
     </g>
     <g id="line2d_8">
      <g>
       <use xlink:href="#mc6fbc54a9e" x="164.528203" y="7.2" style="stroke: #000000"/>
      </g>
     </g>
     <g id="text_4">
      <text style="font-size: 10px; font-family: 'NewComputerModern'; text-anchor: middle" x="164.528203" y="109.722318" transform="rotate(-0 164.528203 109.722318)">0.25</text>
     </g>
    </g>
    <g id="xtick_5">
     <g id="line2d_9">
      <g>
       <use xlink:href="#m3302f91935" x="201.974517" y="99.281693" style="stroke: #000000"/>
      </g>
     </g>
     <g id="line2d_10">
      <g>
       <use xlink:href="#mc6fbc54a9e" x="201.974517" y="7.2" style="stroke: #000000"/>
      </g>
     </g>
     <g id="text_5">
      <text style="font-size: 10px; font-family: 'NewComputerModern'; text-anchor: middle" x="201.974517" y="109.722318" transform="rotate(-0 201.974517 109.722318)">0.50</text>
     </g>
    </g>
    <g id="text_6">
     <text style="font-size: 10px; font-family: 'NewComputerModern'; text-anchor: middle" x="127.08189" y="123.162943" transform="rotate(-0 127.08189 123.162943)">y (cm)</text>
    </g>
   </g>
   <g id="matplotlib.axis_2">
    <g id="ytick_1">
     <g id="line2d_11">
      <defs>
       <path id="me14171fea2" d="M 0 0 
L 4 0 
" style="stroke: #000000"/>
      </defs>
      <g>
       <use xlink:href="#me14171fea2" x="44.7" y="56.324462" style="stroke: #000000"/>
      </g>
     </g>
     <g id="line2d_12">
      <defs>
       <path id="m3859f66786" d="M 0 0 
L -4 0 
" style="stroke: #000000"/>
      </defs>
      <g>
       <use xlink:href="#m3859f66786" x="209.46378" y="56.324462" style="stroke: #000000"/>
      </g>
     </g>
     <g id="text_7">
      <text style="font-size: 10px; font-family: 'NewComputerModern'; text-anchor: end" x="41.2" y="59.794774" transform="rotate(-0 41.2 59.794774)">900</text>
     </g>
    </g>
    <g id="ytick_2">
     <g id="line2d_13">
      <g>
       <use xlink:href="#me14171fea2" x="44.7" y="11.385531" style="stroke: #000000"/>
      </g>
     </g>
     <g id="line2d_14">
      <g>
       <use xlink:href="#m3859f66786" x="209.46378" y="11.385531" style="stroke: #000000"/>
      </g>
     </g>
     <g id="text_8">
      <text style="font-size: 10px; font-family: 'NewComputerModern'; text-anchor: end" x="41.2" y="14.855844" transform="rotate(-0 41.2 14.855844)">1000</text>
     </g>
    </g>
    <g id="text_9">
     <text style="font-size: 10px; font-family: 'NewComputerModern'; text-anchor: middle" x="14.7" y="53.240846" transform="rotate(-90 14.7 53.240846)">B (mT)</text>
    </g>
   </g>
   <g id="line2d_15">
    <path d="M 52.189263 11.385531 
L 53.702245 14.043171 
L 55.215227 16.698126 
L 56.72821 19.347716 
L 58.241192 21.989265 
L 59.754175 24.620105 
L 61.267157 27.237579 
L 62.780139 29.839047 
L 64.293122 32.42188 
L 65.806104 34.983473 
L 67.319086 37.52124 
L 68.832069 40.032622 
L 70.345051 42.515085 
L 71.858033 44.966125 
L 73.371016 47.383272 
L 74.883998 49.76409 
L 76.396981 52.10618 
L 77.909963 54.407183 
L 79.422945 56.664781 
L 80.935928 58.876703 
L 82.44891 61.040722 
L 83.961892 63.154663 
L 85.474875 65.216399 
L 86.987857 67.223858 
L 88.500839 69.175024 
L 90.013822 71.067936 
L 91.526804 72.900694 
L 93.039787 74.67146 
L 94.552769 76.378455 
L 96.065751 78.01997 
L 97.578734 79.594357 
L 99.091716 81.10004 
L 100.604698 82.535511 
L 102.117681 83.899331 
L 103.630663 85.190136 
L 105.143645 86.406635 
L 106.656628 87.547609 
L 108.16961 88.611919 
L 109.682593 89.5985 
L 111.195575 90.506366 
L 112.708557 91.33461 
L 114.22154 92.082405 
L 115.734522 92.749004 
L 117.247504 93.33374 
L 118.760487 93.836031 
L 120.273469 94.255376 
L 121.786451 94.591354 
L 123.299434 94.843632 
L 124.812416 95.011957 
L 126.325399 95.096161 
L 127.838381 95.096161 
L 129.351363 95.011957 
L 130.864346 94.843632 
L 132.377328 94.591354 
L 133.89031 94.255376 
L 135.403293 93.836031 
L 136.916275 93.33374 
L 138.429257 92.749004 
L 139.94224 92.082405 
L 141.455222 91.33461 
L 142.968205 90.506366 
L 144.481187 89.5985 
L 145.994169 88.611919 
L 147.507152 87.547609 
L 149.020134 86.406635 
L 150.533116 85.190136 
L 152.046099 83.899331 
L 153.559081 82.535511 
L 155.072064 81.10004 
L 156.585046 79.594357 
L 158.098028 78.01997 
L 159.611011 76.378455 
L 161.123993 74.67146 
L 162.636975 72.900694 
L 164.149958 71.067936 
L 165.66294 69.175024 
L 167.175922 67.223858 
L 168.688905 65.216399 
L 170.201887 63.154663 
L 171.71487 61.040722 
L 173.227852 58.876703 
L 174.740834 56.664781 
L 176.253817 54.407183 
L 177.766799 52.10618 
L 179.279781 49.76409 
L 180.792764 47.383272 
L 182.305746 44.966125 
L 183.818728 42.515085 
L 185.331711 40.032622 
L 186.844693 37.52124 
L 188.357676 34.983473 
L 189.870658 32.42188 
L 191.38364 29.839047 
L 192.896623 27.237579 
L 194.409605 24.620105 
L 195.922587 21.989265 
L 197.43557 19.347716 
L 198.948552 16.698126 
L 200.461534 14.043171 
L 201.974517 11.385531 
" clip-path="url(#p4dc2a99ee2)" style="fill: none; stroke: #ff0000; stroke-linecap: square"/>
   </g>
   <g id="line2d_16">
    <path d="M 52.189263 11.385531 
L 53.702245 11.387754 
L 55.215227 11.389975 
L 56.72821 11.392191 
L 58.241192 11.394401 
L 59.754175 11.396601 
L 61.267157 11.398791 
L 62.780139 11.400967 
L 64.293122 11.403127 
L 65.806104 11.40527 
L 67.319086 11.407393 
L 68.832069 11.409494 
L 70.345051 11.411571 
L 71.858033 11.413622 
L 73.371016 11.415644 
L 74.883998 11.417636 
L 76.396981 11.419596 
L 77.909963 11.421521 
L 79.422945 11.42341 
L 80.935928 11.425261 
L 82.44891 11.427072 
L 83.961892 11.428841 
L 85.474875 11.430567 
L 86.987857 11.432247 
L 88.500839 11.43388 
L 90.013822 11.435464 
L 91.526804 11.436999 
L 93.039787 11.438481 
L 94.552769 11.43991 
L 96.065751 11.441284 
L 97.578734 11.442602 
L 99.091716 11.443863 
L 100.604698 11.445065 
L 102.117681 11.446207 
L 103.630663 11.447288 
L 105.143645 11.448307 
L 106.656628 11.449262 
L 108.16961 11.450154 
L 109.682593 11.45098 
L 111.195575 11.45174 
L 112.708557 11.452434 
L 114.22154 11.45306 
L 115.734522 11.453619 
L 117.247504 11.454109 
L 118.760487 11.454529 
L 120.273469 11.454881 
L 121.786451 11.455162 
L 123.299434 11.455373 
L 124.812416 11.455514 
L 126.325399 11.455585 
L 127.838381 11.455585 
L 129.351363 11.455514 
L 130.864346 11.455373 
L 132.377328 11.455162 
L 133.89031 11.454881 
L 135.403293 11.454529 
L 136.916275 11.454109 
L 138.429257 11.453619 
L 139.94224 11.45306 
L 141.455222 11.452434 
L 142.968205 11.45174 
L 144.481187 11.45098 
L 145.994169 11.450154 
L 147.507152 11.449262 
L 149.020134 11.448307 
L 150.533116 11.447288 
L 152.046099 11.446207 
L 153.559081 11.445065 
L 155.072064 11.443863 
L 156.585046 11.442602 
L 158.098028 11.441284 
L 159.611011 11.43991 
L 161.123993 11.438481 
L 162.636975 11.436999 
L 164.149958 11.435464 
L 165.66294 11.43388 
L 167.175922 11.432247 
L 168.688905 11.430567 
L 170.201887 11.428841 
L 171.71487 11.427072 
L 173.227852 11.425261 
L 174.740834 11.42341 
L 176.253817 11.421521 
L 177.766799 11.419596 
L 179.279781 11.417636 
L 180.792764 11.415644 
L 182.305746 11.413622 
L 183.818728 11.411571 
L 185.331711 11.409494 
L 186.844693 11.407393 
L 188.357676 11.40527 
L 189.870658 11.403127 
L 191.38364 11.400967 
L 192.896623 11.398791 
L 194.409605 11.396601 
L 195.922587 11.394401 
L 197.43557 11.392191 
L 198.948552 11.389975 
L 200.461534 11.387754 
L 201.974517 11.385531 
" clip-path="url(#p4dc2a99ee2)" style="fill: none; stroke: #99fca6; stroke-linecap: square"/>
   </g>
   <g id="line2d_17">
    <path d="M 52.189263 11.385531 
L 53.702245 11.385579 
L 55.215227 11.385627 
L 56.72821 11.385675 
L 58.241192 11.385722 
L 59.754175 11.385769 
L 61.267157 11.385816 
L 62.780139 11.385863 
L 64.293122 11.38591 
L 65.806104 11.385956 
L 67.319086 11.386001 
L 68.832069 11.386046 
L 70.345051 11.386091 
L 71.858033 11.386135 
L 73.371016 11.386178 
L 74.883998 11.386221 
L 76.396981 11.386263 
L 77.909963 11.386305 
L 79.422945 11.386345 
L 80.935928 11.386385 
L 82.44891 11.386424 
L 83.961892 11.386462 
L 85.474875 11.386499 
L 86.987857 11.386535 
L 88.500839 11.38657 
L 90.013822 11.386604 
L 91.526804 11.386637 
L 93.039787 11.386668 
L 94.552769 11.386699 
L 96.065751 11.386728 
L 97.578734 11.386757 
L 99.091716 11.386784 
L 100.604698 11.386809 
L 102.117681 11.386834 
L 103.630663 11.386857 
L 105.143645 11.386879 
L 106.656628 11.386899 
L 108.16961 11.386918 
L 109.682593 11.386936 
L 111.195575 11.386952 
L 112.708557 11.386967 
L 114.22154 11.386981 
L 115.734522 11.386993 
L 117.247504 11.387003 
L 118.760487 11.387012 
L 120.273469 11.38702 
L 121.786451 11.387026 
L 123.299434 11.38703 
L 124.812416 11.387033 
L 126.325399 11.387035 
L 127.838381 11.387035 
L 129.351363 11.387033 
L 130.864346 11.38703 
L 132.377328 11.387026 
L 133.89031 11.38702 
L 135.403293 11.387012 
L 136.916275 11.387003 
L 138.429257 11.386993 
L 139.94224 11.386981 
L 141.455222 11.386967 
L 142.968205 11.386952 
L 144.481187 11.386936 
L 145.994169 11.386918 
L 147.507152 11.386899 
L 149.020134 11.386879 
L 150.533116 11.386857 
L 152.046099 11.386834 
L 153.559081 11.386809 
L 155.072064 11.386784 
L 156.585046 11.386757 
L 158.098028 11.386728 
L 159.611011 11.386699 
L 161.123993 11.386668 
L 162.636975 11.386637 
L 164.149958 11.386604 
L 165.66294 11.38657 
L 167.175922 11.386535 
L 168.688905 11.386499 
L 170.201887 11.386462 
L 171.71487 11.386424 
L 173.227852 11.386385 
L 174.740834 11.386345 
L 176.253817 11.386305 
L 177.766799 11.386263 
L 179.279781 11.386221 
L 180.792764 11.386178 
L 182.305746 11.386135 
L 183.818728 11.386091 
L 185.331711 11.386046 
L 186.844693 11.386001 
L 188.357676 11.385956 
L 189.870658 11.38591 
L 191.38364 11.385863 
L 192.896623 11.385816 
L 194.409605 11.385769 
L 195.922587 11.385722 
L 197.43557 11.385675 
L 198.948552 11.385627 
L 200.461534 11.385579 
L 201.974517 11.385531 
" clip-path="url(#p4dc2a99ee2)" style="fill: none; stroke: #4e4dfc; stroke-linecap: square"/>
   </g>
   <g id="patch_3">
    <path d="M 44.7 99.281693 
L 44.7 7.2 
" style="fill: none; stroke: #000000; stroke-width: 0.8; stroke-linejoin: miter; stroke-linecap: square"/>
   </g>
   <g id="patch_4">
    <path d="M 209.46378 99.281693 
L 209.46378 7.2 
" style="fill: none; stroke: #000000; stroke-width: 0.8; stroke-linejoin: miter; stroke-linecap: square"/>
   </g>
   <g id="patch_5">
    <path d="M 44.7 99.281693 
L 209.46378 99.281693 
" style="fill: none; stroke: #000000; stroke-width: 0.8; stroke-linejoin: miter; stroke-linecap: square"/>
   </g>
   <g id="patch_6">
    <path d="M 44.7 7.2 
L 209.46378 7.2 
" style="fill: none; stroke: #000000; stroke-width: 0.8; stroke-linejoin: miter; stroke-linecap: square"/>
   </g>
   <g id="legend_1">
    <g id="patch_7">
     <path d="M 88.447515 57.021875 
L 165.716265 57.021875 
Q 167.716265 57.021875 167.716265 55.021875 
L 167.716265 14.2 
Q 167.716265 12.2 165.716265 12.2 
L 88.447515 12.2 
Q 86.447515 12.2 86.447515 14.2 
L 86.447515 55.021875 
Q 86.447515 57.021875 88.447515 57.021875 
z
" style="fill: #ffffff; opacity: 0.8; stroke: #cccccc; stroke-linejoin: miter"/>
    </g>
    <g id="line2d_18">
     <path d="M 90.447515 19.7 
L 100.447515 19.7 
L 110.447515 19.7 
" style="fill: none; stroke: #ff0000; stroke-linecap: square"/>
    </g>
    <g id="text_10">
     <text style="font-size: 10px; font-family: 'NewComputerModern'; text-anchor: start" x="118.447515" y="23.2" transform="rotate(-0 118.447515 23.2)">x=-5.6 cm</text>
    </g>
    <g id="line2d_19">
     <path d="M 90.447515 33.640625 
L 100.447515 33.640625 
L 110.447515 33.640625 
" style="fill: none; stroke: #99fca6; stroke-linecap: square"/>
    </g>
    <g id="text_11">
     <text style="font-size: 10px; font-family: 'NewComputerModern'; text-anchor: start" x="118.447515" y="37.140625" transform="rotate(-0 118.447515 37.140625)">x=0.0 cm</text>
    </g>
    <g id="line2d_20">
     <path d="M 90.447515 47.58125 
L 100.447515 47.58125 
L 110.447515 47.58125 
" style="fill: none; stroke: #4e4dfc; stroke-linecap: square"/>
    </g>
    <g id="text_12">
     <text style="font-size: 10px; font-family: 'NewComputerModern'; text-anchor: start" x="118.447515" y="51.08125" transform="rotate(-0 118.447515 51.08125)">x=5.6 cm</text>
    </g>
   </g>
  </g>
 </g>
 <defs>
  <clipPath id="p4dc2a99ee2">
   <rect x="44.7" y="7.2" width="164.76378" height="92.081693"/>
  </clipPath>
 </defs>
</svg>
