<?xml version="1.0" encoding="utf-8" standalone="no"?>
<!DOCTYPE svg PUBLIC "-//W3C//DTD SVG 1.1//EN"
  "http://www.w3.org/Graphics/SVG/1.1/DTD/svg11.dtd">
<svg xmlns:xlink="http://www.w3.org/1999/xlink" width="217.754204pt" height="132.862943pt" viewBox="0 0 217.754204 132.862943" xmlns="http://www.w3.org/2000/svg" version="1.1">
 <metadata>
  <rdf:RDF xmlns:dc="http://purl.org/dc/elements/1.1/" xmlns:cc="http://creativecommons.org/ns#" xmlns:rdf="http://www.w3.org/1999/02/22-rdf-syntax-ns#">
   <cc:Work>
    <dc:type rdf:resource="http://purl.org/dc/dcmitype/StillImage"/>
    <dc:date>2026-03-24T12:08:36.946892</dc:date>
    <dc:format>image/svg+xml</dc:format>
    <dc:creator>
     <cc:Agent>
      <dc:title>Matplotlib v3.10.8, https://matplotlib.org/</dc:title>
     </cc:Agent>
    </dc:creator>
   </cc:Work>
  </rdf:RDF>
 </metadata>
 <defs>
  <style type="text/css">*{stroke-linejoin: round; stroke-linecap: butt}</style>
 </defs>
 <g id="figure_1">
  <g id="patch_1">
   <path d="M 0 132.862943 
L 217.754204 132.862943 
L 217.754204 0 
L 0 0 
z
" style="fill: #ffffff"/>
  </g>
  <g id="axes_1">
   <g id="patch_2">
    <path d="M 45.779688 99.281693 
L 210.543467 99.281693 
L 210.543467 7.2 
L 45.779688 7.2 
z
" style="fill: #ffffff"/>
   </g>
   <g id="matplotlib.axis_1">
    <g id="xtick_1">
     <g id="line2d_1">
      <defs>
       <path id="mf77a3bc64c" d="M 0 0 
L 0 -4 
" style="stroke: #000000"/>
      </defs>
      <g>
       <use xlink:href="#mf77a3bc64c" x="53.26895" y="99.281693" style="stroke: #000000"/>
      </g>
     </g>
     <g id="line2d_2">
      <defs>
       <path id="m5b7317092d" d="M 0 0 
L 0 4 
" style="stroke: #000000"/>
      </defs>
      <g>
       <use xlink:href="#m5b7317092d" x="53.26895" y="7.2" style="stroke: #000000"/>
      </g>
     </g>
     <g id="text_1">
      <text style="font-size: 10px; font-family: 'NewComputerModern'; text-anchor: middle" x="53.26895" y="109.722318" transform="rotate(-0 53.26895 109.722318)">0</text>
     </g>
    </g>
    <g id="xtick_2">
     <g id="line2d_3">
      <g>
       <use xlink:href="#mf77a3bc64c" x="90.715264" y="99.281693" style="stroke: #000000"/>
      </g>
     </g>
     <g id="line2d_4">
      <g>
       <use xlink:href="#m5b7317092d" x="90.715264" y="7.2" style="stroke: #000000"/>
      </g>
     </g>
     <g id="text_2">
      <text style="font-size: 10px; font-family: 'NewComputerModern'; text-anchor: middle" x="90.715264" y="109.722318" transform="rotate(-0 90.715264 109.722318)">25</text>
     </g>
    </g>
    <g id="xtick_3">
     <g id="line2d_5">
      <g>
       <use xlink:href="#mf77a3bc64c" x="128.161577" y="99.281693" style="stroke: #000000"/>
      </g>
     </g>
     <g id="line2d_6">
      <g>
       <use xlink:href="#m5b7317092d" x="128.161577" y="7.2" style="stroke: #000000"/>
      </g>
     </g>
     <g id="text_3">
      <text style="font-size: 10px; font-family: 'NewComputerModern'; text-anchor: middle" x="128.161577" y="109.722318" transform="rotate(-0 128.161577 109.722318)">50</text>
     </g>
    </g>
    <g id="xtick_4">
     <g id="line2d_7">
      <g>
       <use xlink:href="#mf77a3bc64c" x="165.607891" y="99.281693" style="stroke: #000000"/>
      </g>
     </g>
     <g id="line2d_8">
      <g>
       <use xlink:href="#m5b7317092d" x="165.607891" y="7.2" style="stroke: #000000"/>
      </g>
     </g>
     <g id="text_4">
      <text style="font-size: 10px; font-family: 'NewComputerModern'; text-anchor: middle" x="165.607891" y="109.722318" transform="rotate(-0 165.607891 109.722318)">75</text>
     </g>
    </g>
    <g id="xtick_5">
     <g id="line2d_9">
      <g>
       <use xlink:href="#mf77a3bc64c" x="203.054204" y="99.281693" style="stroke: #000000"/>
      </g>
     </g>
     <g id="line2d_10">
      <g>
       <use xlink:href="#m5b7317092d" x="203.054204" y="7.2" style="stroke: #000000"/>
      </g>
     </g>
     <g id="text_5">
      <text style="font-size: 10px; font-family: 'NewComputerModern'; text-anchor: middle" x="203.054204" y="109.722318" transform="rotate(-0 203.054204 109.722318)">100</text>
     </g>
    </g>
    <g id="text_6">
     <text style="font-size: 10px; font-family: 'NewComputerModern'; text-anchor: middle" x="128.161577" y="123.162943" transform="rotate(-0 128.161577 123.162943)">Velocity in m/s</text>
    </g>
   </g>
   <g id="matplotlib.axis_2">
    <g id="ytick_1">
     <g id="line2d_11">
      <defs>
       <path id="m93ddc7edfe" d="M 0 0 
L 4 0 
" style="stroke: #000000"/>
      </defs>
      <g>
       <use xlink:href="#m93ddc7edfe" x="45.779688" y="95.096161" style="stroke: #000000"/>
      </g>
     </g>
     <g id="line2d_12">
      <defs>
       <path id="m0a2243241e" d="M 0 0 
L -4 0 
" style="stroke: #000000"/>
      </defs>
      <g>
       <use xlink:href="#m0a2243241e" x="210.543467" y="95.096161" style="stroke: #000000"/>
      </g>
     </g>
     <g id="text_7">
      <text style="font-size: 10px; font-family: 'NewComputerModern'; text-anchor: end" x="42.279688" y="98.566474" transform="rotate(-0 42.279688 98.566474)">0.00</text>
     </g>
    </g>
    <g id="ytick_2">
     <g id="line2d_13">
      <g>
       <use xlink:href="#m93ddc7edfe" x="45.779688" y="64.199213" style="stroke: #000000"/>
      </g>
     </g>
     <g id="line2d_14">
      <g>
       <use xlink:href="#m0a2243241e" x="210.543467" y="64.199213" style="stroke: #000000"/>
      </g>
     </g>
     <g id="text_8">
      <text style="font-size: 10px; font-family: 'NewComputerModern'; text-anchor: end" x="42.279688" y="67.669526" transform="rotate(-0 42.279688 67.669526)">0.02</text>
     </g>
    </g>
    <g id="ytick_3">
     <g id="line2d_15">
      <g>
       <use xlink:href="#m93ddc7edfe" x="45.779688" y="33.302265" style="stroke: #000000"/>
      </g>
     </g>
     <g id="line2d_16">
      <g>
       <use xlink:href="#m0a2243241e" x="210.543467" y="33.302265" style="stroke: #000000"/>
      </g>
     </g>
     <g id="text_9">
      <text style="font-size: 10px; font-family: 'NewComputerModern'; text-anchor: end" x="42.279688" y="36.772578" transform="rotate(-0 42.279688 36.772578)">0.04</text>
     </g>
    </g>
    <g id="text_10">
     <!-- $\frac{F_b}{F_{a}^0}$    -->
     <g transform="translate(7.2 44.280846)">
      <text>
       <tspan x="0" y="-7.153125" style="font-size: 9.8px; font-family: 'NewComputerModern Math'">F</tspan>
       <tspan x="0" y="6.418125" style="font-size: 9.8px; font-family: 'NewComputerModern Math'">F</tspan>
       <tspan x="6.399399" y="-5.8275" style="font-size: 6.86px; font-family: 'NewComputerModern Math'">b</tspan>
       <tspan x="6.399399" y="8.6275" style="font-size: 6.86px; font-family: 'NewComputerModern Math'">a</tspan>
       <tspan x="7.100201" y="3.325" style="font-size: 6.86px; font-family: 'NewComputerModern Math'">0</tspan>
       <tspan x="12.501138" y="-0.368125" style="font-size: 14px; font-family: 'NewComputerModern'"> </tspan>
       <tspan x="17.163126" y="-0.368125" style="font-size: 14px; font-family: 'NewComputerModern'"> </tspan>
       <tspan x="21.825113" y="-0.368125" style="font-size: 14px; font-family: 'NewComputerModern'"> </tspan>
      </text>
      <rect x="0" y="-3.250938" width="10.751138" height="0.875"/>
     </g>
    </g>
   </g>
   <g id="line2d_17">
    <path d="M 53.26895 95.096161 
L 54.766803 57.689329 
L 56.264655 36.32263 
L 57.762508 25.740743 
L 59.26036 20.007584 
L 60.758213 16.548914 
L 62.256065 14.327673 
L 63.753918 12.888203 
L 65.251771 12.000908 
L 66.749623 11.530528 
L 68.247476 11.385531 
L 69.745328 11.49779 
L 71.243181 11.81383 
L 72.741033 12.290606 
L 74.238886 12.893122 
L 75.736738 13.592844 
L 77.234591 14.366518 
L 78.732443 15.195232 
L 80.230296 16.063637 
L 81.728148 16.959313 
L 83.226001 17.872239 
L 84.723854 18.794358 
L 86.221706 19.719215 
L 87.719559 20.641666 
L 89.217411 21.557636 
L 90.715264 22.463919 
L 92.213116 23.358022 
L 93.710969 24.238028 
L 95.208821 25.102492 
L 96.706674 25.950353 
L 98.204526 26.78086 
L 99.702379 27.593514 
L 101.200232 28.388023 
L 102.698084 29.164255 
L 104.195937 29.922214 
L 105.693789 30.662009 
L 107.191642 31.383831 
L 108.689494 32.08794 
L 110.187347 32.774644 
L 111.685199 33.444293 
L 113.183052 34.097265 
L 114.680904 34.733959 
L 116.178757 35.354789 
L 117.676609 35.960178 
L 119.174462 36.550553 
L 120.672315 37.126343 
L 122.170167 37.687975 
L 123.66802 38.235872 
L 125.165872 38.770451 
L 126.663725 39.292122 
L 128.161577 39.801286 
L 129.65943 40.298335 
L 131.157282 40.783651 
L 132.655135 41.257606 
L 134.152987 41.72056 
L 135.65084 42.172863 
L 137.148693 42.614856 
L 138.646545 43.046866 
L 140.144398 43.469211 
L 141.64225 43.882198 
L 143.140103 44.286123 
L 144.637955 44.681273 
L 146.135808 45.067924 
L 147.63366 45.446341 
L 149.131513 45.816783 
L 150.629365 46.179497 
L 152.127218 46.534721 
L 153.62507 46.882685 
L 155.122923 47.223612 
L 156.620776 47.557715 
L 158.118628 47.885199 
L 159.616481 48.206264 
L 161.114333 48.5211 
L 162.612186 48.829892 
L 164.110038 49.132817 
L 165.607891 49.430046 
L 167.105743 49.721745 
L 168.603596 50.008071 
L 170.101448 50.289179 
L 171.599301 50.565216 
L 173.097153 50.836324 
L 174.595006 51.102641 
L 176.092859 51.364299 
L 177.590711 51.621427 
L 179.088564 51.874147 
L 180.586416 52.122579 
L 182.084269 52.366838 
L 183.582121 52.607034 
L 185.079974 52.843274 
L 186.577826 53.075663 
L 188.075679 53.3043 
L 189.573531 53.529281 
L 191.071384 53.7507 
L 192.569237 53.968647 
L 194.067089 54.18321 
L 195.564942 54.394472 
L 197.062794 54.602515 
L 198.560647 54.807418 
L 200.058499 55.009257 
L 201.556352 55.208107 
L 203.054204 55.404038 
" clip-path="url(#p8c9995b965)" style="fill: none; stroke: #ff0000; stroke-linecap: square"/>
   </g>
   <g id="line2d_18">
    <path d="M 53.26895 95.096161 
L 54.766803 76.392745 
L 56.264655 65.70939 
L 57.762508 60.418006 
L 59.26036 57.546187 
L 60.758213 55.793176 
L 62.256065 54.62051 
L 63.753918 53.783104 
L 65.251771 53.157252 
L 66.749623 52.675241 
L 68.247476 52.297754 
L 69.745328 52.000885 
L 71.243181 51.769454 
L 72.741033 51.593335 
L 74.238886 51.465376 
L 75.736738 51.380186 
L 77.234591 51.333439 
L 78.732443 51.321469 
L 80.230296 51.341041 
L 81.728148 51.389221 
L 83.226001 51.463307 
L 84.723854 51.560794 
L 86.221706 51.679348 
L 87.719559 51.816798 
L 89.217411 51.97113 
L 90.715264 52.140479 
L 92.213116 52.323123 
L 93.710969 52.517478 
L 95.208821 52.72209 
L 96.706674 52.935631 
L 98.204526 53.156888 
L 99.702379 53.384757 
L 101.200232 53.618235 
L 102.698084 53.856415 
L 104.195937 54.098475 
L 105.693789 54.343672 
L 107.191642 54.591337 
L 108.689494 54.840869 
L 110.187347 55.091727 
L 111.685199 55.343426 
L 113.183052 55.59553 
L 114.680904 55.847653 
L 116.178757 56.099447 
L 117.676609 56.350604 
L 119.174462 56.600849 
L 120.672315 56.849941 
L 122.170167 57.097664 
L 123.66802 57.343829 
L 125.165872 57.58827 
L 126.663725 57.830841 
L 128.161577 58.071416 
L 129.65943 58.309885 
L 131.157282 58.546153 
L 132.655135 58.780141 
L 134.152987 59.01178 
L 135.65084 59.241012 
L 137.148693 59.467792 
L 138.646545 59.69208 
L 140.144398 59.913848 
L 141.64225 60.133073 
L 143.140103 60.349739 
L 144.637955 60.563836 
L 146.135808 60.775358 
L 147.63366 60.984307 
L 149.131513 61.190685 
L 150.629365 61.394501 
L 152.127218 61.595766 
L 153.62507 61.794493 
L 155.122923 61.9907 
L 156.620776 62.184405 
L 158.118628 62.375628 
L 159.616481 62.564393 
L 161.114333 62.750724 
L 162.612186 62.934646 
L 164.110038 63.116186 
L 165.607891 63.295371 
L 167.105743 63.47223 
L 168.603596 63.646792 
L 170.101448 63.819086 
L 171.599301 63.989144 
L 173.097153 64.156994 
L 174.595006 64.322668 
L 176.092859 64.486197 
L 177.590711 64.647612 
L 179.088564 64.806944 
L 180.586416 64.964224 
L 182.084269 65.119483 
L 183.582121 65.272752 
L 185.079974 65.424061 
L 186.577826 65.573441 
L 188.075679 65.720923 
L 189.573531 65.866536 
L 191.071384 66.010311 
L 192.569237 66.152276 
L 194.067089 66.292461 
L 195.564942 66.430895 
L 197.062794 66.567606 
L 198.560647 66.702622 
L 200.058499 66.835971 
L 201.556352 66.967681 
L 203.054204 67.097778 
" clip-path="url(#p8c9995b965)" style="fill: none; stroke: #e6cd73; stroke-linecap: square"/>
   </g>
   <g id="line2d_19">
    <path d="M 53.26895 95.096161 
L 54.766803 85.744453 
L 56.264655 80.402776 
L 57.762508 77.757084 
L 59.26036 76.321174 
L 60.758213 75.444657 
L 62.256065 74.858222 
L 63.753918 74.439034 
L 65.251771 74.124597 
L 66.749623 73.88003 
L 68.247476 73.68438 
L 69.745328 73.52432 
L 71.243181 73.390981 
L 72.741033 73.278247 
L 74.238886 73.181785 
L 75.736738 73.098462 
L 77.234591 73.025976 
L 78.732443 72.962618 
L 80.230296 72.907107 
L 81.728148 72.858478 
L 83.226001 72.816 
L 84.723854 72.779113 
L 86.221706 72.747387 
L 87.719559 72.720485 
L 89.217411 72.69814 
L 90.715264 72.680137 
L 92.213116 72.666293 
L 93.710969 72.656453 
L 95.208821 72.650479 
L 96.706674 72.648242 
L 98.204526 72.649623 
L 99.702379 72.654506 
L 101.200232 72.662777 
L 102.698084 72.674324 
L 104.195937 72.689034 
L 105.693789 72.706796 
L 107.191642 72.727496 
L 108.689494 72.751021 
L 110.187347 72.777261 
L 111.685199 72.806101 
L 113.183052 72.837431 
L 114.680904 72.871139 
L 116.178757 72.907117 
L 117.676609 72.945256 
L 119.174462 72.98545 
L 120.672315 73.027596 
L 122.170167 73.071592 
L 123.66802 73.117338 
L 125.165872 73.164739 
L 126.663725 73.213699 
L 128.161577 73.264129 
L 129.65943 73.31594 
L 131.157282 73.369047 
L 132.655135 73.423369 
L 134.152987 73.478825 
L 135.65084 73.53534 
L 137.148693 73.592841 
L 138.646545 73.651257 
L 140.144398 73.710522 
L 141.64225 73.77057 
L 143.140103 73.831341 
L 144.637955 73.892774 
L 146.135808 73.954814 
L 147.63366 74.017407 
L 149.131513 74.080502 
L 150.629365 74.144049 
L 152.127218 74.208002 
L 153.62507 74.272317 
L 155.122923 74.336951 
L 156.620776 74.401865 
L 158.118628 74.467019 
L 159.616481 74.532379 
L 161.114333 74.59791 
L 162.612186 74.663578 
L 164.110038 74.729354 
L 165.607891 74.795208 
L 167.105743 74.861112 
L 168.603596 74.927039 
L 170.101448 74.992966 
L 171.599301 75.058869 
L 173.097153 75.124725 
L 174.595006 75.190513 
L 176.092859 75.256215 
L 177.590711 75.32181 
L 179.088564 75.387282 
L 180.586416 75.452615 
L 182.084269 75.517792 
L 183.582121 75.582798 
L 185.079974 75.647621 
L 186.577826 75.712248 
L 188.075679 75.776665 
L 189.573531 75.840862 
L 191.071384 75.904829 
L 192.569237 75.968555 
L 194.067089 76.032031 
L 195.564942 76.095248 
L 197.062794 76.158198 
L 198.560647 76.220875 
L 200.058499 76.28327 
L 201.556352 76.345378 
L 203.054204 76.407192 
" clip-path="url(#p8c9995b965)" style="fill: none; stroke: #4df3ce; stroke-linecap: square"/>
   </g>
   <g id="line2d_20">
    <path d="M 53.26895 95.096161 
L 54.766803 90.420307 
L 56.264655 87.749468 
L 57.762508 86.426623 
L 59.26036 85.708668 
L 60.758213 85.270409 
L 62.256065 84.977191 
L 63.753918 84.767598 
L 65.251771 84.610379 
L 66.749623 84.488095 
L 68.247476 84.390266 
L 69.745328 84.310225 
L 71.243181 84.243524 
L 72.741033 84.187085 
L 74.238886 84.138708 
L 75.736738 84.096782 
L 77.234591 84.060097 
L 78.732443 84.027728 
L 80.230296 83.998955 
L 81.728148 83.973212 
L 83.226001 83.950045 
L 84.723854 83.929086 
L 86.221706 83.910035 
L 87.719559 83.892647 
L 89.217411 83.876715 
L 90.715264 83.86207 
L 92.213116 83.848566 
L 93.710969 83.836084 
L 95.208821 83.82452 
L 96.706674 83.813789 
L 98.204526 83.803817 
L 99.702379 83.794542 
L 101.200232 83.785911 
L 102.698084 83.777879 
L 104.195937 83.770408 
L 105.693789 83.763468 
L 107.191642 83.75703 
L 108.689494 83.751072 
L 110.187347 83.745577 
L 111.685199 83.740527 
L 113.183052 83.73591 
L 114.680904 83.731716 
L 116.178757 83.727935 
L 117.676609 83.72456 
L 119.174462 83.721587 
L 120.672315 83.719008 
L 122.170167 83.716822 
L 123.66802 83.715023 
L 125.165872 83.71361 
L 126.663725 83.71258 
L 128.161577 83.711931 
L 129.65943 83.711661 
L 131.157282 83.711768 
L 132.655135 83.712251 
L 134.152987 83.713106 
L 135.65084 83.714333 
L 137.148693 83.715929 
L 138.646545 83.717893 
L 140.144398 83.720221 
L 141.64225 83.722911 
L 143.140103 83.72596 
L 144.637955 83.729366 
L 146.135808 83.733125 
L 147.63366 83.737234 
L 149.131513 83.741689 
L 150.629365 83.746487 
L 152.127218 83.751623 
L 153.62507 83.757094 
L 155.122923 83.762895 
L 156.620776 83.769021 
L 158.118628 83.775469 
L 159.616481 83.782232 
L 161.114333 83.789307 
L 162.612186 83.796688 
L 164.110038 83.804371 
L 165.607891 83.812349 
L 167.105743 83.820618 
L 168.603596 83.829172 
L 170.101448 83.838005 
L 171.599301 83.847113 
L 173.097153 83.85649 
L 174.595006 83.86613 
L 176.092859 83.876027 
L 177.590711 83.886177 
L 179.088564 83.896572 
L 180.586416 83.907208 
L 182.084269 83.918079 
L 183.582121 83.929179 
L 185.079974 83.940504 
L 186.577826 83.952046 
L 188.075679 83.963801 
L 189.573531 83.975763 
L 191.071384 83.987927 
L 192.569237 84.000287 
L 194.067089 84.012839 
L 195.564942 84.025575 
L 197.062794 84.038492 
L 198.560647 84.051585 
L 200.058499 84.064847 
L 201.556352 84.078275 
L 203.054204 84.091862 
" clip-path="url(#p8c9995b965)" style="fill: none; stroke: #4e4dfc; stroke-linecap: square"/>
   </g>
   <g id="patch_3">
    <path d="M 45.779688 99.281693 
L 45.779688 7.2 
" style="fill: none; stroke: #000000; stroke-width: 0.8; stroke-linejoin: miter; stroke-linecap: square"/>
   </g>
   <g id="patch_4">
    <path d="M 210.543467 99.281693 
L 210.543467 7.2 
" style="fill: none; stroke: #000000; stroke-width: 0.8; stroke-linejoin: miter; stroke-linecap: square"/>
   </g>
   <g id="patch_5">
    <path d="M 45.779688 99.281693 
L 210.543467 99.281693 
" style="fill: none; stroke: #000000; stroke-width: 0.8; stroke-linejoin: miter; stroke-linecap: square"/>
   </g>
   <g id="patch_6">
    <path d="M 45.779688 7.2 
L 210.543467 7.2 
" style="fill: none; stroke: #000000; stroke-width: 0.8; stroke-linejoin: miter; stroke-linecap: square"/>
   </g>
   <g id="legend_1">
    <g id="patch_7">
     <path d="M 52.779688 70.9625 
L 123.248437 70.9625 
Q 125.248437 70.9625 125.248437 68.9625 
L 125.248437 14.2 
Q 125.248437 12.2 123.248437 12.2 
L 52.779688 12.2 
Q 50.779688 12.2 50.779688 14.2 
L 50.779688 68.9625 
Q 50.779688 70.9625 52.779688 70.9625 
z
" style="fill: #ffffff; opacity: 0.8; stroke: #cccccc; stroke-linejoin: miter"/>
    </g>
    <g id="line2d_21">
     <path d="M 54.779688 19.7 
L 64.779687 19.7 
L 74.779687 19.7 
" style="fill: none; stroke: #ff0000; stroke-linecap: square"/>
    </g>
    <g id="text_11">
     <text style="font-size: 10px; font-family: 'NewComputerModern'; text-anchor: start" x="82.779687" y="23.2" transform="rotate(-0 82.779687 23.2)">L=0.5 m</text>
    </g>
    <g id="line2d_22">
     <path d="M 54.779688 33.640625 
L 64.779687 33.640625 
L 74.779687 33.640625 
" style="fill: none; stroke: #e6cd73; stroke-linecap: square"/>
    </g>
    <g id="text_12">
     <text style="font-size: 10px; font-family: 'NewComputerModern'; text-anchor: start" x="82.779687" y="37.140625" transform="rotate(-0 82.779687 37.140625)">L=1 m</text>
    </g>
    <g id="line2d_23">
     <path d="M 54.779688 47.58125 
L 64.779687 47.58125 
L 74.779687 47.58125 
" style="fill: none; stroke: #4df3ce; stroke-linecap: square"/>
    </g>
    <g id="text_13">
     <text style="font-size: 10px; font-family: 'NewComputerModern'; text-anchor: start" x="82.779687" y="51.08125" transform="rotate(-0 82.779687 51.08125)">L=2 m</text>
    </g>
    <g id="line2d_24">
     <path d="M 54.779688 61.521875 
L 64.779687 61.521875 
L 74.779687 61.521875 
" style="fill: none; stroke: #4e4dfc; stroke-linecap: square"/>
    </g>
    <g id="text_14">
     <text style="font-size: 10px; font-family: 'NewComputerModern'; text-anchor: start" x="82.779687" y="65.021875" transform="rotate(-0 82.779687 65.021875)">L=4 m</text>
    </g>
   </g>
  </g>
 </g>
 <defs>
  <clipPath id="p8c9995b965">
   <rect x="45.779688" y="7.2" width="164.76378" height="92.081693"/>
  </clipPath>
 </defs>
</svg>
