<?xml version="1.0" encoding="utf-8" standalone="no"?>
<!DOCTYPE svg PUBLIC "-//W3C//DTD SVG 1.1//EN"
  "http://www.w3.org/Graphics/SVG/1.1/DTD/svg11.dtd">
<svg xmlns:xlink="http://www.w3.org/1999/xlink" width="208.993267pt" height="132.859818pt" viewBox="0 0 208.993267 132.859818" xmlns="http://www.w3.org/2000/svg" version="1.1">
 <metadata>
  <rdf:RDF xmlns:dc="http://purl.org/dc/elements/1.1/" xmlns:cc="http://creativecommons.org/ns#" xmlns:rdf="http://www.w3.org/1999/02/22-rdf-syntax-ns#">
   <cc:Work>
    <dc:type rdf:resource="http://purl.org/dc/dcmitype/StillImage"/>
    <dc:date>2026-02-12T16:24:22.828873</dc:date>
    <dc:format>image/svg+xml</dc:format>
    <dc:creator>
     <cc:Agent>
      <dc:title>Matplotlib v3.10.8, https://matplotlib.org/</dc:title>
     </cc:Agent>
    </dc:creator>
   </cc:Work>
  </rdf:RDF>
 </metadata>
 <defs>
  <style type="text/css">*{stroke-linejoin: round; stroke-linecap: butt}</style>
 </defs>
 <g id="figure_1">
  <g id="patch_1">
   <path d="M 0 132.859818 
L 208.993267 132.859818 
L 208.993267 0 
L 0 0 
z
" style="fill: #ffffff"/>
  </g>
  <g id="axes_1">
   <g id="patch_2">
    <path d="M 37.01875 99.281693 
L 201.78253 99.281693 
L 201.78253 7.2 
L 37.01875 7.2 
z
" style="fill: #ffffff"/>
   </g>
   <g id="matplotlib.axis_1">
    <g id="xtick_1">
     <g id="line2d_1">
      <defs>
       <path id="me2cd459f36" d="M 0 0 
L 0 -4 
" style="stroke: #000000"/>
      </defs>
      <g>
       <use xlink:href="#me2cd459f36" x="42.99503" y="99.281693" style="stroke: #000000"/>
      </g>
     </g>
     <g id="line2d_2">
      <defs>
       <path id="m91653385ca" d="M 0 0 
L 0 4 
" style="stroke: #000000"/>
      </defs>
      <g>
       <use xlink:href="#m91653385ca" x="42.99503" y="7.2" style="stroke: #000000"/>
      </g>
     </g>
     <g id="text_1">
      <text style="font-size: 10px; font-family: 'cmss10', sans-serif; text-anchor: middle" x="42.99503" y="109.720755" transform="rotate(-0 42.99503 109.720755)">0</text>
     </g>
    </g>
    <g id="xtick_2">
     <g id="line2d_3">
      <g>
       <use xlink:href="#me2cd459f36" x="80.819589" y="99.281693" style="stroke: #000000"/>
      </g>
     </g>
     <g id="line2d_4">
      <g>
       <use xlink:href="#m91653385ca" x="80.819589" y="7.2" style="stroke: #000000"/>
      </g>
     </g>
     <g id="text_2">
      <text style="font-size: 10px; font-family: 'cmss10', sans-serif; text-anchor: middle" x="80.819589" y="109.720755" transform="rotate(-0 80.819589 109.720755)">25</text>
     </g>
    </g>
    <g id="xtick_3">
     <g id="line2d_5">
      <g>
       <use xlink:href="#me2cd459f36" x="118.644149" y="99.281693" style="stroke: #000000"/>
      </g>
     </g>
     <g id="line2d_6">
      <g>
       <use xlink:href="#m91653385ca" x="118.644149" y="7.2" style="stroke: #000000"/>
      </g>
     </g>
     <g id="text_3">
      <text style="font-size: 10px; font-family: 'cmss10', sans-serif; text-anchor: middle" x="118.644149" y="109.720755" transform="rotate(-0 118.644149 109.720755)">50</text>
     </g>
    </g>
    <g id="xtick_4">
     <g id="line2d_7">
      <g>
       <use xlink:href="#me2cd459f36" x="156.468708" y="99.281693" style="stroke: #000000"/>
      </g>
     </g>
     <g id="line2d_8">
      <g>
       <use xlink:href="#m91653385ca" x="156.468708" y="7.2" style="stroke: #000000"/>
      </g>
     </g>
     <g id="text_4">
      <text style="font-size: 10px; font-family: 'cmss10', sans-serif; text-anchor: middle" x="156.468708" y="109.720755" transform="rotate(-0 156.468708 109.720755)">75</text>
     </g>
    </g>
    <g id="xtick_5">
     <g id="line2d_9">
      <g>
       <use xlink:href="#me2cd459f36" x="194.293267" y="99.281693" style="stroke: #000000"/>
      </g>
     </g>
     <g id="line2d_10">
      <g>
       <use xlink:href="#m91653385ca" x="194.293267" y="7.2" style="stroke: #000000"/>
      </g>
     </g>
     <g id="text_5">
      <text style="font-size: 10px; font-family: 'cmss10', sans-serif; text-anchor: middle" x="194.293267" y="109.720755" transform="rotate(-0 194.293267 109.720755)">100</text>
     </g>
    </g>
    <g id="text_6">
     <text style="font-size: 10px; font-family: 'cmss10', sans-serif; text-anchor: middle" x="119.40064" y="123.159818" transform="rotate(-0 119.40064 123.159818)">Velocity in m/s</text>
    </g>
   </g>
   <g id="matplotlib.axis_2">
    <g id="ytick_1">
     <g id="line2d_11">
      <defs>
       <path id="mebbdf73333" d="M 0 0 
L 4 0 
" style="stroke: #000000"/>
      </defs>
      <g>
       <use xlink:href="#mebbdf73333" x="37.01875" y="82.064327" style="stroke: #000000"/>
      </g>
     </g>
     <g id="line2d_12">
      <defs>
       <path id="m1b3dfee9fe" d="M 0 0 
L -4 0 
" style="stroke: #000000"/>
      </defs>
      <g>
       <use xlink:href="#m1b3dfee9fe" x="201.78253" y="82.064327" style="stroke: #000000"/>
      </g>
     </g>
     <g id="text_7">
      <text style="font-size: 10px; font-family: 'cmss10', sans-serif; text-anchor: end" x="33.51875" y="85.533858" transform="rotate(-0 33.51875 85.533858)">0.4</text>
     </g>
    </g>
    <g id="ytick_2">
     <g id="line2d_13">
      <g>
       <use xlink:href="#mebbdf73333" x="37.01875" y="58.302067" style="stroke: #000000"/>
      </g>
     </g>
     <g id="line2d_14">
      <g>
       <use xlink:href="#m1b3dfee9fe" x="201.78253" y="58.302067" style="stroke: #000000"/>
      </g>
     </g>
     <g id="text_8">
      <text style="font-size: 10px; font-family: 'cmss10', sans-serif; text-anchor: end" x="33.51875" y="61.771599" transform="rotate(-0 33.51875 61.771599)">0.6</text>
     </g>
    </g>
    <g id="ytick_3">
     <g id="line2d_15">
      <g>
       <use xlink:href="#mebbdf73333" x="37.01875" y="34.539808" style="stroke: #000000"/>
      </g>
     </g>
     <g id="line2d_16">
      <g>
       <use xlink:href="#m1b3dfee9fe" x="201.78253" y="34.539808" style="stroke: #000000"/>
      </g>
     </g>
     <g id="text_9">
      <text style="font-size: 10px; font-family: 'cmss10', sans-serif; text-anchor: end" x="33.51875" y="38.009339" transform="rotate(-0 33.51875 38.009339)">0.8</text>
     </g>
    </g>
    <g id="ytick_4">
     <g id="line2d_17">
      <g>
       <use xlink:href="#mebbdf73333" x="37.01875" y="10.777549" style="stroke: #000000"/>
      </g>
     </g>
     <g id="line2d_18">
      <g>
       <use xlink:href="#m1b3dfee9fe" x="201.78253" y="10.777549" style="stroke: #000000"/>
      </g>
     </g>
     <g id="text_10">
      <text style="font-size: 10px; font-family: 'cmss10', sans-serif; text-anchor: end" x="33.51875" y="14.24708" transform="rotate(-0 33.51875 14.24708)">1.0</text>
     </g>
    </g>
    <g id="text_11">
     <!-- $\frac{F_a}{F_{a}^0}$    -->
     <g transform="translate(7.2 46.140846)">
      <text>
       <tspan x="0" y="-5.892188" style="font-style: oblique; font-size: 7px; font-family: 'DejaVu Sans'">F</tspan>
       <tspan x="0" y="4.766562" style="font-style: oblique; font-size: 7px; font-family: 'DejaVu Sans'">F</tspan>
       <tspan x="4.026367" y="-4.74375" style="font-style: oblique; font-size: 4.9px; font-family: 'DejaVu Sans'">a</tspan>
       <tspan x="4.026367" y="6.680625" style="font-style: oblique; font-size: 4.9px; font-family: 'DejaVu Sans'">a</tspan>
       <tspan x="4.518154" y="2.086875" style="font-size: 4.9px; font-family: 'DejaVu Sans'">0</tspan>
       <tspan x="9.077089" y="-0.292031" style="font-size: 10px; font-family: 'cmss10'"> </tspan>
       <tspan x="12.407167" y="-0.292031" style="font-size: 10px; font-family: 'cmss10'"> </tspan>
       <tspan x="15.737245" y="-0.292031" style="font-size: 10px; font-family: 'cmss10'"> </tspan>
      </text>
      <rect x="0" y="-3.174844" width="7.827089" height="0.625"/>
     </g>
    </g>
   </g>
   <g id="line2d_19">
    <path d="M 44.508013 15.472877 
L 46.020995 17.340026 
L 47.533977 19.629148 
L 49.04696 22.081061 
L 50.559942 24.600568 
L 52.072925 27.139887 
L 53.585907 29.665911 
L 55.098889 32.152775 
L 56.611872 34.580541 
L 58.124854 36.93474 
L 59.637836 39.205709 
L 61.150819 41.387742 
L 62.663801 43.478215 
L 64.176783 45.4768 
L 65.689766 47.384819 
L 67.202748 49.204726 
L 68.715731 50.939718 
L 70.228713 52.593444 
L 71.741695 54.169796 
L 73.254678 55.672754 
L 74.76766 57.106283 
L 76.280642 58.474261 
L 77.793625 59.780434 
L 79.306607 61.028382 
L 80.819589 62.221506 
L 82.332572 63.36302 
L 83.845554 64.455951 
L 85.358537 65.503137 
L 86.871519 66.507239 
L 88.384501 67.470745 
L 89.897484 68.395981 
L 91.410466 69.285118 
L 92.923448 70.140183 
L 94.436431 70.963069 
L 95.949413 71.755541 
L 97.462395 72.519247 
L 98.975378 73.255729 
L 100.48836 73.966424 
L 102.001343 74.652677 
L 103.514325 75.315745 
L 105.027307 75.956806 
L 106.54029 76.576961 
L 108.053272 77.177241 
L 109.566254 77.758615 
L 111.079237 78.321992 
L 112.592219 78.868222 
L 114.105201 79.398107 
L 115.618184 79.912399 
L 117.131166 80.411808 
L 118.644149 80.896999 
L 120.157131 81.3686 
L 121.670113 81.827205 
L 123.183096 82.273371 
L 124.696078 82.707627 
L 126.20906 83.130469 
L 127.722043 83.54237 
L 129.235025 83.943775 
L 130.748007 84.335106 
L 132.26099 84.716762 
L 133.773972 85.089121 
L 135.286955 85.452543 
L 136.799937 85.807369 
L 138.312919 86.153922 
L 139.825902 86.492509 
L 141.338884 86.823423 
L 142.851866 87.146942 
L 144.364849 87.46333 
L 145.877831 87.772838 
L 147.390814 88.075709 
L 148.903796 88.372169 
L 150.416778 88.662437 
L 151.929761 88.946722 
L 153.442743 89.225223 
L 154.955725 89.498129 
L 156.468708 89.765622 
L 157.98169 90.027876 
L 159.494672 90.285058 
L 161.007655 90.537325 
L 162.520637 90.784831 
L 164.03362 91.02772 
L 165.546602 91.266134 
L 167.059584 91.500207 
L 168.572567 91.730066 
L 170.085549 91.955836 
L 171.598531 92.177635 
L 173.111514 92.395576 
L 174.624496 92.60977 
L 176.137478 92.820322 
L 177.650461 93.027332 
L 179.163443 93.230899 
L 180.676426 93.431115 
L 182.189408 93.628071 
L 183.70239 93.821855 
L 185.215373 94.012549 
L 186.728355 94.200234 
L 188.241337 94.384989 
L 189.75432 94.566888 
L 191.267302 94.746003 
L 192.780284 94.922405 
L 194.293267 95.096161 
" clip-path="url(#p75c06daf6c)" style="fill: none; stroke: #8000ff; stroke-linecap: square"/>
   </g>
   <g id="line2d_20">
    <path d="M 44.508013 13.137251 
L 46.020995 14.070826 
L 47.533977 15.215442 
L 49.04696 16.44222 
L 50.559942 17.706561 
L 52.072925 18.990772 
L 53.585907 20.286536 
L 55.098889 21.589159 
L 56.611872 22.89535 
L 58.124854 24.202285 
L 59.637836 25.507236 
L 61.150819 26.807478 
L 62.663801 28.100304 
L 64.176783 29.3831 
L 65.689766 30.653417 
L 67.202748 31.909019 
L 68.715731 33.147928 
L 70.228713 34.368436 
L 71.741695 35.569108 
L 73.254678 36.748772 
L 74.76766 37.906505 
L 76.280642 39.041607 
L 77.793625 40.15358 
L 79.306607 41.242106 
L 80.819589 42.30702 
L 82.332572 43.348291 
L 83.845554 44.366003 
L 85.358537 45.360332 
L 86.871519 46.331536 
L 88.384501 47.279937 
L 89.897484 48.205911 
L 91.410466 49.109873 
L 92.923448 49.992274 
L 94.436431 50.853588 
L 95.949413 51.694307 
L 97.462395 52.514935 
L 98.975378 53.315986 
L 100.48836 54.097974 
L 102.001343 54.861415 
L 103.514325 55.606822 
L 105.027307 56.334704 
L 106.54029 57.045562 
L 108.053272 57.739887 
L 109.566254 58.418165 
L 111.079237 59.080869 
L 112.592219 59.728459 
L 114.105201 60.361387 
L 115.618184 60.980091 
L 117.131166 61.584997 
L 118.644149 62.176519 
L 120.157131 62.755059 
L 121.670113 63.321006 
L 123.183096 63.874738 
L 124.696078 64.416619 
L 126.20906 64.947003 
L 127.722043 65.466232 
L 129.235025 65.974637 
L 130.748007 66.472537 
L 132.26099 66.960241 
L 133.773972 67.438048 
L 135.286955 67.906245 
L 136.799937 68.365112 
L 138.312919 68.814917 
L 139.825902 69.255921 
L 141.338884 69.688374 
L 142.851866 70.112519 
L 144.364849 70.528589 
L 145.877831 70.936812 
L 147.390814 71.337405 
L 148.903796 71.730579 
L 150.416778 72.116539 
L 151.929761 72.495481 
L 153.442743 72.867596 
L 154.955725 73.233068 
L 156.468708 73.592074 
L 157.98169 73.944786 
L 159.494672 74.291371 
L 161.007655 74.631989 
L 162.520637 74.966795 
L 164.03362 75.29594 
L 165.546602 75.619569 
L 167.059584 75.937822 
L 168.572567 76.250837 
L 170.085549 76.558743 
L 171.598531 76.86167 
L 173.111514 77.15974 
L 174.624496 77.453073 
L 176.137478 77.741784 
L 177.650461 78.025987 
L 179.163443 78.305789 
L 180.676426 78.581295 
L 182.189408 78.852608 
L 183.70239 79.119827 
L 185.215373 79.383047 
L 186.728355 79.642361 
L 188.241337 79.897861 
L 189.75432 80.149632 
L 191.267302 80.39776 
L 192.780284 80.642328 
L 194.293267 80.883414 
" clip-path="url(#p75c06daf6c)" style="fill: none; stroke: #2adddd; stroke-linecap: square"/>
   </g>
   <g id="line2d_21">
    <path d="M 44.508013 11.969438 
L 46.020995 12.436225 
L 47.533977 13.008533 
L 49.04696 13.621922 
L 50.559942 14.254095 
L 52.072925 14.896224 
L 53.585907 15.544232 
L 55.098889 16.195996 
L 56.611872 16.850303 
L 58.124854 17.506411 
L 59.637836 18.163834 
L 61.150819 18.822239 
L 62.663801 19.481376 
L 64.176783 20.141043 
L 65.689766 20.801055 
L 67.202748 21.461231 
L 68.715731 22.121382 
L 70.228713 22.781302 
L 71.741695 23.440767 
L 73.254678 24.099532 
L 74.76766 24.757335 
L 76.280642 25.413899 
L 77.793625 26.068935 
L 79.306607 26.722147 
L 80.819589 27.373233 
L 82.332572 28.021893 
L 83.845554 28.667828 
L 85.358537 29.310748 
L 86.871519 29.950371 
L 88.384501 30.586425 
L 89.897484 31.218653 
L 91.410466 31.846811 
L 92.923448 32.470669 
L 94.436431 33.090016 
L 95.949413 33.704655 
L 97.462395 34.314405 
L 98.975378 34.919101 
L 100.48836 35.518597 
L 102.001343 36.112758 
L 103.514325 36.701467 
L 105.027307 37.28462 
L 106.54029 37.862128 
L 108.053272 38.433913 
L 109.566254 38.999911 
L 111.079237 39.560069 
L 112.592219 40.114346 
L 114.105201 40.662709 
L 115.618184 41.205136 
L 117.131166 41.741613 
L 118.644149 42.272136 
L 120.157131 42.796707 
L 121.670113 43.315334 
L 123.183096 43.828034 
L 124.696078 44.334827 
L 126.20906 44.835741 
L 127.722043 45.330806 
L 129.235025 45.820059 
L 130.748007 46.30354 
L 132.26099 46.781292 
L 133.773972 47.253363 
L 135.286955 47.7198 
L 136.799937 48.180657 
L 138.312919 48.635989 
L 139.825902 49.08585 
L 141.338884 49.5303 
L 142.851866 49.969398 
L 144.364849 50.403205 
L 145.877831 50.831782 
L 147.390814 51.255193 
L 148.903796 51.673501 
L 150.416778 52.08677 
L 151.929761 52.495065 
L 153.442743 52.898451 
L 154.955725 53.296992 
L 156.468708 53.690753 
L 157.98169 54.079801 
L 159.494672 54.464199 
L 161.007655 54.844013 
L 162.520637 55.219306 
L 164.03362 55.590144 
L 165.546602 55.95659 
L 167.059584 56.318707 
L 168.572567 56.676557 
L 170.085549 57.030204 
L 171.598531 57.37971 
L 173.111514 57.725134 
L 174.624496 58.066538 
L 176.137478 58.403981 
L 177.650461 58.737523 
L 179.163443 59.067221 
L 180.676426 59.393134 
L 182.189408 59.715319 
L 183.70239 60.033831 
L 185.215373 60.348726 
L 186.728355 60.660059 
L 188.241337 60.967883 
L 189.75432 61.272253 
L 191.267302 61.573219 
L 192.780284 61.870834 
L 194.293267 62.165148 
" clip-path="url(#p75c06daf6c)" style="fill: none; stroke: #d4dd80; stroke-linecap: square"/>
   </g>
   <g id="line2d_22">
    <path d="M 44.508013 11.385531 
L 46.020995 11.618925 
L 47.533977 11.905079 
L 49.04696 12.211774 
L 50.559942 12.52786 
L 52.072925 12.848924 
L 53.585907 13.172928 
L 55.098889 13.49881 
L 56.611872 13.825964 
L 58.124854 14.154019 
L 59.637836 14.482736 
L 61.150819 14.811952 
L 62.663801 15.141555 
L 64.176783 15.471464 
L 65.689766 15.801618 
L 67.202748 16.131973 
L 68.715731 16.462493 
L 70.228713 16.793152 
L 71.741695 17.123926 
L 73.254678 17.4548 
L 74.76766 17.785757 
L 76.280642 18.116786 
L 77.793625 18.447875 
L 79.306607 18.779014 
L 80.819589 19.110193 
L 82.332572 19.441402 
L 83.845554 19.77263 
L 85.358537 20.103867 
L 86.871519 20.4351 
L 88.384501 20.766315 
L 89.897484 21.097499 
L 91.410466 21.428634 
L 92.923448 21.759703 
L 94.436431 22.090685 
L 95.949413 22.42156 
L 97.462395 22.752304 
L 98.975378 23.082892 
L 100.48836 23.413297 
L 102.001343 23.743493 
L 103.514325 24.073448 
L 105.027307 24.403133 
L 106.54029 24.732515 
L 108.053272 25.061561 
L 109.566254 25.390238 
L 111.079237 25.718509 
L 112.592219 26.04634 
L 114.105201 26.373696 
L 115.618184 26.700539 
L 117.131166 27.026833 
L 118.644149 27.352541 
L 120.157131 27.677627 
L 121.670113 28.002054 
L 123.183096 28.325787 
L 124.696078 28.648788 
L 126.20906 28.971023 
L 127.722043 29.292457 
L 129.235025 29.613055 
L 130.748007 29.932783 
L 132.26099 30.251609 
L 133.773972 30.5695 
L 135.286955 30.886425 
L 136.799937 31.202354 
L 138.312919 31.517256 
L 139.825902 31.831103 
L 141.338884 32.143867 
L 142.851866 32.455522 
L 144.364849 32.766041 
L 145.877831 33.0754 
L 147.390814 33.383575 
L 148.903796 33.690543 
L 150.416778 33.996283 
L 151.929761 34.300773 
L 153.442743 34.603994 
L 154.955725 34.905927 
L 156.468708 35.206554 
L 157.98169 35.505858 
L 159.494672 35.803824 
L 161.007655 36.100435 
L 162.520637 36.395679 
L 164.03362 36.689541 
L 165.546602 36.982009 
L 167.059584 37.273073 
L 168.572567 37.562721 
L 170.085549 37.850943 
L 171.598531 38.13773 
L 173.111514 38.423075 
L 174.624496 38.706968 
L 176.137478 38.989404 
L 177.650461 39.270377 
L 179.163443 39.549881 
L 180.676426 39.82791 
L 182.189408 40.104462 
L 183.70239 40.379532 
L 185.215373 40.653117 
L 186.728355 40.925215 
L 188.241337 41.195824 
L 189.75432 41.464943 
L 191.267302 41.732571 
L 192.780284 41.998707 
L 194.293267 42.263352 
" clip-path="url(#p75c06daf6c)" style="fill: none; stroke: #ff0000; stroke-linecap: square"/>
   </g>
   <g id="patch_3">
    <path d="M 37.01875 99.281693 
L 37.01875 7.2 
" style="fill: none; stroke: #000000; stroke-width: 0.8; stroke-linejoin: miter; stroke-linecap: square"/>
   </g>
   <g id="patch_4">
    <path d="M 201.78253 99.281693 
L 201.78253 7.2 
" style="fill: none; stroke: #000000; stroke-width: 0.8; stroke-linejoin: miter; stroke-linecap: square"/>
   </g>
   <g id="patch_5">
    <path d="M 37.01875 99.281693 
L 201.78253 99.281693 
" style="fill: none; stroke: #000000; stroke-width: 0.8; stroke-linejoin: miter; stroke-linecap: square"/>
   </g>
   <g id="patch_6">
    <path d="M 37.01875 7.2 
L 201.78253 7.2 
" style="fill: none; stroke: #000000; stroke-width: 0.8; stroke-linejoin: miter; stroke-linecap: square"/>
   </g>
   <g id="legend_1">
    <g id="patch_7">
     <path d="M 44.01875 94.281693 
L 113.235937 94.281693 
Q 115.235937 94.281693 115.235937 92.281693 
L 115.235937 37.525443 
Q 115.235937 35.525443 113.235937 35.525443 
L 44.01875 35.525443 
Q 42.01875 35.525443 42.01875 37.525443 
L 42.01875 92.281693 
Q 42.01875 94.281693 44.01875 94.281693 
z
" style="fill: #ffffff; opacity: 0.8; stroke: #cccccc; stroke-linejoin: miter"/>
    </g>
    <g id="line2d_23">
     <path d="M 46.01875 43.025443 
L 56.01875 43.025443 
L 66.01875 43.025443 
" style="fill: none; stroke: #8000ff; stroke-linecap: square"/>
    </g>
    <g id="text_12">
     <text style="font-size: 10px; font-family: 'cmss10', sans-serif; text-anchor: start" x="74.01875" y="46.525443" transform="rotate(-0 74.01875 46.525443)">L=0.5 m</text>
    </g>
    <g id="line2d_24">
     <path d="M 46.01875 56.964505 
L 56.01875 56.964505 
L 66.01875 56.964505 
" style="fill: none; stroke: #2adddd; stroke-linecap: square"/>
    </g>
    <g id="text_13">
     <text style="font-size: 10px; font-family: 'cmss10', sans-serif; text-anchor: start" x="74.01875" y="60.464505" transform="rotate(-0 74.01875 60.464505)">L=1 m</text>
    </g>
    <g id="line2d_25">
     <path d="M 46.01875 70.903568 
L 56.01875 70.903568 
L 66.01875 70.903568 
" style="fill: none; stroke: #d4dd80; stroke-linecap: square"/>
    </g>
    <g id="text_14">
     <text style="font-size: 10px; font-family: 'cmss10', sans-serif; text-anchor: start" x="74.01875" y="74.403568" transform="rotate(-0 74.01875 74.403568)">L=2 m</text>
    </g>
    <g id="line2d_26">
     <path d="M 46.01875 84.84263 
L 56.01875 84.84263 
L 66.01875 84.84263 
" style="fill: none; stroke: #ff0000; stroke-linecap: square"/>
    </g>
    <g id="text_15">
     <text style="font-size: 10px; font-family: 'cmss10', sans-serif; text-anchor: start" x="74.01875" y="88.34263" transform="rotate(-0 74.01875 88.34263)">L=4 m</text>
    </g>
   </g>
  </g>
 </g>
 <defs>
  <clipPath id="p75c06daf6c">
   <rect x="37.01875" y="7.2" width="164.76378" height="92.081693"/>
  </clipPath>
 </defs>
</svg>
