<?xml version="1.0" encoding="utf-8" standalone="no"?>
<!DOCTYPE svg PUBLIC "-//W3C//DTD SVG 1.1//EN"
  "http://www.w3.org/Graphics/SVG/1.1/DTD/svg11.dtd">
<svg xmlns:xlink="http://www.w3.org/1999/xlink" width="211.024517pt" height="132.862943pt" viewBox="0 0 211.024517 132.862943" xmlns="http://www.w3.org/2000/svg" version="1.1">
 <metadata>
  <rdf:RDF xmlns:dc="http://purl.org/dc/elements/1.1/" xmlns:cc="http://creativecommons.org/ns#" xmlns:rdf="http://www.w3.org/1999/02/22-rdf-syntax-ns#">
   <cc:Work>
    <dc:type rdf:resource="http://purl.org/dc/dcmitype/StillImage"/>
    <dc:date>2026-03-24T12:08:37.141141</dc:date>
    <dc:format>image/svg+xml</dc:format>
    <dc:creator>
     <cc:Agent>
      <dc:title>Matplotlib v3.10.8, https://matplotlib.org/</dc:title>
     </cc:Agent>
    </dc:creator>
   </cc:Work>
  </rdf:RDF>
 </metadata>
 <defs>
  <style type="text/css">*{stroke-linejoin: round; stroke-linecap: butt}</style>
 </defs>
 <g id="figure_1">
  <g id="patch_1">
   <path d="M 0 132.862943 
L 211.024517 132.862943 
L 211.024517 0 
L 0 0 
z
" style="fill: #ffffff"/>
  </g>
  <g id="axes_1">
   <g id="patch_2">
    <path d="M 39.05 99.281693 
L 203.81378 99.281693 
L 203.81378 7.2 
L 39.05 7.2 
z
" style="fill: #ffffff"/>
   </g>
   <g id="matplotlib.axis_1">
    <g id="xtick_1">
     <g id="line2d_1">
      <defs>
       <path id="m4954f20a17" d="M 0 0 
L 0 -4 
" style="stroke: #000000"/>
      </defs>
      <g>
       <use xlink:href="#m4954f20a17" x="45.02628" y="99.281693" style="stroke: #000000"/>
      </g>
     </g>
     <g id="line2d_2">
      <defs>
       <path id="m7620660b77" d="M 0 0 
L 0 4 
" style="stroke: #000000"/>
      </defs>
      <g>
       <use xlink:href="#m7620660b77" x="45.02628" y="7.2" style="stroke: #000000"/>
      </g>
     </g>
     <g id="text_1">
      <text style="font-size: 10px; font-family: 'NewComputerModern'; text-anchor: middle" x="45.02628" y="109.722318" transform="rotate(-0 45.02628 109.722318)">0</text>
     </g>
    </g>
    <g id="xtick_2">
     <g id="line2d_3">
      <g>
       <use xlink:href="#m4954f20a17" x="82.850839" y="99.281693" style="stroke: #000000"/>
      </g>
     </g>
     <g id="line2d_4">
      <g>
       <use xlink:href="#m7620660b77" x="82.850839" y="7.2" style="stroke: #000000"/>
      </g>
     </g>
     <g id="text_2">
      <text style="font-size: 10px; font-family: 'NewComputerModern'; text-anchor: middle" x="82.850839" y="109.722318" transform="rotate(-0 82.850839 109.722318)">25</text>
     </g>
    </g>
    <g id="xtick_3">
     <g id="line2d_5">
      <g>
       <use xlink:href="#m4954f20a17" x="120.675399" y="99.281693" style="stroke: #000000"/>
      </g>
     </g>
     <g id="line2d_6">
      <g>
       <use xlink:href="#m7620660b77" x="120.675399" y="7.2" style="stroke: #000000"/>
      </g>
     </g>
     <g id="text_3">
      <text style="font-size: 10px; font-family: 'NewComputerModern'; text-anchor: middle" x="120.675399" y="109.722318" transform="rotate(-0 120.675399 109.722318)">50</text>
     </g>
    </g>
    <g id="xtick_4">
     <g id="line2d_7">
      <g>
       <use xlink:href="#m4954f20a17" x="158.499958" y="99.281693" style="stroke: #000000"/>
      </g>
     </g>
     <g id="line2d_8">
      <g>
       <use xlink:href="#m7620660b77" x="158.499958" y="7.2" style="stroke: #000000"/>
      </g>
     </g>
     <g id="text_4">
      <text style="font-size: 10px; font-family: 'NewComputerModern'; text-anchor: middle" x="158.499958" y="109.722318" transform="rotate(-0 158.499958 109.722318)">75</text>
     </g>
    </g>
    <g id="xtick_5">
     <g id="line2d_9">
      <g>
       <use xlink:href="#m4954f20a17" x="196.324517" y="99.281693" style="stroke: #000000"/>
      </g>
     </g>
     <g id="line2d_10">
      <g>
       <use xlink:href="#m7620660b77" x="196.324517" y="7.2" style="stroke: #000000"/>
      </g>
     </g>
     <g id="text_5">
      <text style="font-size: 10px; font-family: 'NewComputerModern'; text-anchor: middle" x="196.324517" y="109.722318" transform="rotate(-0 196.324517 109.722318)">100</text>
     </g>
    </g>
    <g id="text_6">
     <text style="font-size: 10px; font-family: 'NewComputerModern'; text-anchor: middle" x="121.43189" y="123.162943" transform="rotate(-0 121.43189 123.162943)">Velocity in m/s</text>
    </g>
   </g>
   <g id="matplotlib.axis_2">
    <g id="ytick_1">
     <g id="line2d_11">
      <defs>
       <path id="mbffdbc1b56" d="M 0 0 
L 4 0 
" style="stroke: #000000"/>
      </defs>
      <g>
       <use xlink:href="#mbffdbc1b56" x="39.05" y="98.076231" style="stroke: #000000"/>
      </g>
     </g>
     <g id="line2d_12">
      <defs>
       <path id="mef7782302b" d="M 0 0 
L -4 0 
" style="stroke: #000000"/>
      </defs>
      <g>
       <use xlink:href="#mef7782302b" x="203.81378" y="98.076231" style="stroke: #000000"/>
      </g>
     </g>
     <g id="text_7">
      <text style="font-size: 10px; font-family: 'NewComputerModern'; text-anchor: end" x="35.55" y="101.546544" transform="rotate(-0 35.55 101.546544)">0</text>
     </g>
    </g>
    <g id="ytick_2">
     <g id="line2d_13">
      <g>
       <use xlink:href="#mbffdbc1b56" x="39.05" y="71.702234" style="stroke: #000000"/>
      </g>
     </g>
     <g id="line2d_14">
      <g>
       <use xlink:href="#mef7782302b" x="203.81378" y="71.702234" style="stroke: #000000"/>
      </g>
     </g>
     <g id="text_8">
      <text style="font-size: 10px; font-family: 'NewComputerModern'; text-anchor: end" x="35.55" y="75.172547" transform="rotate(-0 35.55 75.172547)">100</text>
     </g>
    </g>
    <g id="ytick_3">
     <g id="line2d_15">
      <g>
       <use xlink:href="#mbffdbc1b56" x="39.05" y="45.328237" style="stroke: #000000"/>
      </g>
     </g>
     <g id="line2d_16">
      <g>
       <use xlink:href="#mef7782302b" x="203.81378" y="45.328237" style="stroke: #000000"/>
      </g>
     </g>
     <g id="text_9">
      <text style="font-size: 10px; font-family: 'NewComputerModern'; text-anchor: end" x="35.55" y="48.798549" transform="rotate(-0 35.55 48.798549)">200</text>
     </g>
    </g>
    <g id="ytick_4">
     <g id="line2d_17">
      <g>
       <use xlink:href="#mbffdbc1b56" x="39.05" y="18.954239" style="stroke: #000000"/>
      </g>
     </g>
     <g id="line2d_18">
      <g>
       <use xlink:href="#mef7782302b" x="203.81378" y="18.954239" style="stroke: #000000"/>
      </g>
     </g>
     <g id="text_10">
      <text style="font-size: 10px; font-family: 'NewComputerModern'; text-anchor: end" x="35.55" y="22.424552" transform="rotate(-0 35.55 22.424552)">300</text>
     </g>
    </g>
    <g id="text_11">
     <!-- $\frac{F_a}{F_b}$    -->
     <g transform="translate(7.2 48.140846)">
      <text>
       <tspan x="0" y="-5.05625" style="font-size: 7px; font-family: 'NewComputerModern Math'">F</tspan>
       <tspan x="0" y="4.030781" style="font-size: 7px; font-family: 'NewComputerModern Math'">F</tspan>
       <tspan x="4.570988" y="-4.091563" style="font-size: 4.9px; font-family: 'NewComputerModern Math'">a</tspan>
       <tspan x="4.570988" y="4.995469" style="font-size: 4.9px; font-family: 'NewComputerModern Math'">b</tspan>
       <tspan x="8.706161" y="-0.155156" style="font-size: 10px; font-family: 'NewComputerModern'"> </tspan>
       <tspan x="12.036148" y="-0.155156" style="font-size: 10px; font-family: 'NewComputerModern'"> </tspan>
       <tspan x="15.366134" y="-0.155156" style="font-size: 10px; font-family: 'NewComputerModern'"> </tspan>
      </text>
      <rect x="0" y="-2.537969" width="7.456161" height="0.625"/>
     </g>
    </g>
   </g>
   <g id="line2d_19">
    <path d="M 46.539263 87.614603 
L 48.052245 91.526797 
L 49.565227 92.639261 
L 51.07821 93.166363 
L 52.591192 93.492558 
L 54.104175 93.72643 
L 55.617157 93.907968 
L 57.130139 94.055108 
L 58.643122 94.177371 
L 60.156104 94.280567 
L 61.669086 94.368627 
L 63.182069 94.444406 
L 64.695051 94.510069 
L 66.208033 94.567306 
L 67.721016 94.617462 
L 69.233998 94.661622 
L 70.746981 94.700671 
L 72.259963 94.735337 
L 73.772945 94.766224 
L 75.285928 94.793836 
L 76.79891 94.818596 
L 78.311892 94.840862 
L 79.824875 94.860938 
L 81.337857 94.879084 
L 82.850839 94.895524 
L 84.363822 94.910449 
L 85.876804 94.924026 
L 87.389787 94.936401 
L 88.902769 94.947699 
L 90.415751 94.958031 
L 91.928734 94.967496 
L 93.441716 94.976178 
L 94.954698 94.984155 
L 96.467681 94.991493 
L 97.980663 94.998252 
L 99.493645 95.004487 
L 101.006628 95.010244 
L 102.51961 95.015567 
L 104.032593 95.020495 
L 105.545575 95.025061 
L 107.058557 95.029297 
L 108.57154 95.033232 
L 110.084522 95.03689 
L 111.597504 95.040295 
L 113.110487 95.043468 
L 114.623469 95.046427 
L 116.136451 95.04919 
L 117.649434 95.051773 
L 119.162416 95.054189 
L 120.675399 95.056452 
L 122.188381 95.058574 
L 123.701363 95.060566 
L 125.214346 95.062437 
L 126.727328 95.064197 
L 128.24031 95.065854 
L 129.753293 95.067416 
L 131.266275 95.068889 
L 132.779257 95.070281 
L 134.29224 95.071597 
L 135.805222 95.072842 
L 137.318205 95.074022 
L 138.831187 95.075142 
L 140.344169 95.076204 
L 141.857152 95.077214 
L 143.370134 95.078175 
L 144.883116 95.079091 
L 146.396099 95.079964 
L 147.909081 95.080797 
L 149.422064 95.081593 
L 150.935046 95.082355 
L 152.448028 95.083084 
L 153.961011 95.083782 
L 155.473993 95.084453 
L 156.986975 95.085097 
L 158.499958 95.085715 
L 160.01294 95.086311 
L 161.525922 95.086884 
L 163.038905 95.087437 
L 164.551887 95.08797 
L 166.06487 95.088485 
L 167.577852 95.088983 
L 169.090834 95.089465 
L 170.603817 95.089931 
L 172.116799 95.090383 
L 173.629781 95.090821 
L 175.142764 95.091247 
L 176.655746 95.09166 
L 178.168728 95.092061 
L 179.681711 95.092452 
L 181.194693 95.092832 
L 182.707676 95.093202 
L 184.220658 95.093563 
L 185.73364 95.093915 
L 187.246623 95.094258 
L 188.759605 95.094594 
L 190.272587 95.094921 
L 191.78557 95.095242 
L 193.298552 95.095555 
L 194.811534 95.095861 
L 196.324517 95.096161 
" clip-path="url(#pd77b42b13f)" style="fill: none; stroke: #ff0000; stroke-linecap: square"/>
   </g>
   <g id="line2d_20">
    <path d="M 46.539263 76.724736 
L 48.052245 84.595866 
L 49.565227 86.765964 
L 51.07821 87.743009 
L 52.591192 88.314214 
L 54.104175 88.705844 
L 55.617157 89.003338 
L 57.130139 89.245246 
L 58.643122 89.451181 
L 60.156104 89.631975 
L 61.669086 89.793985 
L 63.182069 89.941139 
L 64.695051 90.075985 
L 66.208033 90.200273 
L 67.721016 90.315271 
L 69.233998 90.421951 
L 70.746981 90.5211 
L 72.259963 90.613377 
L 73.772945 90.699356 
L 75.285928 90.779545 
L 76.79891 90.854401 
L 78.311892 90.924337 
L 79.824875 90.989732 
L 81.337857 91.050931 
L 82.850839 91.10825 
L 84.363822 91.161979 
L 85.876804 91.212384 
L 87.389787 91.259711 
L 88.902769 91.304182 
L 90.415751 91.346004 
L 91.928734 91.385365 
L 93.441716 91.42244 
L 94.954698 91.457387 
L 96.467681 91.490353 
L 97.980663 91.521473 
L 99.493645 91.550872 
L 101.006628 91.578663 
L 102.51961 91.604953 
L 104.032593 91.629838 
L 105.545575 91.653408 
L 107.058557 91.675747 
L 108.57154 91.696932 
L 110.084522 91.717033 
L 111.597504 91.736117 
L 113.110487 91.754245 
L 114.623469 91.771474 
L 116.136451 91.787857 
L 117.649434 91.803442 
L 119.162416 91.818276 
L 120.675399 91.832402 
L 122.188381 91.845858 
L 123.701363 91.858683 
L 125.214346 91.870912 
L 126.727328 91.882575 
L 128.24031 91.893705 
L 129.753293 91.904329 
L 131.266275 91.914474 
L 132.779257 91.924165 
L 134.29224 91.933426 
L 135.805222 91.942279 
L 137.318205 91.950744 
L 138.831187 91.958841 
L 140.344169 91.966589 
L 141.857152 91.974005 
L 143.370134 91.981104 
L 144.883116 91.987904 
L 146.396099 91.994417 
L 147.909081 92.000659 
L 149.422064 92.006641 
L 150.935046 92.012376 
L 152.448028 92.017876 
L 153.961011 92.023151 
L 155.473993 92.028213 
L 156.986975 92.033071 
L 158.499958 92.037734 
L 160.01294 92.042211 
L 161.525922 92.046511 
L 163.038905 92.050642 
L 164.551887 92.05461 
L 166.06487 92.058424 
L 167.577852 92.06209 
L 169.090834 92.065615 
L 170.603817 92.069005 
L 172.116799 92.072265 
L 173.629781 92.075402 
L 175.142764 92.078421 
L 176.655746 92.081326 
L 178.168728 92.084123 
L 179.681711 92.086816 
L 181.194693 92.08941 
L 182.707676 92.091908 
L 184.220658 92.094316 
L 185.73364 92.096635 
L 187.246623 92.098872 
L 188.759605 92.101027 
L 190.272587 92.103106 
L 191.78557 92.105111 
L 193.298552 92.107045 
L 194.811534 92.108911 
L 196.324517 92.110712 
" clip-path="url(#pd77b42b13f)" style="fill: none; stroke: #e6cd73; stroke-linecap: square"/>
   </g>
   <g id="line2d_21">
    <path d="M 46.539263 54.945001 
L 48.052245 70.734001 
L 49.565227 75.019219 
L 51.07821 76.894655 
L 52.591192 77.949735 
L 54.104175 78.641749 
L 55.617157 79.143701 
L 57.130139 79.534143 
L 58.643122 79.853645 
L 60.156104 80.125235 
L 61.669086 80.362939 
L 63.182069 80.57578 
L 64.695051 80.769807 
L 66.208033 80.949214 
L 67.721016 81.116979 
L 69.233998 81.275258 
L 70.746981 81.425632 
L 72.259963 81.569277 
L 73.772945 81.707071 
L 75.285928 81.839674 
L 76.79891 81.967591 
L 78.311892 82.091204 
L 79.824875 82.210814 
L 81.337857 82.326652 
L 82.850839 82.438907 
L 84.363822 82.547732 
L 85.876804 82.653254 
L 87.389787 82.755586 
L 88.902769 82.854825 
L 90.415751 82.951062 
L 91.928734 83.044381 
L 93.441716 83.134863 
L 94.954698 83.222584 
L 96.467681 83.30762 
L 97.980663 83.390045 
L 99.493645 83.469934 
L 101.006628 83.547358 
L 102.51961 83.62239 
L 104.032593 83.695099 
L 105.545575 83.765556 
L 107.058557 83.833831 
L 108.57154 83.899991 
L 110.084522 83.964104 
L 111.597504 84.026234 
L 113.110487 84.086446 
L 114.623469 84.144803 
L 116.136451 84.201365 
L 117.649434 84.256194 
L 119.162416 84.309346 
L 120.675399 84.360878 
L 122.188381 84.410845 
L 123.701363 84.4593 
L 125.214346 84.506295 
L 126.727328 84.551879 
L 128.24031 84.5961 
L 129.753293 84.639005 
L 131.266275 84.680639 
L 132.779257 84.721045 
L 134.29224 84.760265 
L 135.805222 84.79834 
L 137.318205 84.835308 
L 138.831187 84.871206 
L 140.344169 84.906072 
L 141.857152 84.939939 
L 143.370134 84.972841 
L 144.883116 85.004811 
L 146.396099 85.035879 
L 147.909081 85.066076 
L 149.422064 85.09543 
L 150.935046 85.123969 
L 152.448028 85.15172 
L 153.961011 85.178708 
L 155.473993 85.204958 
L 156.986975 85.230495 
L 158.499958 85.25534 
L 160.01294 85.279516 
L 161.525922 85.303045 
L 163.038905 85.325946 
L 164.551887 85.348241 
L 166.06487 85.369946 
L 167.577852 85.391082 
L 169.090834 85.411665 
L 170.603817 85.431713 
L 172.116799 85.451242 
L 173.629781 85.470268 
L 175.142764 85.488806 
L 176.655746 85.50687 
L 178.168728 85.524476 
L 179.681711 85.541636 
L 181.194693 85.558365 
L 182.707676 85.574674 
L 184.220658 85.590576 
L 185.73364 85.606083 
L 187.246623 85.621206 
L 188.759605 85.635957 
L 190.272587 85.650346 
L 191.78557 85.664383 
L 193.298552 85.678079 
L 194.811534 85.691443 
L 196.324517 85.704485 
" clip-path="url(#pd77b42b13f)" style="fill: none; stroke: #4df3ce; stroke-linecap: square"/>
   </g>
   <g id="line2d_22">
    <path d="M 46.539263 11.385531 
L 48.052245 43.010272 
L 49.565227 51.525729 
L 51.07821 55.197946 
L 52.591192 57.220765 
L 54.104175 58.513442 
L 55.617157 59.423852 
L 57.130139 60.109963 
L 58.643122 60.653379 
L 60.156104 61.100422 
L 61.669086 61.479328 
L 63.182069 61.808283 
L 64.695051 62.09953 
L 66.208033 62.361615 
L 67.721016 62.60068 
L 69.233998 62.821258 
L 70.746981 63.026764 
L 72.259963 63.21982 
L 73.772945 63.402472 
L 75.285928 63.576341 
L 76.79891 63.742726 
L 78.311892 63.902679 
L 79.824875 64.057061 
L 81.337857 64.206583 
L 82.850839 64.351833 
L 84.363822 64.493304 
L 85.876804 64.631409 
L 87.389787 64.766495 
L 88.902769 64.898856 
L 90.415751 65.028738 
L 91.928734 65.156352 
L 93.441716 65.281875 
L 94.954698 65.405457 
L 96.467681 65.527224 
L 97.980663 65.647281 
L 99.493645 65.76572 
L 101.006628 65.882614 
L 102.51961 65.998025 
L 104.032593 66.112006 
L 105.545575 66.224598 
L 107.058557 66.335838 
L 108.57154 66.445754 
L 110.084522 66.554369 
L 111.597504 66.661702 
L 113.110487 66.767769 
L 114.623469 66.872581 
L 116.136451 66.976148 
L 117.649434 67.078478 
L 119.162416 67.179578 
L 120.675399 67.279453 
L 122.188381 67.378108 
L 123.701363 67.475545 
L 125.214346 67.57177 
L 126.727328 67.666785 
L 128.24031 67.760595 
L 129.753293 67.853203 
L 131.266275 67.944612 
L 132.779257 68.034829 
L 134.29224 68.123856 
L 135.805222 68.2117 
L 137.318205 68.298365 
L 138.831187 68.383859 
L 140.344169 68.468188 
L 141.857152 68.551359 
L 143.370134 68.63338 
L 144.883116 68.714258 
L 146.396099 68.794003 
L 147.909081 68.872623 
L 149.422064 68.950127 
L 150.935046 69.026527 
L 152.448028 69.101831 
L 153.961011 69.176051 
L 155.473993 69.249197 
L 156.986975 69.321281 
L 158.499958 69.392314 
L 160.01294 69.462308 
L 161.525922 69.531275 
L 163.038905 69.599226 
L 164.551887 69.666174 
L 166.06487 69.732132 
L 167.577852 69.797112 
L 169.090834 69.861127 
L 170.603817 69.924189 
L 172.116799 69.986311 
L 173.629781 70.047506 
L 175.142764 70.107787 
L 176.655746 70.167167 
L 178.168728 70.225658 
L 179.681711 70.283273 
L 181.194693 70.340026 
L 182.707676 70.395928 
L 184.220658 70.450993 
L 185.73364 70.505233 
L 187.246623 70.558661 
L 188.759605 70.611288 
L 190.272587 70.663128 
L 191.78557 70.714192 
L 193.298552 70.764493 
L 194.811534 70.814043 
L 196.324517 70.862853 
" clip-path="url(#pd77b42b13f)" style="fill: none; stroke: #4e4dfc; stroke-linecap: square"/>
   </g>
   <g id="patch_3">
    <path d="M 39.05 99.281693 
L 39.05 7.2 
" style="fill: none; stroke: #000000; stroke-width: 0.8; stroke-linejoin: miter; stroke-linecap: square"/>
   </g>
   <g id="patch_4">
    <path d="M 203.81378 99.281693 
L 203.81378 7.2 
" style="fill: none; stroke: #000000; stroke-width: 0.8; stroke-linejoin: miter; stroke-linecap: square"/>
   </g>
   <g id="patch_5">
    <path d="M 39.05 99.281693 
L 203.81378 99.281693 
" style="fill: none; stroke: #000000; stroke-width: 0.8; stroke-linejoin: miter; stroke-linecap: square"/>
   </g>
   <g id="patch_6">
    <path d="M 39.05 7.2 
L 203.81378 7.2 
" style="fill: none; stroke: #000000; stroke-width: 0.8; stroke-linejoin: miter; stroke-linecap: square"/>
   </g>
   <g id="legend_1">
    <g id="patch_7">
     <path d="M 126.34503 70.9625 
L 196.81378 70.9625 
Q 198.81378 70.9625 198.81378 68.9625 
L 198.81378 14.2 
Q 198.81378 12.2 196.81378 12.2 
L 126.34503 12.2 
Q 124.34503 12.2 124.34503 14.2 
L 124.34503 68.9625 
Q 124.34503 70.9625 126.34503 70.9625 
z
" style="fill: #ffffff; opacity: 0.8; stroke: #cccccc; stroke-linejoin: miter"/>
    </g>
    <g id="line2d_23">
     <path d="M 128.34503 19.7 
L 138.34503 19.7 
L 148.34503 19.7 
" style="fill: none; stroke: #ff0000; stroke-linecap: square"/>
    </g>
    <g id="text_12">
     <text style="font-size: 10px; font-family: 'NewComputerModern'; text-anchor: start" x="156.34503" y="23.2" transform="rotate(-0 156.34503 23.2)">L=0.5 m</text>
    </g>
    <g id="line2d_24">
     <path d="M 128.34503 33.640625 
L 138.34503 33.640625 
L 148.34503 33.640625 
" style="fill: none; stroke: #e6cd73; stroke-linecap: square"/>
    </g>
    <g id="text_13">
     <text style="font-size: 10px; font-family: 'NewComputerModern'; text-anchor: start" x="156.34503" y="37.140625" transform="rotate(-0 156.34503 37.140625)">L=1 m</text>
    </g>
    <g id="line2d_25">
     <path d="M 128.34503 47.58125 
L 138.34503 47.58125 
L 148.34503 47.58125 
" style="fill: none; stroke: #4df3ce; stroke-linecap: square"/>
    </g>
    <g id="text_14">
     <text style="font-size: 10px; font-family: 'NewComputerModern'; text-anchor: start" x="156.34503" y="51.08125" transform="rotate(-0 156.34503 51.08125)">L=2 m</text>
    </g>
    <g id="line2d_26">
     <path d="M 128.34503 61.521875 
L 138.34503 61.521875 
L 148.34503 61.521875 
" style="fill: none; stroke: #4e4dfc; stroke-linecap: square"/>
    </g>
    <g id="text_15">
     <text style="font-size: 10px; font-family: 'NewComputerModern'; text-anchor: start" x="156.34503" y="65.021875" transform="rotate(-0 156.34503 65.021875)">L=4 m</text>
    </g>
   </g>
  </g>
 </g>
 <defs>
  <clipPath id="pd77b42b13f">
   <rect x="39.05" y="7.2" width="164.76378" height="92.081693"/>
  </clipPath>
 </defs>
</svg>
