<?xml version="1.0" encoding="utf-8" standalone="no"?>
<!DOCTYPE svg PUBLIC "-//W3C//DTD SVG 1.1//EN"
  "http://www.w3.org/Graphics/SVG/1.1/DTD/svg11.dtd">
<svg xmlns:xlink="http://www.w3.org/1999/xlink" width="217.813267pt" height="132.859818pt" viewBox="0 0 217.813267 132.859818" xmlns="http://www.w3.org/2000/svg" version="1.1">
 <metadata>
  <rdf:RDF xmlns:dc="http://purl.org/dc/elements/1.1/" xmlns:cc="http://creativecommons.org/ns#" xmlns:rdf="http://www.w3.org/1999/02/22-rdf-syntax-ns#">
   <cc:Work>
    <dc:type rdf:resource="http://purl.org/dc/dcmitype/StillImage"/>
    <dc:date>2026-02-12T16:24:29.436798</dc:date>
    <dc:format>image/svg+xml</dc:format>
    <dc:creator>
     <cc:Agent>
      <dc:title>Matplotlib v3.10.8, https://matplotlib.org/</dc:title>
     </cc:Agent>
    </dc:creator>
   </cc:Work>
  </rdf:RDF>
 </metadata>
 <defs>
  <style type="text/css">*{stroke-linejoin: round; stroke-linecap: butt}</style>
 </defs>
 <g id="figure_1">
  <g id="patch_1">
   <path d="M 0 132.859818 
L 217.813267 132.859818 
L 217.813267 0 
L 0 0 
z
" style="fill: #ffffff"/>
  </g>
  <g id="axes_1">
   <g id="patch_2">
    <path d="M 45.83875 99.281693 
L 210.60253 99.281693 
L 210.60253 7.2 
L 45.83875 7.2 
z
" style="fill: #ffffff"/>
   </g>
   <g id="matplotlib.axis_1">
    <g id="xtick_1">
     <g id="line2d_1">
      <defs>
       <path id="m3ae7a8ffa1" d="M 0 0 
L 0 -4 
" style="stroke: #000000"/>
      </defs>
      <g>
       <use xlink:href="#m3ae7a8ffa1" x="53.328013" y="99.281693" style="stroke: #000000"/>
      </g>
     </g>
     <g id="line2d_2">
      <defs>
       <path id="mb3a41ddc68" d="M 0 0 
L 0 4 
" style="stroke: #000000"/>
      </defs>
      <g>
       <use xlink:href="#mb3a41ddc68" x="53.328013" y="7.2" style="stroke: #000000"/>
      </g>
     </g>
     <g id="text_1">
      <text style="font-size: 10px; font-family: 'cmss10', sans-serif; text-anchor: middle" x="53.328013" y="109.720755" transform="rotate(-0 53.328013 109.720755)">0</text>
     </g>
    </g>
    <g id="xtick_2">
     <g id="line2d_3">
      <g>
       <use xlink:href="#m3ae7a8ffa1" x="90.774326" y="99.281693" style="stroke: #000000"/>
      </g>
     </g>
     <g id="line2d_4">
      <g>
       <use xlink:href="#mb3a41ddc68" x="90.774326" y="7.2" style="stroke: #000000"/>
      </g>
     </g>
     <g id="text_2">
      <text style="font-size: 10px; font-family: 'cmss10', sans-serif; text-anchor: middle" x="90.774326" y="109.720755" transform="rotate(-0 90.774326 109.720755)">25</text>
     </g>
    </g>
    <g id="xtick_3">
     <g id="line2d_5">
      <g>
       <use xlink:href="#m3ae7a8ffa1" x="128.22064" y="99.281693" style="stroke: #000000"/>
      </g>
     </g>
     <g id="line2d_6">
      <g>
       <use xlink:href="#mb3a41ddc68" x="128.22064" y="7.2" style="stroke: #000000"/>
      </g>
     </g>
     <g id="text_3">
      <text style="font-size: 10px; font-family: 'cmss10', sans-serif; text-anchor: middle" x="128.22064" y="109.720755" transform="rotate(-0 128.22064 109.720755)">50</text>
     </g>
    </g>
    <g id="xtick_4">
     <g id="line2d_7">
      <g>
       <use xlink:href="#m3ae7a8ffa1" x="165.666953" y="99.281693" style="stroke: #000000"/>
      </g>
     </g>
     <g id="line2d_8">
      <g>
       <use xlink:href="#mb3a41ddc68" x="165.666953" y="7.2" style="stroke: #000000"/>
      </g>
     </g>
     <g id="text_4">
      <text style="font-size: 10px; font-family: 'cmss10', sans-serif; text-anchor: middle" x="165.666953" y="109.720755" transform="rotate(-0 165.666953 109.720755)">75</text>
     </g>
    </g>
    <g id="xtick_5">
     <g id="line2d_9">
      <g>
       <use xlink:href="#m3ae7a8ffa1" x="203.113267" y="99.281693" style="stroke: #000000"/>
      </g>
     </g>
     <g id="line2d_10">
      <g>
       <use xlink:href="#mb3a41ddc68" x="203.113267" y="7.2" style="stroke: #000000"/>
      </g>
     </g>
     <g id="text_5">
      <text style="font-size: 10px; font-family: 'cmss10', sans-serif; text-anchor: middle" x="203.113267" y="109.720755" transform="rotate(-0 203.113267 109.720755)">100</text>
     </g>
    </g>
    <g id="text_6">
     <text style="font-size: 10px; font-family: 'cmss10', sans-serif; text-anchor: middle" x="128.22064" y="123.159818" transform="rotate(-0 128.22064 123.159818)">Velocity in m/s</text>
    </g>
   </g>
   <g id="matplotlib.axis_2">
    <g id="ytick_1">
     <g id="line2d_11">
      <defs>
       <path id="m2cd13b66c1" d="M 0 0 
L 4 0 
" style="stroke: #000000"/>
      </defs>
      <g>
       <use xlink:href="#m2cd13b66c1" x="45.83875" y="95.096161" style="stroke: #000000"/>
      </g>
     </g>
     <g id="line2d_12">
      <defs>
       <path id="me0714479da" d="M 0 0 
L -4 0 
" style="stroke: #000000"/>
      </defs>
      <g>
       <use xlink:href="#me0714479da" x="210.60253" y="95.096161" style="stroke: #000000"/>
      </g>
     </g>
     <g id="text_7">
      <text style="font-size: 10px; font-family: 'cmss10', sans-serif; text-anchor: end" x="42.33875" y="98.565693" transform="rotate(-0 42.33875 98.565693)">0.00</text>
     </g>
    </g>
    <g id="ytick_2">
     <g id="line2d_13">
      <g>
       <use xlink:href="#m2cd13b66c1" x="45.83875" y="64.199213" style="stroke: #000000"/>
      </g>
     </g>
     <g id="line2d_14">
      <g>
       <use xlink:href="#me0714479da" x="210.60253" y="64.199213" style="stroke: #000000"/>
      </g>
     </g>
     <g id="text_8">
      <text style="font-size: 10px; font-family: 'cmss10', sans-serif; text-anchor: end" x="42.33875" y="67.668745" transform="rotate(-0 42.33875 67.668745)">0.02</text>
     </g>
    </g>
    <g id="ytick_3">
     <g id="line2d_15">
      <g>
       <use xlink:href="#m2cd13b66c1" x="45.83875" y="33.302265" style="stroke: #000000"/>
      </g>
     </g>
     <g id="line2d_16">
      <g>
       <use xlink:href="#me0714479da" x="210.60253" y="33.302265" style="stroke: #000000"/>
      </g>
     </g>
     <g id="text_9">
      <text style="font-size: 10px; font-family: 'cmss10', sans-serif; text-anchor: end" x="42.33875" y="36.771797" transform="rotate(-0 42.33875 36.771797)">0.04</text>
     </g>
    </g>
    <g id="text_10">
     <!-- $\frac{F_b}{F_{a}^0}$    -->
     <g transform="translate(7.2 43.300846)">
      <text>
       <tspan x="0" y="-7.857813" style="font-style: oblique; font-size: 9.8px; font-family: 'DejaVu Sans'">F</tspan>
       <tspan x="0" y="7.0675" style="font-style: oblique; font-size: 9.8px; font-family: 'DejaVu Sans'">F</tspan>
       <tspan x="5.636914" y="-6.25" style="font-style: oblique; font-size: 6.86px; font-family: 'DejaVu Sans'">b</tspan>
       <tspan x="5.636914" y="9.747187" style="font-style: oblique; font-size: 6.86px; font-family: 'DejaVu Sans'">a</tspan>
       <tspan x="6.32419" y="3.315937" style="font-size: 6.86px; font-family: 'DejaVu Sans'">0</tspan>
       <tspan x="12.7067" y="-0.017656" style="font-size: 14px; font-family: 'cmss10'"> </tspan>
       <tspan x="17.368809" y="-0.017656" style="font-size: 14px; font-family: 'cmss10'"> </tspan>
       <tspan x="22.030919" y="-0.017656" style="font-size: 14px; font-family: 'cmss10'"> </tspan>
      </text>
      <rect x="0" y="-3.650469" width="10.9567" height="0.875"/>
     </g>
    </g>
   </g>
   <g id="line2d_17">
    <path d="M 53.328013 95.096161 
L 54.825865 57.689329 
L 56.323718 36.32263 
L 57.82157 25.740743 
L 59.319423 20.007584 
L 60.817275 16.548914 
L 62.315128 14.327673 
L 63.81298 12.888203 
L 65.310833 12.000908 
L 66.808686 11.530528 
L 68.306538 11.385531 
L 69.804391 11.49779 
L 71.302243 11.81383 
L 72.800096 12.290606 
L 74.297948 12.893122 
L 75.795801 13.592844 
L 77.293653 14.366518 
L 78.791506 15.195232 
L 80.289358 16.063637 
L 81.787211 16.959313 
L 83.285064 17.872239 
L 84.782916 18.794358 
L 86.280769 19.719215 
L 87.778621 20.641666 
L 89.276474 21.557636 
L 90.774326 22.463919 
L 92.272179 23.358022 
L 93.770031 24.238028 
L 95.267884 25.102492 
L 96.765736 25.950353 
L 98.263589 26.78086 
L 99.761441 27.593514 
L 101.259294 28.388023 
L 102.757147 29.164255 
L 104.254999 29.922214 
L 105.752852 30.662009 
L 107.250704 31.383831 
L 108.748557 32.08794 
L 110.246409 32.774644 
L 111.744262 33.444293 
L 113.242114 34.097265 
L 114.739967 34.733959 
L 116.237819 35.354789 
L 117.735672 35.960178 
L 119.233525 36.550553 
L 120.731377 37.126343 
L 122.22923 37.687975 
L 123.727082 38.235872 
L 125.224935 38.770451 
L 126.722787 39.292122 
L 128.22064 39.801286 
L 129.718492 40.298335 
L 131.216345 40.783651 
L 132.714197 41.257606 
L 134.21205 41.72056 
L 135.709902 42.172863 
L 137.207755 42.614856 
L 138.705608 43.046866 
L 140.20346 43.469211 
L 141.701313 43.882198 
L 143.199165 44.286123 
L 144.697018 44.681273 
L 146.19487 45.067924 
L 147.692723 45.446341 
L 149.190575 45.816783 
L 150.688428 46.179497 
L 152.18628 46.534721 
L 153.684133 46.882685 
L 155.181986 47.223612 
L 156.679838 47.557715 
L 158.177691 47.885199 
L 159.675543 48.206264 
L 161.173396 48.5211 
L 162.671248 48.829892 
L 164.169101 49.132817 
L 165.666953 49.430046 
L 167.164806 49.721745 
L 168.662658 50.008071 
L 170.160511 50.289179 
L 171.658363 50.565216 
L 173.156216 50.836324 
L 174.654069 51.102641 
L 176.151921 51.364299 
L 177.649774 51.621427 
L 179.147626 51.874147 
L 180.645479 52.122579 
L 182.143331 52.366838 
L 183.641184 52.607034 
L 185.139036 52.843274 
L 186.636889 53.075663 
L 188.134741 53.3043 
L 189.632594 53.529281 
L 191.130446 53.7507 
L 192.628299 53.968647 
L 194.126152 54.18321 
L 195.624004 54.394472 
L 197.121857 54.602515 
L 198.619709 54.807418 
L 200.117562 55.009257 
L 201.615414 55.208107 
L 203.113267 55.404038 
" clip-path="url(#p15a11a2fcb)" style="fill: none; stroke: #8000ff; stroke-linecap: square"/>
   </g>
   <g id="line2d_18">
    <path d="M 53.328013 95.096161 
L 54.825865 76.392745 
L 56.323718 65.70939 
L 57.82157 60.418006 
L 59.319423 57.546187 
L 60.817275 55.793176 
L 62.315128 54.62051 
L 63.81298 53.783104 
L 65.310833 53.157252 
L 66.808686 52.675241 
L 68.306538 52.297754 
L 69.804391 52.000885 
L 71.302243 51.769454 
L 72.800096 51.593335 
L 74.297948 51.465376 
L 75.795801 51.380186 
L 77.293653 51.333439 
L 78.791506 51.321469 
L 80.289358 51.341041 
L 81.787211 51.389221 
L 83.285064 51.463307 
L 84.782916 51.560794 
L 86.280769 51.679348 
L 87.778621 51.816798 
L 89.276474 51.97113 
L 90.774326 52.140479 
L 92.272179 52.323123 
L 93.770031 52.517478 
L 95.267884 52.72209 
L 96.765736 52.935631 
L 98.263589 53.156888 
L 99.761441 53.384757 
L 101.259294 53.618235 
L 102.757147 53.856415 
L 104.254999 54.098475 
L 105.752852 54.343672 
L 107.250704 54.591337 
L 108.748557 54.840869 
L 110.246409 55.091727 
L 111.744262 55.343426 
L 113.242114 55.59553 
L 114.739967 55.847653 
L 116.237819 56.099447 
L 117.735672 56.350604 
L 119.233525 56.600849 
L 120.731377 56.849941 
L 122.22923 57.097664 
L 123.727082 57.343829 
L 125.224935 57.58827 
L 126.722787 57.830841 
L 128.22064 58.071416 
L 129.718492 58.309885 
L 131.216345 58.546153 
L 132.714197 58.780141 
L 134.21205 59.01178 
L 135.709902 59.241012 
L 137.207755 59.467792 
L 138.705608 59.69208 
L 140.20346 59.913848 
L 141.701313 60.133073 
L 143.199165 60.349739 
L 144.697018 60.563836 
L 146.19487 60.775358 
L 147.692723 60.984307 
L 149.190575 61.190685 
L 150.688428 61.394501 
L 152.18628 61.595766 
L 153.684133 61.794493 
L 155.181986 61.9907 
L 156.679838 62.184405 
L 158.177691 62.375628 
L 159.675543 62.564393 
L 161.173396 62.750724 
L 162.671248 62.934646 
L 164.169101 63.116186 
L 165.666953 63.295371 
L 167.164806 63.47223 
L 168.662658 63.646792 
L 170.160511 63.819086 
L 171.658363 63.989144 
L 173.156216 64.156994 
L 174.654069 64.322668 
L 176.151921 64.486197 
L 177.649774 64.647612 
L 179.147626 64.806944 
L 180.645479 64.964224 
L 182.143331 65.119483 
L 183.641184 65.272752 
L 185.139036 65.424061 
L 186.636889 65.573441 
L 188.134741 65.720923 
L 189.632594 65.866536 
L 191.130446 66.010311 
L 192.628299 66.152276 
L 194.126152 66.292461 
L 195.624004 66.430895 
L 197.121857 66.567606 
L 198.619709 66.702622 
L 200.117562 66.835971 
L 201.615414 66.967681 
L 203.113267 67.097778 
" clip-path="url(#p15a11a2fcb)" style="fill: none; stroke: #2adddd; stroke-linecap: square"/>
   </g>
   <g id="line2d_19">
    <path d="M 53.328013 95.096161 
L 54.825865 85.744453 
L 56.323718 80.402776 
L 57.82157 77.757084 
L 59.319423 76.321174 
L 60.817275 75.444657 
L 62.315128 74.858222 
L 63.81298 74.439034 
L 65.310833 74.124597 
L 66.808686 73.88003 
L 68.306538 73.68438 
L 69.804391 73.52432 
L 71.302243 73.390981 
L 72.800096 73.278247 
L 74.297948 73.181785 
L 75.795801 73.098462 
L 77.293653 73.025976 
L 78.791506 72.962618 
L 80.289358 72.907107 
L 81.787211 72.858478 
L 83.285064 72.816 
L 84.782916 72.779113 
L 86.280769 72.747387 
L 87.778621 72.720485 
L 89.276474 72.69814 
L 90.774326 72.680137 
L 92.272179 72.666293 
L 93.770031 72.656453 
L 95.267884 72.650479 
L 96.765736 72.648242 
L 98.263589 72.649623 
L 99.761441 72.654506 
L 101.259294 72.662777 
L 102.757147 72.674324 
L 104.254999 72.689034 
L 105.752852 72.706796 
L 107.250704 72.727496 
L 108.748557 72.751021 
L 110.246409 72.777261 
L 111.744262 72.806101 
L 113.242114 72.837431 
L 114.739967 72.871139 
L 116.237819 72.907117 
L 117.735672 72.945256 
L 119.233525 72.98545 
L 120.731377 73.027596 
L 122.22923 73.071592 
L 123.727082 73.117338 
L 125.224935 73.164739 
L 126.722787 73.213699 
L 128.22064 73.264129 
L 129.718492 73.31594 
L 131.216345 73.369047 
L 132.714197 73.423369 
L 134.21205 73.478825 
L 135.709902 73.53534 
L 137.207755 73.592841 
L 138.705608 73.651257 
L 140.20346 73.710522 
L 141.701313 73.77057 
L 143.199165 73.831341 
L 144.697018 73.892774 
L 146.19487 73.954814 
L 147.692723 74.017407 
L 149.190575 74.080502 
L 150.688428 74.144049 
L 152.18628 74.208002 
L 153.684133 74.272317 
L 155.181986 74.336951 
L 156.679838 74.401865 
L 158.177691 74.467019 
L 159.675543 74.532379 
L 161.173396 74.59791 
L 162.671248 74.663578 
L 164.169101 74.729354 
L 165.666953 74.795208 
L 167.164806 74.861112 
L 168.662658 74.927039 
L 170.160511 74.992966 
L 171.658363 75.058869 
L 173.156216 75.124725 
L 174.654069 75.190513 
L 176.151921 75.256215 
L 177.649774 75.32181 
L 179.147626 75.387282 
L 180.645479 75.452615 
L 182.143331 75.517792 
L 183.641184 75.582798 
L 185.139036 75.647621 
L 186.636889 75.712248 
L 188.134741 75.776665 
L 189.632594 75.840862 
L 191.130446 75.904829 
L 192.628299 75.968555 
L 194.126152 76.032031 
L 195.624004 76.095248 
L 197.121857 76.158198 
L 198.619709 76.220875 
L 200.117562 76.28327 
L 201.615414 76.345378 
L 203.113267 76.407192 
" clip-path="url(#p15a11a2fcb)" style="fill: none; stroke: #d4dd80; stroke-linecap: square"/>
   </g>
   <g id="line2d_20">
    <path d="M 53.328013 95.096161 
L 54.825865 90.420307 
L 56.323718 87.749468 
L 57.82157 86.426623 
L 59.319423 85.708668 
L 60.817275 85.270409 
L 62.315128 84.977191 
L 63.81298 84.767598 
L 65.310833 84.610379 
L 66.808686 84.488095 
L 68.306538 84.390266 
L 69.804391 84.310225 
L 71.302243 84.243524 
L 72.800096 84.187085 
L 74.297948 84.138708 
L 75.795801 84.096782 
L 77.293653 84.060097 
L 78.791506 84.027728 
L 80.289358 83.998955 
L 81.787211 83.973212 
L 83.285064 83.950045 
L 84.782916 83.929086 
L 86.280769 83.910035 
L 87.778621 83.892647 
L 89.276474 83.876715 
L 90.774326 83.86207 
L 92.272179 83.848566 
L 93.770031 83.836084 
L 95.267884 83.82452 
L 96.765736 83.813789 
L 98.263589 83.803817 
L 99.761441 83.794542 
L 101.259294 83.785911 
L 102.757147 83.777879 
L 104.254999 83.770408 
L 105.752852 83.763468 
L 107.250704 83.75703 
L 108.748557 83.751072 
L 110.246409 83.745577 
L 111.744262 83.740527 
L 113.242114 83.73591 
L 114.739967 83.731716 
L 116.237819 83.727935 
L 117.735672 83.72456 
L 119.233525 83.721587 
L 120.731377 83.719008 
L 122.22923 83.716822 
L 123.727082 83.715023 
L 125.224935 83.71361 
L 126.722787 83.71258 
L 128.22064 83.711931 
L 129.718492 83.711661 
L 131.216345 83.711768 
L 132.714197 83.712251 
L 134.21205 83.713106 
L 135.709902 83.714333 
L 137.207755 83.715929 
L 138.705608 83.717893 
L 140.20346 83.720221 
L 141.701313 83.722911 
L 143.199165 83.72596 
L 144.697018 83.729366 
L 146.19487 83.733125 
L 147.692723 83.737234 
L 149.190575 83.741689 
L 150.688428 83.746487 
L 152.18628 83.751623 
L 153.684133 83.757094 
L 155.181986 83.762895 
L 156.679838 83.769021 
L 158.177691 83.775469 
L 159.675543 83.782232 
L 161.173396 83.789307 
L 162.671248 83.796688 
L 164.169101 83.804371 
L 165.666953 83.812349 
L 167.164806 83.820618 
L 168.662658 83.829172 
L 170.160511 83.838005 
L 171.658363 83.847113 
L 173.156216 83.85649 
L 174.654069 83.86613 
L 176.151921 83.876027 
L 177.649774 83.886177 
L 179.147626 83.896572 
L 180.645479 83.907208 
L 182.143331 83.918079 
L 183.641184 83.929179 
L 185.139036 83.940504 
L 186.636889 83.952046 
L 188.134741 83.963801 
L 189.632594 83.975763 
L 191.130446 83.987927 
L 192.628299 84.000287 
L 194.126152 84.012839 
L 195.624004 84.025575 
L 197.121857 84.038492 
L 198.619709 84.051585 
L 200.117562 84.064847 
L 201.615414 84.078275 
L 203.113267 84.091862 
" clip-path="url(#p15a11a2fcb)" style="fill: none; stroke: #ff0000; stroke-linecap: square"/>
   </g>
   <g id="patch_3">
    <path d="M 45.83875 99.281693 
L 45.83875 7.2 
" style="fill: none; stroke: #000000; stroke-width: 0.8; stroke-linejoin: miter; stroke-linecap: square"/>
   </g>
   <g id="patch_4">
    <path d="M 210.60253 99.281693 
L 210.60253 7.2 
" style="fill: none; stroke: #000000; stroke-width: 0.8; stroke-linejoin: miter; stroke-linecap: square"/>
   </g>
   <g id="patch_5">
    <path d="M 45.83875 99.281693 
L 210.60253 99.281693 
" style="fill: none; stroke: #000000; stroke-width: 0.8; stroke-linejoin: miter; stroke-linecap: square"/>
   </g>
   <g id="patch_6">
    <path d="M 45.83875 7.2 
L 210.60253 7.2 
" style="fill: none; stroke: #000000; stroke-width: 0.8; stroke-linejoin: miter; stroke-linecap: square"/>
   </g>
   <g id="legend_1">
    <g id="patch_7">
     <path d="M 52.83875 70.95625 
L 122.055937 70.95625 
Q 124.055937 70.95625 124.055937 68.95625 
L 124.055937 14.2 
Q 124.055937 12.2 122.055937 12.2 
L 52.83875 12.2 
Q 50.83875 12.2 50.83875 14.2 
L 50.83875 68.95625 
Q 50.83875 70.95625 52.83875 70.95625 
z
" style="fill: #ffffff; opacity: 0.8; stroke: #cccccc; stroke-linejoin: miter"/>
    </g>
    <g id="line2d_21">
     <path d="M 54.83875 19.7 
L 64.83875 19.7 
L 74.83875 19.7 
" style="fill: none; stroke: #8000ff; stroke-linecap: square"/>
    </g>
    <g id="text_11">
     <text style="font-size: 10px; font-family: 'cmss10', sans-serif; text-anchor: start" x="82.83875" y="23.2" transform="rotate(-0 82.83875 23.2)">L=0.5 m</text>
    </g>
    <g id="line2d_22">
     <path d="M 54.83875 33.639063 
L 64.83875 33.639063 
L 74.83875 33.639063 
" style="fill: none; stroke: #2adddd; stroke-linecap: square"/>
    </g>
    <g id="text_12">
     <text style="font-size: 10px; font-family: 'cmss10', sans-serif; text-anchor: start" x="82.83875" y="37.139063" transform="rotate(-0 82.83875 37.139063)">L=1 m</text>
    </g>
    <g id="line2d_23">
     <path d="M 54.83875 47.578125 
L 64.83875 47.578125 
L 74.83875 47.578125 
" style="fill: none; stroke: #d4dd80; stroke-linecap: square"/>
    </g>
    <g id="text_13">
     <text style="font-size: 10px; font-family: 'cmss10', sans-serif; text-anchor: start" x="82.83875" y="51.078125" transform="rotate(-0 82.83875 51.078125)">L=2 m</text>
    </g>
    <g id="line2d_24">
     <path d="M 54.83875 61.517188 
L 64.83875 61.517188 
L 74.83875 61.517188 
" style="fill: none; stroke: #ff0000; stroke-linecap: square"/>
    </g>
    <g id="text_14">
     <text style="font-size: 10px; font-family: 'cmss10', sans-serif; text-anchor: start" x="82.83875" y="65.017188" transform="rotate(-0 82.83875 65.017188)">L=4 m</text>
    </g>
   </g>
  </g>
 </g>
 <defs>
  <clipPath id="p15a11a2fcb">
   <rect x="45.83875" y="7.2" width="164.76378" height="92.081693"/>
  </clipPath>
 </defs>
</svg>
