<?xml version="1.0" encoding="utf-8" standalone="no"?>
<!DOCTYPE svg PUBLIC "-//W3C//DTD SVG 1.1//EN"
  "http://www.w3.org/Graphics/SVG/1.1/DTD/svg11.dtd">
<svg xmlns:xlink="http://www.w3.org/1999/xlink" width="210.854204pt" height="132.862943pt" viewBox="0 0 210.854204 132.862943" xmlns="http://www.w3.org/2000/svg" version="1.1">
 <metadata>
  <rdf:RDF xmlns:dc="http://purl.org/dc/elements/1.1/" xmlns:cc="http://creativecommons.org/ns#" xmlns:rdf="http://www.w3.org/1999/02/22-rdf-syntax-ns#">
   <cc:Work>
    <dc:type rdf:resource="http://purl.org/dc/dcmitype/StillImage"/>
    <dc:date>2026-04-20T13:58:41.843011</dc:date>
    <dc:format>image/svg+xml</dc:format>
    <dc:creator>
     <cc:Agent>
      <dc:title>Matplotlib v3.10.8, https://matplotlib.org/</dc:title>
     </cc:Agent>
    </dc:creator>
   </cc:Work>
  </rdf:RDF>
 </metadata>
 <defs>
  <style type="text/css">*{stroke-linejoin: round; stroke-linecap: butt}</style>
 </defs>
 <g id="figure_1">
  <g id="patch_1">
   <path d="M 0 132.862943 
L 210.854204 132.862943 
L 210.854204 0 
L 0 0 
z
" style="fill: #ffffff"/>
  </g>
  <g id="axes_1">
   <g id="patch_2">
    <path d="M 38.879688 99.281693 
L 203.643467 99.281693 
L 203.643467 7.2 
L 38.879688 7.2 
z
" style="fill: #ffffff"/>
   </g>
   <g id="matplotlib.axis_1">
    <g id="xtick_1">
     <g id="line2d_1">
      <defs>
       <path id="m84ede90d59" d="M 0 0 
L 0 -4 
" style="stroke: #000000"/>
      </defs>
      <g>
       <use xlink:href="#m84ede90d59" x="44.855968" y="99.281693" style="stroke: #000000"/>
      </g>
     </g>
     <g id="line2d_2">
      <defs>
       <path id="mca4b98fe63" d="M 0 0 
L 0 4 
" style="stroke: #000000"/>
      </defs>
      <g>
       <use xlink:href="#mca4b98fe63" x="44.855968" y="7.2" style="stroke: #000000"/>
      </g>
     </g>
     <g id="text_1">
      <text style="font-size: 10px; font-family: 'NewComputerModern'; text-anchor: middle" x="44.855968" y="109.722318" transform="rotate(-0 44.855968 109.722318)">0</text>
     </g>
    </g>
    <g id="xtick_2">
     <g id="line2d_3">
      <g>
       <use xlink:href="#m84ede90d59" x="82.680527" y="99.281693" style="stroke: #000000"/>
      </g>
     </g>
     <g id="line2d_4">
      <g>
       <use xlink:href="#mca4b98fe63" x="82.680527" y="7.2" style="stroke: #000000"/>
      </g>
     </g>
     <g id="text_2">
      <text style="font-size: 10px; font-family: 'NewComputerModern'; text-anchor: middle" x="82.680527" y="109.722318" transform="rotate(-0 82.680527 109.722318)">25</text>
     </g>
    </g>
    <g id="xtick_3">
     <g id="line2d_5">
      <g>
       <use xlink:href="#m84ede90d59" x="120.505086" y="99.281693" style="stroke: #000000"/>
      </g>
     </g>
     <g id="line2d_6">
      <g>
       <use xlink:href="#mca4b98fe63" x="120.505086" y="7.2" style="stroke: #000000"/>
      </g>
     </g>
     <g id="text_3">
      <text style="font-size: 10px; font-family: 'NewComputerModern'; text-anchor: middle" x="120.505086" y="109.722318" transform="rotate(-0 120.505086 109.722318)">50</text>
     </g>
    </g>
    <g id="xtick_4">
     <g id="line2d_7">
      <g>
       <use xlink:href="#m84ede90d59" x="158.329645" y="99.281693" style="stroke: #000000"/>
      </g>
     </g>
     <g id="line2d_8">
      <g>
       <use xlink:href="#mca4b98fe63" x="158.329645" y="7.2" style="stroke: #000000"/>
      </g>
     </g>
     <g id="text_4">
      <text style="font-size: 10px; font-family: 'NewComputerModern'; text-anchor: middle" x="158.329645" y="109.722318" transform="rotate(-0 158.329645 109.722318)">75</text>
     </g>
    </g>
    <g id="xtick_5">
     <g id="line2d_9">
      <g>
       <use xlink:href="#m84ede90d59" x="196.154204" y="99.281693" style="stroke: #000000"/>
      </g>
     </g>
     <g id="line2d_10">
      <g>
       <use xlink:href="#mca4b98fe63" x="196.154204" y="7.2" style="stroke: #000000"/>
      </g>
     </g>
     <g id="text_5">
      <text style="font-size: 10px; font-family: 'NewComputerModern'; text-anchor: middle" x="196.154204" y="109.722318" transform="rotate(-0 196.154204 109.722318)">100</text>
     </g>
    </g>
    <g id="text_6">
     <!-- $v\,\mathrm{(m/s)}$ -->
     <g transform="translate(105.361577 123.162943)">
      <text>
       <tspan x="0" y="-0.234375" style="font-size: 10px; font-family: 'NewComputerModern Math'">v</tspan>
       <tspan x="6.668342" y="-0.234375" style="font-size: 10px; font-family: 'NewComputerModern Math'">(</tspan>
       <tspan x="10.558327" y="-0.234375" style="font-size: 10px; font-family: 'NewComputerModern Math'">m</tspan>
       <tspan x="18.888313" y="-0.234375" style="font-size: 10px; font-family: 'NewComputerModern Math'">/</tspan>
       <tspan x="23.888298" y="-0.234375" style="font-size: 10px; font-family: 'NewComputerModern Math'">s</tspan>
       <tspan x="27.828285" y="-0.234375" style="font-size: 10px; font-family: 'NewComputerModern Math'">)</tspan>
      </text>
     </g>
    </g>
   </g>
   <g id="matplotlib.axis_2">
    <g id="ytick_1">
     <g id="line2d_11">
      <defs>
       <path id="m1405b9a359" d="M 0 0 
L 4 0 
" style="stroke: #000000"/>
      </defs>
      <g>
       <use xlink:href="#m1405b9a359" x="38.879688" y="82.064327" style="stroke: #000000"/>
      </g>
     </g>
     <g id="line2d_12">
      <defs>
       <path id="m4160505095" d="M 0 0 
L -4 0 
" style="stroke: #000000"/>
      </defs>
      <g>
       <use xlink:href="#m4160505095" x="203.643467" y="82.064327" style="stroke: #000000"/>
      </g>
     </g>
     <g id="text_7">
      <text style="font-size: 10px; font-family: 'NewComputerModern'; text-anchor: end" x="35.379688" y="85.534639" transform="rotate(-0 35.379688 85.534639)">0.4</text>
     </g>
    </g>
    <g id="ytick_2">
     <g id="line2d_13">
      <g>
       <use xlink:href="#m1405b9a359" x="38.879688" y="58.302067" style="stroke: #000000"/>
      </g>
     </g>
     <g id="line2d_14">
      <g>
       <use xlink:href="#m4160505095" x="203.643467" y="58.302067" style="stroke: #000000"/>
      </g>
     </g>
     <g id="text_8">
      <text style="font-size: 10px; font-family: 'NewComputerModern'; text-anchor: end" x="35.379688" y="61.77238" transform="rotate(-0 35.379688 61.77238)">0.6</text>
     </g>
    </g>
    <g id="ytick_3">
     <g id="line2d_15">
      <g>
       <use xlink:href="#m1405b9a359" x="38.879688" y="34.539808" style="stroke: #000000"/>
      </g>
     </g>
     <g id="line2d_16">
      <g>
       <use xlink:href="#m4160505095" x="203.643467" y="34.539808" style="stroke: #000000"/>
      </g>
     </g>
     <g id="text_9">
      <text style="font-size: 10px; font-family: 'NewComputerModern'; text-anchor: end" x="35.379688" y="38.010121" transform="rotate(-0 35.379688 38.010121)">0.8</text>
     </g>
    </g>
    <g id="ytick_4">
     <g id="line2d_17">
      <g>
       <use xlink:href="#m1405b9a359" x="38.879688" y="10.777549" style="stroke: #000000"/>
      </g>
     </g>
     <g id="line2d_18">
      <g>
       <use xlink:href="#m4160505095" x="203.643467" y="10.777549" style="stroke: #000000"/>
      </g>
     </g>
     <g id="text_10">
      <text style="font-size: 10px; font-family: 'NewComputerModern'; text-anchor: end" x="35.379688" y="14.247861" transform="rotate(-0 35.379688 14.247861)">1.0</text>
     </g>
    </g>
    <g id="text_11">
     <!-- $\frac{F_l}{F_l^0}$    -->
     <g transform="translate(7.2 44.720846)">
      <text>
       <tspan x="0" y="6.330781" style="font-size: 8.4px; font-family: 'NewComputerModern Math'">F</tspan>
       <tspan x="1" y="-6.104688" style="font-size: 8.4px; font-family: 'NewComputerModern Math'">F</tspan>
       <tspan x="5.485188" y="8.239375" style="font-size: 5.88px; font-family: 'NewComputerModern Math'">l</tspan>
       <tspan x="6.087863" y="2.840625" style="font-size: 5.88px; font-family: 'NewComputerModern Math'">0</tspan>
       <tspan x="6.485188" y="-4.959531" style="font-size: 5.88px; font-family: 'NewComputerModern Math'">l</tspan>
       <tspan x="10.718715" y="-0.319063" style="font-size: 12px; font-family: 'NewComputerModern'"> </tspan>
       <tspan x="14.714702" y="-0.319063" style="font-size: 12px; font-family: 'NewComputerModern'"> </tspan>
       <tspan x="18.710689" y="-0.319063" style="font-size: 12px; font-family: 'NewComputerModern'"> </tspan>
      </text>
      <rect x="0" y="-2.951875" width="9.218715" height="0.75"/>
     </g>
    </g>
   </g>
   <g id="line2d_19">
    <path d="M 46.36895 15.472877 
L 47.881933 17.340026 
L 49.394915 19.629148 
L 50.907897 22.081061 
L 52.42088 24.600568 
L 53.933862 27.139887 
L 55.446844 29.665911 
L 56.959827 32.152775 
L 58.472809 34.580541 
L 59.985791 36.93474 
L 61.498774 39.205709 
L 63.011756 41.387742 
L 64.524739 43.478215 
L 66.037721 45.4768 
L 67.550703 47.384819 
L 69.063686 49.204726 
L 70.576668 50.939718 
L 72.08965 52.593444 
L 73.602633 54.169796 
L 75.115615 55.672754 
L 76.628598 57.106283 
L 78.14158 58.474261 
L 79.654562 59.780434 
L 81.167545 61.028382 
L 82.680527 62.221506 
L 84.193509 63.36302 
L 85.706492 64.455951 
L 87.219474 65.503137 
L 88.732456 66.507239 
L 90.245439 67.470745 
L 91.758421 68.395981 
L 93.271404 69.285118 
L 94.784386 70.140183 
L 96.297368 70.963069 
L 97.810351 71.755541 
L 99.323333 72.519247 
L 100.836315 73.255729 
L 102.349298 73.966424 
L 103.86228 74.652677 
L 105.375262 75.315745 
L 106.888245 75.956806 
L 108.401227 76.576961 
L 109.91421 77.177241 
L 111.427192 77.758615 
L 112.940174 78.321992 
L 114.453157 78.868222 
L 115.966139 79.398107 
L 117.479121 79.912399 
L 118.992104 80.411808 
L 120.505086 80.896999 
L 122.018068 81.3686 
L 123.531051 81.827205 
L 125.044033 82.273371 
L 126.557016 82.707627 
L 128.069998 83.130469 
L 129.58298 83.54237 
L 131.095963 83.943775 
L 132.608945 84.335106 
L 134.121927 84.716762 
L 135.63491 85.089121 
L 137.147892 85.452543 
L 138.660874 85.807369 
L 140.173857 86.153922 
L 141.686839 86.492509 
L 143.199822 86.823423 
L 144.712804 87.146942 
L 146.225786 87.46333 
L 147.738769 87.772838 
L 149.251751 88.075709 
L 150.764733 88.372169 
L 152.277716 88.662437 
L 153.790698 88.946722 
L 155.30368 89.225223 
L 156.816663 89.498129 
L 158.329645 89.765622 
L 159.842628 90.027876 
L 161.35561 90.285058 
L 162.868592 90.537325 
L 164.381575 90.784831 
L 165.894557 91.02772 
L 167.407539 91.266134 
L 168.920522 91.500207 
L 170.433504 91.730066 
L 171.946486 91.955836 
L 173.459469 92.177635 
L 174.972451 92.395576 
L 176.485434 92.60977 
L 177.998416 92.820322 
L 179.511398 93.027332 
L 181.024381 93.230899 
L 182.537363 93.431115 
L 184.050345 93.628071 
L 185.563328 93.821855 
L 187.07631 94.012549 
L 188.589292 94.200234 
L 190.102275 94.384989 
L 191.615257 94.566888 
L 193.12824 94.746003 
L 194.641222 94.922405 
L 196.154204 95.096161 
" clip-path="url(#p75cf6c90d3)" style="fill: none; stroke: #ff0000; stroke-linecap: square"/>
   </g>
   <g id="line2d_20">
    <path d="M 46.36895 13.137251 
L 47.881933 14.070826 
L 49.394915 15.215442 
L 50.907897 16.44222 
L 52.42088 17.706561 
L 53.933862 18.990772 
L 55.446844 20.286536 
L 56.959827 21.589159 
L 58.472809 22.89535 
L 59.985791 24.202285 
L 61.498774 25.507236 
L 63.011756 26.807478 
L 64.524739 28.100304 
L 66.037721 29.3831 
L 67.550703 30.653417 
L 69.063686 31.909019 
L 70.576668 33.147928 
L 72.08965 34.368436 
L 73.602633 35.569108 
L 75.115615 36.748772 
L 76.628598 37.906505 
L 78.14158 39.041607 
L 79.654562 40.15358 
L 81.167545 41.242106 
L 82.680527 42.30702 
L 84.193509 43.348291 
L 85.706492 44.366003 
L 87.219474 45.360332 
L 88.732456 46.331536 
L 90.245439 47.279937 
L 91.758421 48.205911 
L 93.271404 49.109873 
L 94.784386 49.992274 
L 96.297368 50.853588 
L 97.810351 51.694307 
L 99.323333 52.514935 
L 100.836315 53.315986 
L 102.349298 54.097974 
L 103.86228 54.861415 
L 105.375262 55.606822 
L 106.888245 56.334704 
L 108.401227 57.045562 
L 109.91421 57.739887 
L 111.427192 58.418165 
L 112.940174 59.080869 
L 114.453157 59.728459 
L 115.966139 60.361387 
L 117.479121 60.980091 
L 118.992104 61.584997 
L 120.505086 62.176519 
L 122.018068 62.755059 
L 123.531051 63.321006 
L 125.044033 63.874738 
L 126.557016 64.416619 
L 128.069998 64.947003 
L 129.58298 65.466232 
L 131.095963 65.974637 
L 132.608945 66.472537 
L 134.121927 66.960241 
L 135.63491 67.438048 
L 137.147892 67.906245 
L 138.660874 68.365112 
L 140.173857 68.814917 
L 141.686839 69.255921 
L 143.199822 69.688374 
L 144.712804 70.112519 
L 146.225786 70.528589 
L 147.738769 70.936812 
L 149.251751 71.337405 
L 150.764733 71.730579 
L 152.277716 72.116539 
L 153.790698 72.495481 
L 155.30368 72.867596 
L 156.816663 73.233068 
L 158.329645 73.592074 
L 159.842628 73.944786 
L 161.35561 74.291371 
L 162.868592 74.631989 
L 164.381575 74.966795 
L 165.894557 75.29594 
L 167.407539 75.619569 
L 168.920522 75.937822 
L 170.433504 76.250837 
L 171.946486 76.558743 
L 173.459469 76.86167 
L 174.972451 77.15974 
L 176.485434 77.453073 
L 177.998416 77.741784 
L 179.511398 78.025987 
L 181.024381 78.305789 
L 182.537363 78.581295 
L 184.050345 78.852608 
L 185.563328 79.119827 
L 187.07631 79.383047 
L 188.589292 79.642361 
L 190.102275 79.897861 
L 191.615257 80.149632 
L 193.12824 80.39776 
L 194.641222 80.642328 
L 196.154204 80.883414 
" clip-path="url(#p75cf6c90d3)" style="fill: none; stroke: #e6cd73; stroke-linecap: square"/>
   </g>
   <g id="line2d_21">
    <path d="M 46.36895 11.969438 
L 47.881933 12.436225 
L 49.394915 13.008533 
L 50.907897 13.621922 
L 52.42088 14.254095 
L 53.933862 14.896224 
L 55.446844 15.544232 
L 56.959827 16.195996 
L 58.472809 16.850303 
L 59.985791 17.506411 
L 61.498774 18.163834 
L 63.011756 18.822239 
L 64.524739 19.481376 
L 66.037721 20.141043 
L 67.550703 20.801055 
L 69.063686 21.461231 
L 70.576668 22.121382 
L 72.08965 22.781302 
L 73.602633 23.440767 
L 75.115615 24.099532 
L 76.628598 24.757335 
L 78.14158 25.413899 
L 79.654562 26.068935 
L 81.167545 26.722147 
L 82.680527 27.373233 
L 84.193509 28.021893 
L 85.706492 28.667828 
L 87.219474 29.310748 
L 88.732456 29.950371 
L 90.245439 30.586425 
L 91.758421 31.218653 
L 93.271404 31.846811 
L 94.784386 32.470669 
L 96.297368 33.090016 
L 97.810351 33.704655 
L 99.323333 34.314405 
L 100.836315 34.919101 
L 102.349298 35.518597 
L 103.86228 36.112758 
L 105.375262 36.701467 
L 106.888245 37.28462 
L 108.401227 37.862128 
L 109.91421 38.433913 
L 111.427192 38.999911 
L 112.940174 39.560069 
L 114.453157 40.114346 
L 115.966139 40.662709 
L 117.479121 41.205136 
L 118.992104 41.741613 
L 120.505086 42.272136 
L 122.018068 42.796707 
L 123.531051 43.315334 
L 125.044033 43.828034 
L 126.557016 44.334827 
L 128.069998 44.835741 
L 129.58298 45.330806 
L 131.095963 45.820059 
L 132.608945 46.30354 
L 134.121927 46.781292 
L 135.63491 47.253363 
L 137.147892 47.7198 
L 138.660874 48.180657 
L 140.173857 48.635989 
L 141.686839 49.08585 
L 143.199822 49.5303 
L 144.712804 49.969398 
L 146.225786 50.403205 
L 147.738769 50.831782 
L 149.251751 51.255193 
L 150.764733 51.673501 
L 152.277716 52.08677 
L 153.790698 52.495065 
L 155.30368 52.898451 
L 156.816663 53.296992 
L 158.329645 53.690753 
L 159.842628 54.079801 
L 161.35561 54.464199 
L 162.868592 54.844013 
L 164.381575 55.219306 
L 165.894557 55.590144 
L 167.407539 55.95659 
L 168.920522 56.318707 
L 170.433504 56.676557 
L 171.946486 57.030204 
L 173.459469 57.37971 
L 174.972451 57.725134 
L 176.485434 58.066538 
L 177.998416 58.403981 
L 179.511398 58.737523 
L 181.024381 59.067221 
L 182.537363 59.393134 
L 184.050345 59.715319 
L 185.563328 60.033831 
L 187.07631 60.348726 
L 188.589292 60.660059 
L 190.102275 60.967883 
L 191.615257 61.272253 
L 193.12824 61.573219 
L 194.641222 61.870834 
L 196.154204 62.165148 
" clip-path="url(#p75cf6c90d3)" style="fill: none; stroke: #4df3ce; stroke-linecap: square"/>
   </g>
   <g id="line2d_22">
    <path d="M 46.36895 11.385531 
L 47.881933 11.618925 
L 49.394915 11.905079 
L 50.907897 12.211774 
L 52.42088 12.52786 
L 53.933862 12.848924 
L 55.446844 13.172928 
L 56.959827 13.49881 
L 58.472809 13.825964 
L 59.985791 14.154019 
L 61.498774 14.482736 
L 63.011756 14.811952 
L 64.524739 15.141555 
L 66.037721 15.471464 
L 67.550703 15.801618 
L 69.063686 16.131973 
L 70.576668 16.462493 
L 72.08965 16.793152 
L 73.602633 17.123926 
L 75.115615 17.4548 
L 76.628598 17.785757 
L 78.14158 18.116786 
L 79.654562 18.447875 
L 81.167545 18.779014 
L 82.680527 19.110193 
L 84.193509 19.441402 
L 85.706492 19.77263 
L 87.219474 20.103867 
L 88.732456 20.4351 
L 90.245439 20.766315 
L 91.758421 21.097499 
L 93.271404 21.428634 
L 94.784386 21.759703 
L 96.297368 22.090685 
L 97.810351 22.42156 
L 99.323333 22.752304 
L 100.836315 23.082892 
L 102.349298 23.413297 
L 103.86228 23.743493 
L 105.375262 24.073448 
L 106.888245 24.403133 
L 108.401227 24.732515 
L 109.91421 25.061561 
L 111.427192 25.390238 
L 112.940174 25.718509 
L 114.453157 26.04634 
L 115.966139 26.373696 
L 117.479121 26.700539 
L 118.992104 27.026833 
L 120.505086 27.352541 
L 122.018068 27.677627 
L 123.531051 28.002054 
L 125.044033 28.325787 
L 126.557016 28.648788 
L 128.069998 28.971023 
L 129.58298 29.292457 
L 131.095963 29.613055 
L 132.608945 29.932783 
L 134.121927 30.251609 
L 135.63491 30.5695 
L 137.147892 30.886425 
L 138.660874 31.202354 
L 140.173857 31.517256 
L 141.686839 31.831103 
L 143.199822 32.143867 
L 144.712804 32.455522 
L 146.225786 32.766041 
L 147.738769 33.0754 
L 149.251751 33.383575 
L 150.764733 33.690543 
L 152.277716 33.996283 
L 153.790698 34.300773 
L 155.30368 34.603994 
L 156.816663 34.905927 
L 158.329645 35.206554 
L 159.842628 35.505858 
L 161.35561 35.803824 
L 162.868592 36.100435 
L 164.381575 36.395679 
L 165.894557 36.689541 
L 167.407539 36.982009 
L 168.920522 37.273073 
L 170.433504 37.562721 
L 171.946486 37.850943 
L 173.459469 38.13773 
L 174.972451 38.423075 
L 176.485434 38.706968 
L 177.998416 38.989404 
L 179.511398 39.270377 
L 181.024381 39.549881 
L 182.537363 39.82791 
L 184.050345 40.104462 
L 185.563328 40.379532 
L 187.07631 40.653117 
L 188.589292 40.925215 
L 190.102275 41.195824 
L 191.615257 41.464943 
L 193.12824 41.732571 
L 194.641222 41.998707 
L 196.154204 42.263352 
" clip-path="url(#p75cf6c90d3)" style="fill: none; stroke: #4e4dfc; stroke-linecap: square"/>
   </g>
   <g id="patch_3">
    <path d="M 38.879688 99.281693 
L 38.879688 7.2 
" style="fill: none; stroke: #000000; stroke-width: 0.8; stroke-linejoin: miter; stroke-linecap: square"/>
   </g>
   <g id="patch_4">
    <path d="M 203.643467 99.281693 
L 203.643467 7.2 
" style="fill: none; stroke: #000000; stroke-width: 0.8; stroke-linejoin: miter; stroke-linecap: square"/>
   </g>
   <g id="patch_5">
    <path d="M 38.879688 99.281693 
L 203.643467 99.281693 
" style="fill: none; stroke: #000000; stroke-width: 0.8; stroke-linejoin: miter; stroke-linecap: square"/>
   </g>
   <g id="patch_6">
    <path d="M 38.879688 7.2 
L 203.643467 7.2 
" style="fill: none; stroke: #000000; stroke-width: 0.8; stroke-linejoin: miter; stroke-linecap: square"/>
   </g>
   <g id="legend_1">
    <g id="patch_7">
     <path d="M 45.879688 94.281693 
L 117.779688 94.281693 
Q 119.779688 94.281693 119.779688 92.281693 
L 119.779688 37.519193 
Q 119.779688 35.519193 117.779688 35.519193 
L 45.879688 35.519193 
Q 43.879688 35.519193 43.879688 37.519193 
L 43.879688 92.281693 
Q 43.879688 94.281693 45.879688 94.281693 
z
" style="fill: #ffffff; opacity: 0.8; stroke: #cccccc; stroke-linejoin: miter"/>
    </g>
    <g id="line2d_23">
     <path d="M 47.879688 43.019193 
L 57.879688 43.019193 
L 67.879688 43.019193 
" style="fill: none; stroke: #ff0000; stroke-linecap: square"/>
    </g>
    <g id="text_12">
     <!-- $L=0.5\,\mathrm{m}$ -->
     <g transform="translate(75.879688 46.519193)">
      <text>
       <tspan x="0" y="-0.875" style="font-size: 10px; font-family: 'NewComputerModern Math'">L</tspan>
       <tspan x="7.915982" y="-0.875" style="font-size: 10px; font-family: 'NewComputerModern Math'">=</tspan>
       <tspan x="17.361963" y="-0.875" style="font-size: 10px; font-family: 'NewComputerModern Math'">0</tspan>
       <tspan x="22.361948" y="-0.875" style="font-size: 10px; font-family: 'NewComputerModern Math'">.</tspan>
       <tspan x="25.141931" y="-0.875" style="font-size: 10px; font-family: 'NewComputerModern Math'">5</tspan>
       <tspan x="31.530275" y="-0.875" style="font-size: 10px; font-family: 'NewComputerModern Math'">m</tspan>
      </text>
     </g>
    </g>
    <g id="line2d_24">
     <path d="M 47.879688 56.959818 
L 57.879688 56.959818 
L 67.879688 56.959818 
" style="fill: none; stroke: #e6cd73; stroke-linecap: square"/>
    </g>
    <g id="text_13">
     <!-- $L=1\,\mathrm{m}$ -->
     <g transform="translate(75.879688 60.459818)">
      <text>
       <tspan x="0" y="-0.875" style="font-size: 10px; font-family: 'NewComputerModern Math'">L</tspan>
       <tspan x="7.915982" y="-0.875" style="font-size: 10px; font-family: 'NewComputerModern Math'">=</tspan>
       <tspan x="17.361963" y="-0.875" style="font-size: 10px; font-family: 'NewComputerModern Math'">1</tspan>
       <tspan x="23.750306" y="-0.875" style="font-size: 10px; font-family: 'NewComputerModern Math'">m</tspan>
      </text>
     </g>
    </g>
    <g id="line2d_25">
     <path d="M 47.879688 70.900443 
L 57.879688 70.900443 
L 67.879688 70.900443 
" style="fill: none; stroke: #4df3ce; stroke-linecap: square"/>
    </g>
    <g id="text_14">
     <!-- $L=2\,\mathrm{m}$ -->
     <g transform="translate(75.879688 74.400443)">
      <text>
       <tspan x="0" y="-0.875" style="font-size: 10px; font-family: 'NewComputerModern Math'">L</tspan>
       <tspan x="7.915982" y="-0.875" style="font-size: 10px; font-family: 'NewComputerModern Math'">=</tspan>
       <tspan x="17.361963" y="-0.875" style="font-size: 10px; font-family: 'NewComputerModern Math'">2</tspan>
       <tspan x="23.750306" y="-0.875" style="font-size: 10px; font-family: 'NewComputerModern Math'">m</tspan>
      </text>
     </g>
    </g>
    <g id="line2d_26">
     <path d="M 47.879688 84.841068 
L 57.879688 84.841068 
L 67.879688 84.841068 
" style="fill: none; stroke: #4e4dfc; stroke-linecap: square"/>
    </g>
    <g id="text_15">
     <!-- $L=4\,\mathrm{m}$ -->
     <g transform="translate(75.879688 88.341068)">
      <text>
       <tspan x="0" y="-0.875" style="font-size: 10px; font-family: 'NewComputerModern Math'">L</tspan>
       <tspan x="7.915982" y="-0.875" style="font-size: 10px; font-family: 'NewComputerModern Math'">=</tspan>
       <tspan x="17.361963" y="-0.875" style="font-size: 10px; font-family: 'NewComputerModern Math'">4</tspan>
       <tspan x="23.750306" y="-0.875" style="font-size: 10px; font-family: 'NewComputerModern Math'">m</tspan>
      </text>
     </g>
    </g>
   </g>
  </g>
 </g>
 <defs>
  <clipPath id="p75cf6c90d3">
   <rect x="38.879688" y="7.2" width="164.76378" height="92.081693"/>
  </clipPath>
 </defs>
</svg>
