<?xml version="1.0" encoding="utf-8" standalone="no"?>
<!DOCTYPE svg PUBLIC "-//W3C//DTD SVG 1.1//EN"
  "http://www.w3.org/Graphics/SVG/1.1/DTD/svg11.dtd">
<svg xmlns:xlink="http://www.w3.org/1999/xlink" width="213.074517pt" height="132.862943pt" viewBox="0 0 213.074517 132.862943" xmlns="http://www.w3.org/2000/svg" version="1.1">
 <metadata>
  <rdf:RDF xmlns:dc="http://purl.org/dc/elements/1.1/" xmlns:cc="http://creativecommons.org/ns#" xmlns:rdf="http://www.w3.org/1999/02/22-rdf-syntax-ns#">
   <cc:Work>
    <dc:type rdf:resource="http://purl.org/dc/dcmitype/StillImage"/>
    <dc:date>2026-04-20T14:03:23.466691</dc:date>
    <dc:format>image/svg+xml</dc:format>
    <dc:creator>
     <cc:Agent>
      <dc:title>Matplotlib v3.10.8, https://matplotlib.org/</dc:title>
     </cc:Agent>
    </dc:creator>
   </cc:Work>
  </rdf:RDF>
 </metadata>
 <defs>
  <style type="text/css">*{stroke-linejoin: round; stroke-linecap: butt}</style>
 </defs>
 <g id="figure_1">
  <g id="patch_1">
   <path d="M 0 132.862943 
L 213.074517 132.862943 
L 213.074517 0 
L 0 0 
z
" style="fill: #ffffff"/>
  </g>
  <g id="axes_1">
   <g id="patch_2">
    <path d="M 41.1 99.281693 
L 205.86378 99.281693 
L 205.86378 7.2 
L 41.1 7.2 
z
" style="fill: #ffffff"/>
   </g>
   <g id="matplotlib.axis_1">
    <g id="xtick_1">
     <g id="line2d_1">
      <defs>
       <path id="m10efab54a3" d="M 0 0 
L 0 -4 
" style="stroke: #000000"/>
      </defs>
      <g>
       <use xlink:href="#m10efab54a3" x="47.07628" y="99.281693" style="stroke: #000000"/>
      </g>
     </g>
     <g id="line2d_2">
      <defs>
       <path id="m03decdb013" d="M 0 0 
L 0 4 
" style="stroke: #000000"/>
      </defs>
      <g>
       <use xlink:href="#m03decdb013" x="47.07628" y="7.2" style="stroke: #000000"/>
      </g>
     </g>
     <g id="text_1">
      <text style="font-size: 10px; font-family: 'NewComputerModern'; text-anchor: middle" x="47.07628" y="109.722318" transform="rotate(-0 47.07628 109.722318)">0</text>
     </g>
    </g>
    <g id="xtick_2">
     <g id="line2d_3">
      <g>
       <use xlink:href="#m10efab54a3" x="84.900839" y="99.281693" style="stroke: #000000"/>
      </g>
     </g>
     <g id="line2d_4">
      <g>
       <use xlink:href="#m03decdb013" x="84.900839" y="7.2" style="stroke: #000000"/>
      </g>
     </g>
     <g id="text_2">
      <text style="font-size: 10px; font-family: 'NewComputerModern'; text-anchor: middle" x="84.900839" y="109.722318" transform="rotate(-0 84.900839 109.722318)">25</text>
     </g>
    </g>
    <g id="xtick_3">
     <g id="line2d_5">
      <g>
       <use xlink:href="#m10efab54a3" x="122.725399" y="99.281693" style="stroke: #000000"/>
      </g>
     </g>
     <g id="line2d_6">
      <g>
       <use xlink:href="#m03decdb013" x="122.725399" y="7.2" style="stroke: #000000"/>
      </g>
     </g>
     <g id="text_3">
      <text style="font-size: 10px; font-family: 'NewComputerModern'; text-anchor: middle" x="122.725399" y="109.722318" transform="rotate(-0 122.725399 109.722318)">50</text>
     </g>
    </g>
    <g id="xtick_4">
     <g id="line2d_7">
      <g>
       <use xlink:href="#m10efab54a3" x="160.549958" y="99.281693" style="stroke: #000000"/>
      </g>
     </g>
     <g id="line2d_8">
      <g>
       <use xlink:href="#m03decdb013" x="160.549958" y="7.2" style="stroke: #000000"/>
      </g>
     </g>
     <g id="text_4">
      <text style="font-size: 10px; font-family: 'NewComputerModern'; text-anchor: middle" x="160.549958" y="109.722318" transform="rotate(-0 160.549958 109.722318)">75</text>
     </g>
    </g>
    <g id="xtick_5">
     <g id="line2d_9">
      <g>
       <use xlink:href="#m10efab54a3" x="198.374517" y="99.281693" style="stroke: #000000"/>
      </g>
     </g>
     <g id="line2d_10">
      <g>
       <use xlink:href="#m03decdb013" x="198.374517" y="7.2" style="stroke: #000000"/>
      </g>
     </g>
     <g id="text_5">
      <text style="font-size: 10px; font-family: 'NewComputerModern'; text-anchor: middle" x="198.374517" y="109.722318" transform="rotate(-0 198.374517 109.722318)">100</text>
     </g>
    </g>
    <g id="text_6">
     <!-- $v\,\mathrm{(m/s)}$ -->
     <g transform="translate(107.58189 123.162943)">
      <text>
       <tspan x="0" y="-0.234375" style="font-size: 10px; font-family: 'NewComputerModern Math'">v</tspan>
       <tspan x="6.668342" y="-0.234375" style="font-size: 10px; font-family: 'NewComputerModern Math'">(</tspan>
       <tspan x="10.558327" y="-0.234375" style="font-size: 10px; font-family: 'NewComputerModern Math'">m</tspan>
       <tspan x="18.888313" y="-0.234375" style="font-size: 10px; font-family: 'NewComputerModern Math'">/</tspan>
       <tspan x="23.888298" y="-0.234375" style="font-size: 10px; font-family: 'NewComputerModern Math'">s</tspan>
       <tspan x="27.828285" y="-0.234375" style="font-size: 10px; font-family: 'NewComputerModern Math'">)</tspan>
      </text>
     </g>
    </g>
   </g>
   <g id="matplotlib.axis_2">
    <g id="ytick_1">
     <g id="line2d_11">
      <defs>
       <path id="mae13fb648f" d="M 0 0 
L 4 0 
" style="stroke: #000000"/>
      </defs>
      <g>
       <use xlink:href="#mae13fb648f" x="41.1" y="98.076231" style="stroke: #000000"/>
      </g>
     </g>
     <g id="line2d_12">
      <defs>
       <path id="m1623877716" d="M 0 0 
L -4 0 
" style="stroke: #000000"/>
      </defs>
      <g>
       <use xlink:href="#m1623877716" x="205.86378" y="98.076231" style="stroke: #000000"/>
      </g>
     </g>
     <g id="text_7">
      <text style="font-size: 10px; font-family: 'NewComputerModern'; text-anchor: end" x="37.6" y="101.546544" transform="rotate(-0 37.6 101.546544)">0</text>
     </g>
    </g>
    <g id="ytick_2">
     <g id="line2d_13">
      <g>
       <use xlink:href="#mae13fb648f" x="41.1" y="71.702234" style="stroke: #000000"/>
      </g>
     </g>
     <g id="line2d_14">
      <g>
       <use xlink:href="#m1623877716" x="205.86378" y="71.702234" style="stroke: #000000"/>
      </g>
     </g>
     <g id="text_8">
      <text style="font-size: 10px; font-family: 'NewComputerModern'; text-anchor: end" x="37.6" y="75.172547" transform="rotate(-0 37.6 75.172547)">100</text>
     </g>
    </g>
    <g id="ytick_3">
     <g id="line2d_15">
      <g>
       <use xlink:href="#mae13fb648f" x="41.1" y="45.328237" style="stroke: #000000"/>
      </g>
     </g>
     <g id="line2d_16">
      <g>
       <use xlink:href="#m1623877716" x="205.86378" y="45.328237" style="stroke: #000000"/>
      </g>
     </g>
     <g id="text_9">
      <text style="font-size: 10px; font-family: 'NewComputerModern'; text-anchor: end" x="37.6" y="48.798549" transform="rotate(-0 37.6 48.798549)">200</text>
     </g>
    </g>
    <g id="ytick_4">
     <g id="line2d_17">
      <g>
       <use xlink:href="#mae13fb648f" x="41.1" y="18.954239" style="stroke: #000000"/>
      </g>
     </g>
     <g id="line2d_18">
      <g>
       <use xlink:href="#m1623877716" x="205.86378" y="18.954239" style="stroke: #000000"/>
      </g>
     </g>
     <g id="text_10">
      <text style="font-size: 10px; font-family: 'NewComputerModern'; text-anchor: end" x="37.6" y="22.424552" transform="rotate(-0 37.6 22.424552)">300</text>
     </g>
    </g>
    <g id="text_11">
     <!-- $\frac{F_b}{F_l^0}$    -->
     <g transform="translate(7.2 44.720846)">
      <text>
       <tspan x="0" y="-6.104688" style="font-size: 8.4px; font-family: 'NewComputerModern Math'">F</tspan>
       <tspan x="0" y="6.384375" style="font-size: 8.4px; font-family: 'NewComputerModern Math'">F</tspan>
       <tspan x="5.485188" y="-4.959531" style="font-size: 5.88px; font-family: 'NewComputerModern Math'">b</tspan>
       <tspan x="5.485188" y="8.292969" style="font-size: 5.88px; font-family: 'NewComputerModern Math'">l</tspan>
       <tspan x="6.087863" y="2.894219" style="font-size: 5.88px; font-family: 'NewComputerModern Math'">0</tspan>
       <tspan x="10.718715" y="-0.265469" style="font-size: 12px; font-family: 'NewComputerModern'"> </tspan>
       <tspan x="14.714702" y="-0.265469" style="font-size: 12px; font-family: 'NewComputerModern'"> </tspan>
       <tspan x="18.710689" y="-0.265469" style="font-size: 12px; font-family: 'NewComputerModern'"> </tspan>
      </text>
      <rect x="0" y="-2.898281" width="9.218715" height="0.75"/>
     </g>
    </g>
   </g>
   <g id="line2d_19">
    <path d="M 48.589263 87.614603 
L 50.102245 91.526797 
L 51.615227 92.639261 
L 53.12821 93.166363 
L 54.641192 93.492558 
L 56.154175 93.72643 
L 57.667157 93.907968 
L 59.180139 94.055108 
L 60.693122 94.177371 
L 62.206104 94.280567 
L 63.719086 94.368627 
L 65.232069 94.444406 
L 66.745051 94.510069 
L 68.258033 94.567306 
L 69.771016 94.617462 
L 71.283998 94.661622 
L 72.796981 94.700671 
L 74.309963 94.735337 
L 75.822945 94.766224 
L 77.335928 94.793836 
L 78.84891 94.818596 
L 80.361892 94.840862 
L 81.874875 94.860938 
L 83.387857 94.879084 
L 84.900839 94.895524 
L 86.413822 94.910449 
L 87.926804 94.924026 
L 89.439787 94.936401 
L 90.952769 94.947699 
L 92.465751 94.958031 
L 93.978734 94.967496 
L 95.491716 94.976178 
L 97.004698 94.984155 
L 98.517681 94.991493 
L 100.030663 94.998252 
L 101.543645 95.004487 
L 103.056628 95.010244 
L 104.56961 95.015567 
L 106.082593 95.020495 
L 107.595575 95.025061 
L 109.108557 95.029297 
L 110.62154 95.033232 
L 112.134522 95.03689 
L 113.647504 95.040295 
L 115.160487 95.043468 
L 116.673469 95.046427 
L 118.186451 95.04919 
L 119.699434 95.051773 
L 121.212416 95.054189 
L 122.725399 95.056452 
L 124.238381 95.058574 
L 125.751363 95.060566 
L 127.264346 95.062437 
L 128.777328 95.064197 
L 130.29031 95.065854 
L 131.803293 95.067416 
L 133.316275 95.068889 
L 134.829257 95.070281 
L 136.34224 95.071597 
L 137.855222 95.072842 
L 139.368205 95.074022 
L 140.881187 95.075142 
L 142.394169 95.076204 
L 143.907152 95.077214 
L 145.420134 95.078175 
L 146.933116 95.079091 
L 148.446099 95.079964 
L 149.959081 95.080797 
L 151.472064 95.081593 
L 152.985046 95.082355 
L 154.498028 95.083084 
L 156.011011 95.083782 
L 157.523993 95.084453 
L 159.036975 95.085097 
L 160.549958 95.085715 
L 162.06294 95.086311 
L 163.575922 95.086884 
L 165.088905 95.087437 
L 166.601887 95.08797 
L 168.11487 95.088485 
L 169.627852 95.088983 
L 171.140834 95.089465 
L 172.653817 95.089931 
L 174.166799 95.090383 
L 175.679781 95.090821 
L 177.192764 95.091247 
L 178.705746 95.09166 
L 180.218728 95.092061 
L 181.731711 95.092452 
L 183.244693 95.092832 
L 184.757676 95.093202 
L 186.270658 95.093563 
L 187.78364 95.093915 
L 189.296623 95.094258 
L 190.809605 95.094594 
L 192.322587 95.094921 
L 193.83557 95.095242 
L 195.348552 95.095555 
L 196.861534 95.095861 
L 198.374517 95.096161 
" clip-path="url(#p438505c56c)" style="fill: none; stroke: #ff0000; stroke-linecap: square"/>
   </g>
   <g id="line2d_20">
    <path d="M 48.589263 76.724736 
L 50.102245 84.595866 
L 51.615227 86.765964 
L 53.12821 87.743009 
L 54.641192 88.314214 
L 56.154175 88.705844 
L 57.667157 89.003338 
L 59.180139 89.245246 
L 60.693122 89.451181 
L 62.206104 89.631975 
L 63.719086 89.793985 
L 65.232069 89.941139 
L 66.745051 90.075985 
L 68.258033 90.200273 
L 69.771016 90.315271 
L 71.283998 90.421951 
L 72.796981 90.5211 
L 74.309963 90.613377 
L 75.822945 90.699356 
L 77.335928 90.779545 
L 78.84891 90.854401 
L 80.361892 90.924337 
L 81.874875 90.989732 
L 83.387857 91.050931 
L 84.900839 91.10825 
L 86.413822 91.161979 
L 87.926804 91.212384 
L 89.439787 91.259711 
L 90.952769 91.304182 
L 92.465751 91.346004 
L 93.978734 91.385365 
L 95.491716 91.42244 
L 97.004698 91.457387 
L 98.517681 91.490353 
L 100.030663 91.521473 
L 101.543645 91.550872 
L 103.056628 91.578663 
L 104.56961 91.604953 
L 106.082593 91.629838 
L 107.595575 91.653408 
L 109.108557 91.675747 
L 110.62154 91.696932 
L 112.134522 91.717033 
L 113.647504 91.736117 
L 115.160487 91.754245 
L 116.673469 91.771474 
L 118.186451 91.787857 
L 119.699434 91.803442 
L 121.212416 91.818276 
L 122.725399 91.832402 
L 124.238381 91.845858 
L 125.751363 91.858683 
L 127.264346 91.870912 
L 128.777328 91.882575 
L 130.29031 91.893705 
L 131.803293 91.904329 
L 133.316275 91.914474 
L 134.829257 91.924165 
L 136.34224 91.933426 
L 137.855222 91.942279 
L 139.368205 91.950744 
L 140.881187 91.958841 
L 142.394169 91.966589 
L 143.907152 91.974005 
L 145.420134 91.981104 
L 146.933116 91.987904 
L 148.446099 91.994417 
L 149.959081 92.000659 
L 151.472064 92.006641 
L 152.985046 92.012376 
L 154.498028 92.017876 
L 156.011011 92.023151 
L 157.523993 92.028213 
L 159.036975 92.033071 
L 160.549958 92.037734 
L 162.06294 92.042211 
L 163.575922 92.046511 
L 165.088905 92.050642 
L 166.601887 92.05461 
L 168.11487 92.058424 
L 169.627852 92.06209 
L 171.140834 92.065615 
L 172.653817 92.069005 
L 174.166799 92.072265 
L 175.679781 92.075402 
L 177.192764 92.078421 
L 178.705746 92.081326 
L 180.218728 92.084123 
L 181.731711 92.086816 
L 183.244693 92.08941 
L 184.757676 92.091908 
L 186.270658 92.094316 
L 187.78364 92.096635 
L 189.296623 92.098872 
L 190.809605 92.101027 
L 192.322587 92.103106 
L 193.83557 92.105111 
L 195.348552 92.107045 
L 196.861534 92.108911 
L 198.374517 92.110712 
" clip-path="url(#p438505c56c)" style="fill: none; stroke: #e6cd73; stroke-linecap: square"/>
   </g>
   <g id="line2d_21">
    <path d="M 48.589263 54.945001 
L 50.102245 70.734001 
L 51.615227 75.019219 
L 53.12821 76.894655 
L 54.641192 77.949735 
L 56.154175 78.641749 
L 57.667157 79.143701 
L 59.180139 79.534143 
L 60.693122 79.853645 
L 62.206104 80.125235 
L 63.719086 80.362939 
L 65.232069 80.57578 
L 66.745051 80.769807 
L 68.258033 80.949214 
L 69.771016 81.116979 
L 71.283998 81.275258 
L 72.796981 81.425632 
L 74.309963 81.569277 
L 75.822945 81.707071 
L 77.335928 81.839674 
L 78.84891 81.967591 
L 80.361892 82.091204 
L 81.874875 82.210814 
L 83.387857 82.326652 
L 84.900839 82.438907 
L 86.413822 82.547732 
L 87.926804 82.653254 
L 89.439787 82.755586 
L 90.952769 82.854825 
L 92.465751 82.951062 
L 93.978734 83.044381 
L 95.491716 83.134863 
L 97.004698 83.222584 
L 98.517681 83.30762 
L 100.030663 83.390045 
L 101.543645 83.469934 
L 103.056628 83.547358 
L 104.56961 83.62239 
L 106.082593 83.695099 
L 107.595575 83.765556 
L 109.108557 83.833831 
L 110.62154 83.899991 
L 112.134522 83.964104 
L 113.647504 84.026234 
L 115.160487 84.086446 
L 116.673469 84.144803 
L 118.186451 84.201365 
L 119.699434 84.256194 
L 121.212416 84.309346 
L 122.725399 84.360878 
L 124.238381 84.410845 
L 125.751363 84.4593 
L 127.264346 84.506295 
L 128.777328 84.551879 
L 130.29031 84.5961 
L 131.803293 84.639005 
L 133.316275 84.680639 
L 134.829257 84.721045 
L 136.34224 84.760265 
L 137.855222 84.79834 
L 139.368205 84.835308 
L 140.881187 84.871206 
L 142.394169 84.906072 
L 143.907152 84.939939 
L 145.420134 84.972841 
L 146.933116 85.004811 
L 148.446099 85.035879 
L 149.959081 85.066076 
L 151.472064 85.09543 
L 152.985046 85.123969 
L 154.498028 85.15172 
L 156.011011 85.178708 
L 157.523993 85.204958 
L 159.036975 85.230495 
L 160.549958 85.25534 
L 162.06294 85.279516 
L 163.575922 85.303045 
L 165.088905 85.325946 
L 166.601887 85.348241 
L 168.11487 85.369946 
L 169.627852 85.391082 
L 171.140834 85.411665 
L 172.653817 85.431713 
L 174.166799 85.451242 
L 175.679781 85.470268 
L 177.192764 85.488806 
L 178.705746 85.50687 
L 180.218728 85.524476 
L 181.731711 85.541636 
L 183.244693 85.558365 
L 184.757676 85.574674 
L 186.270658 85.590576 
L 187.78364 85.606083 
L 189.296623 85.621206 
L 190.809605 85.635957 
L 192.322587 85.650346 
L 193.83557 85.664383 
L 195.348552 85.678079 
L 196.861534 85.691443 
L 198.374517 85.704485 
" clip-path="url(#p438505c56c)" style="fill: none; stroke: #4df3ce; stroke-linecap: square"/>
   </g>
   <g id="line2d_22">
    <path d="M 48.589263 11.385531 
L 50.102245 43.010272 
L 51.615227 51.525729 
L 53.12821 55.197946 
L 54.641192 57.220765 
L 56.154175 58.513442 
L 57.667157 59.423852 
L 59.180139 60.109963 
L 60.693122 60.653379 
L 62.206104 61.100422 
L 63.719086 61.479328 
L 65.232069 61.808283 
L 66.745051 62.09953 
L 68.258033 62.361615 
L 69.771016 62.60068 
L 71.283998 62.821258 
L 72.796981 63.026764 
L 74.309963 63.21982 
L 75.822945 63.402472 
L 77.335928 63.576341 
L 78.84891 63.742726 
L 80.361892 63.902679 
L 81.874875 64.057061 
L 83.387857 64.206583 
L 84.900839 64.351833 
L 86.413822 64.493304 
L 87.926804 64.631409 
L 89.439787 64.766495 
L 90.952769 64.898856 
L 92.465751 65.028738 
L 93.978734 65.156352 
L 95.491716 65.281875 
L 97.004698 65.405457 
L 98.517681 65.527224 
L 100.030663 65.647281 
L 101.543645 65.76572 
L 103.056628 65.882614 
L 104.56961 65.998025 
L 106.082593 66.112006 
L 107.595575 66.224598 
L 109.108557 66.335838 
L 110.62154 66.445754 
L 112.134522 66.554369 
L 113.647504 66.661702 
L 115.160487 66.767769 
L 116.673469 66.872581 
L 118.186451 66.976148 
L 119.699434 67.078478 
L 121.212416 67.179578 
L 122.725399 67.279453 
L 124.238381 67.378108 
L 125.751363 67.475545 
L 127.264346 67.57177 
L 128.777328 67.666785 
L 130.29031 67.760595 
L 131.803293 67.853203 
L 133.316275 67.944612 
L 134.829257 68.034829 
L 136.34224 68.123856 
L 137.855222 68.2117 
L 139.368205 68.298365 
L 140.881187 68.383859 
L 142.394169 68.468188 
L 143.907152 68.551359 
L 145.420134 68.63338 
L 146.933116 68.714258 
L 148.446099 68.794003 
L 149.959081 68.872623 
L 151.472064 68.950127 
L 152.985046 69.026527 
L 154.498028 69.101831 
L 156.011011 69.176051 
L 157.523993 69.249197 
L 159.036975 69.321281 
L 160.549958 69.392314 
L 162.06294 69.462308 
L 163.575922 69.531275 
L 165.088905 69.599226 
L 166.601887 69.666174 
L 168.11487 69.732132 
L 169.627852 69.797112 
L 171.140834 69.861127 
L 172.653817 69.924189 
L 174.166799 69.986311 
L 175.679781 70.047506 
L 177.192764 70.107787 
L 178.705746 70.167167 
L 180.218728 70.225658 
L 181.731711 70.283273 
L 183.244693 70.340026 
L 184.757676 70.395928 
L 186.270658 70.450993 
L 187.78364 70.505233 
L 189.296623 70.558661 
L 190.809605 70.611288 
L 192.322587 70.663128 
L 193.83557 70.714192 
L 195.348552 70.764493 
L 196.861534 70.814043 
L 198.374517 70.862853 
" clip-path="url(#p438505c56c)" style="fill: none; stroke: #4e4dfc; stroke-linecap: square"/>
   </g>
   <g id="patch_3">
    <path d="M 41.1 99.281693 
L 41.1 7.2 
" style="fill: none; stroke: #000000; stroke-width: 0.8; stroke-linejoin: miter; stroke-linecap: square"/>
   </g>
   <g id="patch_4">
    <path d="M 205.86378 99.281693 
L 205.86378 7.2 
" style="fill: none; stroke: #000000; stroke-width: 0.8; stroke-linejoin: miter; stroke-linecap: square"/>
   </g>
   <g id="patch_5">
    <path d="M 41.1 99.281693 
L 205.86378 99.281693 
" style="fill: none; stroke: #000000; stroke-width: 0.8; stroke-linejoin: miter; stroke-linecap: square"/>
   </g>
   <g id="patch_6">
    <path d="M 41.1 7.2 
L 205.86378 7.2 
" style="fill: none; stroke: #000000; stroke-width: 0.8; stroke-linejoin: miter; stroke-linecap: square"/>
   </g>
   <g id="legend_1">
    <g id="patch_7">
     <path d="M 126.96378 70.9625 
L 198.86378 70.9625 
Q 200.86378 70.9625 200.86378 68.9625 
L 200.86378 14.2 
Q 200.86378 12.2 198.86378 12.2 
L 126.96378 12.2 
Q 124.96378 12.2 124.96378 14.2 
L 124.96378 68.9625 
Q 124.96378 70.9625 126.96378 70.9625 
z
" style="fill: #ffffff; opacity: 0.8; stroke: #cccccc; stroke-linejoin: miter"/>
    </g>
    <g id="line2d_23">
     <path d="M 128.96378 19.7 
L 138.96378 19.7 
L 148.96378 19.7 
" style="fill: none; stroke: #ff0000; stroke-linecap: square"/>
    </g>
    <g id="text_12">
     <!-- $L=0.5\,\mathrm{m}$ -->
     <g transform="translate(156.96378 23.2)">
      <text>
       <tspan x="0" y="-0.875" style="font-size: 10px; font-family: 'NewComputerModern Math'">L</tspan>
       <tspan x="7.915982" y="-0.875" style="font-size: 10px; font-family: 'NewComputerModern Math'">=</tspan>
       <tspan x="17.361963" y="-0.875" style="font-size: 10px; font-family: 'NewComputerModern Math'">0</tspan>
       <tspan x="22.361948" y="-0.875" style="font-size: 10px; font-family: 'NewComputerModern Math'">.</tspan>
       <tspan x="25.141931" y="-0.875" style="font-size: 10px; font-family: 'NewComputerModern Math'">5</tspan>
       <tspan x="31.530275" y="-0.875" style="font-size: 10px; font-family: 'NewComputerModern Math'">m</tspan>
      </text>
     </g>
    </g>
    <g id="line2d_24">
     <path d="M 128.96378 33.640625 
L 138.96378 33.640625 
L 148.96378 33.640625 
" style="fill: none; stroke: #e6cd73; stroke-linecap: square"/>
    </g>
    <g id="text_13">
     <!-- $L=1\,\mathrm{m}$ -->
     <g transform="translate(156.96378 37.140625)">
      <text>
       <tspan x="0" y="-0.875" style="font-size: 10px; font-family: 'NewComputerModern Math'">L</tspan>
       <tspan x="7.915982" y="-0.875" style="font-size: 10px; font-family: 'NewComputerModern Math'">=</tspan>
       <tspan x="17.361963" y="-0.875" style="font-size: 10px; font-family: 'NewComputerModern Math'">1</tspan>
       <tspan x="23.750306" y="-0.875" style="font-size: 10px; font-family: 'NewComputerModern Math'">m</tspan>
      </text>
     </g>
    </g>
    <g id="line2d_25">
     <path d="M 128.96378 47.58125 
L 138.96378 47.58125 
L 148.96378 47.58125 
" style="fill: none; stroke: #4df3ce; stroke-linecap: square"/>
    </g>
    <g id="text_14">
     <!-- $L=2\,\mathrm{m}$ -->
     <g transform="translate(156.96378 51.08125)">
      <text>
       <tspan x="0" y="-0.875" style="font-size: 10px; font-family: 'NewComputerModern Math'">L</tspan>
       <tspan x="7.915982" y="-0.875" style="font-size: 10px; font-family: 'NewComputerModern Math'">=</tspan>
       <tspan x="17.361963" y="-0.875" style="font-size: 10px; font-family: 'NewComputerModern Math'">2</tspan>
       <tspan x="23.750306" y="-0.875" style="font-size: 10px; font-family: 'NewComputerModern Math'">m</tspan>
      </text>
     </g>
    </g>
    <g id="line2d_26">
     <path d="M 128.96378 61.521875 
L 138.96378 61.521875 
L 148.96378 61.521875 
" style="fill: none; stroke: #4e4dfc; stroke-linecap: square"/>
    </g>
    <g id="text_15">
     <!-- $L=4\,\mathrm{m}$ -->
     <g transform="translate(156.96378 65.021875)">
      <text>
       <tspan x="0" y="-0.875" style="font-size: 10px; font-family: 'NewComputerModern Math'">L</tspan>
       <tspan x="7.915982" y="-0.875" style="font-size: 10px; font-family: 'NewComputerModern Math'">=</tspan>
       <tspan x="17.361963" y="-0.875" style="font-size: 10px; font-family: 'NewComputerModern Math'">4</tspan>
       <tspan x="23.750306" y="-0.875" style="font-size: 10px; font-family: 'NewComputerModern Math'">m</tspan>
      </text>
     </g>
    </g>
   </g>
  </g>
 </g>
 <defs>
  <clipPath id="p438505c56c">
   <rect x="41.1" y="7.2" width="164.76378" height="92.081693"/>
  </clipPath>
 </defs>
</svg>
