<?xml version="1.0" encoding="utf-8" standalone="no"?>
<!DOCTYPE svg PUBLIC "-//W3C//DTD SVG 1.1//EN"
  "http://www.w3.org/Graphics/SVG/1.1/DTD/svg11.dtd">
<svg xmlns:xlink="http://www.w3.org/1999/xlink" width="212.813267pt" height="132.859818pt" viewBox="0 0 212.813267 132.859818" xmlns="http://www.w3.org/2000/svg" version="1.1">
 <metadata>
  <rdf:RDF xmlns:dc="http://purl.org/dc/elements/1.1/" xmlns:cc="http://creativecommons.org/ns#" xmlns:rdf="http://www.w3.org/1999/02/22-rdf-syntax-ns#">
   <cc:Work>
    <dc:type rdf:resource="http://purl.org/dc/dcmitype/StillImage"/>
    <dc:date>2026-02-12T16:24:27.249313</dc:date>
    <dc:format>image/svg+xml</dc:format>
    <dc:creator>
     <cc:Agent>
      <dc:title>Matplotlib v3.10.8, https://matplotlib.org/</dc:title>
     </cc:Agent>
    </dc:creator>
   </cc:Work>
  </rdf:RDF>
 </metadata>
 <defs>
  <style type="text/css">*{stroke-linejoin: round; stroke-linecap: butt}</style>
 </defs>
 <g id="figure_1">
  <g id="patch_1">
   <path d="M -0 132.859818 
L 212.813267 132.859818 
L 212.813267 0 
L -0 0 
z
" style="fill: #ffffff"/>
  </g>
  <g id="axes_1">
   <g id="patch_2">
    <path d="M 40.83875 99.281693 
L 205.60253 99.281693 
L 205.60253 7.2 
L 40.83875 7.2 
z
" style="fill: #ffffff"/>
   </g>
   <g id="matplotlib.axis_1">
    <g id="xtick_1">
     <g id="line2d_1">
      <defs>
       <path id="mf36c7b92fd" d="M 0 0 
L 0 -4 
" style="stroke: #000000"/>
      </defs>
      <g>
       <use xlink:href="#mf36c7b92fd" x="46.81503" y="99.281693" style="stroke: #000000"/>
      </g>
     </g>
     <g id="line2d_2">
      <defs>
       <path id="m01eb5fbcae" d="M 0 0 
L 0 4 
" style="stroke: #000000"/>
      </defs>
      <g>
       <use xlink:href="#m01eb5fbcae" x="46.81503" y="7.2" style="stroke: #000000"/>
      </g>
     </g>
     <g id="text_1">
      <text style="font-size: 10px; font-family: 'cmss10', sans-serif; text-anchor: middle" x="46.81503" y="109.720755" transform="rotate(-0 46.81503 109.720755)">0</text>
     </g>
    </g>
    <g id="xtick_2">
     <g id="line2d_3">
      <g>
       <use xlink:href="#mf36c7b92fd" x="84.639589" y="99.281693" style="stroke: #000000"/>
      </g>
     </g>
     <g id="line2d_4">
      <g>
       <use xlink:href="#m01eb5fbcae" x="84.639589" y="7.2" style="stroke: #000000"/>
      </g>
     </g>
     <g id="text_2">
      <text style="font-size: 10px; font-family: 'cmss10', sans-serif; text-anchor: middle" x="84.639589" y="109.720755" transform="rotate(-0 84.639589 109.720755)">25</text>
     </g>
    </g>
    <g id="xtick_3">
     <g id="line2d_5">
      <g>
       <use xlink:href="#mf36c7b92fd" x="122.464149" y="99.281693" style="stroke: #000000"/>
      </g>
     </g>
     <g id="line2d_6">
      <g>
       <use xlink:href="#m01eb5fbcae" x="122.464149" y="7.2" style="stroke: #000000"/>
      </g>
     </g>
     <g id="text_3">
      <text style="font-size: 10px; font-family: 'cmss10', sans-serif; text-anchor: middle" x="122.464149" y="109.720755" transform="rotate(-0 122.464149 109.720755)">50</text>
     </g>
    </g>
    <g id="xtick_4">
     <g id="line2d_7">
      <g>
       <use xlink:href="#mf36c7b92fd" x="160.288708" y="99.281693" style="stroke: #000000"/>
      </g>
     </g>
     <g id="line2d_8">
      <g>
       <use xlink:href="#m01eb5fbcae" x="160.288708" y="7.2" style="stroke: #000000"/>
      </g>
     </g>
     <g id="text_4">
      <text style="font-size: 10px; font-family: 'cmss10', sans-serif; text-anchor: middle" x="160.288708" y="109.720755" transform="rotate(-0 160.288708 109.720755)">75</text>
     </g>
    </g>
    <g id="xtick_5">
     <g id="line2d_9">
      <g>
       <use xlink:href="#mf36c7b92fd" x="198.113267" y="99.281693" style="stroke: #000000"/>
      </g>
     </g>
     <g id="line2d_10">
      <g>
       <use xlink:href="#m01eb5fbcae" x="198.113267" y="7.2" style="stroke: #000000"/>
      </g>
     </g>
     <g id="text_5">
      <text style="font-size: 10px; font-family: 'cmss10', sans-serif; text-anchor: middle" x="198.113267" y="109.720755" transform="rotate(-0 198.113267 109.720755)">100</text>
     </g>
    </g>
    <g id="text_6">
     <text style="font-size: 10px; font-family: 'cmss10', sans-serif; text-anchor: middle" x="123.22064" y="123.159818" transform="rotate(-0 123.22064 123.159818)">Velocity in m/s</text>
    </g>
   </g>
   <g id="matplotlib.axis_2">
    <g id="ytick_1">
     <g id="line2d_11">
      <defs>
       <path id="m62aaa2eef2" d="M 0 0 
L 4 0 
" style="stroke: #000000"/>
      </defs>
      <g>
       <use xlink:href="#m62aaa2eef2" x="40.83875" y="88.770033" style="stroke: #000000"/>
      </g>
     </g>
     <g id="line2d_12">
      <defs>
       <path id="mc65fc67f98" d="M 0 0 
L -4 0 
" style="stroke: #000000"/>
      </defs>
      <g>
       <use xlink:href="#mc65fc67f98" x="205.60253" y="88.770033" style="stroke: #000000"/>
      </g>
     </g>
     <g id="text_7">
      <text style="font-size: 10px; font-family: 'cmss10', sans-serif; text-anchor: end" x="37.33875" y="92.239564" transform="rotate(-0 37.33875 92.239564)">0.6</text>
     </g>
    </g>
    <g id="ytick_2">
     <g id="line2d_13">
      <g>
       <use xlink:href="#m62aaa2eef2" x="40.83875" y="49.857284" style="stroke: #000000"/>
      </g>
     </g>
     <g id="line2d_14">
      <g>
       <use xlink:href="#mc65fc67f98" x="205.60253" y="49.857284" style="stroke: #000000"/>
      </g>
     </g>
     <g id="text_8">
      <text style="font-size: 10px; font-family: 'cmss10', sans-serif; text-anchor: end" x="37.33875" y="53.326815" transform="rotate(-0 37.33875 53.326815)">0.8</text>
     </g>
    </g>
    <g id="ytick_3">
     <g id="line2d_15">
      <g>
       <use xlink:href="#m62aaa2eef2" x="40.83875" y="10.944535" style="stroke: #000000"/>
      </g>
     </g>
     <g id="line2d_16">
      <g>
       <use xlink:href="#mc65fc67f98" x="205.60253" y="10.944535" style="stroke: #000000"/>
      </g>
     </g>
     <g id="text_9">
      <text style="font-size: 10px; font-family: 'cmss10', sans-serif; text-anchor: end" x="37.33875" y="14.414066" transform="rotate(-0 37.33875 14.414066)">1.0</text>
     </g>
    </g>
    <g id="text_10">
     <!-- $\frac{F_a}{F_{a}^0}$    -->
     <g transform="translate(7.2 43.300846)">
      <text>
       <tspan x="0" y="-7.857813" style="font-style: oblique; font-size: 9.8px; font-family: 'DejaVu Sans'">F</tspan>
       <tspan x="0" y="7.0675" style="font-style: oblique; font-size: 9.8px; font-family: 'DejaVu Sans'">F</tspan>
       <tspan x="5.636914" y="-6.25" style="font-style: oblique; font-size: 6.86px; font-family: 'DejaVu Sans'">a</tspan>
       <tspan x="5.636914" y="9.747187" style="font-style: oblique; font-size: 6.86px; font-family: 'DejaVu Sans'">a</tspan>
       <tspan x="6.32419" y="3.315937" style="font-size: 6.86px; font-family: 'DejaVu Sans'">0</tspan>
       <tspan x="12.7067" y="-0.017656" style="font-size: 14px; font-family: 'cmss10'"> </tspan>
       <tspan x="17.368809" y="-0.017656" style="font-size: 14px; font-family: 'cmss10'"> </tspan>
       <tspan x="22.030919" y="-0.017656" style="font-size: 14px; font-family: 'cmss10'"> </tspan>
      </text>
      <rect x="0" y="-3.650469" width="10.9567" height="0.875"/>
     </g>
    </g>
   </g>
   <g id="line2d_17">
    <path d="M 48.328013 11.385531 
L 49.840995 11.401843 
L 51.353977 11.427835 
L 52.86696 11.46206 
L 54.379942 11.50299 
L 55.892925 11.549225 
L 57.405907 11.599593 
L 58.918889 11.653161 
L 60.431872 11.709214 
L 61.944854 11.767206 
L 63.457836 11.826725 
L 64.970819 11.887462 
L 66.483801 11.949179 
L 67.996783 12.011694 
L 69.509766 12.074865 
L 71.022748 12.138582 
L 72.535731 12.202757 
L 74.048713 12.267319 
L 75.561695 12.332213 
L 77.074678 12.397391 
L 78.58766 12.462816 
L 80.100642 12.528455 
L 81.613625 12.594283 
L 83.126607 12.660276 
L 84.639589 12.726417 
L 86.152572 12.792688 
L 87.665554 12.859076 
L 89.178537 12.925568 
L 90.691519 12.992156 
L 92.204501 13.058828 
L 93.717484 13.125578 
L 95.230466 13.192398 
L 96.743448 13.259283 
L 98.256431 13.326226 
L 99.769413 13.393223 
L 101.282395 13.46027 
L 102.795378 13.527362 
L 104.30836 13.594496 
L 105.821343 13.66167 
L 107.334325 13.728879 
L 108.847307 13.796122 
L 110.36029 13.863396 
L 111.873272 13.930699 
L 113.386254 13.99803 
L 114.899237 14.065385 
L 116.412219 14.132765 
L 117.925201 14.200167 
L 119.438184 14.26759 
L 120.951166 14.335032 
L 122.464149 14.402493 
L 123.977131 14.469972 
L 125.490113 14.537467 
L 127.003096 14.604977 
L 128.516078 14.672502 
L 130.02906 14.740041 
L 131.542043 14.807594 
L 133.055025 14.875159 
L 134.568007 14.942735 
L 136.08099 15.010323 
L 137.593972 15.077922 
L 139.106955 15.145531 
L 140.619937 15.213149 
L 142.132919 15.280777 
L 143.645902 15.348414 
L 145.158884 15.416059 
L 146.671866 15.483713 
L 148.184849 15.551373 
L 149.697831 15.619042 
L 151.210814 15.686717 
L 152.723796 15.754399 
L 154.236778 15.822088 
L 155.749761 15.889783 
L 157.262743 15.957484 
L 158.775725 16.02519 
L 160.288708 16.092902 
L 161.80169 16.16062 
L 163.314672 16.228342 
L 164.827655 16.296069 
L 166.340637 16.363801 
L 167.85362 16.431538 
L 169.366602 16.499279 
L 170.879584 16.567024 
L 172.392567 16.634773 
L 173.905549 16.702526 
L 175.418531 16.770283 
L 176.931514 16.838043 
L 178.444496 16.905807 
L 179.957478 16.973574 
L 181.470461 17.041345 
L 182.983443 17.109119 
L 184.496426 17.176896 
L 186.009408 17.244676 
L 187.52239 17.312459 
L 189.035373 17.380244 
L 190.548355 17.448033 
L 192.061337 17.515824 
L 193.57432 17.583617 
L 195.087302 17.651413 
L 196.600284 17.719211 
L 198.113267 17.787012 
" clip-path="url(#pef0fe13e3f)" style="fill: none; stroke: #8000ff; stroke-linecap: square"/>
   </g>
   <g id="line2d_18">
    <path d="M 48.328013 11.819725 
L 49.840995 11.940159 
L 51.353977 12.114488 
L 52.86696 12.322361 
L 54.379942 12.55045 
L 55.892925 12.790963 
L 57.405907 13.039426 
L 58.918889 13.293202 
L 60.431872 13.550677 
L 61.944854 13.810821 
L 63.457836 14.072949 
L 64.970819 14.336591 
L 66.483801 14.601414 
L 67.996783 14.867175 
L 69.509766 15.133695 
L 71.022748 15.400835 
L 72.535731 15.668491 
L 74.048713 15.936578 
L 75.561695 16.205031 
L 77.074678 16.473796 
L 78.58766 16.742831 
L 80.100642 17.012098 
L 81.613625 17.281569 
L 83.126607 17.551218 
L 84.639589 17.821025 
L 86.152572 18.090972 
L 87.665554 18.361043 
L 89.178537 18.631226 
L 90.691519 18.901509 
L 92.204501 19.171882 
L 93.717484 19.442337 
L 95.230466 19.712867 
L 96.743448 19.983463 
L 98.256431 20.254122 
L 99.769413 20.524837 
L 101.282395 20.795603 
L 102.795378 21.066418 
L 104.30836 21.337276 
L 105.821343 21.608174 
L 107.334325 21.879109 
L 108.847307 22.150079 
L 110.36029 22.421081 
L 111.873272 22.692111 
L 113.386254 22.963169 
L 114.899237 23.234251 
L 116.412219 23.505356 
L 117.925201 23.776481 
L 119.438184 24.047624 
L 120.951166 24.318784 
L 122.464149 24.589958 
L 123.977131 24.861145 
L 125.490113 25.132341 
L 127.003096 25.403546 
L 128.516078 25.674756 
L 130.02906 25.94597 
L 131.542043 26.217185 
L 133.055025 26.488398 
L 134.568007 26.759607 
L 136.08099 27.030809 
L 137.593972 27.302001 
L 139.106955 27.57318 
L 140.619937 27.844343 
L 142.132919 28.115486 
L 143.645902 28.386605 
L 145.158884 28.657698 
L 146.671866 28.928759 
L 148.184849 29.199785 
L 149.697831 29.470771 
L 151.210814 29.741714 
L 152.723796 30.012607 
L 154.236778 30.283447 
L 155.749761 30.554229 
L 157.262743 30.824947 
L 158.775725 31.095595 
L 160.288708 31.366169 
L 161.80169 31.636663 
L 163.314672 31.907071 
L 164.827655 32.177387 
L 166.340637 32.447604 
L 167.85362 32.717717 
L 169.366602 32.987719 
L 170.879584 33.257604 
L 172.392567 33.527365 
L 173.905549 33.796996 
L 175.418531 34.066489 
L 176.931514 34.335837 
L 178.444496 34.605034 
L 179.957478 34.874073 
L 181.470461 35.142946 
L 182.983443 35.411646 
L 184.496426 35.680166 
L 186.009408 35.948498 
L 187.52239 36.216636 
L 189.035373 36.484571 
L 190.548355 36.752296 
L 192.061337 37.019804 
L 193.57432 37.287088 
L 195.087302 37.554139 
L 196.600284 37.82095 
L 198.113267 38.087514 
" clip-path="url(#pef0fe13e3f)" style="fill: none; stroke: #2adddd; stroke-linecap: square"/>
   </g>
   <g id="line2d_19">
    <path d="M 48.328013 12.315582 
L 49.840995 12.679752 
L 51.353977 13.159718 
L 52.86696 13.694464 
L 54.379942 14.256671 
L 55.892925 14.834035 
L 57.405907 15.420524 
L 58.918889 16.012906 
L 60.431872 16.609304 
L 61.944854 17.208562 
L 63.457836 17.809926 
L 64.970819 18.412886 
L 66.483801 19.017086 
L 67.996783 19.622265 
L 69.509766 20.228233 
L 71.022748 20.834845 
L 72.535731 21.44199 
L 74.048713 22.049578 
L 75.561695 22.65754 
L 77.074678 23.265816 
L 78.58766 23.874358 
L 80.100642 24.483121 
L 81.613625 25.092065 
L 83.126607 25.701152 
L 84.639589 26.310345 
L 86.152572 26.919604 
L 87.665554 27.528889 
L 89.178537 28.138157 
L 90.691519 28.747362 
L 92.204501 29.356453 
L 93.717484 29.965377 
L 95.230466 30.574077 
L 96.743448 31.182491 
L 98.256431 31.790553 
L 99.769413 32.398194 
L 101.282395 33.005343 
L 102.795378 33.611923 
L 104.30836 34.217856 
L 105.821343 34.823063 
L 107.334325 35.427459 
L 108.847307 36.030962 
L 110.36029 36.633486 
L 111.873272 37.234946 
L 113.386254 37.835254 
L 114.899237 38.434324 
L 116.412219 39.03207 
L 117.925201 39.628407 
L 119.438184 40.22325 
L 120.951166 40.816515 
L 122.464149 41.40812 
L 123.977131 41.997986 
L 125.490113 42.586032 
L 127.003096 43.172184 
L 128.516078 43.756365 
L 130.02906 44.338504 
L 131.542043 44.918531 
L 133.055025 45.496379 
L 134.568007 46.071982 
L 136.08099 46.645278 
L 137.593972 47.216208 
L 139.106955 47.784714 
L 140.619937 48.350743 
L 142.132919 48.914241 
L 143.645902 49.475161 
L 145.158884 50.033454 
L 146.671866 50.589079 
L 148.184849 51.141992 
L 149.697831 51.692156 
L 151.210814 52.239533 
L 152.723796 52.78409 
L 154.236778 53.325795 
L 155.749761 53.864618 
L 157.262743 54.400534 
L 158.775725 54.933516 
L 160.288708 55.463541 
L 161.80169 55.99059 
L 163.314672 56.514644 
L 164.827655 57.035685 
L 166.340637 57.553699 
L 167.85362 58.068672 
L 169.366602 58.580593 
L 170.879584 59.089453 
L 172.392567 59.595243 
L 173.905549 60.097956 
L 175.418531 60.597588 
L 176.931514 61.094134 
L 178.444496 61.587593 
L 179.957478 62.077963 
L 181.470461 62.565245 
L 182.983443 63.049439 
L 184.496426 63.530548 
L 186.009408 64.008576 
L 187.52239 64.483528 
L 189.035373 64.955408 
L 190.548355 65.424224 
L 192.061337 65.889982 
L 193.57432 66.352691 
L 195.087302 66.81236 
L 196.600284 67.268998 
L 198.113267 67.722617 
" clip-path="url(#pef0fe13e3f)" style="fill: none; stroke: #d4dd80; stroke-linecap: square"/>
   </g>
   <g id="line2d_20">
    <path d="M 48.328013 12.896356 
L 49.840995 13.660761 
L 51.353977 14.597965 
L 52.86696 15.602442 
L 54.379942 16.63768 
L 55.892925 17.68922 
L 57.405907 18.750389 
L 58.918889 19.817709 
L 60.431872 20.889194 
L 61.944854 21.963626 
L 63.457836 23.040214 
L 64.970819 24.118409 
L 66.483801 25.197803 
L 67.996783 26.278064 
L 69.509766 27.35889 
L 71.022748 28.439986 
L 72.535731 29.521041 
L 74.048713 30.601717 
L 75.561695 31.681647 
L 77.074678 32.760431 
L 78.58766 33.83764 
L 80.100642 34.912821 
L 81.613625 35.985499 
L 83.126607 37.05519 
L 84.639589 38.121399 
L 86.152572 39.183635 
L 87.665554 40.24141 
L 89.178537 41.294247 
L 90.691519 42.341685 
L 92.204501 43.383279 
L 93.717484 44.418606 
L 95.230466 45.447269 
L 96.743448 46.468891 
L 98.256431 47.483125 
L 99.769413 48.489648 
L 101.282395 49.488166 
L 102.795378 50.47841 
L 104.30836 51.460135 
L 105.821343 52.433125 
L 107.334325 53.397187 
L 108.847307 54.352151 
L 110.36029 55.297869 
L 111.873272 56.234216 
L 113.386254 57.161087 
L 114.899237 58.078395 
L 116.412219 58.98607 
L 117.925201 59.884062 
L 119.438184 60.772333 
L 120.951166 61.650861 
L 122.464149 62.519638 
L 123.977131 63.378668 
L 125.490113 64.227965 
L 127.003096 65.067555 
L 128.516078 65.897472 
L 130.02906 66.717761 
L 131.542043 67.528474 
L 133.055025 68.329668 
L 134.568007 69.12141 
L 136.08099 69.90377 
L 137.593972 70.676826 
L 139.106955 71.440658 
L 140.619937 72.195351 
L 142.132919 72.940995 
L 143.645902 73.677682 
L 145.158884 74.405508 
L 146.671866 75.124568 
L 148.184849 75.834964 
L 149.697831 76.536797 
L 151.210814 77.230168 
L 152.723796 77.915184 
L 154.236778 78.591948 
L 155.749761 79.260566 
L 157.262743 79.921145 
L 158.775725 80.57379 
L 160.288708 81.218609 
L 161.80169 81.855708 
L 163.314672 82.485193 
L 164.827655 83.10717 
L 166.340637 83.721746 
L 167.85362 84.329025 
L 169.366602 84.929111 
L 170.879584 85.522109 
L 172.392567 86.10812 
L 173.905549 86.687248 
L 175.418531 87.259593 
L 176.931514 87.825255 
L 178.444496 88.384333 
L 179.957478 88.936925 
L 181.470461 89.483129 
L 182.983443 90.023038 
L 184.496426 90.556749 
L 186.009408 91.084354 
L 187.52239 91.605945 
L 189.035373 92.121613 
L 190.548355 92.631448 
L 192.061337 93.135537 
L 193.57432 93.633968 
L 195.087302 94.126826 
L 196.600284 94.614196 
L 198.113267 95.096161 
" clip-path="url(#pef0fe13e3f)" style="fill: none; stroke: #ff0000; stroke-linecap: square"/>
   </g>
   <g id="patch_3">
    <path d="M 40.83875 99.281693 
L 40.83875 7.2 
" style="fill: none; stroke: #000000; stroke-width: 0.8; stroke-linejoin: miter; stroke-linecap: square"/>
   </g>
   <g id="patch_4">
    <path d="M 205.60253 99.281693 
L 205.60253 7.2 
" style="fill: none; stroke: #000000; stroke-width: 0.8; stroke-linejoin: miter; stroke-linecap: square"/>
   </g>
   <g id="patch_5">
    <path d="M 40.83875 99.281693 
L 205.60253 99.281693 
" style="fill: none; stroke: #000000; stroke-width: 0.8; stroke-linejoin: miter; stroke-linecap: square"/>
   </g>
   <g id="patch_6">
    <path d="M 40.83875 7.2 
L 205.60253 7.2 
" style="fill: none; stroke: #000000; stroke-width: 0.8; stroke-linejoin: miter; stroke-linecap: square"/>
   </g>
   <g id="legend_1">
    <g id="patch_7">
     <path d="M 47.83875 94.281693 
L 125.884062 94.281693 
Q 127.884062 94.281693 127.884062 92.281693 
L 127.884062 37.525443 
Q 127.884062 35.525443 125.884062 35.525443 
L 47.83875 35.525443 
Q 45.83875 35.525443 45.83875 37.525443 
L 45.83875 92.281693 
Q 45.83875 94.281693 47.83875 94.281693 
z
" style="fill: #ffffff; opacity: 0.8; stroke: #cccccc; stroke-linejoin: miter"/>
    </g>
    <g id="line2d_21">
     <path d="M 49.83875 43.025443 
L 59.83875 43.025443 
L 69.83875 43.025443 
" style="fill: none; stroke: #8000ff; stroke-linecap: square"/>
    </g>
    <g id="text_11">
     <text style="font-size: 10px; font-family: 'cmss10', sans-serif; text-anchor: start" x="77.83875" y="46.525443" transform="rotate(-0 77.83875 46.525443)">2a=1.0 cm</text>
    </g>
    <g id="line2d_22">
     <path d="M 49.83875 56.964505 
L 59.83875 56.964505 
L 69.83875 56.964505 
" style="fill: none; stroke: #2adddd; stroke-linecap: square"/>
    </g>
    <g id="text_12">
     <text style="font-size: 10px; font-family: 'cmss10', sans-serif; text-anchor: start" x="77.83875" y="60.464505" transform="rotate(-0 77.83875 60.464505)">2a=2.0 cm</text>
    </g>
    <g id="line2d_23">
     <path d="M 49.83875 70.903568 
L 59.83875 70.903568 
L 69.83875 70.903568 
" style="fill: none; stroke: #d4dd80; stroke-linecap: square"/>
    </g>
    <g id="text_13">
     <text style="font-size: 10px; font-family: 'cmss10', sans-serif; text-anchor: start" x="77.83875" y="74.403568" transform="rotate(-0 77.83875 74.403568)">2a=3.0 cm</text>
    </g>
    <g id="line2d_24">
     <path d="M 49.83875 84.84263 
L 59.83875 84.84263 
L 69.83875 84.84263 
" style="fill: none; stroke: #ff0000; stroke-linecap: square"/>
    </g>
    <g id="text_14">
     <text style="font-size: 10px; font-family: 'cmss10', sans-serif; text-anchor: start" x="77.83875" y="88.34263" transform="rotate(-0 77.83875 88.34263)">2a=4.0 cm</text>
    </g>
   </g>
  </g>
 </g>
 <defs>
  <clipPath id="pef0fe13e3f">
   <rect x="40.83875" y="7.2" width="164.76378" height="92.081693"/>
  </clipPath>
 </defs>
</svg>
