<?xml version="1.0" encoding="utf-8" standalone="no"?>
<!DOCTYPE svg PUBLIC "-//W3C//DTD SVG 1.1//EN"
  "http://www.w3.org/Graphics/SVG/1.1/DTD/svg11.dtd">
<svg xmlns:xlink="http://www.w3.org/1999/xlink" width="215.854204pt" height="132.862943pt" viewBox="0 0 215.854204 132.862943" xmlns="http://www.w3.org/2000/svg" version="1.1">
 <metadata>
  <rdf:RDF xmlns:dc="http://purl.org/dc/elements/1.1/" xmlns:cc="http://creativecommons.org/ns#" xmlns:rdf="http://www.w3.org/1999/02/22-rdf-syntax-ns#">
   <cc:Work>
    <dc:type rdf:resource="http://purl.org/dc/dcmitype/StillImage"/>
    <dc:date>2026-04-20T14:00:56.195572</dc:date>
    <dc:format>image/svg+xml</dc:format>
    <dc:creator>
     <cc:Agent>
      <dc:title>Matplotlib v3.10.8, https://matplotlib.org/</dc:title>
     </cc:Agent>
    </dc:creator>
   </cc:Work>
  </rdf:RDF>
 </metadata>
 <defs>
  <style type="text/css">*{stroke-linejoin: round; stroke-linecap: butt}</style>
 </defs>
 <g id="figure_1">
  <g id="patch_1">
   <path d="M 0 132.862943 
L 215.854204 132.862943 
L 215.854204 0 
L 0 0 
z
" style="fill: #ffffff"/>
  </g>
  <g id="axes_1">
   <g id="patch_2">
    <path d="M 43.879688 99.281693 
L 208.643467 99.281693 
L 208.643467 7.2 
L 43.879688 7.2 
z
" style="fill: #ffffff"/>
   </g>
   <g id="matplotlib.axis_1">
    <g id="xtick_1">
     <g id="line2d_1">
      <defs>
       <path id="m8bfa8ebf69" d="M 0 0 
L 0 -4 
" style="stroke: #000000"/>
      </defs>
      <g>
       <use xlink:href="#m8bfa8ebf69" x="51.36895" y="99.281693" style="stroke: #000000"/>
      </g>
     </g>
     <g id="line2d_2">
      <defs>
       <path id="m2bc318499d" d="M 0 0 
L 0 4 
" style="stroke: #000000"/>
      </defs>
      <g>
       <use xlink:href="#m2bc318499d" x="51.36895" y="7.2" style="stroke: #000000"/>
      </g>
     </g>
     <g id="text_1">
      <text style="font-size: 10px; font-family: 'NewComputerModern'; text-anchor: middle" x="51.36895" y="109.722318" transform="rotate(-0 51.36895 109.722318)">0</text>
     </g>
    </g>
    <g id="xtick_2">
     <g id="line2d_3">
      <g>
       <use xlink:href="#m8bfa8ebf69" x="88.815264" y="99.281693" style="stroke: #000000"/>
      </g>
     </g>
     <g id="line2d_4">
      <g>
       <use xlink:href="#m2bc318499d" x="88.815264" y="7.2" style="stroke: #000000"/>
      </g>
     </g>
     <g id="text_2">
      <text style="font-size: 10px; font-family: 'NewComputerModern'; text-anchor: middle" x="88.815264" y="109.722318" transform="rotate(-0 88.815264 109.722318)">25</text>
     </g>
    </g>
    <g id="xtick_3">
     <g id="line2d_5">
      <g>
       <use xlink:href="#m8bfa8ebf69" x="126.261577" y="99.281693" style="stroke: #000000"/>
      </g>
     </g>
     <g id="line2d_6">
      <g>
       <use xlink:href="#m2bc318499d" x="126.261577" y="7.2" style="stroke: #000000"/>
      </g>
     </g>
     <g id="text_3">
      <text style="font-size: 10px; font-family: 'NewComputerModern'; text-anchor: middle" x="126.261577" y="109.722318" transform="rotate(-0 126.261577 109.722318)">50</text>
     </g>
    </g>
    <g id="xtick_4">
     <g id="line2d_7">
      <g>
       <use xlink:href="#m8bfa8ebf69" x="163.707891" y="99.281693" style="stroke: #000000"/>
      </g>
     </g>
     <g id="line2d_8">
      <g>
       <use xlink:href="#m2bc318499d" x="163.707891" y="7.2" style="stroke: #000000"/>
      </g>
     </g>
     <g id="text_4">
      <text style="font-size: 10px; font-family: 'NewComputerModern'; text-anchor: middle" x="163.707891" y="109.722318" transform="rotate(-0 163.707891 109.722318)">75</text>
     </g>
    </g>
    <g id="xtick_5">
     <g id="line2d_9">
      <g>
       <use xlink:href="#m8bfa8ebf69" x="201.154204" y="99.281693" style="stroke: #000000"/>
      </g>
     </g>
     <g id="line2d_10">
      <g>
       <use xlink:href="#m2bc318499d" x="201.154204" y="7.2" style="stroke: #000000"/>
      </g>
     </g>
     <g id="text_5">
      <text style="font-size: 10px; font-family: 'NewComputerModern'; text-anchor: middle" x="201.154204" y="109.722318" transform="rotate(-0 201.154204 109.722318)">100</text>
     </g>
    </g>
    <g id="text_6">
     <!-- $v\,\mathrm{(m/s)}$ -->
     <g transform="translate(110.361577 123.162943)">
      <text>
       <tspan x="0" y="-0.234375" style="font-size: 10px; font-family: 'NewComputerModern Math'">v</tspan>
       <tspan x="6.668342" y="-0.234375" style="font-size: 10px; font-family: 'NewComputerModern Math'">(</tspan>
       <tspan x="10.558327" y="-0.234375" style="font-size: 10px; font-family: 'NewComputerModern Math'">m</tspan>
       <tspan x="18.888313" y="-0.234375" style="font-size: 10px; font-family: 'NewComputerModern Math'">/</tspan>
       <tspan x="23.888298" y="-0.234375" style="font-size: 10px; font-family: 'NewComputerModern Math'">s</tspan>
       <tspan x="27.828285" y="-0.234375" style="font-size: 10px; font-family: 'NewComputerModern Math'">)</tspan>
      </text>
     </g>
    </g>
   </g>
   <g id="matplotlib.axis_2">
    <g id="ytick_1">
     <g id="line2d_11">
      <defs>
       <path id="mfbc73713d0" d="M 0 0 
L 4 0 
" style="stroke: #000000"/>
      </defs>
      <g>
       <use xlink:href="#mfbc73713d0" x="43.879688" y="95.096161" style="stroke: #000000"/>
      </g>
     </g>
     <g id="line2d_12">
      <defs>
       <path id="m27f31e6f2e" d="M 0 0 
L -4 0 
" style="stroke: #000000"/>
      </defs>
      <g>
       <use xlink:href="#m27f31e6f2e" x="208.643467" y="95.096161" style="stroke: #000000"/>
      </g>
     </g>
     <g id="text_7">
      <text style="font-size: 10px; font-family: 'NewComputerModern'; text-anchor: end" x="40.379688" y="98.566474" transform="rotate(-0 40.379688 98.566474)">0.00</text>
     </g>
    </g>
    <g id="ytick_2">
     <g id="line2d_13">
      <g>
       <use xlink:href="#mfbc73713d0" x="43.879688" y="64.199213" style="stroke: #000000"/>
      </g>
     </g>
     <g id="line2d_14">
      <g>
       <use xlink:href="#m27f31e6f2e" x="208.643467" y="64.199213" style="stroke: #000000"/>
      </g>
     </g>
     <g id="text_8">
      <text style="font-size: 10px; font-family: 'NewComputerModern'; text-anchor: end" x="40.379688" y="67.669526" transform="rotate(-0 40.379688 67.669526)">0.02</text>
     </g>
    </g>
    <g id="ytick_3">
     <g id="line2d_15">
      <g>
       <use xlink:href="#mfbc73713d0" x="43.879688" y="33.302265" style="stroke: #000000"/>
      </g>
     </g>
     <g id="line2d_16">
      <g>
       <use xlink:href="#m27f31e6f2e" x="208.643467" y="33.302265" style="stroke: #000000"/>
      </g>
     </g>
     <g id="text_9">
      <text style="font-size: 10px; font-family: 'NewComputerModern'; text-anchor: end" x="40.379688" y="36.772578" transform="rotate(-0 40.379688 36.772578)">0.04</text>
     </g>
    </g>
    <g id="text_10">
     <!-- $\frac{F_b}{F_l^0}$    -->
     <g transform="translate(7.2 44.720846)">
      <text>
       <tspan x="0" y="-6.104688" style="font-size: 8.4px; font-family: 'NewComputerModern Math'">F</tspan>
       <tspan x="0" y="6.384375" style="font-size: 8.4px; font-family: 'NewComputerModern Math'">F</tspan>
       <tspan x="5.485188" y="-4.959531" style="font-size: 5.88px; font-family: 'NewComputerModern Math'">b</tspan>
       <tspan x="5.485188" y="8.292969" style="font-size: 5.88px; font-family: 'NewComputerModern Math'">l</tspan>
       <tspan x="6.087863" y="2.894219" style="font-size: 5.88px; font-family: 'NewComputerModern Math'">0</tspan>
       <tspan x="10.718715" y="-0.265469" style="font-size: 12px; font-family: 'NewComputerModern'"> </tspan>
       <tspan x="14.714702" y="-0.265469" style="font-size: 12px; font-family: 'NewComputerModern'"> </tspan>
       <tspan x="18.710689" y="-0.265469" style="font-size: 12px; font-family: 'NewComputerModern'"> </tspan>
      </text>
      <rect x="0" y="-2.898281" width="9.218715" height="0.75"/>
     </g>
    </g>
   </g>
   <g id="line2d_17">
    <path d="M 51.36895 95.096161 
L 52.866803 57.689329 
L 54.364655 36.32263 
L 55.862508 25.740743 
L 57.36036 20.007584 
L 58.858213 16.548914 
L 60.356065 14.327673 
L 61.853918 12.888203 
L 63.351771 12.000908 
L 64.849623 11.530528 
L 66.347476 11.385531 
L 67.845328 11.49779 
L 69.343181 11.81383 
L 70.841033 12.290606 
L 72.338886 12.893122 
L 73.836738 13.592844 
L 75.334591 14.366518 
L 76.832443 15.195232 
L 78.330296 16.063637 
L 79.828148 16.959313 
L 81.326001 17.872239 
L 82.823854 18.794358 
L 84.321706 19.719215 
L 85.819559 20.641666 
L 87.317411 21.557636 
L 88.815264 22.463919 
L 90.313116 23.358022 
L 91.810969 24.238028 
L 93.308821 25.102492 
L 94.806674 25.950353 
L 96.304526 26.78086 
L 97.802379 27.593514 
L 99.300232 28.388023 
L 100.798084 29.164255 
L 102.295937 29.922214 
L 103.793789 30.662009 
L 105.291642 31.383831 
L 106.789494 32.08794 
L 108.287347 32.774644 
L 109.785199 33.444293 
L 111.283052 34.097265 
L 112.780904 34.733959 
L 114.278757 35.354789 
L 115.776609 35.960178 
L 117.274462 36.550553 
L 118.772315 37.126343 
L 120.270167 37.687975 
L 121.76802 38.235872 
L 123.265872 38.770451 
L 124.763725 39.292122 
L 126.261577 39.801286 
L 127.75943 40.298335 
L 129.257282 40.783651 
L 130.755135 41.257606 
L 132.252987 41.72056 
L 133.75084 42.172863 
L 135.248693 42.614856 
L 136.746545 43.046866 
L 138.244398 43.469211 
L 139.74225 43.882198 
L 141.240103 44.286123 
L 142.737955 44.681273 
L 144.235808 45.067924 
L 145.73366 45.446341 
L 147.231513 45.816783 
L 148.729365 46.179497 
L 150.227218 46.534721 
L 151.72507 46.882685 
L 153.222923 47.223612 
L 154.720776 47.557715 
L 156.218628 47.885199 
L 157.716481 48.206264 
L 159.214333 48.5211 
L 160.712186 48.829892 
L 162.210038 49.132817 
L 163.707891 49.430046 
L 165.205743 49.721745 
L 166.703596 50.008071 
L 168.201448 50.289179 
L 169.699301 50.565216 
L 171.197153 50.836324 
L 172.695006 51.102641 
L 174.192859 51.364299 
L 175.690711 51.621427 
L 177.188564 51.874147 
L 178.686416 52.122579 
L 180.184269 52.366838 
L 181.682121 52.607034 
L 183.179974 52.843274 
L 184.677826 53.075663 
L 186.175679 53.3043 
L 187.673531 53.529281 
L 189.171384 53.7507 
L 190.669237 53.968647 
L 192.167089 54.18321 
L 193.664942 54.394472 
L 195.162794 54.602515 
L 196.660647 54.807418 
L 198.158499 55.009257 
L 199.656352 55.208107 
L 201.154204 55.404038 
" clip-path="url(#pfcae2a0adc)" style="fill: none; stroke: #ff0000; stroke-linecap: square"/>
   </g>
   <g id="line2d_18">
    <path d="M 51.36895 95.096161 
L 52.866803 76.392745 
L 54.364655 65.70939 
L 55.862508 60.418006 
L 57.36036 57.546187 
L 58.858213 55.793176 
L 60.356065 54.62051 
L 61.853918 53.783104 
L 63.351771 53.157252 
L 64.849623 52.675241 
L 66.347476 52.297754 
L 67.845328 52.000885 
L 69.343181 51.769454 
L 70.841033 51.593335 
L 72.338886 51.465376 
L 73.836738 51.380186 
L 75.334591 51.333439 
L 76.832443 51.321469 
L 78.330296 51.341041 
L 79.828148 51.389221 
L 81.326001 51.463307 
L 82.823854 51.560794 
L 84.321706 51.679348 
L 85.819559 51.816798 
L 87.317411 51.97113 
L 88.815264 52.140479 
L 90.313116 52.323123 
L 91.810969 52.517478 
L 93.308821 52.72209 
L 94.806674 52.935631 
L 96.304526 53.156888 
L 97.802379 53.384757 
L 99.300232 53.618235 
L 100.798084 53.856415 
L 102.295937 54.098475 
L 103.793789 54.343672 
L 105.291642 54.591337 
L 106.789494 54.840869 
L 108.287347 55.091727 
L 109.785199 55.343426 
L 111.283052 55.59553 
L 112.780904 55.847653 
L 114.278757 56.099447 
L 115.776609 56.350604 
L 117.274462 56.600849 
L 118.772315 56.849941 
L 120.270167 57.097664 
L 121.76802 57.343829 
L 123.265872 57.58827 
L 124.763725 57.830841 
L 126.261577 58.071416 
L 127.75943 58.309885 
L 129.257282 58.546153 
L 130.755135 58.780141 
L 132.252987 59.01178 
L 133.75084 59.241012 
L 135.248693 59.467792 
L 136.746545 59.69208 
L 138.244398 59.913848 
L 139.74225 60.133073 
L 141.240103 60.349739 
L 142.737955 60.563836 
L 144.235808 60.775358 
L 145.73366 60.984307 
L 147.231513 61.190685 
L 148.729365 61.394501 
L 150.227218 61.595766 
L 151.72507 61.794493 
L 153.222923 61.9907 
L 154.720776 62.184405 
L 156.218628 62.375628 
L 157.716481 62.564393 
L 159.214333 62.750724 
L 160.712186 62.934646 
L 162.210038 63.116186 
L 163.707891 63.295371 
L 165.205743 63.47223 
L 166.703596 63.646792 
L 168.201448 63.819086 
L 169.699301 63.989144 
L 171.197153 64.156994 
L 172.695006 64.322668 
L 174.192859 64.486197 
L 175.690711 64.647612 
L 177.188564 64.806944 
L 178.686416 64.964224 
L 180.184269 65.119483 
L 181.682121 65.272752 
L 183.179974 65.424061 
L 184.677826 65.573441 
L 186.175679 65.720923 
L 187.673531 65.866536 
L 189.171384 66.010311 
L 190.669237 66.152276 
L 192.167089 66.292461 
L 193.664942 66.430895 
L 195.162794 66.567606 
L 196.660647 66.702622 
L 198.158499 66.835971 
L 199.656352 66.967681 
L 201.154204 67.097778 
" clip-path="url(#pfcae2a0adc)" style="fill: none; stroke: #e6cd73; stroke-linecap: square"/>
   </g>
   <g id="line2d_19">
    <path d="M 51.36895 95.096161 
L 52.866803 85.744453 
L 54.364655 80.402776 
L 55.862508 77.757084 
L 57.36036 76.321174 
L 58.858213 75.444657 
L 60.356065 74.858222 
L 61.853918 74.439034 
L 63.351771 74.124597 
L 64.849623 73.88003 
L 66.347476 73.68438 
L 67.845328 73.52432 
L 69.343181 73.390981 
L 70.841033 73.278247 
L 72.338886 73.181785 
L 73.836738 73.098462 
L 75.334591 73.025976 
L 76.832443 72.962618 
L 78.330296 72.907107 
L 79.828148 72.858478 
L 81.326001 72.816 
L 82.823854 72.779113 
L 84.321706 72.747387 
L 85.819559 72.720485 
L 87.317411 72.69814 
L 88.815264 72.680137 
L 90.313116 72.666293 
L 91.810969 72.656453 
L 93.308821 72.650479 
L 94.806674 72.648242 
L 96.304526 72.649623 
L 97.802379 72.654506 
L 99.300232 72.662777 
L 100.798084 72.674324 
L 102.295937 72.689034 
L 103.793789 72.706796 
L 105.291642 72.727496 
L 106.789494 72.751021 
L 108.287347 72.777261 
L 109.785199 72.806101 
L 111.283052 72.837431 
L 112.780904 72.871139 
L 114.278757 72.907117 
L 115.776609 72.945256 
L 117.274462 72.98545 
L 118.772315 73.027596 
L 120.270167 73.071592 
L 121.76802 73.117338 
L 123.265872 73.164739 
L 124.763725 73.213699 
L 126.261577 73.264129 
L 127.75943 73.31594 
L 129.257282 73.369047 
L 130.755135 73.423369 
L 132.252987 73.478825 
L 133.75084 73.53534 
L 135.248693 73.592841 
L 136.746545 73.651257 
L 138.244398 73.710522 
L 139.74225 73.77057 
L 141.240103 73.831341 
L 142.737955 73.892774 
L 144.235808 73.954814 
L 145.73366 74.017407 
L 147.231513 74.080502 
L 148.729365 74.144049 
L 150.227218 74.208002 
L 151.72507 74.272317 
L 153.222923 74.336951 
L 154.720776 74.401865 
L 156.218628 74.467019 
L 157.716481 74.532379 
L 159.214333 74.59791 
L 160.712186 74.663578 
L 162.210038 74.729354 
L 163.707891 74.795208 
L 165.205743 74.861112 
L 166.703596 74.927039 
L 168.201448 74.992966 
L 169.699301 75.058869 
L 171.197153 75.124725 
L 172.695006 75.190513 
L 174.192859 75.256215 
L 175.690711 75.32181 
L 177.188564 75.387282 
L 178.686416 75.452615 
L 180.184269 75.517792 
L 181.682121 75.582798 
L 183.179974 75.647621 
L 184.677826 75.712248 
L 186.175679 75.776665 
L 187.673531 75.840862 
L 189.171384 75.904829 
L 190.669237 75.968555 
L 192.167089 76.032031 
L 193.664942 76.095248 
L 195.162794 76.158198 
L 196.660647 76.220875 
L 198.158499 76.28327 
L 199.656352 76.345378 
L 201.154204 76.407192 
" clip-path="url(#pfcae2a0adc)" style="fill: none; stroke: #4df3ce; stroke-linecap: square"/>
   </g>
   <g id="line2d_20">
    <path d="M 51.36895 95.096161 
L 52.866803 90.420307 
L 54.364655 87.749468 
L 55.862508 86.426623 
L 57.36036 85.708668 
L 58.858213 85.270409 
L 60.356065 84.977191 
L 61.853918 84.767598 
L 63.351771 84.610379 
L 64.849623 84.488095 
L 66.347476 84.390266 
L 67.845328 84.310225 
L 69.343181 84.243524 
L 70.841033 84.187085 
L 72.338886 84.138708 
L 73.836738 84.096782 
L 75.334591 84.060097 
L 76.832443 84.027728 
L 78.330296 83.998955 
L 79.828148 83.973212 
L 81.326001 83.950045 
L 82.823854 83.929086 
L 84.321706 83.910035 
L 85.819559 83.892647 
L 87.317411 83.876715 
L 88.815264 83.86207 
L 90.313116 83.848566 
L 91.810969 83.836084 
L 93.308821 83.82452 
L 94.806674 83.813789 
L 96.304526 83.803817 
L 97.802379 83.794542 
L 99.300232 83.785911 
L 100.798084 83.777879 
L 102.295937 83.770408 
L 103.793789 83.763468 
L 105.291642 83.75703 
L 106.789494 83.751072 
L 108.287347 83.745577 
L 109.785199 83.740527 
L 111.283052 83.73591 
L 112.780904 83.731716 
L 114.278757 83.727935 
L 115.776609 83.72456 
L 117.274462 83.721587 
L 118.772315 83.719008 
L 120.270167 83.716822 
L 121.76802 83.715023 
L 123.265872 83.71361 
L 124.763725 83.71258 
L 126.261577 83.711931 
L 127.75943 83.711661 
L 129.257282 83.711768 
L 130.755135 83.712251 
L 132.252987 83.713106 
L 133.75084 83.714333 
L 135.248693 83.715929 
L 136.746545 83.717893 
L 138.244398 83.720221 
L 139.74225 83.722911 
L 141.240103 83.72596 
L 142.737955 83.729366 
L 144.235808 83.733125 
L 145.73366 83.737234 
L 147.231513 83.741689 
L 148.729365 83.746487 
L 150.227218 83.751623 
L 151.72507 83.757094 
L 153.222923 83.762895 
L 154.720776 83.769021 
L 156.218628 83.775469 
L 157.716481 83.782232 
L 159.214333 83.789307 
L 160.712186 83.796688 
L 162.210038 83.804371 
L 163.707891 83.812349 
L 165.205743 83.820618 
L 166.703596 83.829172 
L 168.201448 83.838005 
L 169.699301 83.847113 
L 171.197153 83.85649 
L 172.695006 83.86613 
L 174.192859 83.876027 
L 175.690711 83.886177 
L 177.188564 83.896572 
L 178.686416 83.907208 
L 180.184269 83.918079 
L 181.682121 83.929179 
L 183.179974 83.940504 
L 184.677826 83.952046 
L 186.175679 83.963801 
L 187.673531 83.975763 
L 189.171384 83.987927 
L 190.669237 84.000287 
L 192.167089 84.012839 
L 193.664942 84.025575 
L 195.162794 84.038492 
L 196.660647 84.051585 
L 198.158499 84.064847 
L 199.656352 84.078275 
L 201.154204 84.091862 
" clip-path="url(#pfcae2a0adc)" style="fill: none; stroke: #4e4dfc; stroke-linecap: square"/>
   </g>
   <g id="patch_3">
    <path d="M 43.879688 99.281693 
L 43.879688 7.2 
" style="fill: none; stroke: #000000; stroke-width: 0.8; stroke-linejoin: miter; stroke-linecap: square"/>
   </g>
   <g id="patch_4">
    <path d="M 208.643467 99.281693 
L 208.643467 7.2 
" style="fill: none; stroke: #000000; stroke-width: 0.8; stroke-linejoin: miter; stroke-linecap: square"/>
   </g>
   <g id="patch_5">
    <path d="M 43.879688 99.281693 
L 208.643467 99.281693 
" style="fill: none; stroke: #000000; stroke-width: 0.8; stroke-linejoin: miter; stroke-linecap: square"/>
   </g>
   <g id="patch_6">
    <path d="M 43.879688 7.2 
L 208.643467 7.2 
" style="fill: none; stroke: #000000; stroke-width: 0.8; stroke-linejoin: miter; stroke-linecap: square"/>
   </g>
   <g id="legend_1">
    <g id="patch_7">
     <path d="M 50.879688 70.9625 
L 122.779688 70.9625 
Q 124.779688 70.9625 124.779688 68.9625 
L 124.779688 14.2 
Q 124.779688 12.2 122.779688 12.2 
L 50.879688 12.2 
Q 48.879688 12.2 48.879688 14.2 
L 48.879688 68.9625 
Q 48.879688 70.9625 50.879688 70.9625 
z
" style="fill: #ffffff; opacity: 0.8; stroke: #cccccc; stroke-linejoin: miter"/>
    </g>
    <g id="line2d_21">
     <path d="M 52.879688 19.7 
L 62.879688 19.7 
L 72.879688 19.7 
" style="fill: none; stroke: #ff0000; stroke-linecap: square"/>
    </g>
    <g id="text_11">
     <!-- $L=0.5\,\mathrm{m}$ -->
     <g transform="translate(80.879688 23.2)">
      <text>
       <tspan x="0" y="-0.875" style="font-size: 10px; font-family: 'NewComputerModern Math'">L</tspan>
       <tspan x="7.915982" y="-0.875" style="font-size: 10px; font-family: 'NewComputerModern Math'">=</tspan>
       <tspan x="17.361963" y="-0.875" style="font-size: 10px; font-family: 'NewComputerModern Math'">0</tspan>
       <tspan x="22.361948" y="-0.875" style="font-size: 10px; font-family: 'NewComputerModern Math'">.</tspan>
       <tspan x="25.141931" y="-0.875" style="font-size: 10px; font-family: 'NewComputerModern Math'">5</tspan>
       <tspan x="31.530275" y="-0.875" style="font-size: 10px; font-family: 'NewComputerModern Math'">m</tspan>
      </text>
     </g>
    </g>
    <g id="line2d_22">
     <path d="M 52.879688 33.640625 
L 62.879688 33.640625 
L 72.879688 33.640625 
" style="fill: none; stroke: #e6cd73; stroke-linecap: square"/>
    </g>
    <g id="text_12">
     <!-- $L=1\,\mathrm{m}$ -->
     <g transform="translate(80.879688 37.140625)">
      <text>
       <tspan x="0" y="-0.875" style="font-size: 10px; font-family: 'NewComputerModern Math'">L</tspan>
       <tspan x="7.915982" y="-0.875" style="font-size: 10px; font-family: 'NewComputerModern Math'">=</tspan>
       <tspan x="17.361963" y="-0.875" style="font-size: 10px; font-family: 'NewComputerModern Math'">1</tspan>
       <tspan x="23.750306" y="-0.875" style="font-size: 10px; font-family: 'NewComputerModern Math'">m</tspan>
      </text>
     </g>
    </g>
    <g id="line2d_23">
     <path d="M 52.879688 47.58125 
L 62.879688 47.58125 
L 72.879688 47.58125 
" style="fill: none; stroke: #4df3ce; stroke-linecap: square"/>
    </g>
    <g id="text_13">
     <!-- $L=2\,\mathrm{m}$ -->
     <g transform="translate(80.879688 51.08125)">
      <text>
       <tspan x="0" y="-0.875" style="font-size: 10px; font-family: 'NewComputerModern Math'">L</tspan>
       <tspan x="7.915982" y="-0.875" style="font-size: 10px; font-family: 'NewComputerModern Math'">=</tspan>
       <tspan x="17.361963" y="-0.875" style="font-size: 10px; font-family: 'NewComputerModern Math'">2</tspan>
       <tspan x="23.750306" y="-0.875" style="font-size: 10px; font-family: 'NewComputerModern Math'">m</tspan>
      </text>
     </g>
    </g>
    <g id="line2d_24">
     <path d="M 52.879688 61.521875 
L 62.879688 61.521875 
L 72.879688 61.521875 
" style="fill: none; stroke: #4e4dfc; stroke-linecap: square"/>
    </g>
    <g id="text_14">
     <!-- $L=4\,\mathrm{m}$ -->
     <g transform="translate(80.879688 65.021875)">
      <text>
       <tspan x="0" y="-0.875" style="font-size: 10px; font-family: 'NewComputerModern Math'">L</tspan>
       <tspan x="7.915982" y="-0.875" style="font-size: 10px; font-family: 'NewComputerModern Math'">=</tspan>
       <tspan x="17.361963" y="-0.875" style="font-size: 10px; font-family: 'NewComputerModern Math'">4</tspan>
       <tspan x="23.750306" y="-0.875" style="font-size: 10px; font-family: 'NewComputerModern Math'">m</tspan>
      </text>
     </g>
    </g>
   </g>
  </g>
 </g>
 <defs>
  <clipPath id="pfcae2a0adc">
   <rect x="43.879688" y="7.2" width="164.76378" height="92.081693"/>
  </clipPath>
 </defs>
</svg>
