<?xml version="1.0" encoding="utf-8" standalone="no"?>
<!DOCTYPE svg PUBLIC "-//W3C//DTD SVG 1.1//EN"
  "http://www.w3.org/Graphics/SVG/1.1/DTD/svg11.dtd">
<svg xmlns:xlink="http://www.w3.org/1999/xlink" width="371.919434pt" height="223.053698pt" viewBox="0 0 371.919434 223.053698" xmlns="http://www.w3.org/2000/svg" version="1.1">
 <metadata>
  <rdf:RDF xmlns:dc="http://purl.org/dc/elements/1.1/" xmlns:cc="http://creativecommons.org/ns#" xmlns:rdf="http://www.w3.org/1999/02/22-rdf-syntax-ns#">
   <cc:Work>
    <dc:type rdf:resource="http://purl.org/dc/dcmitype/StillImage"/>
    <dc:date>2026-02-12T16:19:05.047897</dc:date>
    <dc:format>image/svg+xml</dc:format>
    <dc:creator>
     <cc:Agent>
      <dc:title>Matplotlib v3.10.8, https://matplotlib.org/</dc:title>
     </cc:Agent>
    </dc:creator>
   </cc:Work>
  </rdf:RDF>
 </metadata>
 <defs>
  <style type="text/css">*{stroke-linejoin: round; stroke-linecap: butt}</style>
 </defs>
 <g id="figure_1">
  <g id="patch_1">
   <path d="M 0 223.053698 
L 371.919434 223.053698 
L 371.919434 0 
L 0 0 
z
" style="fill: #ffffff"/>
  </g>
  <g id="axes_1">
   <g id="patch_2">
    <path d="M 35.191875 191.363386 
L 364.719434 191.363386 
L 364.719434 7.2 
L 35.191875 7.2 
z
" style="fill: #ffffff"/>
   </g>
   <g id="matplotlib.axis_1">
    <g id="xtick_1">
     <g id="line2d_1">
      <defs>
       <path id="md04162ec8e" d="M 0 0 
L 0 -4 
" style="stroke: #000000"/>
      </defs>
      <g>
       <use xlink:href="#md04162ec8e" x="50.1704" y="191.363386" style="stroke: #000000"/>
      </g>
     </g>
     <g id="line2d_2">
      <defs>
       <path id="mefd261dcb2" d="M 0 0 
L 0 4 
" style="stroke: #000000"/>
      </defs>
      <g>
       <use xlink:href="#mefd261dcb2" x="50.1704" y="7.2" style="stroke: #000000"/>
      </g>
     </g>
     <g id="text_1">
      <text style="font-size: 9px; font-family: 'cmss10', sans-serif; text-anchor: middle" x="50.1704" y="201.108542" transform="rotate(-0 50.1704 201.108542)">−2.0</text>
     </g>
    </g>
    <g id="xtick_2">
     <g id="line2d_3">
      <g>
       <use xlink:href="#md04162ec8e" x="87.616714" y="191.363386" style="stroke: #000000"/>
      </g>
     </g>
     <g id="line2d_4">
      <g>
       <use xlink:href="#mefd261dcb2" x="87.616714" y="7.2" style="stroke: #000000"/>
      </g>
     </g>
     <g id="text_2">
      <text style="font-size: 9px; font-family: 'cmss10', sans-serif; text-anchor: middle" x="87.616714" y="201.108542" transform="rotate(-0 87.616714 201.108542)">−1.5</text>
     </g>
    </g>
    <g id="xtick_3">
     <g id="line2d_5">
      <g>
       <use xlink:href="#md04162ec8e" x="125.063027" y="191.363386" style="stroke: #000000"/>
      </g>
     </g>
     <g id="line2d_6">
      <g>
       <use xlink:href="#mefd261dcb2" x="125.063027" y="7.2" style="stroke: #000000"/>
      </g>
     </g>
     <g id="text_3">
      <text style="font-size: 9px; font-family: 'cmss10', sans-serif; text-anchor: middle" x="125.063027" y="201.108542" transform="rotate(-0 125.063027 201.108542)">−1.0</text>
     </g>
    </g>
    <g id="xtick_4">
     <g id="line2d_7">
      <g>
       <use xlink:href="#md04162ec8e" x="162.509341" y="191.363386" style="stroke: #000000"/>
      </g>
     </g>
     <g id="line2d_8">
      <g>
       <use xlink:href="#mefd261dcb2" x="162.509341" y="7.2" style="stroke: #000000"/>
      </g>
     </g>
     <g id="text_4">
      <text style="font-size: 9px; font-family: 'cmss10', sans-serif; text-anchor: middle" x="162.509341" y="201.108542" transform="rotate(-0 162.509341 201.108542)">−0.5</text>
     </g>
    </g>
    <g id="xtick_5">
     <g id="line2d_9">
      <g>
       <use xlink:href="#md04162ec8e" x="199.955655" y="191.363386" style="stroke: #000000"/>
      </g>
     </g>
     <g id="line2d_10">
      <g>
       <use xlink:href="#mefd261dcb2" x="199.955655" y="7.2" style="stroke: #000000"/>
      </g>
     </g>
     <g id="text_5">
      <text style="font-size: 9px; font-family: 'cmss10', sans-serif; text-anchor: middle" x="199.955655" y="201.108542" transform="rotate(-0 199.955655 201.108542)">0.0</text>
     </g>
    </g>
    <g id="xtick_6">
     <g id="line2d_11">
      <g>
       <use xlink:href="#md04162ec8e" x="237.401968" y="191.363386" style="stroke: #000000"/>
      </g>
     </g>
     <g id="line2d_12">
      <g>
       <use xlink:href="#mefd261dcb2" x="237.401968" y="7.2" style="stroke: #000000"/>
      </g>
     </g>
     <g id="text_6">
      <text style="font-size: 9px; font-family: 'cmss10', sans-serif; text-anchor: middle" x="237.401968" y="201.108542" transform="rotate(-0 237.401968 201.108542)">0.5</text>
     </g>
    </g>
    <g id="xtick_7">
     <g id="line2d_13">
      <g>
       <use xlink:href="#md04162ec8e" x="274.848282" y="191.363386" style="stroke: #000000"/>
      </g>
     </g>
     <g id="line2d_14">
      <g>
       <use xlink:href="#mefd261dcb2" x="274.848282" y="7.2" style="stroke: #000000"/>
      </g>
     </g>
     <g id="text_7">
      <text style="font-size: 9px; font-family: 'cmss10', sans-serif; text-anchor: middle" x="274.848282" y="201.108542" transform="rotate(-0 274.848282 201.108542)">1.0</text>
     </g>
    </g>
    <g id="xtick_8">
     <g id="line2d_15">
      <g>
       <use xlink:href="#md04162ec8e" x="312.294595" y="191.363386" style="stroke: #000000"/>
      </g>
     </g>
     <g id="line2d_16">
      <g>
       <use xlink:href="#mefd261dcb2" x="312.294595" y="7.2" style="stroke: #000000"/>
      </g>
     </g>
     <g id="text_8">
      <text style="font-size: 9px; font-family: 'cmss10', sans-serif; text-anchor: middle" x="312.294595" y="201.108542" transform="rotate(-0 312.294595 201.108542)">1.5</text>
     </g>
    </g>
    <g id="xtick_9">
     <g id="line2d_17">
      <g>
       <use xlink:href="#md04162ec8e" x="349.740909" y="191.363386" style="stroke: #000000"/>
      </g>
     </g>
     <g id="line2d_18">
      <g>
       <use xlink:href="#mefd261dcb2" x="349.740909" y="7.2" style="stroke: #000000"/>
      </g>
     </g>
     <g id="text_9">
      <text style="font-size: 9px; font-family: 'cmss10', sans-serif; text-anchor: middle" x="349.740909" y="201.108542" transform="rotate(-0 349.740909 201.108542)">2.0</text>
     </g>
    </g>
    <g id="text_10">
     <text style="font-size: 9px; font-family: 'cmss10', sans-serif; text-anchor: middle" x="199.955655" y="213.603698" transform="rotate(-0 199.955655 213.603698)">x-Position (m)</text>
    </g>
   </g>
   <g id="matplotlib.axis_2">
    <g id="ytick_1">
     <g id="line2d_19">
      <defs>
       <path id="mf85984943f" d="M 0 0 
L 4 0 
" style="stroke: #000000"/>
      </defs>
      <g>
       <use xlink:href="#mf85984943f" x="35.191875" y="182.992323" style="stroke: #000000"/>
      </g>
     </g>
     <g id="line2d_20">
      <defs>
       <path id="m5e7d6146a0" d="M 0 0 
L -4 0 
" style="stroke: #000000"/>
      </defs>
      <g>
       <use xlink:href="#m5e7d6146a0" x="364.719434" y="182.992323" style="stroke: #000000"/>
      </g>
     </g>
     <g id="text_11">
      <text style="font-size: 9px; font-family: 'cmss10', sans-serif; text-anchor: end" x="31.691875" y="186.114901" transform="rotate(-0 31.691875 186.114901)">0.0</text>
     </g>
    </g>
    <g id="ytick_2">
     <g id="line2d_21">
      <g>
       <use xlink:href="#mf85984943f" x="35.191875" y="149.508071" style="stroke: #000000"/>
      </g>
     </g>
     <g id="line2d_22">
      <g>
       <use xlink:href="#m5e7d6146a0" x="364.719434" y="149.508071" style="stroke: #000000"/>
      </g>
     </g>
     <g id="text_12">
      <text style="font-size: 9px; font-family: 'cmss10', sans-serif; text-anchor: end" x="31.691875" y="152.630649" transform="rotate(-0 31.691875 152.630649)">0.2</text>
     </g>
    </g>
    <g id="ytick_3">
     <g id="line2d_23">
      <g>
       <use xlink:href="#mf85984943f" x="35.191875" y="116.023819" style="stroke: #000000"/>
      </g>
     </g>
     <g id="line2d_24">
      <g>
       <use xlink:href="#m5e7d6146a0" x="364.719434" y="116.023819" style="stroke: #000000"/>
      </g>
     </g>
     <g id="text_13">
      <text style="font-size: 9px; font-family: 'cmss10', sans-serif; text-anchor: end" x="31.691875" y="119.146397" transform="rotate(-0 31.691875 119.146397)">0.4</text>
     </g>
    </g>
    <g id="ytick_4">
     <g id="line2d_25">
      <g>
       <use xlink:href="#mf85984943f" x="35.191875" y="82.539567" style="stroke: #000000"/>
      </g>
     </g>
     <g id="line2d_26">
      <g>
       <use xlink:href="#m5e7d6146a0" x="364.719434" y="82.539567" style="stroke: #000000"/>
      </g>
     </g>
     <g id="text_14">
      <text style="font-size: 9px; font-family: 'cmss10', sans-serif; text-anchor: end" x="31.691875" y="85.662145" transform="rotate(-0 31.691875 85.662145)">0.6</text>
     </g>
    </g>
    <g id="ytick_5">
     <g id="line2d_27">
      <g>
       <use xlink:href="#mf85984943f" x="35.191875" y="49.055315" style="stroke: #000000"/>
      </g>
     </g>
     <g id="line2d_28">
      <g>
       <use xlink:href="#m5e7d6146a0" x="364.719434" y="49.055315" style="stroke: #000000"/>
      </g>
     </g>
     <g id="text_15">
      <text style="font-size: 9px; font-family: 'cmss10', sans-serif; text-anchor: end" x="31.691875" y="52.177893" transform="rotate(-0 31.691875 52.177893)">0.8</text>
     </g>
    </g>
    <g id="ytick_6">
     <g id="line2d_29">
      <g>
       <use xlink:href="#mf85984943f" x="35.191875" y="15.571063" style="stroke: #000000"/>
      </g>
     </g>
     <g id="line2d_30">
      <g>
       <use xlink:href="#m5e7d6146a0" x="364.719434" y="15.571063" style="stroke: #000000"/>
      </g>
     </g>
     <g id="text_16">
      <text style="font-size: 9px; font-family: 'cmss10', sans-serif; text-anchor: end" x="31.691875" y="18.693641" transform="rotate(-0 31.691875 18.693641)">1.0</text>
     </g>
    </g>
    <g id="text_17">
     <text style="font-size: 9px; font-family: 'cmss10', sans-serif; text-anchor: middle" x="13.95" y="99.281693" transform="rotate(-90 13.95 99.281693)">Magnetic Field (T)</text>
    </g>
   </g>
   <g id="line2d_31">
    <path d="M 50.1704 182.992323 
L 118.509267 182.881961 
L 119.587829 182.65031 
L 120.27691 182.287832 
L 120.816191 181.752173 
L 121.295552 180.942283 
L 121.744952 179.708684 
L 122.194353 177.734364 
L 122.613794 174.838653 
L 123.033234 170.368357 
L 123.482635 162.913887 
L 123.932036 151.398665 
L 124.441356 131.796925 
L 125.190358 92.186631 
L 125.969319 54.887723 
L 126.5086 38.610622 
L 127.017921 29.215778 
L 127.527241 23.598128 
L 128.036562 20.282233 
L 128.545883 18.333849 
L 129.055204 17.190798 
L 129.594485 16.491204 
L 130.223646 16.046743 
L 131.002607 15.78122 
L 132.201009 15.630868 
L 134.897413 15.5746 
L 166.265582 15.571063 
L 268.279541 15.679705 
L 269.388063 15.918491 
L 270.077144 16.286708 
L 270.616425 16.830847 
L 271.095786 17.653554 
L 271.545186 18.90666 
L 271.994587 20.912136 
L 272.414028 23.85332 
L 272.833468 28.393003 
L 273.282869 35.959771 
L 273.73227 47.63553 
L 274.241591 67.455675 
L 275.020552 108.85743 
L 275.769553 144.235514 
L 276.308834 160.301043 
L 276.818155 169.558022 
L 277.327475 175.089913 
L 277.836796 178.354491 
L 278.346117 180.272581 
L 278.855438 181.39783 
L 279.394719 182.086523 
L 280.02388 182.524057 
L 280.832801 182.791841 
L 282.061163 182.937035 
L 284.907367 182.989528 
L 324.364749 182.992323 
L 349.740909 182.992323 
L 349.740909 182.992323 
" clip-path="url(#pdb586975d3)" style="fill: none; stroke: #8000ff; stroke-linecap: square"/>
   </g>
   <g id="line2d_32">
    <path d="M 50.1704 182.992323 
L 127.796882 182.884103 
L 128.485963 182.60522 
L 129.115124 182.100292 
L 129.774245 181.264027 
L 130.523246 179.918258 
L 131.392087 177.865965 
L 132.470649 174.703541 
L 133.878771 169.82578 
L 135.975975 161.660423 
L 143.615786 131.272036 
L 146.521911 120.920518 
L 149.308195 111.797938 
L 152.06452 103.521985 
L 154.820844 95.944978 
L 157.577168 89.015007 
L 160.333493 82.679992 
L 163.119777 76.830161 
L 165.906061 71.489739 
L 168.722306 66.564611 
L 171.56851 62.027579 
L 174.474635 57.811226 
L 177.410719 53.939872 
L 180.406724 50.355017 
L 183.462649 47.043295 
L 186.578494 43.991066 
L 189.784219 41.159438 
L 193.079824 38.542242 
L 196.495269 36.111984 
L 200.060515 33.848973 
L 203.77556 31.755709 
L 207.670367 29.818079 
L 211.774893 28.026605 
L 216.1191 26.375283 
L 220.732947 24.860518 
L 225.706315 23.464663 
L 231.069163 22.193565 
L 236.911372 21.040632 
L 243.322822 20.005008 
L 250.453313 19.081842 
L 258.512566 18.267629 
L 267.74026 17.56451 
L 277.057835 17.06771 
L 277.896716 17.206024 
L 278.525877 17.530512 
L 279.155038 18.119342 
L 279.814159 19.052815 
L 280.593121 20.571167 
L 281.521882 22.910424 
L 282.690324 26.51061 
L 284.248246 32.095113 
L 286.79485 42.176411 
L 292.277539 63.958018 
L 295.273544 74.86833 
L 298.089788 84.307032 
L 300.846112 92.785762 
L 303.602437 100.553227 
L 306.358761 107.659535 
L 309.115085 114.156704 
L 311.871409 120.095048 
L 314.657694 125.578124 
L 317.473938 130.634902 
L 320.320143 135.29325 
L 323.196307 139.579801 
L 326.132392 143.558597 
L 329.098436 147.207863 
L 332.124401 150.583066 
L 335.240246 153.726169 
L 338.416011 156.616244 
L 341.711616 159.314006 
L 345.097101 161.798298 
L 348.602427 164.096228 
L 349.740909 164.787592 
L 349.740909 164.787592 
" clip-path="url(#pdb586975d3)" style="fill: none; stroke: #2adddd; stroke-linecap: square"/>
   </g>
   <g id="line2d_33">
    <path d="M 50.1704 182.992323 
L 131.452007 182.883411 
L 132.92005 182.603398 
L 134.208332 182.129094 
L 135.466654 181.423335 
L 136.784896 180.418083 
L 138.193018 179.056662 
L 139.7809 177.201345 
L 141.608463 174.712195 
L 143.825507 171.297223 
L 146.671711 166.474582 
L 150.926038 158.775209 
L 161.831495 138.897192 
L 166.744943 130.49144 
L 171.32883 123.083701 
L 175.792877 116.287261 
L 180.226964 109.939464 
L 184.661051 103.979395 
L 189.095138 98.388892 
L 193.589145 93.079577 
L 198.113112 88.076427 
L 202.726959 83.305143 
L 207.400726 78.791237 
L 212.164374 74.499556 
L 217.017901 70.426195 
L 221.961309 66.566596 
L 227.024557 62.894722 
L 232.207645 59.409598 
L 237.540533 56.091431 
L 243.023222 52.941693 
L 248.685671 49.945468 
L 254.52788 47.105689 
L 260.579809 44.411105 
L 266.871419 41.85363 
L 273.432669 39.427816 
L 279.784199 37.308643 
L 281.701642 36.859072 
L 283.049844 36.763511 
L 284.278206 36.900242 
L 285.476608 37.26381 
L 286.70497 37.875881 
L 288.023212 38.789613 
L 289.491254 40.090168 
L 291.169017 41.889543 
L 293.14638 44.355182 
L 295.573144 47.757639 
L 298.808829 52.705106 
L 304.680998 62.172435 
L 311.96129 73.780147 
L 317.024538 81.428566 
L 321.728265 88.135448 
L 326.282192 94.246509 
L 330.806159 99.948674 
L 335.330126 105.296028 
L 339.884053 110.337489 
L 344.4979 115.115347 
L 349.171668 119.636991 
L 349.740909 120.166803 
L 349.740909 120.166803 
" clip-path="url(#pdb586975d3)" style="fill: none; stroke: #d4dd80; stroke-linecap: square"/>
   </g>
   <g id="line2d_34">
    <path d="M 50.1704 182.992323 
L 134.747613 182.881496 
L 136.934696 182.599517 
L 138.822179 182.134608 
L 140.649742 181.45556 
L 142.507265 180.526657 
L 144.484628 179.283321 
L 146.641751 177.654616 
L 149.038555 175.557379 
L 151.794879 172.841174 
L 155.120444 169.237988 
L 159.434691 164.212725 
L 166.415382 155.687628 
L 177.77024 141.855219 
L 184.48129 134.05039 
L 190.65306 127.20993 
L 196.615109 120.930619 
L 202.517239 115.035891 
L 208.419368 109.455372 
L 214.351457 104.15267 
L 220.343466 99.094801 
L 226.395396 94.276077 
L 232.567165 89.646107 
L 238.828815 85.225758 
L 245.240265 80.97212 
L 251.771556 76.905528 
L 258.452646 73.006912 
L 265.313497 69.261004 
L 272.354108 65.670708 
L 279.574479 62.238031 
L 284.068486 60.29983 
L 286.31549 59.567497 
L 288.202972 59.181271 
L 289.970615 59.046287 
L 291.708298 59.138379 
L 293.475941 59.456499 
L 295.333464 60.019127 
L 297.340787 60.863837 
L 299.55783 62.044117 
L 302.074474 63.644452 
L 305.010559 65.785825 
L 308.575804 68.673121 
L 313.339452 72.837818 
L 322.267546 81.005709 
L 331.914681 89.715254 
L 338.985252 95.796855 
L 345.576462 101.174936 
L 349.740909 104.420255 
L 349.740909 104.420255 
" clip-path="url(#pdb586975d3)" style="fill: none; stroke: #ff0000; stroke-linecap: square"/>
   </g>
   <g id="patch_3">
    <path d="M 35.191875 191.363386 
L 35.191875 7.2 
" style="fill: none; stroke: #000000; stroke-width: 0.8; stroke-linejoin: miter; stroke-linecap: square"/>
   </g>
   <g id="patch_4">
    <path d="M 364.719434 191.363386 
L 364.719434 7.2 
" style="fill: none; stroke: #000000; stroke-width: 0.8; stroke-linejoin: miter; stroke-linecap: square"/>
   </g>
   <g id="patch_5">
    <path d="M 35.191875 191.363386 
L 364.719434 191.363386 
" style="fill: none; stroke: #000000; stroke-width: 0.8; stroke-linejoin: miter; stroke-linecap: square"/>
   </g>
   <g id="patch_6">
    <path d="M 35.191875 7.2 
L 364.719434 7.2 
" style="fill: none; stroke: #000000; stroke-width: 0.8; stroke-linejoin: miter; stroke-linecap: square"/>
   </g>
   <g id="legend_1">
    <g id="patch_7">
     <path d="M 42.191875 75.2 
L 124.435625 75.2 
Q 126.435625 75.2 126.435625 73.2 
L 126.435625 14.2 
Q 126.435625 12.2 124.435625 12.2 
L 42.191875 12.2 
Q 40.191875 12.2 40.191875 14.2 
L 40.191875 73.2 
Q 40.191875 75.2 42.191875 75.2 
z
" style="fill: #ffffff; opacity: 0.8; stroke: #cccccc; stroke-linejoin: miter"/>
    </g>
    <g id="line2d_35">
     <path d="M 44.191875 20.2 
L 54.191875 20.2 
L 64.191875 20.2 
" style="fill: none; stroke: #8000ff; stroke-linecap: square"/>
    </g>
    <g id="text_18">
     <text style="font-size: 10px; font-family: 'cmss10', sans-serif; text-anchor: start" x="72.191875" y="23.7" transform="rotate(-0 72.191875 23.7)">v=0 m/s</text>
    </g>
    <g id="line2d_36">
     <path d="M 44.191875 35.2 
L 54.191875 35.2 
L 64.191875 35.2 
" style="fill: none; stroke: #2adddd; stroke-linecap: square"/>
    </g>
    <g id="text_19">
     <text style="font-size: 10px; font-family: 'cmss10', sans-serif; text-anchor: start" x="72.191875" y="38.7" transform="rotate(-0 72.191875 38.7)">v=30 m/s</text>
    </g>
    <g id="line2d_37">
     <path d="M 44.191875 50.2 
L 54.191875 50.2 
L 64.191875 50.2 
" style="fill: none; stroke: #d4dd80; stroke-linecap: square"/>
    </g>
    <g id="text_20">
     <text style="font-size: 10px; font-family: 'cmss10', sans-serif; text-anchor: start" x="72.191875" y="53.7" transform="rotate(-0 72.191875 53.7)">v=66.6 m/s</text>
    </g>
    <g id="line2d_38">
     <path d="M 44.191875 65.2 
L 54.191875 65.2 
L 64.191875 65.2 
" style="fill: none; stroke: #ff0000; stroke-linecap: square"/>
    </g>
    <g id="text_21">
     <text style="font-size: 10px; font-family: 'cmss10', sans-serif; text-anchor: start" x="72.191875" y="68.7" transform="rotate(-0 72.191875 68.7)">v=100 m/s</text>
    </g>
   </g>
  </g>
 </g>
 <defs>
  <clipPath id="pdb586975d3">
   <rect x="35.191875" y="7.2" width="329.527559" height="184.163386"/>
  </clipPath>
 </defs>
</svg>
